<svg xmlns="http://www.w3.org/2000/svg" viewBox="0 0 1122 1122"><defs><style>.a{isolation:isolate}.b{fill:#fff}.an,.c{opacity:.31}.ap,.c,.k,.l{mix-blend-mode:multiply}.d,.l{fill:#2f2f2f}.e{fill:#873a3a}.f{fill:#662d2d}.g{fill:#292929}.h{fill:#2d2d2d}.i{fill:#4f4f4f}.j,.k{fill:#d1d1d1}.l{opacity:.27}.m{opacity:.18}.n{fill:#9db4c7}.o{fill:#3d3d3d}.p{fill:#c6c6c6}.q{fill:#7f3434}.r{opacity:.37}.ao,.s{fill:#efefef}.t{fill:#434551}.u{fill:#b52c2c}.v{fill:#ec2c47}.w{fill:#ebebeb}.x{fill:#cfcfcf}.y{fill:#c9c9c9}.z{fill:#767884}.aa{fill:#ddd}.ab{fill:#994141}.ac{fill:#871818}.ad{fill:#ce1130}.ae{fill:#aeaeae}.af{fill:#b3b3b3}.ag{fill:#9e9e9e}.ah{fill:#a7a7a7}.ai{fill:#1f222d}.aj{fill:#2b2f3e}.ak{fill:#262b38}.al{fill:#2f3344}.am{fill:#2b303f}.an{fill:#b3b9ce}.ao{opacity:.19}.ap{opacity:.32}.aq{fill:#191a22}.ar{opacity:.53}.as{fill:#d6aaad}.at{fill:#303030}.au{fill:#3f3f3f}.av{fill:#934742}.aw{fill:#d9d9d9}.ax{fill:#bfbfbf}.ay{fill:#e9e9e9}.az{fill:#a8a8a8}</style></defs><title>red3_1</title><g class="a"><rect width="1122" height="1122" class="b"/><g class="c"><polygon points="1004.348 680.248 722.328 508.816 110.651 857.116 375.387 1007.034 435.644 971.779 536.857 991.385 693.261 905.082 693.458 862.447 1004.348 680.248" class="d"/></g><path d="M603.2484,541.6592,414.1073,647.5295l-.4647-245.8468L253.2289,494.2976,189.3038,691.2962l-54.2289,31.3089L121.1766,832.7947,603.5293,558.8153ZM209.5369,690.2471,262.3825,509.266l136.1897-76.3993.3384,148.0455Z" class="e"/><polygon points="353.231 966.79 137.768 811.454 423.289 650.366 645.804 797.834 353.231 966.79" class="f"/><g class="a"><path d="M506.1657,876.119c.2837-.1017.5711-.2177.8528-.3116a35.70544,35.70544,0,0,1,3.5048-.981c.2694-.0601.529-.0915.7961-.1441.884-.1737,1.7561-.3108,2.6123-.402.4382-.0466.8678-.0708,1.298-.096q1.014-.0597,1.9974-.0401.82005.0153,1.6167.0856c.5246.0455,1.0382.1144,1.5475.1943a21.15974,21.15974,0,0,1,2.5449.5683c.3825.1094.774.2,1.1459.3303a19.56649,19.56649,0,0,1,3.3688,1.5121l.0099.0046-.0021-.001.0016.0005-30.032-17.4527a19.58328,19.58328,0,0,0-3.3803-1.517c-.1144-.0401-.2135-.1095-.329-.1477-.2591-.0856-.5493-.1062-.8133-.1816a21.08605,21.08605,0,0,0-2.547-.5688c-.2267-.0356-.4312-.1188-.6608-.1474-.2871-.0359-.5951-.0216-.8866-.0469-.5322-.046-1.0697-.0754-1.6167-.0855-.2876-.0055-.5597-.0497-.8512-.045-.3738.006-.7662.0627-1.1462.085-.4307.0255-.8596.0494-1.2981.096-.2234.0239-.4366.0198-.6619.0491-.6385.0833-1.2967.2245-1.9503.353-.2671.0525-.5267.0837-.7961.1441-.0757.0169-.148.0231-.224.0405q-1.434.33045-2.911.8052c-.1215.0391-.2471.0942-.3688.1348-.283.0944-.5712.2106-.8565.3131-.5607.2013-1.117.3839-1.6856.6161-.387.1582-.7833.3571-1.1737.5298-.3493.1545-.6973.3074-1.0494.4736-.2487.1176-.4921.2117-.742.335q-1.4841.7326-2.9959,1.605l30.0325,17.4529c1.2622-.7287,2.5054-1.3576,3.7384-1.9402.3509-.1656.6989-.3186,1.0474-.4728Q504.7503,876.62585,506.1657,876.119Z" class="g"/><path d="M466.2964,973.3103a20.69391,20.69391,0,0,1-1.6032-1.6208c-.2962-.3451-.5581-.7363-.8367-1.1056-.4291-.5686-.8559-1.1394-1.2421-1.7641-.2663-.4307-.5027-.8989-.748-1.3558-.3417-.637-.6762-1.2822-.9758-1.9694-.2024-.464-.3805-.955-.5631-1.4416q-.4974-1.32645-.8939-2.7621c-.1568-.569-.3149-1.1362-.4471-1.7305-.1313-.5917-.2434-1.2024-.35-1.8188-.1342-.7766-.2544-1.5659-.3478-2.3813-.0582-.5079-.1118-1.0203-.1537-1.543-.1017-1.2661-.1823-2.5514-.1862-3.9031-.0044-1.5362.0656-3.0952.1873-4.6663.0242-.3121.0658-.6279.0946-.941q.1659-1.7859.4339-3.5925c.0658-.4429.1331-.8856.208-1.33q.3165-1.8792.7384-3.7715c.0619-.2777.1103-.5537.1753-.8317q.5415-2.3118,1.2351-4.6297c.1537-.516.3353-1.0302.4994-1.5456.3376-1.0601.684-2.1197,1.0653-3.1759.3264-.9048.6897-1.8039,1.0473-2.704.3061-.7704.6026-1.5423.9306-2.3083q1.27875-2.9856,2.7623-5.91c.2135-.4182.4517-.825.6715-1.2403.7545-1.4271,1.5363-2.8409,2.3602-4.2313.3647-.6153.7462-1.2193,1.1236-1.8263q1.11735-1.7961,2.3059-3.5386c.4101-.6003.8208-1.1995,1.2431-1.7891.876-1.2224,1.7837-2.4125,2.7096-3.5832.3591-.4541.705-.9225,1.0712-1.3682,1.2994-1.5816,2.638-3.1153,4.0204-4.5795.2171-.2299.447-.4383.666-.6651q1.82535-1.8909,3.7343-3.6278c.602-.5475,1.214-1.0731,1.8273-1.5956.6484-.5524,1.2978-1.1028,1.9579-1.6255.7828-.6201,1.5758-1.2112,2.374-1.7876.4458-.3219.8876-.6559,1.3378-.9636,1.2484-.8533,2.5085-1.6681,3.7873-2.4065l-30.0325-17.4529-.0882.0509q-1.63455.9477-3.2369,2.0229c-.1553.1041-.3051.2255-.4599.3314-.4528.3095-.8964.6445-1.3446.9683-.5545.4005-1.117.7768-1.6645,1.1987-.2393.1844-.4673.3971-.7051.5854-.66.523-1.3074,1.0718-1.956,1.624-.4214.3589-.8562.6855-1.2723,1.0564-.1909.1701-.3673.3685-.5571.5412q-1.90455,1.7322-3.7265,3.6201c-.1844.1909-.3828.3563-.5656.5493-.0377.0398-.0721.085-.1098.1251-1.3821,1.464-2.7191,2.9959-4.0182,4.5769-.3678.4476-.714.9168-1.0747,1.3727-.9243,1.169-1.8294,2.3555-2.704,3.5761-.4242.5922-.8349,1.1914-1.2469,1.7945q-1.1895,1.7415-2.3045,3.5364c-.3782.6078-.7584,1.2101-1.1236,1.8262-.8244,1.391-1.6055,2.8032-2.3602,4.2313-.1808.3423-.3894.6707-.5662,1.0148-.038.0742-.0674.1514-.1053.2255q-1.4895,2.91855-2.7624,5.9101c-.066.154-.1487.303-.2137.4572-.2588.6133-.4721,1.2349-.7168,1.851-.3576.9007-.7202,1.7982-1.0471,2.7035-.0747.2068-.1662.411-.2393.618-.3019.8562-.5581,1.7155-.8315,2.574-.162.5092-.3409,1.0161-.4928,1.5256-.0333.1116-.0752.2229-.108.3345q-.5949,2.0286-1.0769,4.0565c-.019.0798-.0318.1591-.0505.239-.0666.2835-.1157.5651-.1787.8484-.2026.91-.4086,1.8205-.5748,2.7267-.0634.3456-.1032.6876-.1612,1.0322-.0746.4447-.1423.8869-.2081,1.3301-.0642.433-.1477.8694-.2033,1.3009-.0989.7685-.1597,1.5287-.2305,2.2916-.0291.3131-.0702.6288-.0947.9409-.0091.1189-.0275.2401-.0361.3587q-.13035,1.8156-.1488,3.6018-.00345.35355-.0023.7059.00435,1.5054.0902,2.941c.0198.3331.07.6387.0963.9662.0416.5204.0952,1.0286.1529,1.5342.0453.3945.0645.8125.1194,1.1977.0588.4137.1594.7864.2291,1.1898.1066.6164.2182,1.2255.3498,1.8172.0622.2801.0981.5868.1659.8614.0762.3085.1982.5678.2812.8692q.396,1.436.8934,2.7605c.1056.2819.1727.6065.285.8809.0822.2008.1938.3672.2796.5641.2991.6856.632,1.3285.973,1.9641.246.4588.4829.9275.7503,1.36.3867.6255.8135,1.1961,1.2432,1.7654.278.3685.5394.7581.8348,1.1027a20.70957,20.70957,0,0,0,1.6089,1.6271c.271.2533.5194.5394.8016.7758a19.52119,19.52119,0,0,0,2.7199,1.9244l30.0325,17.4527a19.55937,19.55937,0,0,1-2.7191-1.9236C466.8199,973.8541,466.5692,973.5657,466.2964,973.3103Z" class="h"/><path d="M498.5164,879.6795c-22.4722,12.9741-40.6409,44.4124-40.5676,70.2347.0731,25.8221,18.3604,36.2436,40.8327,23.2694s40.6136-44.4282,40.5405-70.2503C539.2487,877.111,520.9887,866.7051,498.5164,879.6795Z" class="i"/></g><path d="M500.9588,903.7035c-12.2898,7.0953-22.2261,24.2885-22.1859,38.4105.0399,14.1218,10.041,19.8211,22.3308,12.7257s22.2111-24.2972,22.1712-38.419C523.2348,902.2987,513.2486,896.6079,500.9588,903.7035Z" class="j"/><path d="M480.5484,944.9526c-.0403-14.1218,9.8961-31.3152,22.1859-38.4105,7.9106-4.567,14.8491-3.8125,18.8124,1.0538-3.3719-7.3194-11.3223-9.244-20.5879-3.8947-12.2899,7.0956-22.226,24.2887-22.1859,38.4105.0143,5.0297,1.31,8.9666,3.5048,11.6618A21.18407,21.18407,0,0,1,480.5484,944.9526Z" class="k"/><g class="a"><path d="M901.3021,660.2109c.2837-.1017.5711-.2177.8528-.3116a35.68543,35.68543,0,0,1,3.5048-.981c.2695-.0601.529-.0916.7961-.1441.884-.1737,1.7561-.3108,2.6123-.4021.4382-.0465.8679-.0707,1.298-.0959q1.014-.0597,1.9974-.0401.82.01515,1.6167.0856c.5246.0455,1.0382.1144,1.5475.1942a21.19825,21.19825,0,0,1,2.5449.5683c.3826.1095.774.2,1.1459.3303a19.57833,19.57833,0,0,1,3.3688,1.5121l.0099.0047-.0021-.001.0016.0005-30.032-17.4527a19.58026,19.58026,0,0,0-3.3803-1.5171c-.1144-.04-.2135-.1094-.329-.1477-.259-.0855-.5493-.1061-.8133-.1815a21.0887,21.0887,0,0,0-2.5469-.5688c-.2268-.0356-.4313-.1189-.6609-.1475-.2871-.0359-.5951-.0216-.8866-.0468-.5321-.046-1.0697-.0754-1.6167-.0856-.2876-.0054-.5597-.0496-.8512-.0449-.3738.0059-.7662.0626-1.1462.085-.4307.0255-.8596.0494-1.2981.096-.2234.0239-.4366.0197-.6619.0491-.6385.0832-1.2967.2245-1.9503.353-.2671.0525-.5267.0837-.7961.144-.0757.0169-.148.0232-.2239.0406q-1.43415.33045-2.9111.8052c-.1215.039-.2471.0942-.3688.1347-.283.0944-.5712.2107-.8565.3132-.5607.2013-1.117.3839-1.6855.6161-.387.1581-.7834.3571-1.1738.5298-.3493.1545-.6973.3074-1.0494.4736-.2486.1176-.4921.2117-.742.335q-1.4841.7326-2.9959,1.6049l30.0325,17.453c1.2622-.7288,2.5054-1.3576,3.7384-1.9402.3509-.1657.6989-.3186,1.0474-.4728Q899.8867,660.71775,901.3021,660.2109Z" class="g"/><path d="M861.4328,757.4022a20.71127,20.71127,0,0,1-1.6032-1.6208c-.2962-.3452-.5581-.7363-.8366-1.1056-.4292-.5686-.856-1.1395-1.2422-1.7642-.2663-.4307-.5027-.8988-.748-1.3558-.3417-.6369-.6762-1.2822-.9758-1.9693-.2023-.464-.3805-.955-.5631-1.4416q-.4974-1.32645-.8939-2.7621c-.1568-.569-.3149-1.1363-.447-1.7306-.1314-.5916-.2435-1.2023-.3501-1.8187-.1342-.7766-.2544-1.5659-.3477-2.3813-.0583-.5079-.1119-1.0203-.1538-1.5431-.1016-1.266-.1823-2.5513-.1862-3.903-.0044-1.5363.0656-3.0952.1873-4.6663.0242-.3121.0658-.6279.0947-.941q.16575-1.78605.4338-3.5925c.0658-.4429.1331-.8856.208-1.3301q.3165-1.8792.7384-3.7714c.0619-.2778.1103-.5537.1753-.8317q.5415-2.312,1.2351-4.6297c.1537-.516.3353-1.0302.4994-1.5457.3376-1.0601.684-2.1196,1.0653-3.1758.3264-.9048.6897-1.8039,1.0473-2.7041.3061-.7703.6026-1.5422.9306-2.3082q1.27875-2.9856,2.7623-5.9101c.2135-.4182.4518-.8249.6715-1.2403.7545-1.427,1.5363-2.8408,2.3603-4.2312.3646-.6154.7461-1.2193,1.1235-1.8263q1.11735-1.7961,2.3059-3.5387c.4101-.6002.8208-1.1995,1.2432-1.7891.8759-1.2223,1.7836-2.4125,2.7095-3.5831.3591-.4541.7051-.9225,1.0712-1.3683,1.2994-1.5815,2.638-3.1152,4.0204-4.5795.2171-.2299.447-.4382.666-.665q1.8255-1.8909,3.7343-3.6279c.6021-.5474,1.214-1.073,1.8273-1.5955.6484-.5525,1.2978-1.1028,1.9579-1.6255.7828-.6201,1.5758-1.2112,2.374-1.7876.4458-.322.8876-.6559,1.3378-.9636,1.2484-.8533,2.5085-1.6681,3.7873-2.4065l-30.0325-17.453-.0882.051q-1.63455.94755-3.2369,2.0229c-.1553.1041-.3051.2255-.4598.3314-.4528.3095-.8965.6444-1.3447.9682-.5544.4006-1.117.7769-1.6645,1.1988-.2392.1843-.4673.3971-.705.5854-.6601.523-1.3075,1.0718-1.9561,1.6239-.4213.3589-.8562.6856-1.2723,1.0565-.1909.1701-.3673.3685-.5571.5412q-1.90455,1.7322-3.7265,3.6201c-.1843.1909-.3828.3563-.5656.5493-.0377.0398-.0721.085-.1098.1251-1.382,1.4639-2.7191,2.9958-4.0182,4.5769-.3678.4476-.7139.9167-1.0747,1.3727-.9243,1.169-1.8294,2.3555-2.704,3.5761-.4242.5922-.8349,1.1914-1.2469,1.7945q-1.18935,1.7415-2.3045,3.5363c-.3782.6078-.7584,1.2102-1.1236,1.8263-.8244,1.3909-1.6055,2.8032-2.3602,4.2313-.1808.3422-.3893.6707-.5662,1.0148-.038.0741-.0674.1514-.1053.2255q-1.4895,2.91855-2.7624,5.9101c-.066.1539-.1487.303-.2137.4572-.2588.6132-.4721,1.2348-.7168,1.851-.3576.9006-.7202,1.7982-1.0471,2.7035-.0746.2068-.1662.4109-.2393.618-.3019.8561-.5581,1.7154-.8315,2.574-.162.5092-.3409,1.0161-.4928,1.5256-.0333.1116-.0752.2229-.1079.3345q-.59505,2.0286-1.077,4.0564c-.019.0799-.0318.1592-.0505.2391-.0666.2834-.1157.5651-.1787.8483-.2026.9101-.4085,1.8206-.5747,2.7267-.0635.3457-.1033.6877-.1613,1.0323-.0746.4447-.1423.8869-.2081,1.33-.0642.4331-.1477.8695-.2033,1.301-.0989.7685-.1597,1.5287-.2305,2.2915-.0291.3132-.0702.6289-.0946.941-.0091.1189-.0276.2401-.0362.3586q-.13035,1.81575-.1488,3.6019-.00345.3534-.0023.7059.00435,1.5054.0903,2.941c.0197.3331.0699.6387.0962.9661.0416.5205.0952,1.0287.1529,1.5343.0453.3945.0645.8125.1194,1.1976.0588.4138.1594.7865.2291,1.1899.1066.6164.2182,1.2255.3498,1.8172.0622.2801.0981.5867.166.8614.0762.3084.1981.5677.2811.8692q.396,1.436.8934,2.7605c.1056.2819.1727.6065.285.8808.0822.2008.1938.3673.2796.5642.2991.6855.632,1.3285.973,1.9641.246.4588.4829.9274.7503,1.3599.3867.6255.8135,1.1962,1.2432,1.7655.278.3685.5394.7581.8348,1.1027a20.727,20.727,0,0,0,1.6089,1.6271c.271.2533.5194.5394.8016.7758a19.51212,19.51212,0,0,0,2.7199,1.9243l30.0325,17.4527a19.55026,19.55026,0,0,1-2.7191-1.9235C861.9563,757.946,861.7056,757.6576,861.4328,757.4022Z" class="h"/><path d="M893.6528,663.7714c-22.4722,12.9741-40.6409,44.4124-40.5676,70.2347.0731,25.8221,18.3604,36.2435,40.8327,23.2694,22.4722-12.9744,40.6136-44.4282,40.5405-70.2503C934.3851,661.2028,916.1251,650.797,893.6528,663.7714Z" class="i"/></g><path d="M896.0952,687.7953c-12.2898,7.0954-22.226,24.2886-22.1859,38.4105.0399,14.1218,10.041,19.8212,22.3308,12.7258s22.2112-24.2973,22.1712-38.4191S908.385,680.6998,896.0952,687.7953Z" class="j"/><path d="M875.6848,729.0445c-.0403-14.1219,9.8961-31.3153,22.1859-38.4105,7.9106-4.567,14.8491-3.8125,18.8124,1.0538-3.3719-7.3194-11.3223-9.244-20.5879-3.8947-12.2899,7.0955-22.226,24.2887-22.1859,38.4105.0143,5.0297,1.31,8.9666,3.5048,11.6618A21.18407,21.18407,0,0,1,875.6848,729.0445Z" class="k"/><path d="M709.5456,718.2189l19.1759,11.1186,8.2703-4.791-19.1713-11.116a9.08975,9.08975,0,0,0-8.2459.0081C707.289,714.7613,707.2722,716.9006,709.5456,718.2189Z" class="l"/><path d="M644.5601,755.8231a9.07728,9.07728,0,0,0-8.2458.0082l-5.0548,2.9249c-2.2857,1.3227-2.2959,3.4581-.0224,4.7764l19.2185,11.1434,13.3157-7.7137Z" class="l"/><polygon points="736.992 724.546 728.721 729.337 746.742 739.786 755.034 735.008 736.992 724.546" class="l"/><path d="M854.6288,638.4816l16.349,8.4485,13.0492-7.5592-16.0753-8.5989a9.07769,9.07769,0,0,0-8.2457.0082l-5.0551,2.9251C852.3652,635.0279,852.3553,637.1633,854.6288,638.4816Z" class="l"/><path d="M783.5414,675.4007l19.1355,11.0953,8.2635-4.787-19.1309-11.0926a9.077,9.077,0,0,0-8.2455.0081C781.2783,671.9471,781.268,674.0825,783.5414,675.4007Z" class="l"/><path d="M673.3687,524.8882a9.25427,9.25427,0,0,0-8.406.0082l-5.1532,2.9818c-2.3302,1.3482-2.3403,3.5251-.0227,4.8689l59.4087,34.4384-65.1272,37.6843-56.7082-32.8826a9.25313,9.25313,0,0,0-8.4056.0081c-2.3301,1.3483-2.3407,3.5251-.0231,4.869l56.7082,32.8826-66.9979,38.7666-56.708-32.8825a9.26643,9.26643,0,0,0-8.4061.0081c-2.3301,1.3482-2.3471,3.5292-.0296,4.873l56.708,32.8826-37.7154,21.8232,10.338,5.9554,37.9181-21.9404,36.0498,21.4591-37.319,21.5938,16.3632,9.4265,37.5086-21.7035,8.4357-4.8812,66.9978-38.7667,8.4286-4.877,65.1272-37.6844,7.8073-4.5175c3.1945-1.8485,3.2019-4.8333.0311-6.6719l-10.5662-6.1269-35.4139-20.5349-11.4195-6.6218Zm-16.4862,90.2904,36.5293,21.1818-66.9977,38.7667-36.5294-21.1818Zm72.6172-42.0181,36.5291,21.1816-65.1271,37.6844-36.5293-21.1817Z" class="l"/><g class="m"><polygon points="262.382 508.089 398.572 431.69 398.91 560.88 209.537 670.215 262.382 508.089" class="n"/></g><path d="M409.1156,416.3795c-1.6065,8.0238-3.1329,245.0807-3.1329,245.0807l227.6899,130.009,4.595-252.9953Z" class="o"/><polygon points="656.547 451.068 405.791 305.659 406.288 563.136 657.091 702.512 656.547 451.068" class="p"/><polygon points="406.334 555.685 406.558 658.553 637.777 792.632 638.367 689.398 406.334 555.685" class="p"/><polygon points="657.088 702.278 638.367 691.489 637.777 792.632 657.314 805.195 657.088 702.278" class="q"/><g class="r"><polygon points="398.572 431.69 262.383 508.089 239.553 578.129 398.714 485.676 398.572 431.69" class="s"/></g><polygon points="493.421 642.354 629.611 565.955 629.949 695.145 440.576 804.48 493.421 642.354" class="t"/><polygon points="352.215 967.06 121.177 832.795 135.075 721.428 366.114 855.694 352.215 967.06" class="u"/><polygon points="366.114 855.694 135.075 721.428 189.304 690.119 420.342 824.384 366.114 855.694" class="v"/><polygon points="484.267 627.386 253.229 493.121 413.643 400.506 644.681 534.771 484.267 627.386" class="s"/><polygon points="266.548 523.294 211.795 682.486 407.086 796.424 462.894 637.847 266.548 523.294" class="t"/><g class="a"><path d="M592.5376,741.4858a2.69969,2.69969,0,0,1-.3564-.2482l-.0027-.0023a2.7893,2.7893,0,0,1-.3174-.3069l-.0023-.0025a3.0799,3.0799,0,0,1-.2754-.3639l-.0033-.0045a3.58137,3.58137,0,0,1-.2312-.4192l-.0028-.006a4.06837,4.06837,0,0,1-.1852-.4742l-.0014-.0045a4.818,4.818,0,0,1-.1368-.5278l-.0009-.0042a5.66327,5.66327,0,0,1-.0828-.5686l-.0033-.0319c-.0181-.1983-.0288-.4039-.0293-.618l-6.1751-3.5885c0,.056.0009.1114.0023.1663.0032.1193.0088.2361.0177.3503.0028.0343.0065.0677.0097.1015l.0028.0316c.0024.0224.0038.0453.0061.0675.0074.066.0153.131.0246.1952.0079.0546.0163.1085.0256.1618.0079.0456.0163.0907.0247.1353l.0023.0091.0005.0038c.0084.0403.0167.0801.0256.1194.0093.0422.0195.0838.0297.1251.0089.0344.0177.0686.027.1023s.0191.0673.0293.1005c.008.0271.0163.054.0252.0808l.0009.003.0047.0146c.0102.0324.0214.0646.0325.0964.0098.0274.0196.0545.0298.0814.0098.0269.0205.0535.0307.08.0107.0264.0214.0525.0326.0784.0107.0259.0218.0515.0335.0769l.0218.0479.0028.0061.0098.0203c.0102.0224.0214.0446.0321.0666l.0335.0654.0349.0641c.0116.0212.0233.0421.0354.0629s.0242.0413.0367.0616l.0354.0572.0139.0213.0028.0041.0191.0298.0368.054.0377.053c.0125.0174.0255.0347.0386.0518.0125.0171.026.034.0391.0507l.0381.0475c.013.0157.0261.0311.0396.0464l.026.0303.0023.0024.0112.0128.0405.0444.0414.0433.0419.0423.0418.0405.0429.0394c.0144.0129.0283.0257.0432.0384.0144.0126.0289.0251.0438.0373l.0107.0088.0037.003.0302.0246.0452.0353c.0153.0116.0302.0231.046.0344l.0465.0332.047.0323.048.0312.0483.0302.0438.026.0009.0007Z" class="w"/><path d="M636.1944,711.756a12.28275,12.28275,0,0,1-5.5728,9.6526l-34.0998,19.6875c-3.0907,1.7844-5.6054.3514-5.6155-3.193Z" class="x"/><polygon points="590.906 737.903 584.731 734.315 630.019 708.168 636.194 711.756 590.906 737.903" class="y"/></g><path d="M439.5715,704.1182l23.3225-66.2714L266.5476,523.2937l-23.3147,67.7865C284.2318,616.08,399.1315,681.242,439.5715,704.1182Z" class="z"/><polygon points="629.611 565.955 493.421 642.354 470.591 712.394 629.752 619.941 629.611 565.955" class="z"/><path d="M484.2675,627.4312,420.7839,823.0695,644.9885,695.2479l-.3073-160.4316Zm-43.692,177.0943,53.1177-161.998,135.9176-76.2467.3384,128.9098Z" class="aa"/><path d="M353.4486,966.9743,460.3768,905.222c5.9065-14.728,21.194-31.8895,33.2985-39.8731L356.102,945.7123Z" class="ab"/><path d="M644.9885,695.2479,420.7839,823.0695l-.4415,1.3604-54.2289,31.3089-13.962,111.8218,102.8283-74.3077c.8679-.5726,34.4713-25.1325,35.3552-25.6429.8368-.4831,1.5925-1.0792,2.4153-1.4902l152.3956-67.8842Z" class="ac"/><path d="M645.1459,777.6326,492.7183,866.1089c12.1639-6.0764,22.6998-4.3317,28.6873,3.567L645.1832,798.193V777.6537l-.0372.0216Z" class="ad"/><g class="a"><path d="M428.2161,812.3563l8.0776-4.6942q-.0639-.03675-.1273-.0705-.09165-.04815-.1816-.09-.10425-.04785-.2064-.0867-.1347-.051-.2651-.0863a2.053,2.053,0,0,0-.27-.0268,2.017,2.017,0,0,0-.2481-.0247,1.61309,1.61309,0,0,0-.8611.1749l-8.0777,4.694a1.61945,1.61945,0,0,1,.8609-.1746,2.05679,2.05679,0,0,1,.2481.0247A2.88643,2.88643,0,0,1,428.2161,812.3563Z" class="ae"/><polygon points="436.294 807.662 428.216 812.356 434.338 815.891 442.416 811.197 436.294 807.662" class="af"/><path d="M434.3383,815.891l-6.1222-3.5347c-1.6586-.9576-3.0289-.2045-3.0343,1.7013a6.64274,6.64274,0,0,0,3.0147,5.2217l6.1222,3.5347c1.6831.9716,3.029.2047,3.0343-1.7292A6.59217,6.59217,0,0,0,434.3383,815.891Z" class="ag"/><path d="M445.4274,816.2095c-.0023-.054-.0053-.1084-.0098-.1632-.0037-.0506-.0086-.1014-.0142-.1525q-.00765-.0696-.0175-.1399c-.0058-.0408-.0119-.0818-.0186-.1231-.0068-.0408-.014-.0816-.022-.1226-.006-.032-.0123-.0639-.0188-.0961-.0068-.0322-.0138-.0641-.021-.0963s-.015-.0644-.0226-.0965l-.0215-.0849c-.0072-.028-.0149-.056-.0226-.084s-.0156-.0559-.0238-.0839l-.0163-.0543-.0003-.001-.0091-.0305c-.009-.0296-.0186-.0595-.0282-.0893-.0095-.0296-.0196-.0595-.0296-.0891-.01-.0298-.0205-.0595-.031-.0891q-.0255-.072-.0529-.1436c-.0184-.048-.0373-.0961-.0569-.1439q-.06585-.1608-.1399-.3197-.0312-.06645-.0639-.1326t-.0665-.1315l-.0424-.0805c-.0133-.0249-.0266-.0497-.0403-.0744l-.0411-.0737-.0417-.0729-.0371-.063-.0375-.0627-.0383-.0623-.0389-.062-.0408-.0637-.0425-.0645-.0431-.0642-.0438-.0634-.0478-.0681-.0544-.0751-.0552-.0743c-.0187-.0248-.0373-.0492-.0562-.0735-.0231-.0298-.0464-.0595-.0702-.0891q-.036-.045-.0728-.0895c-.0251-.0301-.0506-.0602-.0762-.09q-.04515-.0528-.0916-.1045c-.0308-.0342-.0621-.0683-.0933-.1019l-.0159-.0165-.0032-.0033c-.0287-.0301-.0574-.0606-.0863-.09q-.0543-.0552-.1096-.1089-.05835-.05595-.1173-.1103-.06015-.0549-.121-.1077-.0636-.0549-.128-.1073-.0651-.0528-.1313-.1028-.0696-.0531-.1404-.1031c-.0485-.034-.0972-.0673-.1464-.0993q-.0783-.0507-.1574-.0977l-.0424-.0249-8.0777,4.6942a5.27458,5.27458,0,0,1,1.1792.9514l.0049.0049a7.1311,7.1311,0,0,1,1.5984,2.7582l.0002.0009a5.11092,5.11092,0,0,1,.232,1.4784,2.91451,2.91451,0,0,1-.2366,1.216l-.0003.0007a1.59851,1.59851,0,0,1-.6403.7312l-.0004.0002.0004-.0002-.0004.0005,8.0776-4.6943q.04065-.0234.0791-.0497a1.43132,1.43132,0,0,0,.1189-.089c.0347-.0292.0685-.06.1009-.0926.0294-.0294.0576-.0602.0849-.0923q.03915-.0462.0756-.0966c.0233-.0319.0457-.0653.0674-.0998q.03075-.04935.0592-.1019c.0186-.0345.0366-.0702.0536-.107l.0007-.0019.0007-.0016q.02415-.05145.0457-.1061.02235-.05625.0422-.1154.02-.0588.0371-.1203c.0117-.0413.0224-.0835.0322-.1269.01-.0436.0191-.0881.0273-.1338.0083-.0464.0156-.094.0221-.1425q.00975-.0741.0163-.1511.007-.0798.0105-.1623.00315-.07755.0035-.1576v-.0124Q445.4309,816.29455,445.4274,816.2095Z" class="ah"/></g><path d="M479.0991,815.2331c-.0594-.4998-.1303-.988-.23-1.4903l-.2291-1.0477-.211-.7901-.0455-.1452c-.0123-.0436-.0262-.0952-.0375-.1359l-.1219-.3707-.1129-.3591c.0064.02.0071.0371.0135.0571l-.1087-.3304c-.0074-.0209-.0187-.0477-.0268-.0697-.0936-.2532-.1846-.5007-.2884-.7524-.0197-.051-.0417-.109-.0597-.1558l-.2598-.594c-.0542-.1249-.1035-.2404-.1613-.3665-.1281-.2736-.3065-.6234-.4378-.8902l-.4863-.8867c-.1516-.2629-.3674-.6052-.5252-.865l-.5637-.8421-.0116-.0158-.01-.0148.0058.0093c-.1781-.252-.4194-.5694-.5995-.8134l-.6501-.8017c-.2126-.2498-.5101-.5711-.7289-.8154l-.7156-.7243.1068.1026c-.0426-.0413-.0991-.0962-.1413-.1375-.0103-.01-.0245-.0219-.0352-.0319-.0448-.0432-.0897-.0871-.1287-.1236v-.0003c-.0304-.0281-.0575-.0448-.0878-.0726-.0197-.0181-.0377-.0348-.0581-.0529-.0764-.07-.1522-.14-.2281-.2075-.1193-.1068-.2387-.2171-.341-.3097l-.8663-.7024c-.0836-.0636-.1888-.1339-.2849-.2033-.0623-.0458-.1317-.0942-.1942-.1387-.2088-.1478-.4166-.2981-.5957-.4249-.2984-.1849-.6959-.4311-.9943-.616l-.0004-.0003-.0013-.0006.002.0009-.7853-.4533-1.3003-.7505-1.2977-.7495-1.2945-.7472q-2.23395-1.28985-4.4683-2.5799l-.6437-.3717-1.066-.6153q-1.657-.95685-3.3149-1.9139l-.5598-.3233-.2936-.1694q-1.00755-.5817-2.0152-1.1635l-.0691-.04-.1174-.0677q-1.542-.8901-3.0845-1.781l-.2175-.1256-.3294-.19q-1.64265-.94815-3.2852-1.8968-.33735-.19455-.665-.3624-.36435-.1863-.7162-.3391c-.0913-.0393-.1788-.0693-.2685-.1055-.0445-.0177-.0884-.0351-.1323-.0522-.0861-.0333-.1745-.072-.2594-.102q-.3228-.11325-.6327-.1949-.31365-.08265-.6137-.1316h-.0006l-.0065-.0007a5.23543,5.23543,0,0,0-.6333-.0658,4.22128,4.22128,0,0,0-.705.0284c-.009.0013-.0161.0065-.0252.0078-.108.0148-.1981.0687-.3023.0922a3.291,3.291,0,0,0-.7921.242c-.0451.0232-.0897.0474-.1336.0733l-.0006.0003h0l-2.0698,1.2028a3.14083,3.14083,0,0,0-.2813.1842,3.45025,3.45025,0,0,0-.465.513,3.52494,3.52494,0,0,0-.3662.404c-.0219.0332-.0551.0503-.0764.0845a4.78719,4.78719,0,0,0-.3382.6569,6.15089,6.15089,0,0,0-.2284.6363l-.001.0036-.0029.0112c-.0635.2104-.1181.4305-.1655.6608q-.0702.3441-.1178.7163c-.0206.1607-.0319.3317-.0461.5001-.0035.0403-.0084.0794-.0113.1204-.0045.0593-.0126.1142-.0161.1745-.0165.2752-.0239.5608-.0245.8544l-.001-.0136-.0006.2162-.0078,2.7347-.0016.5331-.001.4004q-.01005,3.4371-.0197,6.8749l-.0006.2084-.0016.5576-.0165,5.796q-.00435,1.694-.0093,3.3875l-.001.2971-.0016.5698q-.00435,1.4568-.0081,2.9138s.0478-.0248.0597-.0303c-.011.0052-.0587.0313-.0587.0313l.4046.2336,1.0438.6027,1.0702.6179.6588.3804.5392.311q.72105.4167,1.4428.8331l.2591.1497,1.1528.6656.4259.2459q1.26075.7284,2.5222,1.4561l.6233.3601,1.2235.7062,1.2064.6966q2.9343,1.69395,5.8686,3.3881l.5117.2956.2904.1674q2.44845,1.41375,4.8974,2.8277l.0004.0003.1371.0784,1.0463.5479c.2181.1023.4795.2071.7386.3155.1023.0433.2032.0897.3033.1297.0935.0378.1903.0852.2829.1207l.052.0223,1.0999.3652c.0509.0139.1171.0258.1716.04.1523.0426.2798.0691.424.1046.2481.0609.4907.1187.7301.1639.0636.0138.1371.0325.1962.0455l.1203.0158c.2598.0432.4614.0658.6766.0887l.3285.0429.1881.0142c.142.0094.2739.0084.412.0129l.7898.0161c.1259-.0058.2766-.028.4182-.0396.1487-.011.2984-.0168.4414-.033.1332-.0132.2594-.0287.3865-.0458.1197-.0135.251-.0216.3581-.0342l1.0761-.2358c.4662-.1401,1.0734-.3711,1.5274-.5459.2933-.1504.6843-.3508.9776-.5011l2.0698-1.2028a10.52239,10.52239,0,0,0,2.3021-1.8136l.7243-.836.3381-.4553.4676-.735c.0254-.0396.059-.0858.0832-.1232l.0232-.0445.0255-.04c-.0084.0145-.0132.0187-.0216.0329l.4962-.9493c.1555-.3523.2607-.6069.3533-.845.0252-.0639.0494-.1261.0733-.19.07-.1813.1193-.3672.1819-.5517.0181-.0507.0439-.1104.0607-.1585l.1465-.5546c.0358-.1278.0635-.2246.1065-.3788l.019-.0971.0242-.0916c-.0048.0206-.0142.0445-.019.0655l.0022-.0123c.0549-.2397.0955-.4656.1375-.6998l.0619-.3156c.021-.141.0345-.3097.0532-.472.0071-.0565.0181-.1145.0249-.1707.0661-.5246.1026-1.045.1178-1.5838A17.41827,17.41827,0,0,0,479.0991,815.2331Zm-4.3041,9.1657h0c.0023-.0139.0029-.029.0042-.0442C474.7969,824.3685,474.7976,824.3849,474.795,824.3988Zm-.0219-5.385.0012.0165-.0003-.0029-.0071-.0458h0l.0042.018Zm-.0113-.0542h0c-.0036-.0213-.0117-.0429-.0149-.0639l-.0003-.0025C474.7498,818.9145,474.7582,818.9374,474.7618,818.9596Zm-.7002-3.0222.001.0058-.001-.0052c-.0264-.0887-.0642-.1758-.0916-.2645l-.0003-.0016c.0177.0574.0461.1148.0638.1729Zm-.0264,11.0994c.0071-.0155.0106-.0352.0167-.0523-.0071.0155-.0093.0368-.0167.0523Zm-1.1125-14.1991.0071.0194c-.0162-.0371-.0316-.0749-.0475-.112l.0088.0175C472.902,812.7877,472.9117,812.8126,472.9227,812.8377Zm-17.2936-.5178-.0048.0161c.0116-.0429.0184-.089.03-.1316.01-.0371.0216-.0729.0323-.1094C455.6679,812.1702,455.6491,812.245,455.6291,812.3199Zm-.6866,2.9954c-.0035.0191-.0093.0365-.0129.0555v-.0003c.0042-.0226.011-.0442.0152-.0668Zm-.0303.1494c.0029-.0158.0039-.0326.0068-.0484l.0029-.0132C454.918,815.4234,454.9154,815.4441,454.9122,815.4647Zm1.7371-6.3674c.0091-.0242.0155-.0513.0246-.0752.0148-.0397.028-.0816.0429-.1213l.0122-.0281C456.7019,808.9463,456.6758,809.0221,456.6493,809.0973Zm1.1816-2.7461c.0245-.0496.0445-.1084.069-.1577l.0717-.142c.0177-.0348.0383-.0613.0561-.0958-.0281.06-.0549.1229-.0842.181C457.9064,806.2102,457.8683,806.2803,457.8309,806.3512Zm8.9208-7.7332h-.0009c.0422-.0019.0816.013.1239.0133a.47129.47129,0,0,0-.0713-.0078C466.7856,798.6239,466.7695,798.6174,466.7517,798.618Zm.1923.0207c.0526.0013.1036.0132.1562.0171h-.0007C467.0473,798.6522,466.996,798.6435,466.944,798.6387Zm3.6034,9.8749c.3003.4569.6188.9005.8911,1.3764.0245.0429.0423.0891.0668.1323-.291-.5146-.6376-.9892-.9547-1.4867C470.5483,808.5281,470.5493,808.521,470.5474,808.5136Zm1.749,3.0729v.0003l-.0042-.0084Zm-4.5325-12.8478c.11.0297.2126.0926.3204.1323a3.64071,3.64071,0,0,0-.4624-.1584c.0226.0051.0468.0019.0691.0074Zm-1.0193-.121.0033-.0003.0022.0003h.0003c-.0838.0029-.1726.0355-.2574.0442h-.0007C466.5756,798.6529,466.6627,798.6206,466.7446,798.6177Zm-.8488.1488h-.0004c.0197-.0052.0391-.0055.0584-.0104C465.9345,798.7607,465.9154,798.7613,465.8958,798.7665Zm-.4121.1352c.0833-.0307.1694-.082.2517-.1072.0236-.0071.0458-.0055.0694-.0122a5.0375,5.0375,0,0,0-.8496.3559C465.132,799.0565,465.3092,798.9662,465.4837,798.9017Zm-.5911.2642h.0004c-.0849.0439-.1665.0629-.252.1126C464.7265,799.2288,464.8084,799.2066,464.8926,799.1659Zm-3.9098,2.5712a1.48953,1.48953,0,0,1-.0981.1135c-.0355.0362-.0713.0704-.1074.1033.0277-.0287.0526-.07.0803-.0984.0297-.0303.0591-.06.0888-.0894C460.9583,801.7542,460.9709,801.7487,460.9828,801.7371Zm-1.6264,1.9578c-.0378.0552-.073.1181-.1085.1794.032-.0474.0591-.1084.091-.1552l.01-.0152Zm14.6604,23.3793c-.0113.0242-.0297.04-.0413.0639l.0003-.0007c.0164-.0345.041-.059.0571-.0939v.0004C474.0281,827.0545,474.0219,827.0635,474.0168,827.0742Zm.7317-2.2608c-.0093.0461-.0306.08-.0403.1255.0242-.1103.0461-.221.0674-.3342-.0077.0419-.0048.0938-.0129.1355C474.7579,824.7644,474.7537,824.7895,474.7485,824.8134Z" class="ai"/><g class="a"><path d="M461.8575,802.6092c-.0006.1829-.0006.2804,0,0Z" class="aj"/><path d="M461.079,804.8951c-1.9895-1.1483-1.6717-.965,0,0Z" class="aj"/><path d="M461.8501,805.3404v-.0003c-.2839-.1639-.5369-.3098-.7711-.445C461.3135,805.0306,461.5494,805.1668,461.8501,805.3404Z" class="aj"/><path d="M470.3673,807.366c.011-1.5723,1.0896-2.2031,2.5205-1.3977-4.7651-2.7512-9.5145-5.4931-11.7927-6.8085.2346.1355.4704.2716.7711.4452-.0051,1.8491-.0077,2.6799-.0087,3.0042,0-.0871.0013-.1859.0013-.273-.001.3246-.0036,1.1551-.0087,3.0039,2.4792,1.4312,6.7462,3.895,11.0216,6.3635A5.45694,5.45694,0,0,1,470.3673,807.366Z" class="aj"/><path d="M460.7934,798.9855c-1.3267-.7659-1.5571-.8992,0,0Z" class="aj"/><path d="M461.0951,799.1598c-.1003-.0578-.213-.1233-.3017-.1743C460.8886,799.0404,460.9889,799.0985,461.0951,799.1598Z" class="aj"/><path d="M466.7446,798.6177l.0033-.0003a3.42161,3.42161,0,0,1,.9431.1026l.0729.0187a3.66337,3.66337,0,0,1,.8853.3656l-.0026-.0016.002.0009-.7853-.4533-1.3003-.7505-1.2977-.7495-1.2945-.7472q-2.23395-1.28985-4.4683-2.5799l-.6437-.3717-1.066-.6153q-1.657-.95685-3.3149-1.9139l-.5598-.3233-.2936-.1694q-1.00755-.5817-2.0152-1.1635l-.0691-.04-.1174-.0677q-1.542-.8901-3.0845-1.781l-.2175-.1256-.3294-.19q-1.64265-.94815-3.2852-1.8968-.33735-.19455-.665-.3624-.36435-.1863-.7162-.3391c-.0913-.0393-.1788-.0693-.2685-.1055-.0445-.0177-.0884-.0351-.1323-.0522-.0861-.0333-.1745-.072-.2594-.102q-.3228-.11325-.6327-.1949-.31365-.08265-.6137-.1316h-.0006l-.0065-.0007a5.23543,5.23543,0,0,0-.6333-.0658,4.22128,4.22128,0,0,0-.705.0284c-.009.0013-.0161.0065-.0252.0078-.108.0148-.1981.0687-.3023.0922a3.291,3.291,0,0,0-.7921.242c-.0451.0232-.0897.0474-.1336.0733l-.0006.0003h0l-2.0698,1.2028,26.0221,15.0237,2.0695-1.2028a5.20463,5.20463,0,0,1,.8427-.3768c.0833-.0307.1694-.082.2517-.1072A3.93844,3.93844,0,0,1,466.7446,798.6177Z" class="ak"/><path d="M436.5494,785.4576a3.14083,3.14083,0,0,0-.2813.1842,3.45025,3.45025,0,0,0-.465.513,3.52494,3.52494,0,0,0-.3662.404c-.0219.0332-.0551.0503-.0764.0845a4.78719,4.78719,0,0,0-.3382.6569,6.15089,6.15089,0,0,0-.2284.6363l-.001.0036-.0029.0112c-.0635.2104-.1181.4305-.1655.6608q-.0702.3441-.1178.7163c-.0206.1607-.0319.3317-.0461.5001-.0035.0403-.0084.0794-.0113.1204-.0045.0593-.0126.1142-.0161.1745-.0165.2752-.0239.5608-.0245.8544l-.001-.0136-.0006.2162-.0078,2.7347-.0016.5331-.001.4004q-.01005,3.4371-.0197,6.8749l-.0006.2084-.0016.5576-.0165,5.796q-.00435,1.694-.0093,3.3875l-.001.2971-.0016.5698q-.00435,1.4568-.0081,2.9138s.0478-.0248.0597-.0303c-.011.0052-.0587.0313-.0587.0313l.4046.2336,1.0438.6027,1.0702.6179.6588.3804.5392.311q.72105.4167,1.4428.8331l.2591.1497,1.1528.6656.4259.2459q1.26075.7284,2.5222,1.4561l.6233.3601,1.2235.7062,1.2064.6966q2.9343,1.69395,5.8686,3.3881l.5117.2956.2904.1674q2.44935,1.4142,4.8991,2.8287c-2.205-1.2732-3.7066-5.0494-4.0683-10.2534.0058-.0649.0036-.13.0097-.1949.0419-.4372.1252-.8618.181-1.2954.0961-.7482.1794-1.501.3149-2.2334.2033-1.0979.4523-2.1704.7353-3.2119.0407-.1501.0884-.2927.1304-.4411.269-.945.5617-1.8675.8892-2.7412.0148-.0397.028-.0816.0429-.1213a29.03966,29.03966,0,0,1,1.1831-2.7073l.0717-.142a20.96307,20.96307,0,0,1,1.3673-2.3324l.01-.0152a13.66771,13.66771,0,0,1,1.5087-1.8484c.0297-.0303.0591-.06.0888-.0894a8.15938,8.15938,0,0,1,1.6235-1.2838l.0016-.001Z" class="al"/><path d="M475.0179,821.9928l.0007-.0055-.0007-.0025c-.0003-.1972-.0029-.3953-.01-.5944l-.0109.0026c-.0071-.2003-.0062-.3988-.02-.6011-.0065.0029-.0139.0013-.0204.0042-.0138-.2029-.0096-.401-.0303-.6056-.0068.0029-.0148.001-.0216.0039-.0178-.1807-.021-.3572-.0439-.5391-.0032-.0259-.0016-.0507-.0051-.0765h-.0017c-.0045-.0287-.0087-.0574-.0125-.0865-.0088-.0642-.0236-.1287-.033-.1929-.0093-.0636-.0142-.1252-.0242-.1888-.0041-.028-.0061-.0555-.0103-.0832l-.0071-.0458-.0019-.0223h-.0023c-.0045-.021-.0126-.0426-.0158-.0636-.018-.1084-.0452-.2168-.0645-.3255-.0136-.0755-.0142-.1478-.0284-.2233-.0019-.0106-.001-.0203-.0029-.031l-.0048.002c-.0123-.0639-.0397-.1284-.0526-.1923-.0233-.1165-.0394-.2291-.0649-.3456-.009-.0409-.0048-.0797-.0139-.1206l-.0122.0042c-.0371-.1672-.0736-.3333-.1149-.5008-.0158-.0648-.0213-.1291-.0377-.1939l-.0091.0029c-.0406-.1604-.0884-.3197-.1326-.4804-.0232-.0839-.031-.1672-.0551-.251l-.0155.0016c-.0291-.1017-.0459-.2023-.0762-.304-.0264-.0887-.0642-.1758-.0916-.2645-.0207-.0665-.0274-.1323-.0487-.1988-.0062.0016-.0129-.0022-.0191-.0006-.0745-.2327-.1442-.4643-.2258-.6966-.0158-.0455-.0213-.0913-.0374-.1368-.0055.0016-.0104-.001-.0159.0006-.0138-.0384-.0306-.0761-.0445-.1145-.0806-.223-.1571-.4437-.2439-.666-.0194-.0496-.0261-.1003-.0458-.15l-.0155.01c-.0294-.0742-.0661-.1465-.0962-.2204-.0183-.0451-.0345-.0906-.0529-.1358-.0693-.1678-.1206-.3375-.1932-.5046-.0171-.0394-.0329-.0791-.0504-.1184-.01-.0229-.0171-.0462-.0271-.0691l-.0038.0078c-.0665-.1501-.1543-.292-.2233-.4411-.1139-.2462-.2036-.4988-.3243-.7427-.0009.0303-.0048.0597-.0058.0903l-.0113-.0229c-.2639-.5356-.5023-1.0812-.7985-1.6019.0109.0232.0084.0374.019.0606a30.31591,30.31591,0,0,0-1.961-3.0541l.0019.0019-.0039-.0048-.0109-.0139c-.3992-.5414-.8254-1.0535-1.2558-1.5587l.0232.0009c-.038-.0448-.0832-.0787-.1216-.1232-.1755-.2036-.3555-.3972-.5356-.594-.0923-.1007-.1758-.211-.2691-.3101l.0039-.0029c-.1232-.1306-.2617-.2329-.3869-.3604-.1364-.1387-.2677-.2852-.4065-.4197l.0116-.0129c-.0484-.0471-.1019-.0842-.1506-.1307-.182-.1739-.3692-.333-.5547-.4991l.0142-.0155c-.051-.0458-.109-.0726-.1603-.1178-.1307-.1152-.2607-.2226-.3933-.3339-.0294-.0249-.0562-.0555-.0859-.08l.011-.0117c-.03-.0248-.0626-.0406-.0926-.0651-.0381-.031-.0726-.0694-.1103-.1004-.0659-.0532-.1359-.091-.202-.1432-.0616-.0491-.1188-.1088-.1807-.1568l.0019-.002a.2787.2787,0,0,0-.0267-.0197c-.0346-.0271-.0707-.0496-.1055-.0761-.1475-.1123-.2995-.2065-.4482-.3136l.0161-.0145c-.1839-.1326-.3752-.2394-.5617-.3643l.0168-.0145c-.1772-.1188-.3575-.2236-.5366-.3346l.0084-.0065q-.24-.14955-.4827-.2894c-.1894.1101-.3688.2923-.5549.4266l.0855-.1268c-.1894.1319-.3682.3307-.554.4868-.1252.1049-.2552.1756-.3788.2911l.0006-.0181c-.0177.0165-.0338.0403-.0516.0571-.0145.0139-.0303.0207-.0445.0342-.0652.0629-.1245.1529-.1891.2184-.0855.0865-.1732.1565-.2578.2478l-.0006-.0064c-.13.1374-.2507.3165-.3782.4678-.0206.0242-.0419.0445-.0622.0691l-.0078-.0278c-.03.0362-.0545.0923-.0842.1291-.1058.1303-.2103.2584-.3139.3959l-.011.0125-.0045-.0138c-.0136.018-.0242.0445-.0378.0626-.0206.0274-.0435.0461-.0638.0739-.0304.0409-.0565.0945-.0868.1364-.0565.0781-.1136.152-.1697.2323-.0133.0188-.0275.032-.0404.051l-.0003-.0013-.0045.0071c-.0994.1446-.1881.3217-.2856.4727-.0322.0497-.0661.0929-.0977.1436l-.0087-.0229c-.0294.0461-.0523.1081-.0813.1548-.1062.1714-.2094.3475-.3133.5266l-.0003.0006-.0071-.0177c-.0236.0403-.042.0926-.0652.1333-.041.0719-.0858.1332-.1265.2064-.0445.0801-.0832.1736-.1274.2553-.03.0558-.0646.1006-.0943.1571l-.0009-.0026c-.0042.0061-.0071.0152-.011.0223-.0113.0213-.0219.0432-.0329.0648-.0194.0371-.0355.0807-.0549.1178-.0387.0752-.0719.1616-.1106.2378-.0552.109-.1126.2068-.1668.3181-.0194.04-.0413.0736-.0607.1136l-.0022-.0058c-.0068.0142-.012.0309-.0188.0451-.0293.0613-.0564.1259-.0858.1881-.0319.0681-.0606.1401-.0923.2088-.0548.1197-.1119.2342-.1658.3559-.0245.0558-.0474.1129-.0719.169-.0081.0184-.0175.0339-.0255.0523l-.0017-.0042a.30831.30831,0,0,0-.0119.032c-.0432.1-.0826.2045-.1252.3058-.0206.0494-.0442.092-.0645.1417-.051.1235-.0929.2594-.1426.3846-.0462.1164-.0971.2226-.1423.3407l-.0148.0355-.0023-.0052c-.0042.0107-.0061.0239-.0103.0345-.04.1052-.0752.2169-.1146.3233-.0326.0884-.0709.1672-.1029.2562l-.0048.0158c-.0329.0916-.0588.192-.091.2839-.0336.0952-.0649.1882-.0978.2843-.0703.2058-.1426.4056-.2097.615-.0032.0096-.0074.018-.0103.028-.0045.0146-.0103.0271-.0149.0417-.0267.0838-.0458.1752-.0719.26-.0274.0891-.0571.1733-.0842.2626-.0278.0914-.0555.1814-.0823.2733-.0155.0533-.0313.1059-.0465.1594-.0284.0991-.0551.1984-.0832.2981-.0342.1223-.0616.2478-.0949.3711-.0084.0316-.02.0603-.0284.0923l-.0048-.0136c-.0087.0326-.0132.0681-.0219.1007-.0239.0913-.0452.1839-.0688.2755-.0916.3556-.1781.7114-.261,1.0741l-.0055.0213c-.0058.0261-.0138.0494-.0196.0755-.013.0578-.0226.1168-.0352.1745-.0226.1039-.0449.2072-.0668.3117-.0136.0633-.0242.1265-.0374.1901-.01.0487-.0246.0929-.0346.1416-.0071.0352-.0103.0723-.0174.1074-.0139.0697-.0264.1385-.04.2085-.0151.0793-.0303.1568-.0452.2358-.0035.0191-.0093.0365-.0129.0555l-.0022-.0074c-.0023.0126-.0029.0258-.0052.0384-.009.0487-.0148.0984-.0235.1475-.0042.0225-.0094.0438-.0136.0664-.0068.0374-.0155.0733-.0222.1107-.2278,1.259-.4192,2.5353-.5308,3.8321l-.0148-.0107a.22839.22839,0,0,1,.0561.1442c.4201,4.9607,1.9681,8.4647,4.107,9.7007l.1371.0784,1.0463.5479c.2181.1023.4795.2071.7386.3155.1023.0433.2032.0897.3033.1297.0935.0378.1903.0852.2829.1207l.052.0223,1.0999.3652c.0509.0139.1171.0258.1716.04.1523.0426.2798.0691.424.1046.2481.0609.4907.1187.7301.1639.0636.0138.1371.0325.1962.0455l.1203.0158c.2598.0432.4614.0658.6766.0887l.3285.0429.1881.0142c.142.0094.2739.0084.412.0129l.7898.0161c.1259-.0058.2766-.028.4182-.0396.1487-.011.2984-.0168.4414-.033.1332-.0132.2594-.0287.3865-.0458.1197-.0135.251-.0216.3581-.0342l1.0761-.2358c.4662-.1401,1.0734-.3711,1.5274-.5459.2933-.1504.6843-.3508.9776-.5011a6.066,6.066,0,0,0,1.2257-.9421c.0142-.0139.0239-.0336.0381-.0478.0265-.0268.0523-.0536.0784-.081.0249-.0258.0487-.0516.0733-.0781.0225-.0248.0454-.0487.0677-.0738.0113-.013.0261-.0204.0378-.0333.0429-.0484.069-.119.1106-.1694.0688-.0826.1342-.1658.1994-.2526.0581-.0768.1133-.1536.1688-.2339.0406-.0587.0858-.1078.1248-.1681.0307-.0471.0713-.08.101-.1281l-.0016.0006c.0239-.038.039-.0868.062-.1258.0413-.069.0809-.1394.1203-.2107.0374-.0677.0732-.1361.1091-.2058.0332-.0646.0655-.1281.0974-.1943.0164-.0345.0413-.0593.0574-.0942l.0052-.008-.0032.0016c.0429-.0926.0593-.2146.0997-.3104.0555-.131.129-.2404.1794-.3772.0061-.0168.0177-.0271.0238-.0439l-.0038.0016c.0274-.0755.0422-.1645.068-.2416.0384-.1142.0762-.2278.111-.3459.01-.0339.0316-.0542.0413-.0884-.0042.0023-.0106.0006-.0148.0029.0303-.1074.0552-.2204.0829-.3307.0226-.0894.0516-.1707.0723-.262.0038-.0178.0148-.0281.0187-.0458l-.0132.0026c.0038-.0178.0035-.0394.0074-.0571.0242-.1117.0468-.2236.0681-.3382.0142-.0761.0419-.1378.0548-.2152-.011.0061-.0245.0055-.0358.0113.0032-.0187.0026-.0413.0058-.06.0319-.1929.0923-.3569.1162-.5572-.0139.0071-.0301.0068-.0439.0139.0258-.212.0848-.3921.1016-.6128-.0139.0071-.0303.0062-.0442.013.0168-.2111.0694-.3885.0774-.6073-.0132.0068-.029.0049-.0422.0113.0077-.1955.0522-.3575.0529-.5591Z" class="am"/><path d="M478.9575,820.4009l.0619-.3156c.021-.141.0345-.3097.0532-.472.0071-.0565.0181-.1145.0249-.1707.0661-.5246.1026-1.045.1178-1.5838a17.41827,17.41827,0,0,0-.1162-2.6257c-.0594-.4998-.1303-.988-.23-1.4903l-.2291-1.0477-.211-.7901-.0455-.1452c-.0123-.0436-.0262-.0952-.0375-.1359l-.1219-.3707-.1129-.3591c.0064.02.0071.0371.0135.0571l-.1087-.3304c-.0074-.0209-.0187-.0477-.0268-.0697-.0936-.2532-.1846-.5007-.2884-.7524-.0197-.051-.0417-.109-.0597-.1558l-.2598-.594c-.0542-.1249-.1035-.2404-.1613-.3665-.1281-.2736-.3065-.6234-.4378-.8902l-.4863-.8867c-.1516-.2629-.3674-.6052-.5252-.865l-.5637-.8421-.0116-.0158-.01-.0148.0058.0093c-.1781-.252-.4194-.5694-.5995-.8134l-.6501-.8017c-.2126-.2498-.5101-.5711-.7289-.8154l-.7156-.7243.1068.1026c-.0426-.0413-.0991-.0962-.1413-.1375-.0103-.01-.0245-.0219-.0352-.0319-.0448-.0432-.0897-.0871-.1287-.1236v-.0003c-.0304-.0281-.0575-.0448-.0878-.0726-.0197-.0181-.0377-.0348-.0581-.0529-.0764-.07-.1522-.14-.2281-.2075-.1193-.1068-.2387-.2171-.341-.3097l-.8663-.7024c-.0836-.0636-.1888-.1339-.2849-.2033-.0623-.0458-.1317-.0942-.1942-.1387-.2088-.1478-.4166-.2981-.5957-.4249-.2984-.1849-.6959-.4311-.9943-.616a3.84416,3.84416,0,0,0-.3437-.1761c.0455.0248.0807.0542.1259.0793a3.74252,3.74252,0,0,0-.5121-.2281c.0529.0271.1123.0642.1659.0923a3.52984,3.52984,0,0,0-.464-.1591c-.0287-.0064-.0545-.0258-.0832-.0316l.0122.0074c-.0542-.0109-.1116-.0042-.1665-.0125-.058-.0088-.1142-.0239-.1729-.0297-.0207-.002-.0381-.0171-.0587-.0187.0132.0054.0235.0151.0368.0206-.0288-.0029-.0597.0103-.0885.0084-.0661-.0045-.13-.021-.1971-.0216-.0339-.0003-.0648-.0113-.099-.0107-.0178.0004-.0339-.0061-.0517-.0055l-.0013-.0006v.0003c-.0838.0029-.1726.0355-.2574.0442-.062.0065-.1197-.0126-.1823-.0029.0197.0058.0358.0191.0555.0249a3.90142,3.90142,0,0,0-.4704.0826c-.0378.01-.072-.001-.1097.01.0064.0006.0125.0051.019.0058a5.0825,5.0825,0,0,0-.8557.3581c-.0419.0213-.08.0116-.1223.0342.0191-.0055.0455-.0035.0659-.0087-.0849.0439-.1665.0629-.252.1126l-2.0695,1.2028a19.22926,19.22926,0,0,1,2.478,1.7194l.0635.051a23.978,23.978,0,0,1,2.2931,2.1456c.0187.02.0364.0416.0551.0616a27.94738,27.94738,0,0,1,2.0501,2.4686c.012.0158.0249.0306.0368.0464.0913.1243.1649.2633.2543.3892.5804.815,1.136,1.6532,1.6361,2.5269a30.27289,30.27289,0,0,1,1.4526,2.8726c.0109.0251.0206.05.0316.0751a27.87533,27.87533,0,0,1,1.1108,3.0071l.0281.0926a23.7062,23.7062,0,0,1,.7095,3.0622l.002.0142a18.96712,18.96712,0,0,1,.2455,3.0268,14.196,14.196,0,0,1-.2559,2.6996c-.0048.0242-.009.0493-.0142.0732a10.01431,10.01431,0,0,1-.7156,2.2305c-.0048.0106-.011.0196-.0161.0303a7.34684,7.34684,0,0,1-.9173,1.4183c-.1184.1507-.2278.314-.3562.4511a6.1319,6.1319,0,0,1-1.3803,1.138l2.0698-1.2028a10.52239,10.52239,0,0,0,2.3021-1.8136l.7243-.836.3381-.4553.4676-.735c.0254-.0396.059-.0858.0832-.1232l.0232-.0445.0255-.04c-.0084.0145-.0132.0187-.0216.0329l.4962-.9493c.1555-.3523.2607-.6069.3533-.845.0252-.0639.0494-.1261.0733-.19.07-.1813.1193-.3672.1819-.5517.0181-.0507.0439-.1104.0607-.1585l.1465-.5546c.0358-.1278.0635-.2246.1065-.3788l.019-.0971.0242-.0916c-.0048.0206-.0142.0445-.019.0655l.0022-.0123C478.8749,820.861,478.9155,820.6351,478.9575,820.4009Zm-2.0259,5.1301c.0416-.0623.079-.1155.1197-.1768C477.0093,825.4126,476.9658,825.4868,476.9316,825.531Z" class="ai"/></g><path d="M657.1555,693.2408l.2409,110.7846L857.0359,695.9808c7.3633-15.9892,19.3511-30.5488,32.9148-38.3796,14.4803-8.3605,27.2026-7.0004,34.4462,1.924l77.8001-42.1055-.2185-100.5086Z" class="ac"/><path d="M499.1481,863.5375s-6.2822.8479-15.6477,9.9437-.0386-15.9176.1541-15.8791S499.1481,863.5375,499.1481,863.5375Z" class="ab"/><polygon points="1001.43 264.526 656.629 451.132 657.129 702.28 1001.952 525.951 1001.43 264.526" class="aa"/><polygon points="656.936 452.494 405.791 305.933 750.792 120.116 1001.354 264.771 656.936 452.494" class="s"/><polygon points="211.795 683.551 393.67 597.263 266.885 523.294 211.795 683.551" class="an"/><polygon points="237.374 609.36 330.061 560.73 266.885 523.294 237.374 609.36" class="ao"/><g class="ap"><polygon points="369.356 577.666 309.126 752.936 303.534 749.877 363.764 574.607 369.356 577.666" class="aq"/></g><g class="ar"><polygon points="380.853 589.273 378.056 597.405 393.037 606.605 387.896 621.553 352.151 600.24 357.293 585.293 373.319 594.496 376.116 586.364 380.853 589.273" class="aq"/></g><path d="M253.2289,493.1209,189.3038,690.1194,420.3424,824.3845l63.9251-196.9986ZM407.0863,796.424,211.7947,682.4863l54.753-159.1925,196.3462,114.553Z" class="p"/><polygon points="479.591 388.445 479.511 416.594 422.351 383.593 422.431 355.444 479.591 388.445" class="v"/><polygon points="637.868 480.531 637.788 508.68 580.629 475.679 580.708 447.53 637.868 480.531" class="v"/><polygon points="734.399 437.25 734.479 465.399 677.319 498.4 677.239 470.251 734.399 437.25" class="ac"/><polygon points="823.099 389.664 823.179 417.813 766.019 450.815 765.939 422.666 823.099 389.664" class="as"/><polygon points="907.584 344.235 907.664 372.384 850.496 405.389 850.416 377.24 907.584 344.235" class="as"/><polygon points="986.819 301.687 986.899 329.836 929.739 362.838 929.659 334.688 986.819 301.687" class="ac"/><polygon points="893.33 423.819 851.718 447.844 851.971 540.639 893.33 516.761 893.33 423.819" class="as"/><g class="r"><polygon points="893.33 423.819 851.718 447.844 851.813 482.325 893.33 458.208 893.33 423.819" class="s"/></g><path d="M950.0183,389.989c-22.7041,13.1081-41.052,44.8881-40.9781,70.9765.0738,26.0801,18.5418,36.6045,41.2459,23.4966,22.6965-13.104,41.0447-44.8843,40.9707-70.9644C991.1828,387.4091,972.715,376.885,950.0183,389.989Zm9.467,52.7412.061,21.5683-18.7702,10.8374-.0613-21.5688-18.7703,10.8374-.0612-21.5689,18.7705-10.8369-.0618-21.751,18.7705-10.8369.0615,21.7505,18.929-10.9282.061,21.5684Z" class="ad"/><polygon points="281.047 868.953 280.921 870.298 206.354 826.133 205.955 830.384 204.814 829.708 205.339 824.112 281.047 868.953" class="at"/><g class="a"><polygon points="206.396 812.838 205.871 818.444 207.011 819.12 207.41 814.868 281.977 859.034 281.578 863.285 205.871 818.444 206.396 812.838" class="au"/><polygon points="282.104 857.679 281.977 859.034 207.41 814.868 207.011 819.12 205.871 818.444 206.396 812.838 282.104 857.679" class="at"/><path d="M189.7926,783.5696l-3.9787,45.3174,112.3683,63.6659,3.9786-43.3919Zm91.1282,86.728-.3987,4.2513-75.7077-44.8406.5247-5.5959,75.7077,44.8407Zm1.0562-11.264-.3986,4.251L205.8707,818.444l.5257-5.606,75.7077,44.8405Zm1.0573-11.2746-.3987,4.2514-75.7077-44.8407.5247-5.5959,75.7078,44.8407Z" class="p"/><polygon points="205.339 824.112 204.814 829.708 205.955 830.384 206.354 826.133 280.921 870.298 280.522 874.549 204.814 829.708 205.339 824.112" class="au"/><polygon points="283.16 846.414 283.034 847.759 208.467 803.594 208.069 807.845 206.928 807.17 207.453 801.574 283.16 846.414" class="at"/></g><polygon points="207.453 801.574 206.928 807.17 208.069 807.845 208.467 803.594 283.034 847.759 282.636 852.01 206.928 807.17 207.453 801.574" class="au"/><polygon points="149.804 775.837 148.095 794.066 132.619 784.9 134.329 766.671 149.804 775.837" class="av"/><polygon points="165.32 785.027 163.611 803.256 148.129 794.086 149.804 775.837 165.32 785.027" class="aw"/><polygon points="351.836 891.222 350.127 909.451 334.617 900.265 336.361 882.056 351.836 891.222" class="av"/><polygon points="336.361 882.056 334.651 900.285 319.135 891.095 320.845 872.867 336.361 882.056" class="aw"/><g class="a"><polygon points="355.083 956.054 355.032 973.845 112.802 833.993 112.852 816.202 355.083 956.054" class="ax"/><polygon points="355.083 956.054 364.799 950.408 364.748 968.198 355.032 973.845 355.083 956.054" class="p"/><polygon points="112.852 816.202 122.568 810.556 364.799 950.408 355.083 956.054 112.852 816.202" class="ay"/></g><g class="a"><polygon points="355.046 956.054 355.096 973.845 459.788 915.126 459.737 897.336 355.046 956.054" class="az"/><polygon points="459.737 897.336 450.022 891.689 345.33 950.408 355.046 956.054 459.737 897.336" class="ay"/></g><g class="a"><polygon points="266.077 912.775 266.01 936.376 193.958 894.776 194.025 871.175 266.077 912.775" class="aw"/></g></g></svg>