<svg xmlns="http://www.w3.org/2000/svg" xmlns:xlink="http://www.w3.org/1999/xlink" viewBox="0 0 996.77 1000"><defs><style>.a{fill:none}.b{fill:url(#a)}.c{fill:#ec2c47}</style><linearGradient id="a" x1="200.224" x2="790.435" y1="895.048" y2="304.837" gradientUnits="userSpaceOnUse"><stop offset="0" stop-color="#fde6e9"/><stop offset=".804" stop-color="#ec2c47"/></linearGradient></defs><title>InititalBadal</title><rect width="996.77" height="1000" class="a"/><path d="M164.2382,859.063C110.94567,742.97013,88.04246,643.713,99.95813,571.18121c15.61411-95.04464,119.34208-124.24428,137.34122-156.12847,29.807-52.801,5.83052-103.65375,42.0912-177.087C317.01251,161.77569,383.65982,121.82824,469.7999,121c71.95388,1.20832,273.818,13.02461,261.79828,247.40855-1.29567,25.2656,73.52041,2.49,75.149,38.87016,1.07137,23.93318-.06737,87.455,15.54806,104.94942s27.93721,1.3992,48.5877,12.30889c34.3353,18.1394,70.2201,138.114,59.6009,194.99862C914.6567,804.31793,817.255,862.10692,819.7904,857.24947Z" class="b"/><rect width="794" height="24" x="98" y="858" class="c"/></svg>