<svg xmlns="http://www.w3.org/2000/svg" xmlns:xlink="http://www.w3.org/1999/xlink" viewBox="0 0 782 521"><defs><style>.a{isolation:isolate;}.b{fill:none;}.c{fill:#eab6ac;}.d{fill:#1e1e1e;}.e{fill:#ffddd2;}.f{fill:#fff;}.g{fill:#0d3b7f;}.h{fill:#032884;}.i{fill:#0059db;}.j{fill:#0089dd;}.k{fill:#e4e8ef;}.l{fill:#212121;}.m{fill:#d1d7e0;}.n,.o{mix-blend-mode:multiply;}.n{fill:url(#a);}.o{fill:url(#b);}.p{fill:#b7694e;}</style><linearGradient id="a" x1="114.00111" y1="329.44447" x2="103.44183" y2="228.37731" gradientTransform="matrix(-1, 0, 0, 1, 353.4854, 0)" gradientUnits="userSpaceOnUse"><stop offset="0" stop-color="#fff"/><stop offset="0.11915" stop-color="#fafafa"/><stop offset="0.27014" stop-color="#eaeaea"/><stop offset="0.43835" stop-color="#d0d0d0"/><stop offset="0.61894" stop-color="#acacac"/><stop offset="0.80939" stop-color="#7d7d7d"/><stop offset="1" stop-color="#474747"/></linearGradient><linearGradient id="b" x1="-954.99177" y1="-70.26233" x2="-957.79062" y2="-118.77517" gradientTransform="matrix(-0.958, -0.2869, -0.2869, 0.958, -664.1192, -74.6468)" gradientUnits="userSpaceOnUse"><stop offset="0" stop-color="#fff"/><stop offset="0.10054" stop-color="#f4f2f1"/><stop offset="0.71252" stop-color="#b3a6a1"/></linearGradient></defs><title>InititalCard 2</title><g class="a"><rect class="b" width="782" height="521"/><path class="c" d="M285.8913,139.42484c1.45354,5.96266,8.55292,40.50375,8.55292,40.50375l36.61244,11.97063s13.60225,2.57175,14.31976,5.5513c.01852.05241.01143.12057.0264.19268,1.52327,2.12217,4.35586,6.20419,3.23409,7.45795-.48149.54374-1.27977,1.06109-2.41848-.01891-.74942-.725-1.6919-1.53312-2.40941-2.145a.53116.53116,0,0,1-.0398.08314c1.39955,1.43106,3.68761,4.02133,2.67932,4.90511-1.08709.933-2.36765.46494-3.493-.34713.58354.80419.92161,1.58947.50592,2.039-.80616.89521-3.136-.7703-4.35034-1.73722a.26949.26949,0,0,1-.07723.04531c.76124.82,1.77112,2.14148.595,2.40153-1.10246.23838-3.52921-.70962-5.25855-1.73682-2.49058-.93264-2.73566-5.41852-8.9367-6.7369-13.30514-2.81328-42.5487-7.72983-45.68823-12.22359-4.74475-6.77078-4.25617-30.93111-9.10848-51.14536C269.50414,133.76045,285.8913,139.42484,285.8913,139.42484Z"/><path class="d" d="M390.80065,245.201c.28724,2.43936,3.30226,4.09739,6.75385,3.69312l73.412-8.391c3.44964-.39244,6.017-2.69232,5.74358-5.1167h0c-.2833-2.45473-3.31368-4.10487-6.75027-3.70455l-73.41758,8.39059c-3.44016.40426-6.01546,2.69665-5.74162,5.12852Z"/><path class="e" d="M456.27877,231.57238c3.55522-1.78253,12.14047-5.77786,14.36113-4.89014,2.21831.89127,7.99226,4.8866,8.88153,6.66125.88774,1.775.44564,7.10294.44564,7.10294a1.11571,1.11571,0,0,1-1.33491-.14342c-.66079-.66865-1.59934-4.60291-3.10606-5.6305-2.80934-1.92162-4.8862-3.54576-6.21916-2.65449-1.33138.89126,6.24162,4.81843,3.70612,5.33183-1.48387.29473-1.37275-.56974-4.48233-1.00789-3.10762-.446-4.437,2.1072-13.99312-.78213C453.26178,235.18591,456.27877,231.57238,456.27877,231.57238Z"/><path class="f" d="M459.42618,228.00771s-18.137-2.68483-20.73514-3.54221c-2.60209-.83807-1.55952,12.22753-1.29907,13.93047.26044,1.70688,23.9184,0,23.9184,0Z"/><path class="g" d="M381.33164,282.93682c-8.10965-34.74874-16.76423-71.22367-18.35055-76.193h0c-.30181-.57762.09614-.63476-2.63558-.86132h0c-5.019-.10559-14.9352,3.33457-24.50036,3.69352h0v.00748l-.24389-7.7377c7.99657-.18519,17.31782-3.58752,24.74425-3.70061h0c3.62654-.21907,8.6207,1.49569,10.01237,6.27236h0c3.58752,11.41191,34.31847,144.97339,34.35827,145.10578h0l-7.5391,1.72973c-.017-.0721-7.71133-33.4804-15.84541-68.31622Z"/><path d="M326.46678,206.77769c.42276,2.779,3.714,4.58045,7.33145,4.01779l14.20471-2.20137c3.61352-.55517,6.20025-3.26286,5.77353-6.04225h0c-.43421-2.7794-3.71007-4.58045-7.33148-4.02134l-14.2043,2.20532c-3.61393.54768-6.20459,3.25851-5.77391,6.04185Z"/><path class="h" d="M376.76814,296.75775c.5926,2.15251,6.42365,2.72659,12.843,1.3369h0c6.19869-1.34084,10.70386-4.04813,10.22592-6.10214L381.113,213.49922c-.59695-2.59381-6.96151-4.74278-14.41985-4.7806h0c-7.74322-.04531-13.6058,2.175-12.83944,4.92442Z"/><path d="M541.51408,374.779c1.805,4.2479,8.41738,5.5056,14.76144,2.8054l30.67422-13.00177c6.34406-2.70374,10.03327-8.33385,8.23219-12.57465l-.54768-1.28765c-1.801-4.23686-8.41344-5.502-14.75751-2.80185L549.21041,360.9234c-6.34446,2.68522-10.04507,8.31533-8.23259,12.57111Z"/><path class="c" d="M525.70651,277.72161c4.9658,11.62744,23.91919,66.919,31.59582,67.61369,7.67348.68362,25.76161,2.058,25.76161,2.058s2.48864,10.5435-5.4264,12.41271c-7.90752,1.86528-22.69892,6.125-28.32548,10.13175-5.623,4.01031-7.43194-11.763-8.71565-18.19018-.8231-4.13166-32.07928-36.02142-41.40051-47.18037C489.88565,293.40821,525.70651,277.72161,525.70651,277.72161Z"/><path class="i" d="M568.58227,343.46214s21.69809,0,24.55274,6.28773c2.84756,6.28378-13.70745,10.8528-19.41715,13.1377-5.7097,2.28451-25.82583,12.65779-27.97795,10.8528-2.1604-1.80893-4.4256-2.66631-.58157-4.5769,3.85151-1.907,22.84982-10.84177,22.84982-10.84177Z"/><path d="M539.09324,385.65781c1.93344,4.56586,9.03717,5.91774,15.84932,3.02526l32.92484-13.96829c6.82359-2.89682,10.78109-8.94616,8.84016-13.50415l-.578-1.37433c-1.93344-4.558-9.03636-5.9138-15.8446-3.0288l-32.92878,13.97223c-6.82,2.89248-10.785,8.94221-8.848,13.50375Z"/><path class="e" d="M522.595,282.59718c5.16241,12.06085,24.80652,69.39976,32.76684,70.11687,7.96035.714,26.72025,2.14109,26.72025,2.14109s2.58712,10.93988-5.61513,12.87332c-8.21328,1.93344-23.55236,6.35549-29.39051,10.50922-5.82633,4.14663-7.70736-12.19719-9.03638-18.86592-.85344-4.28612-33.27039-37.35477-42.92656-48.92862C485.44823,298.86889,522.595,282.59718,522.595,282.59718Z"/><path class="j" d="M567.05661,350.78455s22.50625,0,25.46689,6.52138c2.96419,6.51034-14.20628,11.24563-20.13109,13.61722-5.92131,2.37159-26.78489,13.12983-29.02054,11.24564-2.2392-1.86528-4.58794-2.74906-.59261-4.72427C546.7746,375.4508,566.4711,366.18,566.4711,366.18Z"/><path d="M383.05349,314.12089c.45706,3.89683,4.32946,6.64628,8.63449,6.14036L489.40377,308.819c4.305-.517,7.43549-4.07808,6.9804-7.97884l-.82862-7.05448c-.459-3.89683-4.32591-6.65376-8.63842-6.13957l-97.7083,11.4454c-4.31409.50237-7.443,4.07453-6.98238,7.9682Z"/><path class="f" d="M389.39756,257.80957c.58748,12.43912-4.14782,30.20258,11.24761,40.85877,15.4033,10.66052,74.22765,3.75379,86.46463,2.37158,12.23856-1.37787,1.19153,4.74318,7.10689,10.07147,5.91734,5.3279,6.51981,43.23035,6.51981,43.23035l47.96368-41.16846s-29.58636-57.72741-41.74808-60.40121c-21.615-4.74278-82.02367.30221-82.02367.30221Z"/><path class="g" d="M540.464,390.6236c-.05634-.1056-28.56149-49.446-32.413-57.716h0c-2.45275-4.60684-3.006-4.18406-5.03356-4.44451h0a24.65464,24.65464,0,0,0-3.75538.43815h0v.00749a3.87055,3.87055,0,0,1-4.43939-3.19863h0a3.86107,3.86107,0,0,1,3.19312-4.44057h0a30.77157,30.77157,0,0,1,5.00165-.53626h0c4.36531-.26793,9.497,2.69626,12.05339,8.92685h0c1.59732,3.48586,9.74086,18.01681,17.32372,31.324h0c7.60531,13.36387,14.75,25.74663,14.765,25.77658h0a3.86667,3.86667,0,0,1-1.41612,5.279h0a3.82609,3.82609,0,0,1-1.922.5138h0a3.87328,3.87328,0,0,1-3.35742-1.9299Z"/><path class="k" d="M410.12167,167.93905c2.66434,2.07687,8.36458,6.00049,10.1412,10.445,1.77859,4.43741,7.9946,33.15533,7.9946,33.15533s-10.95524-25.75373-13.32643-30.4969a58.27625,58.27625,0,0,0-7.25425-10.2145Z"/><path class="c" d="M412.22335,144.96038c-4.77706,6.26881-5.4398,18.74181-.95746,28.2581,1.76914,3.75341,8.94615,14.96516,13.03565,16.6417,5.00914,2.05795,4.57887,14.56838-4.27114,13.03566-7.76765-1.33336-31.01779-29.71518-35.81928-29.46971,4.30108-4.30109,10.88708-17.99436,5.33183-27.98978C383.94476,135.44842,412.22335,144.96038,412.22335,144.96038Z"/><path class="k" d="M418.61627,185.7628l-7.35038-12.54432c2.8117,1.82,9.73736,5.97015,11.291,8.49225,4.24474,6.89214,5.03947,11.98954,18.215,27.97086,2.63952,3.21755,2.913,20.24814,4.216,24.21352,7.58837,22.86835-1.70686,20.663-3.18326,33.09466-.21553,1.85031-16.24925-58.11276-16.24925-58.11276Z"/><path class="e" d="M382.41952,140.01c-1.50317-16.083,8.47727-27.5662,21.4885-26.58116,12.78624.97086,22.72729,6.76724,21.68511,22.88016-.16036,2.73054.55123,35.18729-16.54752,33.51075C400.3,168.95877,383.89984,156.1083,382.41952,140.01Z"/><path d="M418.96931,122.964c2.35859,3.093-1.74785,6.81964-6.14942,9.78816-4.38619,2.97522-10.29054-.37392-13.92887,7.40516,0,0-6.26449-1.82036-4.27077,5.77392.97441,3.731,2.21123,1.81248,2.17695,4.72781-.01892,1.77859-8.44181,14.17594-8.44181,14.17594s-19.12086-18.22013-7.03124-39.68853c8.25663-14.6401,19.36672-14.08887,24.06027-11.80042C410.08226,115.63449,418.96931,122.964,418.96931,122.964Z"/><path class="l" d="M417.96694,123.217c1.96732,2.80974.57211,2.149,3.7664,4.01425,3.19509,1.86921,4.42245,7.52218,3.75776,11.95959,1.89008.44524,5.88541-5.4,1.79749-13.82487-4.10842-8.44023-14.07941-16.98567-21.90417-12.01988A48.2079,48.2079,0,0,0,417.96694,123.217Z"/><path d="M406.78749,143.7937s-.327,5.55879,3.50244,5.71324c3.21319.11742,8.24912.8499,9.01154-.71711.76873-1.57488.51025-4.53553,1.20333-4.61472a.68575.68575,0,0,1,.86841.695s-.51931,4.62182,2.33376,4.77706c2.87162.1584,2.92834-.67652,3.1679-2.0016a48.55142,48.55142,0,0,0,.64579-5.46423c-.48543.03-16.36234.14736-20.94869-.59654-9.39886-1.51815-21.16974-3.61786-21.16974-3.61786Zm15.6618.55162c.03387-.28369,2.50711.01852,3.6667.05635a8.89281,8.89281,0,0,1-.39441,3.15686,1.88528,1.88528,0,0,1-2.6604.28684C422.50051,147.39619,422.4,144.787,422.44929,144.34532ZM408.953,143.7937c.00749-.45706,9.118.52483,9.88628.38141,0,0-.44169,3.27782-.88772,3.72346-.45312.43814-6.87244.1513-7.88073,0C409.0606,147.72874,408.953,144.23933,408.953,143.7937Z"/><path class="f" d="M426.116,207.91443c5.40946,10.89811,20.21031,62.98,20.87147,84.8405-20.14805,9.5427-52.38612,5.01859-52.92041,2.281-.51931-2.73368,7.9619-39.82407,5.82477-47.20676-2.12968-7.39767-16.00734-31.67147-18.82612-38.93715-2.8137-7.26133-11.07386-26.24073-11.07386-26.24073l16.01089-12.29569S420.68959,197.00844,426.116,207.91443Z"/><path class="g" d="M366.27586,407.35277a3.87005,3.87005,0,0,1,3.87043-3.87082h0c5.10212.03388,54.23248-4.83735,82.69823-10.43h0c9.17983-1.72934,16.61175-3.88934,18.52943-5.12813h0c3.95987-16.34343,16.25674-19.83284,17.11412-19.912h0l11.42888-2.07332c-1.00674-6.88781-3.30228-22.49521-5.78892-38.83115h0c-3.30068-21.81514-7.04108-45.28436-8.23771-49.82343h0c-.17218-.47991-.22853-.69859-1.51618-1.26125h0a18.16488,18.16488,0,0,0-6.03082-.78212h0c-6.01388-.0071-13.919,1.424-19.85175,2.05479h0l.00788.0071a3.87393,3.87393,0,0,1-4.2542-3.44765h0a3.85715,3.85715,0,0,1,3.44016-4.2479h0c5.46817-.55911,13.57585-2.08435,20.65791-2.09971h0a25.17853,25.17853,0,0,1,8.776,1.288h0a9.6376,9.6376,0,0,1,6.25145,6.5324h0c2.81171,10.93594,14.70116,93.04276,14.74057,93.198h0a3.873,3.873,0,0,1-3.14544,4.35743h0l-14.89539,2.68877c0,.00749,0,0-.15487.04886h0a8.50677,8.50677,0,0,0-.90427.359h0a14.55071,14.55071,0,0,0-3.23646,2.01264h0c-2.51658,2.07686-5.50754,5.638-7.0332,12.4202h0A6.41692,6.41692,0,0,1,475.679,394.34h0a20.79058,20.79058,0,0,1-4.03473,1.91453h0a92.91378,92.91378,0,0,1-11.80829,3.24315h0c-9.44419,2.08868-21.77377,4.05955-34.30705,5.79323h0c-25.17256,3.45513-50.60714,5.902-55.38262,5.93586h0a3.87527,3.87527,0,0,1-3.87043-3.874Z"/><path class="h" d="M375.66568,310.34818c.5796,5.03,4.2081,8.7385,8.0998,8.29681l69.43011-7.95283c3.89683-.4417,6.58954-4.87872,6.019-9.9052L455.57823,268.961c-.57962-5.01505-4.21246-8.72708-8.10771-8.28893l-69.42222,7.96032c-3.90077.43066-6.59348,4.87517-6.0194,9.89731Z"/><path class="g" d="M370.4221,293.24982c-8.6928-37.23026-17.95415-76.299-19.66262-81.6537h0c-.36644-.77385-.13042-.8952-3.09106-1.11388h0c-5.46067-.106-16.0676,3.56821-26.25414,3.96105h0l-.25138-7.72982c8.61756-.21159,18.62636-3.8594,26.50552-3.97288h0c3.85545-.21868,9.01589,1.56346,10.4639,6.52532h0c3.833,12.19364,36.76731,155.33169,36.7996,155.46014h0l-7.53557,1.73368c-.015-.07211-8.2586-35.878-16.97425-73.20991Zm-49.0157-78.80653h0Z"/><path d="M311.37119,211.70566c.45706,2.99059,3.97839,4.924,7.86024,4.305l15.2126-2.34913c3.87791-.60009,6.64627-3.4969,6.18173-6.47961h0c-.45864-2.976-3.97445-4.90157-7.85471-4.309l-15.21774,2.35662c-3.88067.60048-6.65218,3.50793-6.18212,6.47606Z"/><polygon class="m" points="391.662 415.045 391.662 293.941 393.202 293.941 393.202 415.045 391.662 415.045 391.662 415.045"/><polygon class="m" points="370.987 411.133 412.418 297.32 413.868 297.857 372.445 411.669 370.987 411.133 370.987 411.133"/><polygon class="m" points="352.919 400.385 430.763 307.611 431.943 308.604 354.101 401.379 352.919 400.385 352.919 400.385"/><polygon class="m" points="339.593 384.091 444.487 323.55 445.26 324.887 340.365 385.435 339.593 384.091 339.593 384.091"/><polygon class="m" points="332.656 364.247 451.925 343.209 452.193 344.731 332.934 365.769 332.656 364.247 332.656 364.247"/><polygon class="m" points="332.656 344.731 332.934 343.209 452.193 364.247 451.925 365.769 332.656 344.731 332.656 344.731"/><polygon class="m" points="339.601 324.88 340.375 323.535 445.26 384.091 444.487 385.435 339.601 324.88 339.601 324.88"/><polygon class="m" points="352.919 308.604 354.109 307.611 431.952 400.385 430.763 401.379 352.919 308.604 352.919 308.604"/><polygon class="m" points="371.008 297.838 372.46 297.309 413.881 411.121 412.423 411.661 371.008 297.838 371.008 297.838"/><path class="k" d="M383.6654,354.34174a8.76649,8.76649,0,1,0,8.76845-8.76845A8.77321,8.77321,0,0,0,383.6654,354.34174Z"/><path class="k" d="M310.60877,354.34174a81.80874,81.80874,0,0,1,81.82311-81.82391h0a81.81925,81.81925,0,0,1,81.82391,81.82391h0a81.8317,81.8317,0,0,1-81.82391,81.816h0a81.82118,81.82118,0,0,1-81.82311-81.816Zm9.66326,0a72.24913,72.24913,0,0,0,72.15985,72.14488h0a72.24721,72.24721,0,0,0,72.1508-72.14488h0a72.24533,72.24533,0,0,0-72.1508-72.15986h0A72.24725,72.24725,0,0,0,320.272,354.34174Z"/><path class="k" d="M329.784,354.3378a62.64421,62.64421,0,0,1,62.64592-62.644h0a62.64875,62.64875,0,0,1,62.64593,62.644h0a62.65277,62.65277,0,0,1-62.64593,62.64395h0A62.64824,62.64824,0,0,1,329.784,354.3378Zm3.86491,0a58.84718,58.84718,0,0,0,58.781,58.77353h0a58.84678,58.84678,0,0,0,58.7755-58.77353h0a58.84643,58.84643,0,0,0-58.7755-58.77313h0a58.84683,58.84683,0,0,0-58.781,58.77313Z"/><path d="M370.07694,261.193c.27187,2.43187,3.29635,4.09738,6.74991,3.701l73.4081-8.406c3.44922-.38535,6.02493-2.68877,5.73964-5.12064h0c-.27384-2.45079-3.30226-4.09344-6.746-3.70455l-73.41047,8.39847c-3.45474.39638-6.01506,2.69271-5.74122,5.13168Z"/><path d="M496.08235,412.99036a12.44069,12.44069,0,1,0,12.44621-12.44266A12.44146,12.44146,0,0,0,496.08235,412.99036Zm10.4714-6.90633a7.17963,7.17963,0,1,1-4.93388,8.86617A7.18271,7.18271,0,0,1,506.55375,406.084Z"/><path class="d" d="M489.49636,412.99036a19.02668,19.02668,0,1,0,19.0322-19.02431A19.0275,19.0275,0,0,0,489.49636,412.99036Zm16.01876-10.55847a10.97681,10.97681,0,1,1-7.54661,13.56088A10.9749,10.9749,0,0,1,505.51512,402.43189Z"/><path class="k" d="M517.29309,378.96267H508.51s3.90077,21.46446-1.71082,31.2219c-3.05678,5.32474,1.22539,6.5785,3.17578,4.63324,1.95235-1.94841,8.53046-11.7023,7.79995-21.95107A120.57258,120.57258,0,0,1,517.29309,378.96267Z"/><path d="M506.57266,412.99036a1.95413,1.95413,0,1,0,1.9559-1.95235A1.9493,1.9493,0,0,0,506.57266,412.99036Z"/><path class="h" d="M506.27991,380.28854a6.15194,6.15194,0,0,0,7.33935,4.70495h0a6.15784,6.15784,0,0,0,4.71244-7.3295l-1.4291-6.53713a6.1658,6.1658,0,0,0-7.33541-4.71244h0a6.151,6.151,0,0,0-4.70927,7.337Z"/><path class="k" d="M389.25059,162.16868c4.87911,4.4449,13.09791,9.101,17.09876,13.9872,3.99493,4.8866,24.6493,30.42559,23.31634,33.52571-1.33493,3.119-23.98459-20.64451-30.20415-25.08193-6.21956-4.45239-17.76541-8.21683-18.20713-11.32877C380.80523,170.16328,389.25059,162.16868,389.25059,162.16868Z"/><path class="c" d="M419.27351,239.82349c3.2459-.72893,9.9296-2.25062,13.06007-2.93779,4.28217-.963,5.147-.01142,8.761-1.314,3.61747-1.288,4.42363-.45312,1.2329,1.46495a20.93477,20.93477,0,0,1-4.87322,1.9035s4.72426-.3097,6.68016-.26084c1.95945.04925,5.57731-.08314,6.58562,1.15171,1.01379,1.23524-2.61117,1.37472-4.47093,1.794,4.69747-.80065,4.81252-.13239,4.89409,1.29868.08471,1.45392-5.0714,1.1785-6.47055,1.48032,3.75143-.132,6.13642-.47164,6.15533,1.2577.01891,1.28016-4.28257,1.83888-5.95162,1.9559,4.66752.18164,5.25067-1.33651,5.28692.37392.03782,1.38221-7.26568,2.39011-10.11836,2.62061-3.31368.28724-12.02185-1.03075-15.88873-.91373-3.86688.13988-8.09271-.14342-8.09271-.14342Z"/><path class="k" d="M378.27092,181.42783c-4.97289-1.64266-11.28149,2.16394-12.07071,7.2767-.80222,5.12064-1.82587,47.1914,15.49592,64.95526,2.53,2.60169,43.3245-1.93738,47.08381-2.65489,4.87556-4.13126-.44918-13.33786-.44918-13.33786s-30.84244-6.17385-31.97526-10.207c-.47006-1.68048-8.893-16.28669-7.55448-22.21152C390.14146,199.3158,388.48581,184.77342,378.27092,181.42783Z"/><path d="M287.12221,112.3677c.00354-.00355.00354-.00355.01142,0h-.01142Z"/><path class="k" d="M222.56176,429.67028c.18873.96652.94958,5.85273.94958,5.85273s1.15368,1.82035,9.49147,1.63556c4.79441-.11742,21.95147,2.38656,26.45272.65683,3.98981-1.5217,3.55166-7.088,2.97563-6.90279C261.85351,431.11238,222.56176,429.67028,222.56176,429.67028Z"/><path class="k" d="M224.86124,413.95728c0,8.05055-5.56982,16.59639.27975,19.26624,5.28258,2.3905,6.33264-2.02012,16.10388,1.14817,5.58084,1.816,13.22792,1.73288,17.06093,1.15526,2.84518-.43421,8.46425-5.08637-.66472-7.76765-9.78817-2.88145-21.57359-12.94149-25.02717-12.94149A47.75936,47.75936,0,0,1,224.86124,413.95728Z"/><path class="i" d="M240.94422,219.85866c-1.15327,5.75855-5.75107,43.7138-3.45513,54.05281,2.30186,10.35831-5.93626,38.09119-8.23772,55.34873-2.29239,17.23824-16.60387,82.37829-14.30044,93.88083,17.25163,0,31.70338-.62689,31.70338-.62689s-.63831-45.96088,9.32914-72.12242c6.31176-16.56644,6.21918-47.24814,13.67751-77.71471a302.70881,302.70881,0,0,0,5.59464-32.94769Z"/><path class="k" d="M176.87314,421.19261c-.29867.93658-1.95984,5.59977-1.95984,5.59977s.14145,2.15291,7.56157,5.97054c4.27115,2.1864,18.13778,12.58647,22.9184,13.22045,4.23291.56265,6.51191-4.53514,5.91339-4.64467C210.70618,441.24058,176.87314,421.19261,176.87314,421.19261Z"/><path class="f" d="M186.39849,408.48163c-3.84442,7.084-12.82052,11.93674-8.95167,17.06841,3.493,4.63758,6.51982,1.25022,13.59636,8.69714,4.03708,4.25538,10.79092,7.84685,14.44228,9.17192,2.69626.98189,9.85791-.42238,3.121-7.15219-7.21445-7.19317-12.7693-21.66778-15.80363-23.31792A47.1945,47.1945,0,0,1,186.39849,408.48163Z"/><path class="j" d="M225.52989,222.62662c-1.15369,5.759-9.956,30.77233-6.23059,46.942,2.38263,10.328-3.91062,41.70117-8.69712,58.44886-3.833,13.40564-36.497,72.42464-34.19753,83.93072,15.85287,10.71332,29.3775,10.25626,29.3775,10.25626s28.446-66.21611,35.9044-75.54722c11.06793-13.84024,10.8792-28.89956,23.00467-70.86512,8.98753-31.1163,10.56438-38.54785,10.56438-38.54785Z"/><polygon class="n" points="218.68 258.387 215.385 316.511 274.625 263.289 253.493 249.064 218.68 258.387"/><path class="e" d="M289.37086,155.4436c.857.67219-1.79553-4.27863-4.47485-21.706-1.688-11.71767,6.92012-25.96886,13.80754-28.10286,0,0-16.1677-28.79712-20.33482-18.22761-10.58645,26.8487-16.19606,27.31719-19.58737,32.49063C256.50276,121.09833,290.88546,165.69237,289.37086,155.4436Z"/><path class="o" d="M287.93231,116.93711c-1.50712,1.00829-20.83562,10.29409-23.5961,11.29489l-2.755-12.22,11.54036-14.38752,21.68511,6.4008C289.42366,111.809,293.16012,113.45558,287.93231,116.93711Z"/><path class="e" d="M307.83489,103.7805c.21907-1.17417-1.08-1.9823-1.48032-7.73377.33806-1.55952.53783-2.71477.62688-3.17577,2.83219-16.26778-2.52644-27.7514-15.46556-29.97168-12.92809-2.26206-23.79231,2.17851-26.63042,18.47308-2.81681,16.26463,5.54029,26.56974,12.40365,31.81884,2.29753,1.76756,14.3304,6.80861,17.29853,5.6305,3.98232-1.57843,6.87677-7.08088,8.89138-12.63928C304.83642,106.06185,307.44993,105.96335,307.83489,103.7805Z"/><path class="p" d="M261.504,70.86708c7.35826-14.29335,27.095-13.09593,40.3095-4.42559a10.64489,10.64489,0,0,1,4.7018,6.48354c6.20774,6.0722.58118,7.62817-3.225,8.31928-3.87871.68362-19.18153,8.04346-19.97824,9.22905-.75375,1.21594-1.99214-4.56941-4.61275-2.29987-3.5761,3.08909-2.01461,9.928-2.01461,9.928l-7.32044,7.75977S251.19693,90.87014,261.504,70.86708Z"/><path class="p" d="M261.504,70.86708c-5.44728-1.79-17.06842-.99292-21.30922,12.92612-4.24829,13.90407.16233,21.37739.16233,21.37739l14.512,3.56073s3.09106-30.69707,5.67778-30.87438C263.12973,77.67176,261.504,70.86708,261.504,70.86708Z"/><path class="j" d="M229.87077,260.86478l8.413-10.75863,4.82237,12.85441c18.94,2.74905,33.70854,4.437,33.70854,4.437s3.55718-42.713,6.98986-64.8075c.48739-3.1084,1.85227-13.4474,4.50518-14.45175,3.89724-1.49924,7.13526-14.61409,6.13445-19.45931-2.18285-10.52459-4.0237-19.23591-5.50755-26.24074,0,0-15.21655-16.00378-17.71422-18.61336-6.62776-6.93272-7.65457-8.02454-7.93432-9.61046-4.822,4.12772-10.65223,12.54865-13.28665,15.15783-7.926,10.2602-14.393,26.08234-16.5491,34.97569-7.46189,30.77627-16.36037,63.03285-24.94008,91.67946C208.16871,257.18663,221.20791,259.35057,229.87077,260.86478Z"/><path class="i" d="M262.52572,217.59661c-5.84959-.99332-22.77261-5.876-24.23008-6.88033-1.45982-.99686-10.51355,21.9361-8.967,23.34117,2.70217,2.45039,28.16906,11.27164,29.41888,7.11437C259.98587,237.01415,262.52572,217.59661,262.52572,217.59661Z"/><path class="j" d="M260.32788,216.8527c-4.95634-.79276-19.30959-4.92048-20.53143-5.80387-1.21988-.88023-9.365,20.10826-8.07341,21.362,2.26363,2.17143,23.8262,9.70858,24.957,5.91695C257.81681,234.537,260.32788,216.8527,260.32788,216.8527Z"/><path class="i" d="M261.58125,116.012a40.67348,40.67348,0,0,0,4.26759,5.58125c2.84719,3.20966,20.97707,20.92821,20.97707,20.92821l2.64149,2.53392.5607,2.81289-3.82907-4.22938s-20.07477-19.17562-21.466-21.40339C263.36417,119.99981,261.58125,116.012,261.58125,116.012Z"/><path class="e" d="M270.90329,139.63249c1.22539,6.41183,6.83856,43.52507,6.83856,43.52507l38.24209,14.7646s14.31227,3.478,14.91591,6.69159c.00394.05674,0,.12451.00394.18479,1.51814,2.35268,4.2936,6.85432,3.03235,8.11951-.54532.55083-1.41452,1.06463-2.56779-.1513-.76833-.81562-1.71478-1.72974-2.44135-2.42439-.02285.04177-.03782.06777-.06066.102,1.41058,1.58592,3.70453,4.48628,2.5871,5.35075-1.20648.94052-2.54929.37392-3.69154-.56266.57014.88378.87787,1.74116.42317,2.20532-.90268.89875-3.29477-1.00435-4.5241-2.09184-.03389.015-.0658.03034-.08866.04137.76834.91767,1.7652,2.37553.49253,2.58712-1.19112.19622-3.71361-.95549-5.49063-2.134-2.59027-1.12886-2.59421-5.92877-9.12149-7.6656-13.98918-3.72346-44.77844-10.58487-47.87857-15.52781-4.66-7.46189-2.79279-33.125-6.824-54.8763C253.80454,132.70291,270.90329,139.63249,270.90329,139.63249Z"/><path class="i" d="M269.90446,134.77623c5.05445,1.66117,10.79448,37.19992,11.83824,44.2611-18.0708,6.54422-27.82311,8.54189-27.82311,8.54189s-9.72946-45.36789-2.51107-51.64025C264.59469,124.46323,269.90446,134.77623,269.90446,134.77623Z"/></g></svg>