<svg xmlns="http://www.w3.org/2000/svg" xmlns:xlink="http://www.w3.org/1999/xlink" viewBox="0 0 782 521"><defs><style>.a{isolation:isolate}.b{fill:none}.c{fill:#eab6ac}.d{fill:#ffddd2}.e{fill:#fff}.f{fill:#e4e8ef}.g{fill:#212121}.h,.p,.r,.u,.v,.y,.z{mix-blend-mode:multiply}.h{fill:url(#a)}.i{fill:#b6eeff}.j{fill:#78d6ff}.k{fill:#002a68}.l{fill:#02499e}.m{fill:#001c49}.n{fill:#232121}.o{fill:#b4b9c1}.p{fill:url(#b)}.q{fill:#959ba5}.r{fill:url(#c)}.s{fill:#5e1c17}.t{fill:#873f26}.u{fill:url(#d)}.v{fill:url(#e)}.w{fill:#00404f}.x{fill:#02979b}.y{fill:url(#f)}.aa{fill:url(#g)}</style><linearGradient id="a" x1="399.957" x2="411.078" y1="114.777" y2="79.296" gradientUnits="userSpaceOnUse"><stop offset="0" stop-color="#fff"/><stop offset=".643" stop-color="#c6c0b9"/></linearGradient><linearGradient id="b" x1="374.364" x2="378.134" y1="155.878" y2="150.38" gradientTransform="translate(23.85599 -23.7509) rotate(3.85333)" gradientUnits="userSpaceOnUse"><stop offset="0" stop-color="#fff"/><stop offset=".114" stop-color="#e0e0e0"/><stop offset=".261" stop-color="#bfbfbf"/><stop offset=".402" stop-color="#a7a7a7"/><stop offset=".532" stop-color="#999"/><stop offset=".643" stop-color="#949494"/></linearGradient><linearGradient id="c" x1="264.815" x2="281.881" y1="147.77" y2="115.881" gradientTransform="translate(31.03568 -22.3946) rotate(4.12889)" gradientUnits="userSpaceOnUse"><stop offset="0" stop-color="#fff"/><stop offset=".127" stop-color="#fbfafa"/><stop offset=".289" stop-color="#eeebea"/><stop offset=".469" stop-color="#d9d2d0"/><stop offset=".66" stop-color="#bcb0ac"/><stop offset=".713" stop-color="#b3a6a1"/></linearGradient><linearGradient id="d" x1="306.467" x2="310.239" y1="178.95" y2="173.448" gradientTransform="translate(-40.5939 41.1269) rotate(-6.96725)" xlink:href="#b"/><linearGradient id="e" x1="251.294" x2="288.17" y1="255.472" y2="197.1" gradientUnits="userSpaceOnUse"><stop offset=".214" stop-color="#fff"/><stop offset=".32" stop-color="#fafafa"/><stop offset=".454" stop-color="#eaeaea"/><stop offset=".604" stop-color="#d0d0d0"/><stop offset=".764" stop-color="#acacac"/><stop offset=".932" stop-color="#7e7e7e"/><stop offset="1" stop-color="#696969"/></linearGradient><linearGradient id="f" x1="490.466" x2="545.408" y1="209.377" y2="207.646" gradientUnits="userSpaceOnUse"><stop offset="0" stop-color="#fff"/><stop offset=".135" stop-color="#fafafa"/><stop offset=".306" stop-color="#eaeaea"/><stop offset=".496" stop-color="#d0d0d0"/><stop offset=".7" stop-color="#acacac"/><stop offset=".913" stop-color="#7e7e7e"/><stop offset="1" stop-color="#696969"/></linearGradient><linearGradient id="g" x1="519.22" x2="516.043" y1="157.614" y2="102.55" gradientTransform="matrix(1, 0, 0, 1, 0, 0)" xlink:href="#c"/></defs><title>InititalCard 1</title><g class="a"><rect width="782" height="521" class="b"/><path d="M355.453,227.325c.015,3.57037-1.97987,12.25786-2.27948,14.72838-.3069,2.46362,1.0845,7.2282,1.355,8.60349.70011,3.456,3.43571,7.46719,4.29234,6.87872.47264-.305-1.01851-4.13967-1.3258-5.66571-.32147-1.55137-.97938-5.72057-.97938-5.72057s.72619,5.54794,1.97221,7.883c1.20264,2.24956,3.31294,5.28669,3.76485,4.33416.44155-.97747-.41163-2.50735-1.02542-3.59185-.61416-1.06608-2.16554-8.66218-2.16554-8.66218s2.693,8.87547,3.45374,9.96036c.83093,1.19114,1.80726.45574,1.52988-.53324-.27237-.97823-1.79957-7.11426-1.86593-8.20988-.05678-1.114,1.081,6.62514,2.2906,6.33474.57889-.14347,1.01276-1.80532.239-4.91573-.79832-3.11769.21675-6.45251.961-9.16932.73-2.69494.52786-10.96007-.20217-12.97869-.71852-2.01823-2.77358-7.11771-2.77358-7.11771l-8.15848,1.22413A49.86379,49.86379,0,0,1,355.453,227.325Z" class="c"/><path d="M363.08745,230.0126a14.9731,14.9731,0,0,1-1.59013,7.76144c-1.23526,2.47435-2.64737,8.82751-3.88415,9.36036-1.23527.52978-1.58092-4.9445-1.94306-7.41157-.35332-2.47436-1.58283-6.36083.70779-10.769C358.6754,224.53832,363.08745,230.0126,363.08745,230.0126Z" class="d"/><path d="M366.90216,116.34667c-7.52282,8.45963-8.68442,50.02771-8.93454,64.23782-.02187,1.18348-3.17447,19.77646-6.35853,53.65984,3.27037-.08785,15.53552,2.47436,17.6512,3.18023.7097-8.82368,4.95063-54.01661,4.95063-54.01661.66712-2.46324,5.53144-37.40579,3.1714-44.47978C375.02727,131.85841,366.90216,116.34667,366.90216,116.34667Z" class="e"/><path d="M374.16719,183.36038c.33222-1.22068,1.68718-10.405,2.68727-20.21763-1.10483-9.33888-2.68727-23.55628-2.68727-23.55628-.71162,5.2982-4.59579,43.42443-5.64921,50.1309-.94678,5.97069-6.07772,37.3613-6.94163,45.92028,3.45412.68054,6.65852,1.40482,7.64174,1.73934C369.922,228.54947,374.16719,183.36038,374.16719,183.36038Z" class="f"/><path d="M456.81885,284.55516c-4.23327,5.82721-35.12632,3.5297-43.07112,4.58849-7.93981,1.055-27.88929-13.94886-27.88929-13.94886l37.0659-92.13594,22.06707,11.29421s4.94143,43.77391,5.99677,54.892C452.05043,260.3705,456.81885,284.55516,456.81885,284.55516Z" class="f"/><path d="M379.04762,393.75765c.36559,5.37914-.43,18.008-3.69888,21.99725a7.6445,7.6445,0,0,1-5.68373.809c-2.962-.956-3.55733.31956-5.43592,2.48165-1.879,2.15826-12.93417,3.56615-17.96232,2.23153-5.96493-1.57707-7.50363-4.97442.59577-9.83107,9.56637-5.73208,15.32069-11.2428,17.79659-17.18088C367.13349,388.31636,379.04762,393.75765,379.04762,393.75765Z"/><path d="M407.23806,407.53388c-.05715-3.68391,1.912-6.01441.2647-24.92734-.20064-2.28294,16.94725-3.059,16.94725-3.059-.76264,9.28709-2.25186,17.795,6.74138,28.96458,4.623,5.74665,9.61624,13.90858,1.55328,15.22479-9.88477,1.61044-17.07421-2.69878-19.76188-9.32354-.18375-.43771-.90266-.254-.90266-.254S407.35391,414.15941,407.23806,407.53388Z"/><path d="M437.82766,199.51891c4.48338,11.73575,6.71875,14.42685,6.71875,33.99731,0,19.57084-5.2959,62.67533-6.63627,77.34886-.39705,4.35679-4.48722,86.99962-4.48722,92.871,0,5.86788-21.53575,2.01133-25.11494-.92261-3.59224-2.93777-2.245-74.76785-2.245-84.5548,0-9.78351.39552-54.16392.39552-61.99134S409.15,201.47116,409.15,201.47116Z"/><path d="M430.27952,201.36067c1.35112,6.47093,2.24457,79.93715.45576,104.88637l-4.49491,99.33843s8.07945,0,7.18255-1.84944c-.89883-1.84944,3.1361-84.08755,4.48722-92.871,1.34728-8.77611,8.96754-77.62814,6.726-85.01055-2.23879-7.39392-5.37875-28.64464-5.37875-28.64464Z" class="g"/><path d="M384.853,198.39374c-6.72259,11.08513-14.23773,97.69155-15.585,107.38643-1.34038,9.7064-10.76519,92.86789-10.76519,97.03325,8.07715,9.69872,20.18809,9.69872,24.22724,6.93013-4.22865,2.89749,21.27068-104.0846,20.18808-98.40777l13.45246-76.24211,4.40475-38.65947Z"/><path d="M399.74132,85.42639l-1.19843,16.18039-7.00223,6.47477s23.72545,21.91975,23.57238,16.98983c-.14654-4.94527.26854-39.18925.26854-39.18925Z" class="c"/><path d="M433.07727,111.65153c-.066-2.1433-9.79424-3.38623-10.15293-9.879-1.59011-7.68048-2.5388-12.61079-2.64353-15.09627l-8.12166,1.66952-3.93058,54.149C415.33746,144.85168,433.23532,116.54117,433.07727,111.65153Z" class="d"/><path d="M397.29267,81.28634c-1.64726-4.20219,18.7894,3.22051,24.35958,7.107l-18.85,38.1339c-3.458-1.16928-4.50947-19.00461-5.71519-20.46429C398.86436,103.22451,400.21548,88.66914,397.29267,81.28634Z" class="h"/><path d="M424.24592,102.4308c-1.2391,1.56978-11.06825,10.0037-14.8147,9.61049-3.73916-.4005.21329,6.85685.21329,6.85685l1.06993,83.44077,26.293-2.2392,2.58291-81.20157Z" class="i"/><path d="M398.35913,101.22086c1.23527,2.66962,7.43037,9.43057,11.15457,9.82033.11585,0,2.81847,91.07714,2.81847,91.07714L387.3327,204.5854l.783-94.09931S397.33908,102.3276,398.35913,101.22086Z" class="j"/><polygon points="407.174 116.865 409.911 116.865 409.911 109.718 404.492 109.718 404.449 112.806 407.174 116.865" class="k"/><polygon points="406.826 115.773 404.095 185.011 411.841 190.736 410.042 115.806 406.826 115.773" class="k"/><polygon points="411.985 116.865 409.712 116.865 409.712 109.718 415.258 109.718 415.222 112.806 411.985 116.865" class="l"/><polygon points="412.383 115.773 419.069 184.176 411.841 190.736 409.72 115.773 412.383 115.773" class="l"/><polygon points="406.725 116.791 412.433 116.791 412.433 116.273 406.79 116.273 406.725 116.791" class="l"/><path d="M399.27637,293.20621s-35.65762.44116-35.65762-1.06647c0-21.17323,12.39021-101.05514,12.65836-110.732.21368-7.50019.67862-25.69575-.397-28.909-1.07721-3.22434-4.31421-23.80986-4.31421-23.80986s-8.7431.01841-7.26157-7.14725c.63606-3.13995,2.5718-7.14726,5.607-7.73535,8.63456-1.69139,7.73918-1.1804,22.98047-7.62563,0,0,.77033,7.24661,3.379,12.4489,2.63623,5.29091,4.91225,41.04215,6.71182,46.4209C404.89029,170.61,399.27637,293.20621,399.27637,293.20621Z" class="e"/><path d="M447.81678,291.96711l-.3583-67.43646-1.23181-9.706-5.47275-7.059-17.29826-41.29955s2.568-8.74657,3.35669-41.66323l1.34382-18.35015c13.3884,6.44868,13.04814,6.41569,21.86835,9.41944,2.853.971,1.43053,9.14017,1.43053,9.14017s-4.40474,23.6591-5.46738,26.865c-1.07529,3.22051-1.10483,19.42008-.90266,26.91259.13082,4.41587,12.08869,91.419,12.08869,106.64412Z" class="e"/><polygon points="390.945 210.016 373.538 215.828 373.185 225.009 390.583 221.012 390.945 210.016" class="f"/><path d="M421.73281,71.75642c-1.79956-9.71369-5.93192-18.34978-19.8739-15.93028-17.41373,3.01489-14.07929,13.42676-12.2686,25.3501C391.39525,93.08463,400.883,104.688,409.78223,103.335c6.77975-1.03692,11.24127-9.27942,12.17117-18.41613,1.68218-1.30163,2.66924-3.99657,2.34393-6.99266C423.87112,74.01786,424.31958,71.6279,421.73281,71.75642Z" class="d"/><path d="M396.34244,57.17918c-9.42482,3.48865-8.971,10.65087-7.63829,19.08863-.27736,0-.03491,1.53333-.27007,1.59931-2.70607.62876-1.41211,1.58091-.49833,5.49653.77607,3.40465,3.471,6.60674,4.37521,6.72489,3.72074,7.75031,10.22274,13.67688,16.55212,13.24262-4.30539-6.283-8.31654-16.69138-10.64205-28.84988A104.78671,104.78671,0,0,1,396.34244,57.17918Z" class="c"/><path d="M396.89218,54.58705a11.95554,11.95554,0,0,0-8.4581,3.77176c-2.93778,2.93778-4.39706,7.12194-3.66743,10.54845.04412,1.04422.13772,2.20582.30345,3.4595.65791,5.18042,1.98332,6.30213,1.98332,6.30213l2.16363.15806s-2.5204-6.80584,1.08835-11.19945c3.60871-4.38979,12.3737-3.90757,12.3737-3.90757Z"/><path d="M420.19257,59.06506c-2.03664-2.68765-3.79248-4.73926-7.04444-5.51878-3.64172-4.55167-20.2487-.58809-21.70493,3.13611-2.08805,3.30183-2.81423,9.07418.50562,10.5189,8.061,3.51129,13.909-1.15086,18.07817-1.8199,3.27382.61034,4.50563,1.14358,5.59166,2.47052,1.48193,1.78691,2.60134,6.50431,2.60134,6.50431l3.77215-1.69868,1.879.62109S424.26817,64.49139,420.19257,59.06506Z" class="g"/><polygon points="412.062 109.868 418.308 117.122 426.292 103.622 422.924 99.993 412.062 109.868" class="j"/><polygon points="408.163 109.696 401.212 117.31 396.855 107.989 395.645 103.879 398.054 101.221 408.163 109.696" class="i"/><path d="M445.98767,204.35369a33.13555,33.13555,0,0,1-7.07014,8.75386,12.9749,12.9749,0,0,0-3.02754,3.70233s5.04769,8.07792,8.07561,9.7578c1.66147.923,2.69149-3.70233,3.35861-6.05892.68016-2.34968,4.37866-8.07753,4.37866-8.07753Z" class="d"/><path d="M389.67855,155.18644a1.31651,1.31651,0,0,1-1.274-1.35687h0c.02417-.717.03874-1.4006.03874-2.07386h0c.03146-12.09559-4.63643-22.519-4.6821-31.69942h0a16.83055,16.83055,0,0,1,4.86012-12.46348h0v.00691a1.31173,1.31173,0,0,1,1.864-.01458h0a1.30626,1.30626,0,0,1,.0165,1.85289h0a14.15572,14.15572,0,0,0-4.10859,10.61826h0c-.04565,8.27971,4.66025,18.96741,4.6844,31.69942h0c0,.71354-.00959,1.42708-.04066,2.16555h0a1.31593,1.31593,0,0,1-1.31621,1.26518h-.04219Z" class="m"/><path d="M396.11073,154.26345a6.094,6.094,0,1,1-5.67106-6.48167A6.09763,6.09763,0,0,1,396.11073,154.26345Z" class="n"/><path d="M395.39566,154.21933a5.37371,5.37371,0,1,1-5.004-5.72478A5.372,5.372,0,0,1,395.39566,154.21933Z" class="o"/><path d="M391.67836,156.14933l-3.83238,2.78356s-4.73389-3.43763-2.98572-4.66944a35.49866,35.49866,0,0,0,3.52586-2.77243Z" class="p"/><path d="M393.05365,153.94351a2.91284,2.91284,0,1,1-2.70222-3.09583A2.90735,2.90735,0,0,1,393.05365,153.94351Z"/><path d="M392.10112,153.881a1.95195,1.95195,0,1,1-1.818-2.07731A1.94885,1.94885,0,0,1,392.10112,153.881Z" class="o"/><path d="M394.86089,104.15134c.05869-.379-6.88639,3.70617-6.88639,3.70617l-1.55329,6.53691,5.78885,2.29022-4.58466,5.65113,15.0537,43.09375s-4.86239-43.74475-6.05545-49.80329A108.81481,108.81481,0,0,1,394.86089,104.15134Z" class="f"/><path d="M423.987,101.7725c.92452.30882,8.82176,5.912,8.82176,5.912l2.29789,6.00022-6.17821,1.0588,5.29588,4.94526-10.76864,47.83608s1.58668-48.06433,2.29406-54.19307A23.91231,23.91231,0,0,0,423.987,101.7725Z" class="f"/><path d="M429.13941,154.84464c-2.695-5.9565-4.06255-19.69207-4.27931-21.18474h0a.6544.6544,0,0,1,.55893-.74308h0a.65894.65894,0,0,1,.74615.55932h0c.19526,1.50725,1.6396,15.28,4.17881,20.81685h0a6.35308,6.35308,0,0,0,5.8878,3.90066h0c1.87323.015,3.42653-.84934,3.761-1.80149h0a.65529.65529,0,0,1,.85317-.37479h0a.66365.66365,0,0,1,.37288.85624h0c-.71275,1.72438-2.76437,2.62551-4.98708,2.64008h-.04411a7.697,7.697,0,0,1-7.04827-4.669Z" class="q"/><path d="M442.15107,157.09074c-1.592,1.45623-2.02935,1.37145-2.54226,1.01506-.524-.34948-.60113-1.129.02379-2.77588.67287-1.739,1.79611-1.73551,2.69341-1.13629C442.84621,154.54311,444.02276,155.38094,442.15107,157.09074Z" class="n"/><path d="M428.241,159.1458c-2.8975-.03644-5.61623-1.42976-6.245-3.58072h0a.66374.66374,0,0,1,.46687-.80906h0a.663.663,0,0,1,.80715.47454h0c.23361,1.19114,2.502,2.63586,4.971,2.59558h0a5.9908,5.9908,0,0,0,5.30471-2.9746h0c3.14762-5.19846,5.74129-19.26548,6.12184-20.77273h0a.65451.65451,0,0,1,.79947-.47415h0a.66319.66319,0,0,1,.47454.80177h0c-.38056,1.41518-2.88983,15.49678-6.26838,21.12949h0a7.33937,7.33937,0,0,1-6.37925,3.60988H428.241Z" class="q"/><path d="M421.053,155.67172c1.4171,1.62848,1.849,1.58474,2.40607,1.30854.557-.30115.72236-1.06225.29616-2.76438-.46917-1.813-1.57554-1.94151-2.54226-1.44894C420.6487,153.06118,419.38735,153.7563,421.053,155.67172Z" class="n"/><path d="M436.94686,136.43924a.21578.21578,0,0,1,0-.07711h0c-.03874-2.01862-.60687-2.85683-2.787-3.78328h0a4.02117,4.02117,0,0,0-1.55328-.28695h0c-1.785.00768-3.4852,1.01852-3.63251,2.90479h0c-.13235,2.18012-1.13437,2.92665-2.09573,2.886h0a4.33876,4.33876,0,0,1-.76072-.07711h0a.369.369,0,0,1-.30345-.43387h0a.37221.37221,0,0,1,.4358-.30882h0a3.7279,3.7279,0,0,0,.62837.06982h0c.58272-.04028,1.11059-.13235,1.34229-2.19853h0a4.123,4.123,0,0,1,4.38595-3.59607h0a4.76528,4.76528,0,0,1,1.84023.34948h0c2.32168.89345,3.29224,2.26106,3.252,4.47456h0l-.02033-.00384-.00537.06637h.0257l.00192.01841h0a1.72941,1.72941,0,0,0,1.75353,1.7428h0a.37205.37205,0,0,1,.37327.37134h0a.37476.37476,0,0,1-.37327.3748h0a2.48665,2.48665,0,0,1-2.50735-2.49277Z" class="q"/><path d="M433.69874,127.13373a1.3216,1.3216,0,0,1-.9322-1.6139h0a46.48565,46.48565,0,0,0,1.9488-11.28384h0a7.764,7.764,0,0,0-.98553-4.338h0a1.31751,1.31751,0,0,1,.39552-1.82373h0a1.316,1.316,0,0,1,1.82337.397h0a10.34979,10.34979,0,0,1,1.39713,5.76469h0a48.82878,48.82878,0,0,1-2.03319,11.964h0l.00728.00729a1.32492,1.32492,0,0,1-1.27208.9744h0a1.44241,1.44241,0,0,1-.3491-.048Z" class="m"/><path d="M439.45421,137.15239a1.31935,1.31935,0,0,1-1.05687-1.53679h0a12.915,12.915,0,0,0,.21674-2.23536h0c-.05292-3.98161-2.24994-5.47812-4.92108-6.24651h0a3.83446,3.83446,0,0,0-1.03848-.13964h0c-2.84225.00767-5.752,3.15836-5.752,5.93041h0a4.545,4.545,0,0,0,.02915.55164h0l.00921.00691a1.32616,1.32616,0,0,1-1.1267,1.48922h0a1.32246,1.32246,0,0,1-1.4892-1.12516h0a7.59809,7.59809,0,0,1-.06254-.92261h0a8.88824,8.88824,0,0,1,8.3921-8.56282h0a6.54506,6.54506,0,0,1,1.71517.22442h0a8.61969,8.61969,0,0,1,6.88449,8.79414h0a15.73464,15.73464,0,0,1-.26279,2.71719h0a1.32386,1.32386,0,0,1-1.2978,1.07721h0a1.33308,1.33308,0,0,1-.23938-.02225Z" class="m"/><path d="M450.02452,115.87213c6.72642,1.00778,8.52254,6.39037,11.20981,19.8505,2.68765,13.46013,8.97675,42.17421,9.8702,49.34717.90266,7.17679-21.42373,42.83634-21.42373,42.83634a37.13953,37.13953,0,0,0-12.44162-17.15172c6.72642-15.254,13.45246-26.91643,13.11257-28.93466-.783-4.75-2.5718-24.5633-4.36408-29.94244C444.19,146.49473,448.78389,115.68876,450.02452,115.87213Z" class="e"/><path d="M450.35175,181.74955c.33989,2.01862-6.38615,13.68072-13.11257,28.935a34.12573,34.12573,0,0,1,3.8788,3.46333c2.56605-4.92263,16.06339-30.82821,17.02283-32.744,1.055-2.121-9.45819-50.68524-10.06508-43.424-.06407.77952-.99243,5.6143-2.362,12.43778a7.00554,7.00554,0,0,0,.2739,1.38986C447.78,157.1901,449.56878,177.00339,450.35175,181.74955Z" class="f"/><path d="M311.55439,281.94116c1.5717,9.02968,2.20736,36.06043-.27045,40.03437-2.4782,3.97086-7.8677,72.95523-7.75184,76.87086.19449,6.91171,7.3897,16.39752,17.73751,20.91236-5.67835,3.78712-14.60907,7.77985-23.03379-5.82759-3.072-4.95217-9.0903-1.54369-10.3294-4.9376-2.81463-7.73189,1.54216-7.158,2.07693-15.60687.72274-11.66594-10.36046-57.93646-2.65965-76.36334,4.71126-11.24318,1.81415-26.88727,3.0003-30.82092C291.51516,282.27568,311.55439,281.94116,311.55439,281.94116Z" class="c"/><path d="M288.43774,398.22838a10.27256,10.27256,0,0,0-3.6751,10.90482c1.46352,4.91957,4.6564,12.43471,3.68967,16.34305,2.614.61725,3.51129-.4193,3.51129-.4193s.17992-9.88669.8877-9.35346c2.11414,1.58129,5.99831,4.765,11.041,9.30935,4.89156,4.41586,19.40128,2.66156,20.37567,1.1873.98361-1.46658,2.21887-5.09564-1.70249-6.5699a35.94737,35.94737,0,0,1-7.34407-3.91946s-5.70023,6.11032-11.32911.7941C297.4398,410.40568,288.43774,398.22838,288.43774,398.22838Z" class="g"/><path d="M306.0172,314.50488c-2.05315,8.23559-41.21477,73.41482-40.4924,92.4482.15267,4.02611,3.32368,11.22132,8.42508,19.66291,5.95419,9.85639-1.96489,11.12886-10.20241,5.98181-4.56663-2.86066-12.89774-16.05955-13.72138-24.27672-.65638-6.6217,3.75374-7.50748,4.92493-11.25086,11.21019-35.854-.46341-63.53157,24.75089-78.8116C290.6052,311.64805,306.0172,314.50488,306.0172,314.50488Z" class="d"/><path d="M252.53382,400.07053c-1.91734,4.971-.04065,9.48581,1.82911,14.82045,1.5882,4.51484,3.0989,10.09232,8.333,12.60734,8.798,4.22061,10.199-3.51858,10.199-3.51858s10.55727,10.73182,3.1691,15.30535c-3.79056,2.33856-10.03362.87888-15.83513-2.10991-4.88082-2.515-5.86059-12.43088-8.20835-19.00078-2.34738-6.563-5.15818-8.4416-4.22252-11.72118C248.741,403.16252,252.53382,400.07053,252.53382,400.07053Z"/><path d="M249.67316,409.968c.46878,3.04826,3.28687,18.52663,2.11606,19.46765l2.10991.23554s1.17158-4.69514,2.34048-5.62888C257.41809,423.097,249.67316,409.968,249.67316,409.968Z"/><path d="M321.79709,247.66035c5.29666,20.6515-1.05841,72.54323-1.05841,72.54323l-43.9523,1.59586,10.06086-83.14691Z" class="l"/><path d="M312.82993,140.39553c-1.50916-.09591-3.35285-2.69494-6.91745-7.11465-2.12143-8.45617,3.63058-11.24663,9.52953-14.56649,0,0-22.97279-32.126-23.03341-21.4456-.15651,29.02327-15.57618,35.46083-15.99548,35.22528-1.864,1.55137,31.38562,30.814,28.96842,33.27C301.403,173.10579,312.70334,141.373,312.82993,140.39553Z" class="d"/><path d="M309.08694,127.45367l-21.1548,17.04853-8.40862-9.574a24.18895,24.18895,0,0,1,3.88417-7.65095c4.84783-5.73552,8.29121-16.8571,8.29121-16.8571S300.10712,123.18511,309.08694,127.45367Z" class="r"/><path d="M283.40769,130.10066c3.97087,7.14725,18.44414,21.446,21.97385,23.56741,0,0,4.97058-10.94166,3.97393-15.88692-.16726-.80868,5.368,4.50026,6.61786,4.50026,1.25751,0,6.68807,104.25032,5.29628,111.20308-.445,2.202-40.51274,4.76458-41.83586,3.44454-3.756-3.75757-10.52619-120.55616-10.52619-120.55616Z" class="j"/><path d="M323.32123,120.288c.43733-.98552-.51292-1.98562.35829-7.11043.63988-1.29433,1.07184-2.26144,1.2391-2.65466,5.98219-13.65156,3.76869-24.85753-7.09547-29.60062-10.8538-4.76842-21.334-3.20938-27.33419,10.45637-5.97606,13.64043-.86775,24.48273,4.03148,30.57848,1.63423,2.0259,11.08475,9.04081,13.94541,8.6476,3.82548-.5225,7.552-4.71011,10.5097-9.1513C320.20736,121.62991,322.50871,122.10752,323.32123,120.288Z" class="d"/><path d="M328.28835,96.0481a3.51853,3.51853,0,0,1-2.52423.2647c-.239-.04066.25971-.61034-.00689-.66175-1.90853-.30881-3.62332-.08478-7.16031,1.09179-.5716.18721-1.39178-.79026-1.99484-.52556-1.84176.80522-4.74616,3.53315-6.88639,4.45231-.59154.37864-.66712,1.0845-1.292,1.5295-.61954.44117-2.03127.02187-2.68189.53669-1.0868.85663-2.35506,1.147-3.537,2.22462-.92875.90036-2.41567.132-2.48933-1.7543,0,0-1.467-2.95926-3.61947-.67594-3.26653,3.46679-.85279,8.65834-.85279,8.65834l-6.56108,5.13209s-14.82966-17.754-2.17475-33.65551c11.93986-15.00421,28.08225-7.08127,39.28285,1.574C330.82524,88.12862,328.28835,96.0481,328.28835,96.0481Z" class="s"/><path d="M322.95332,95.68405c-6.25-2.73177-6.54957-9.55947-10.99651-14.88644-4.445-5.3239-13.42521-7.04444-15.79293-5.64039,3.59952.04066,11.38128-.6652,14.41228,8.633,3.02754,9.29784,4.06447,12.16234,7.49329,13.01858C321.50132,97.65471,322.95332,95.68405,322.95332,95.68405Z" class="t"/><path d="M322.02534,95.89005c-3.34209-4.80179-1.20419-7.55581-6.66581-13.47087-5.45625-5.91583-13.7137-7.12539-13.7137-7.12539s10.166.87466,15.82976,7.22781c5.66187,6.34587,8.9449,14.2362,7.125,14.306A3.03918,3.03918,0,0,1,322.02534,95.89005Z" class="t"/><path d="M301.06694,74.59867c.94295-.0257,14.76483,1.98179,21.84994,12.10364,4.798,6.84573,1.5107,8.76115,2.08078,9.52187.572.76878,1.45237-.12812,1.54636-.65791.08632-.52556,2.61593-5.22454-5.20995-12.60312C312.30245,74.45519,300.20111,74.6355,301.06694,74.59867Z" class="t"/><path d="M311.59505,99.59238c-3.916-.89729-4.11817-5.20267-7.22473-12.53752-3.10888-7.3383-5.80766-6.05508-5.80766-6.05508a4.28288,4.28288,0,0,1,3.83315,4.59578c-.24092,4.15808,5.69525,14.75064,7.31988,15.074A1.44542,1.44542,0,0,0,311.59505,99.59238Z" class="t"/><path d="M309.71569,100.66959c-1.279.79065-2.22424,3.43764-4.63415-1.658-2.4172-5.09258-4.0426-12.40479-4.90268-13.45323-.88233-1.06224-.08248.22059.79755,4.01882.88616,3.80169,2.46016,13.33124,4.53172,13.82419C307.57048,103.89048,309.71569,100.66959,309.71569,100.66959Z" class="t"/><path d="M287.25925,83.27926c-5.13631-4.445-12.64378-2.27219-14.42149,7.93022-1.47464,8.52638,9.30553,17.89058,13.99107,12.08523C291.51516,97.504,287.25925,83.27926,287.25925,83.27926Z" class="s"/><path d="M279.96123,129.57164s3.252,5.93732,9.8844,16.06991c6.00406,9.16971,11.91567,26.99737,13.68647,30.53091,1.76275,3.52932,1.84944,36.36541,1.84944,44.47978,0,8.11781.70778,109.967.70778,109.967l-51.543-4.23557s3.17524-55.774,4.23749-77.66074c1.05534-21.89022,7.7668-44.83654,7.7668-50.13436,0-5.29052-1.77-20.475-2.474-33.18518-.70432-12.70977-4.41395-27.97523-4.41395-27.97523S278.23494,129.98672,279.96123,129.57164Z" class="e"/><path d="M306.78943,134.34351c5.5721,2.61784,5.29589,3.69888,10.24308,6.87527,3.35477,2.16554,10.55151,29.29526,14.563,39.71826,3.53316,9.18083-5.12365,4.67673-5.8276,8.20644a95.44149,95.44149,0,0,0-.79217,34.689c2.82537,17.65158,3.7077,102.19871,3.7077,102.19871l-12.53369,2.647s-.53093-67.962-1.23871-77.84143c-.70778-9.88592-.34756-66.89555-1.05534-71.84081-.7074-4.94143-.27391-27.21412-1.85635-31.94954C310.4089,142.28141,306.78943,134.34351,306.78943,134.34351Z" class="e"/><path d="M263.01744,165.40344c.70394,12.71015,2.47435,27.89466,2.47435,33.18518,0,5.29782-6.708,28.24414-7.77025,50.13436-1.05534,21.88676-4.23365,77.66074-4.23365,77.66074l18.6348,1.53372c1.48692-33.30679,2.0075-70.61323,12.07756-123.94622,3.53354-18.71-10.53156-56.1085-18.70846-63.63132-1.31774.52595-6.88792-2.91169-6.88792-2.91169S262.31694,152.69367,263.01744,165.40344Z" class="f"/><path d="M279.03632,129.24441c0,.96673-2.91169,2.70952-.66366,11.04792,1.879,6.95238,8.03342,31.19956,8.73928,32.96461.70778,1.76466-2.18549.99626-2.18549.99626s-8.53712-30.00841-9.19886-33.03058c-2.118-9.66612.20945-10.5964.72964-11.25431A2.05051,2.05051,0,0,1,279.03632,129.24441Z"/><path d="M292.94491,177.23471a5.79035,5.79035,0,1,1-6.48014-5.34193A5.94425,5.94425,0,0,1,292.94491,177.23471Z" class="n"/><path d="M292.63072,177.38931a4.823,4.823,0,1,1-5.41212-4.75384A5.11011,5.11011,0,0,1,292.63072,177.38931Z" class="o"/><path d="M289.87517,179.91162l-3.23739,3.4595s-5.29626-2.48894-3.81434-4.02189a36.058,36.058,0,0,0,2.947-3.39351Z" class="u"/><path d="M290.54957,177.52166a2.77467,2.77467,0,1,1-3.09889-2.54418A2.84692,2.84692,0,0,1,290.54957,177.52166Z"/><path d="M290.20048,177.36744a1.61222,1.61222,0,1,1-1.79957-1.74663A1.79431,1.79431,0,0,1,290.20048,177.36744Z" class="o"/><path d="M320.54341,180.37082c-3.00184-4.305-6.344-15.18413-6.75557-16.35686h0a.46815.46815,0,0,1,.29423-.5996h0a.46331.46331,0,0,1,.59922.29078h0c.39667,1.18041,3.7944,12.07756,6.63972,16.12937h0a4.74533,4.74533,0,0,0,3.94135,2.21657h0c1.87359.00767,3.48173-1.2203,3.59758-2.35659h0v.00729a.47209.47209,0,0,1,.52251-.41163h0a.47509.47509,0,0,1,.40432.52979h0c-.27237,1.8268-2.29444,3.15413-4.52441,3.17255h0a5.72864,5.72864,0,0,1-4.719-2.62167Z" class="q"/><path d="M330.55517,179.84909c-.9322,1.47771-1.27976,1.48155-1.72054,1.29012-.43425-.18721-.62531-.80867-.44155-2.26068.19679-1.5295,1.04038-1.73551,1.80685-1.40828C330.638,177.65056,331.65616,178.11359,330.55517,179.84909Z" class="n"/><path d="M319.15931,184.18018a4.10647,4.10647,0,0,1-3.78482-1.89739h0a.46661.46661,0,0,1,.224-.62109h0a.4643.4643,0,0,1,.62338.21675h0a3.23657,3.23657,0,0,0,2.9374,1.36377h0a4.77649,4.77649,0,0,0,4.6656-3.57727h0c.89346-2.978,1.07184-8.71319,1.06455-12.91922h0c0-2.30173-.046-4.14388-.046-4.87507h0a1.1638,1.1638,0,0,1,.01457-.27966h0a.467.467,0,0,1,.544-.38247h0a.47552.47552,0,0,1,.38055.544h0a.4814.4814,0,0,0,0,.11815h0c0,.6982.048,2.56605.048,4.87507h0c0,4.24247-.14884,9.97071-1.10483,13.19159h0a5.723,5.723,0,0,1-5.546,4.24286h-.02033Z" class="q"/><path d="M314.6717,182.60273c1.33155,1.05534,1.6419.93757,2.01325.61034.35446-.34564.35446-.99281-.2555-2.29444-.65445-1.3749-1.48922-1.27554-2.12871-.702C313.93284,180.56224,313.11151,181.36018,314.6717,182.60273Z" class="n"/><path d="M315.05455,167.05416a.37643.37643,0,0,1,.3564-.39666h0c.62147-.107.98705.08823,1.06415-1.25752h0c0-.21674-.0234-.47415-.05293-.75381h0a3.19069,3.19069,0,0,1-.03108-.47416h0a3.57515,3.57515,0,0,1,3.636-3.45605h0a2.60532,2.60532,0,0,1,.56622.06253h0a3.49833,3.49833,0,0,1,3.25542,3.12882h0c.22633.99627.77031,1.03309,1.18961,1.06609h0a1.70139,1.70139,0,0,0,.31073-.02571h0a.38583.38583,0,0,1,.44271.29808h0a.38.38,0,0,1-.29578.44078h0a2.07,2.07,0,0,1-.45766.04066h0a1.89243,1.89243,0,0,1-1.92694-1.66185h0c-.38937-1.66568-.89307-2.19163-2.6654-2.55185h0a1.99062,1.99062,0,0,0-.41891-.04411h0a2.84294,2.84294,0,0,0-2.89174,2.70261h0a3.70012,3.70012,0,0,0,.03107.3748h0a6.88161,6.88161,0,0,1,.06253.85317h0a1.72593,1.72593,0,0,1-1.78691,2.01133h0l.00767.01074a.38786.38786,0,0,1-.39513-.36789Z" class="q"/><path d="M313.44948,164.21958a6.07078,6.07078,0,0,1-.32723-2.01094h0c.02417-3.364,2.37155-7.02987,6.01519-7.11772h0c.09168,0,.19258.01074.14693.01074h0c3.0847-.01074,6.67309,2.20621,6.79815,7.964h0a.93832.93832,0,0,1-.9084.97056h0a.94079.94079,0,0,1-.97211-.90842h0c-.28695-5.00012-2.59788-5.97452-5.08874-6.15444h0c-2.11222.02916-4.10283,2.69111-4.1105,5.23529h0a4.39788,4.39788,0,0,0,.22633,1.401h0v.00691a.94081.94081,0,0,1-.58272,1.195h0a.92646.92646,0,0,1-.29806.048h0a.94466.94466,0,0,1-.89884-.63988Z"/><path d="M314.56352,139.45412c1.0239,1.6139,5.8,11.80173,5.8,16.203a2.3783,2.3783,0,0,1-2.006.7423s-1.56787-11.3387-5.38221-15.44537C310.13537,137.89892,314.56352,139.45412,314.56352,139.45412Z"/><path d="M284.72965,124.80284l-6.61786,5.56252-3.44684,10.85342,13.065,6.00751-3.00031,5.64346s18.26731,25.15177,19.8555,28.85794c1.5901,3.70962-3.43725-18.00068-8.208-25.942-4.76113-7.94519-9.21919-19.77685-10.93782-24.27289C283.715,127.01634,284.72965,124.80284,284.72965,124.80284Z" class="f"/><path d="M313.85574,181.72769l4.58849-32.91666-4.41395-4.23173,3.00223-3.36052-7.76489-5.81992-4.23747-3.52971a91.79031,91.79031,0,0,1,5.1198,10.41226C311.99939,147.04638,313.85574,181.72769,313.85574,181.72769Z" class="f"/><path d="M296.0204,214.12952l-39.3542,41.47256s3.17293-48.98733,11.64753-55.86259C276.78638,192.85348,296.0204,214.12952,296.0204,214.12952Z" class="v"/><path d="M306.86845,196.47487c1.78883.23516,6.63435-.58848,7.08858.22749.45573.82018-2.57949,3.25771-4.17689,3.08508a7.2663,7.2663,0,0,1-3.16373-1.45968Z" class="d"/><polygon points="298.857 218.185 327.448 175.639 354.806 178.114 328.415 219.067 298.857 218.185" class="k"/><path d="M300.69906,197.78724c3.52932-1.06992,5.58859-1.40828,6.92858-1.25751,1.34383.15421,3.66359,2.54034,1.73744,1.99253,0,0-1.13055-.08785.099.48221,1.21723.58425,4.84053,0,6.09037-.3349a33.25964,33.25964,0,0,1,5.66763-1.13974c1.18155.16189-.34948.6909-1.5644,1.72438-1.22108,1.04038-3.16757,1.40827-4.20412,1.80532-1.03348.4005,5.8955-2.77972,7.19674-2.5039.9744.20946.16918,1.30125-1.2038,2.07a67.06233,67.06233,0,0,1-7.02642,2.44482s8.34569-2.58484,8.31654-1.66568c-.02954.91187-2.46324,2.17667-4.53518,2.9746a14.91543,14.91543,0,0,1-5.0312.64333s7.98357-2.11375,7.89724-.97785c-.0936,1.12133-4.7408,3.26079-7.46374,4.32725-1.61582.63989-12.0204-.30114-13.73557-.78642-1.706-.48566-9.30743-2.53344-9.30743-2.53344l.71545-7.40466Z" class="d"/><polygon points="293.517 195.581 298.64 196.74 296.02 214.13 287.989 211.339 293.517 195.581" class="i"/><path d="M262.14431,137.67834c-6.03358-1.04768-7.50786,9.82416-6.515,17.33509,1.00163,7.51131-1.68217,32.79926,4.2206,37.9981,8.90463,7.82358,28.85065,26.85006,30.44076,19.96367l5.82338-17.73943s-23.37407-10.4418-23.59465-12.43087c-.47377-4.254-1.7332-31.376-3.05708-36.69955C267.67767,138.86564,262.14431,137.67834,262.14431,137.67834Z" class="e"/><path d="M251.36992,155.25281c.99818,7.50747-2.35084,37.13687,3.55541,42.32459,8.90116,7.82434,28.48236,19.7216,34.03989,21.83919,0,0,4.34183-12.79455,3.9724-12.80184-7.91412-.173-28.19924-10.32018-31.50876-15.87924-3.31027-5.55139-4.76266-41.57154-1.7662-53.3073C254.89578,135.30679,250.37365,147.74111,251.36992,155.25281Z" class="f"/><path d="M345.31271,196.94519c1.10866,1.17657-.75152,2.22078-.75152,2.22078s-5.07569-.67287-5.51686-1.45968c-.44116-.77568.842-.91915,2.10647-.89729C343.01865,196.83509,345.31271,196.94519,345.31271,196.94519Z" class="c"/><path d="M344.153,198.84949c.191.55932-.3514,2.17321-1.28705,2.103-.94676-.07327-3.80323-.4592-3.53316-1.26825.272-.81251.00729-.84934,1.76313-.93029A19.27753,19.27753,0,0,1,344.153,198.84949Z" class="c"/><path d="M346.50769,190.978c.57927.39744.53515,3.03714-.36022,3.21705-.90075.1876-5.69486-.10281-5.81609-.4005a1.31924,1.31924,0,0,1,1.04-1.526c.9744-.18337,2.004-.44117,3.05555-.577A6.742,6.742,0,0,0,346.50769,190.978Z" class="c"/><path d="M346.14747,194.195c1.083.80523,1.39331,1.69523.32532,2.61784-1.06226.9157-7.25238-.23171-7.5002-1.42669-.25012-1.18731,1.33654-1.147,2.20928-1.213C342.06458,194.12173,346.14747,194.195,346.14747,194.195Z" class="c"/><path d="M537.11622,426.82161c-.17992.88233-.88272,5.386-.88272,5.386s-1.06033,1.67643-8.73928,1.49651c-4.41355-.09936-20.21187,2.20966-24.3592.618-3.67126-1.40866-3.26654-6.53346-2.73906-6.35316C500.92727,428.14511,537.11622,426.82161,537.11622,426.82161Z" class="f"/><path d="M534.99479,412.3468c0,7.412,5.12327,15.28732-.26278,17.73982-4.85665,2.20582-5.82412-1.84983-14.82813,1.06263-5.13592,1.66146-12.18037,1.59164-15.70815,1.06225-2.61745-.397-7.79594-4.684.61571-7.15455,9.00245-2.64737,19.85932-11.916,23.03418-11.916A43.904,43.904,0,0,0,534.99479,412.3468Z" class="f"/><path d="M527.05152,230.18178c1.06071,5.30165,5.2959,40.24766,3.17831,49.77759-2.1176,9.53338,0,32.83609,2.11759,48.71879,2.116,15.88654,6.35891,78.37812,4.23748,88.96684-15.88462,0-21.80963,1.327-21.80963,1.327s-2.901-60.46184-5.0224-70.3447a562.23443,562.23443,0,0,1-10.057-63.36968c-3.18061-29.65549-.88617-49.59767-.88617-49.59767Z" class="w"/><path d="M548.40889,430.53123c-.173.87888-.877,5.3826-.877,5.3826s-1.0588,1.68026-8.73929,1.5c-4.41548-.10281-20.21033,2.20621-24.35767.61763-3.67471-1.40789-3.27037-6.53308-2.73867-6.35661C512.22378,431.85127,548.40889,430.53123,548.40889,430.53123Z" class="f"/><path d="M546.29283,416.05259c0,7.41962,5.12173,15.29115-.2647,17.73981-4.85128,2.20966-5.82376-1.84944-14.82582,1.05918-5.13785,1.6653-12.17884,1.59548-15.70854,1.06608-2.61937-.39359-7.79249-4.68056.618-7.15492,9.00209-2.647,19.85511-11.91567,23.03379-11.91567A43.87924,43.87924,0,0,0,546.29283,416.05259Z" class="e"/><path d="M538.70633,243.77426c1.05342,5.2982,4.94143,29.65549,2.82384,39.18541-2.1199,9.52955-.8808,50.60813,3.52548,66.0209,3.53354,12.34993,7.06477,63.89908,4.94335,74.49164-15.885,0-26.47373.702-26.47373.702s-.26086-64.94714-7.06247-79.78562c-6.80392-14.84271-8.1182-28.23647-11.29459-57.89579-3.17869-29.65165-2.82537-43.0715-2.82537-43.0715Z" class="x"/><path d="M537.15841,101.9014c7.28344-1.18769,21.18282,25.41992,19.59616,43.29208-1.45968,16.43052-.65791,26.0598,2.09228,27.90541-4.1435.80522-8.74312,1.69867-11.074-10.27608-2.32551-11.96746-7.81092-17.76551-7.30377-27.42779.52019-9.65077-4.4339-29.89064-4.4339-29.89064Z"/><path d="M541.00039,143.2044c-1.6158-5.449-10.19168-9.92736-12.447-36.40223-.88078-10.423-20.49535,14.01906-20.49535,14.01906,5.50917,3.70579,9.065,15.54474,4.47608,25.43066-6.965,14.66969-10.33093,21.3355-9.39911,20.96416C499.09281,175.86365,542.69369,144.86625,541.00039,143.2044Z" class="d"/><path d="M508.64075,110.81293h-.0111v-.00307h0c.0111,0,.0111,0,.0111.00307Z"/><path d="M527.49422,144.1343c-2.886,1.64-21.71183,11.38282-21.71183,11.38282-3.16757,5.78732-4.69706,6.38654-9.39605,15.09628-2.169,4.00386-.98322,12.0814,2.05929,14.42341,2.07731,1.59548-1.24294,15.43041-1.6396,18.29107-2.81118,20.40522-3.99657,76.10247-3.99657,76.10247s55.07195,1.58053,55.07195-2.118c0-27.53406-11.43039-78.672-6.74868-105.64018,1.44511-8.29812,6.84228-14.50435,4.10476-23.2141-1.63768-2.99263-4.24823-6.43026-7.41349-11.33832C537.15841,138.43906,535.17317,139.76677,527.49422,144.1343Z" class="e"/><path d="M496.03188,170.9625c-2.15979,4.00769-.98361,12.08523,2.06273,14.42685,2.07693,1.59242-1.2391,15.42735-1.64,18.29492-2.81425,20.40176-3.99657,76.09863-3.99657,76.09863s-.41546-.08823,12.26515-.08823c-1.92078-28.36115,5.175-86.60258,3.9747-95.05146-1.09025-7.66207,12.53371-34.773,10.41571-36.01209-5.85675,3.11385-13.33123,6.886-13.33123,6.886C502.61482,161.30444,500.73239,162.25275,496.03188,170.9625Z" class="f"/><path d="M538.87934,138.04239a26.76893,26.76893,0,0,1-6.052,5.53336C529.47025,145.64923,508.795,156.495,508.795,156.495l-4.03148.25741-1.23143,2.33855,5.51687-1.434s22.77448-11.618,24.58362-13.22114A57.59566,57.59566,0,0,0,538.87934,138.04239Z" class="i"/><path d="M506.65743,231.16c5.41175.6652,21.63666.83092,23.18266.33413,1.55326-.49986,3.48173,22.12231,1.74085,22.95707-3.02754,1.44472-27.82446,2.49277-27.82446-1.5C503.75648,248.95814,506.65743,231.16,506.65743,231.16Z" class="f"/><path d="M506.75832,231.76652c4.94143.61034,19.76534.76111,21.1809.30536,1.4175-.46341,3.18022,20.20612,1.5905,20.97106-2.769,1.32-25.42031,2.276-25.42031-1.37144C504.10941,248.021,506.75832,231.76652,506.75832,231.76652Z" class="e"/><rect width="35.663" height="54.337" x="500.581" y="171.818" class="l" transform="translate(-36.84471 192.93312) rotate(-20.37409)"/><path d="M545.50065,210.58907l-53.21906,56.39545s1.65456-39.38029,2.11759-45.00879c.47263-5.62888,3.17869-34.1523,3.17869-34.1523l35.152-37.44262Z" class="y"/><path d="M534.35874,173.26077c-1.59546,1.38219,1.5717,21.58869,1.87476,26.02988.12315,1.64727-7.31411-.42275-16.59623,3.30567-1.50879-.00729-2.8177-.1546-3.17447-.56623a12.52575,12.52575,0,0,0-4.6142-3.298c-3.7687-1.82374-5.068-3.69505-5.528-3.58495-1.58973.37173,1.22836,4.23212,1.22836,4.23212a32.93927,32.93927,0,0,0-4.94143-.17263,7.9738,7.9738,0,0,0-3.70809,1.23142c-1.00354.71661-1.39715,2.12143.11969,1.59549a5.958,5.958,0,0,1,3.23355-.44462c.26124.07327,2.866.29769,2.866.29769a14.00716,14.00716,0,0,0-4.27431.31955,7.44024,7.44024,0,0,0-2.64507,1.68027s-.57351,1.607,1.05534,1.14357c1.23872-.35293,1.8529-.52172,1.8529-.52172l3.71153.61034s-6.34433-.03721-6.006,1.41556c.15269.69436-.23132,1.26442,2.73906,1.05842a8.79359,8.79359,0,0,1,4.52942.64717s-5.04577-.717-6.38231-.29386c-1.0258.31956-.95023,1.34153,1.14511,1.5038,2.103.14309,7.25429,2.95542,11.12733,1.96644,1.69292-.42965,3.38815-.76839,5.19884-1.0515a.4691.4691,0,0,0,.02378.05907c14.62558,4.56625,27.32077,4.445,31.04535,1.228,3.73187-3.22434,4.173-37.91333-1.76658-47.66345C544.60184,160.92926,535.95231,171.882,534.35874,173.26077Z" class="d"/><path d="M538.88625,144.925c12.17883-1.93768,15.50637,36.62243,13.93812,46.95413a52.14455,52.14455,0,0,0-21.001-.34948s-2.84342-26.80249-2.29369-31.77346C530.353,152.13128,532.62518,145.92467,538.88625,144.925Z" class="e"/><g class="z"><path d="M512.8065,144.66408c-1.9231,4.04414-3.56653,7.56617-4.96905,10.614l3.3751,1.29779,17.21-34.41661-17.55375,1.798A20.01872,20.01872,0,0,1,512.8065,144.66408Z" class="aa"/></g><path d="M495.36284,122.50111c-.25585-1.02542.83476-1.81606.84167-6.919-.38938-1.353-.6395-2.36426-.74269-2.77243-3.476-14.17712.55548-24.62582,11.83511-27.376,11.27425-2.7686,21.13333.4964,24.6239,14.69539,3.4618,14.17328-3.29224,23.78032-9.03889,28.83568-1.915,1.68756-12.22641,6.86415-14.9179,6.00407-3.60872-1.15087-6.502-5.8276-8.6123-10.60331C498.14947,124.32485,495.837,124.402,495.36284,122.50111Z" class="d"/><path d="M534.26859,90.65477c-7.35517-12.17-24.70331-9.91279-35.84176-1.46736a9.44746,9.44746,0,0,0-3.75334,6.01519c-5.116,5.72057-.05718,6.7575,3.349,7.13229,3.45833.3679,9.80573,1.39715,10.01711,6.80929,1.129-.493,1.9745-2.42641,1.69869-4.79067,2.16016,1.691,5.686,3.91908,6.46708,4.92647.74077,1.03309,1.4854-4.15424,3.93058-2.309,3.34212,2.50773,2.37654,8.62918,2.37654,8.62918l6.92667,6.4084S544.56845,107.68833,534.26859,90.65477Z"/></g></svg>