<svg xmlns="http://www.w3.org/2000/svg" viewBox="0 0 782 521"><defs><style>.a{isolation:isolate}.b{fill:none}.c{fill:#646f91}.d{fill:#8695c2}.e{fill:#ffd900}.f{fill:#a6de00}.g{fill:#72b100}.h{fill:#f0e8d8}.i{fill:#33496d}.j{fill:#369ae3}.k{fill:#42aaf7}.l{fill:#46a2f9}.m{fill:#3ea0f3}.n{fill:#409afb}.o{fill:#3ea6f3}.p{fill:#329ae5}.q{fill:#2eaaf9}.r{fill:#42b0f5}.s{fill:#389af1}.t{fill:#3caced}.u{fill:#469ae5}.v{fill:#42a4f5}.w{fill:#44aee7}.x{fill:#40aee3}.y{fill:#3eaaed}.z{fill:#30ace5}.aa{fill:#30a6e9}.ab{fill:#46a6e7}.ac{fill:#3aa6ed}.ad{fill:#4898ed}.ae{fill:#2ea6ef}.af{fill:#48a2f5}.ag{fill:#36a0f3}.ah,.au,.ax{opacity:.3}.ah,.ax{mix-blend-mode:overlay}.ai,.ax{fill:#fff}.aj{fill:#f0e3c7}.ak,.ap,.au{fill:#9898a3}.ak{opacity:.7}.ak,.an,.ao,.au,.bh{mix-blend-mode:multiply}.al{fill:#eb3127}.am{fill:#f5f0e4}.an{fill:#d6cab0}.ao{opacity:.5}.aq{fill:#2a3c59}.ar{fill:#34495e}.as{fill:#6d4c41}.at{fill:#4f372f}.av{fill:#ffec82}.aw{fill:#1b2630}.ay{fill:#2c3e50}.az{fill:#fcf3d1}.ba{fill:#ecf0f1}.bb{fill:#d42d23}.bc{fill:#f7f3eb}.bd{fill:#314559}.be{fill:#bdc3c7}.bf{fill:#3b536b}.bg{fill:#5274ad}.bh{fill:#c4b4ac}.bi{fill:#e74c3c}.bj{fill:#ff7769}.bk{fill:#c0392b}.bl{fill:#912b21}</style></defs><title>InititalCard 3</title><g class="a"><rect width="782" height="521" class="b"/><path d="M184.33422,387.00623c0,27.9951,18.95879,50.67469,42.34576,50.67469H556.65423C580.041,437.68092,599,415.00133,599,387.02471Z" class="c"/><path d="M184.33422,387.00623A42.349,42.349,0,0,0,226.68,429.36747H556.65423A42.34585,42.34585,0,0,0,599,387.0217Z" class="d"/><path d="M597.08462,399.363a42.13417,42.13417,0,0,0,1.45357-6.41817H184.79787a42.13719,42.13719,0,0,0,1.4545,6.41817Z" class="e"/><path d="M599,387.0217a42.3493,42.3493,0,0,0-42.34577-42.36124H226.68a42.34585,42.34585,0,0,0-42.34576,42.34577Z" class="f"/><path d="M567.91594,346.22215c9.32023,7.96114,6.09474,27.42356-9.65636,27.42356h-336.327c-14.80762,0-18.53442-17.15131-11.23238-25.84178a42.3403,42.3403,0,0,0-26.366,39.2023L599,387.0217A42.33583,42.33583,0,0,0,567.91594,346.22215Z" class="g"/><path d="M306.84424,353.9227c0-.98275,1.43648-1.77954,3.20862-1.77954,1.77192,0,3.2084.79679,3.2084,1.77954,0,.983-1.43648,1.77977-3.2084,1.77977C308.28072,355.70247,306.84424,354.90569,306.84424,353.9227Z" class="g"/><ellipse cx="423.457" cy="354.302" class="g" rx="6.343" ry="3.518"/><path d="M543.73958,377.89392c0-1.55707,2.27577-2.81936,5.08311-2.81936s5.08334,1.26229,5.08334,2.81936c0,1.55729-2.276,2.81958-5.08334,2.81958S543.73958,379.45121,543.73958,377.89392Z" class="g"/><path d="M396.74409,378.60823c0-1.70746,2.49524-3.0915,5.57334-3.0915,3.07787,0,5.57333,1.384,5.57333,3.0915,0,1.70723-2.49546,3.09126-5.57333,3.09126C399.23933,381.69949,396.74409,380.31546,396.74409,378.60823Z" class="g"/><path d="M509.2272,374.35679c0-1.0687,1.56215-1.93525,3.48908-1.93525s3.48862.86655,3.48862,1.93525c0,1.06892-1.56169,1.93547-3.48862,1.93547S509.2272,375.42571,509.2272,374.35679Z" class="g"/><path d="M293.73461,363.22121c0-1.44479,2.112-2.61652,4.71718-2.61652s4.71717,1.17173,4.71717,2.61652c0,1.445-2.112,2.61675-4.71717,2.61675S293.73461,364.66623,293.73461,363.22121Z" class="g"/><ellipse cx="440.339" cy="349.628" class="g" rx="2.805" ry="1.556"/><path d="M348.454,370.02726c0-1.58941,2.32313-2.878,5.18869-2.878,2.866,0,5.18914,1.28862,5.18914,2.878,0,1.58964-2.32313,2.878-5.18914,2.878C350.77711,372.90529,348.454,371.6169,348.454,370.02726Z" class="g"/><path d="M320.44664,377.78141c0-1.54621,2.25959-2.79949,5.0473-2.79949,2.78724,0,5.04707,1.25328,5.04707,2.79949,0,1.546-2.25983,2.79949-5.04707,2.79949C322.70623,380.5809,320.44664,379.32739,320.44664,377.78141Z" class="g"/><path d="M493.19588,369.25843c0-.91183,1.33251-1.65109,2.97668-1.65109s2.97691.73926,2.97691,1.65109c0,.91206-1.33274,1.65132-2.97691,1.65132S493.19588,370.17049,493.19588,369.25843Z" class="g"/><path d="M421.50077,364.3204c0-1.3011,1.90129-2.3557,4.24683-2.3557,2.34576,0,4.24728,1.0546,4.24728,2.3557s-1.90152,2.35593-4.24728,2.35593C423.40206,366.67633,421.50077,365.6215,421.50077,364.3204Z" class="g"/><path d="M387.75607,363.88308c0-.73325,1.0717-1.32743,2.39336-1.32743,1.32189,0,2.39335.59418,2.39335,1.32743s-1.07146,1.32767-2.39335,1.32767C388.82777,365.21075,387.75607,364.61633,387.75607,363.88308Z" class="g"/><path d="M368.15274,364.54865c0-1.25883,1.83959-2.27924,4.10889-2.27924,2.26954,0,4.10914,1.02041,4.10914,2.27924s-1.8396,2.27946-4.10914,2.27946C369.99233,366.82811,368.15274,365.80747,368.15274,364.54865Z" class="g"/><path d="M349.68208,355.49432c0-1.04467,1.52681-1.89158,3.40984-1.89158,1.8835,0,3.41007.84691,3.41007,1.89158,0,1.04444-1.52657,1.89135-3.41007,1.89135C351.20889,357.38567,349.68208,356.53876,349.68208,355.49432Z" class="g"/><ellipse cx="208.592" cy="369.655" class="g" rx="2.933" ry="1.627"/><path d="M570.40956,371.46558c0-.90882,1.3279-1.64531,2.96653-1.64531,1.63814,0,2.966.73649,2.966,1.64531s-1.3279,1.64555-2.966,1.64555C571.73746,373.11113,570.40956,372.37441,570.40956,371.46558Z" class="g"/><path d="M458.14154,351.35492c0-.69606,1.01717-1.26043,2.27183-1.26043,1.25513,0,2.27231.56437,2.27231,1.26043,0,.69583-1.01718,1.26021-2.27231,1.26021C459.15871,352.61513,458.14154,352.05075,458.14154,351.35492Z" class="g"/><path d="M291.77257,353.82613c0-1.15,1.68066-2.08217,3.75359-2.08217,2.07317,0,3.7536.93216,3.7536,2.08217s-1.68043,2.082-3.7536,2.082C293.45323,355.90808,291.77257,354.97615,291.77257,353.82613Z" class="g"/><path d="M480.00216,367.64222c0-.71616,1.04674-1.29671,2.33768-1.29671,1.29116,0,2.33768.58055,2.33768,1.29671s-1.04652,1.29648-2.33768,1.29648C481.0489,368.9387,480.00216,368.35838,480.00216,367.64222Z" class="g"/><path d="M507.7339,350.86147c0-.94094,1.37548-1.704,3.07209-1.704s3.07186.76306,3.07186,1.704c0,.94117-1.37525,1.704-3.07186,1.704S507.7339,351.80264,507.7339,350.86147Z" class="g"/><ellipse cx="237.881" cy="371.49" class="g" rx="2.133" ry="1.183"/><path d="M322.61475,365.75734c0-.59049.86262-1.0687,1.92693-1.0687,1.06407,0,1.92647.47821,1.92647,1.0687,0,.59025-.8624,1.06869-1.92647,1.06869C323.47737,366.826,322.61475,366.34759,322.61475,365.75734Z" class="g"/><path d="M205.23473,354.01164c0-.831,1.21447-1.50462,2.71262-1.50462,1.4977,0,2.71216.67365,2.71216,1.50462s-1.21446,1.50463-2.71216,1.50463C206.4492,355.51627,205.23473,354.84262,205.23473,354.01164Z" class="g"/><path d="M270.91479,370.90351c0-1.51848,2.21917-2.74958,4.95721-2.74958,2.73757,0,4.95674,1.2311,4.95674,2.74958s-2.21917,2.74959-4.95674,2.74959C273.134,373.6531,270.91479,372.422,270.91479,370.90351Z" class="g"/><path d="M259.69328,373.00717c0-.59.86263-1.06869,1.92693-1.06869,1.06407,0,1.92647.47867,1.92647,1.06869,0,.59026-.8624,1.0687-1.92647,1.0687C260.55591,374.07587,259.69328,373.59743,259.69328,373.00717Z" class="g"/><ellipse cx="519.599" cy="355.84" class="g" rx="1.927" ry="1.069"/><path d="M382.216,349.69c0-.72355,1.05737-1.31011,2.3617-1.31011,1.30457,0,2.36194.58656,2.36194,1.31011s-1.05737,1.31011-2.36194,1.31011C383.27338,351.00008,382.216,350.41352,382.216,349.69Z" class="g"/><path d="M472.44091,372.49015c0-.59.86285-1.06869,1.9267-1.06869,1.06407,0,1.92692.47867,1.92692,1.06869,0,.59026-.86285,1.0687-1.92692,1.0687C473.30376,373.55885,472.44091,373.08041,472.44091,372.49015Z" class="g"/><path d="M334.45678,367.23886c0-.815,1.19113-1.47552,2.66064-1.47552,1.46928,0,2.66019.66049,2.66019,1.47552s-1.19091,1.47552-2.66019,1.47552C335.64791,368.71438,334.45678,368.0539,334.45678,367.23886Z" class="g"/><path d="M230.85865,358.88776c0-2.25844,3.30057-4.08927,7.37182-4.08927s7.372,1.83083,7.372,4.08927c0,2.25821-3.3008,4.089-7.372,4.089S230.85865,361.146,230.85865,358.88776Z" class="g"/><path d="M550.88615,348.63791c0-.59.86263-1.06869,1.92647-1.06869,1.06407,0,1.92693.47867,1.92693,1.06869,0,.59025-.86286,1.06893-1.92693,1.06893C551.74878,349.70684,550.88615,349.22816,550.88615,348.63791Z" class="g"/><path d="M264.22888,360.74284c0-.59025.86239-1.06869,1.92669-1.06869,1.06408,0,1.92647.47844,1.92647,1.06869s-.86239,1.06869-1.92647,1.06869C265.09127,361.81153,264.22888,361.33309,264.22888,360.74284Z" class="g"/><path d="M375.74864,356.28972c0-.59025.86285-1.06892,1.9267-1.06892,1.06406,0,1.92692.47867,1.92692,1.06892s-.86286,1.06846-1.92692,1.06846C376.61149,357.35818,375.74864,356.88,375.74864,356.28972Z" class="g"/><path d="M436.69143,356.83747c0-.59026.86285-1.0687,1.92692-1.0687s1.92648.47844,1.92648,1.0687-.8624,1.06869-1.92648,1.06869S436.69143,357.42772,436.69143,356.83747Z" class="g"/><ellipse cx="570.417" cy="356.511" class="g" rx="2.87" ry="1.592"/><path d="M451.061,362.43575c0-1.61575,2.36125-2.92563,5.27439-2.92563,2.91292,0,5.27417,1.30988,5.27417,2.92563s-2.36125,2.92562-5.27417,2.92562C453.42228,365.36137,451.061,364.05149,451.061,362.43575Z" class="g"/><path d="M431.308,379.71227c0-.59026.86286-1.0687,1.92693-1.0687s1.92646.47844,1.92646,1.0687-.86239,1.06869-1.92646,1.06869S431.308,380.30252,431.308,379.71227Z" class="g"/><ellipse cx="583.627" cy="378.789" class="g" rx="1.943" ry="1.078"/><path d="M284.75537,348.05944c0-.60435.88342-1.09434,1.97313-1.09434s1.9729.49,1.9729,1.09434-.88318,1.09434-1.9729,1.09434S284.75537,348.66379,284.75537,348.05944Z" class="g"/><path d="M338.10388,377.62524c0-.59025.86239-1.06869,1.92646-1.06869,1.06431,0,1.92693.47844,1.92693,1.06869,0,.59-.86262,1.06869-1.92693,1.06869C338.96627,378.69393,338.10388,378.21526,338.10388,377.62524Z" class="g"/><path d="M338.6038,360.76941c0-.59026.86286-1.0687,1.92693-1.0687,1.06384,0,1.9267.47844,1.9267,1.0687s-.86286,1.06869-1.9267,1.06869C339.46666,361.8381,338.6038,361.35966,338.6038,360.76941Z" class="g"/><path d="M224.3065,367.74387c0-.59025.86262-1.06869,1.92692-1.06869,1.06408,0,1.92647.47844,1.92647,1.06869s-.86239,1.06869-1.92647,1.06869C225.16912,368.81256,224.3065,368.33412,224.3065,367.74387Z" class="g"/><path d="M573.59,364.65792c0-.59026.86263-1.0687,1.92693-1.0687,1.06407,0,1.92646.47844,1.92646,1.0687s-.86239,1.06846-1.92646,1.06846C574.45263,365.72638,573.59,365.24817,573.59,364.65792Z" class="g"/><path d="M212.17061,379.95715c0-.97329,1.42261-1.76245,3.17766-1.76245,1.75459,0,3.17744.78916,3.17744,1.76245s-1.42285,1.76267-3.17744,1.76267C213.59322,381.71982,212.17061,380.93043,212.17061,379.95715Z" class="g"/><ellipse cx="246.758" cy="349.945" class="g" rx="3.278" ry="1.818"/><path d="M592.07867,376.12547c0-.59026.86286-1.0687,1.92693-1.0687,1.06384,0,1.9267.47844,1.9267,1.0687s-.86286,1.06846-1.9267,1.06846C592.94153,377.19393,592.07867,376.71572,592.07867,376.12547Z" class="g"/><path d="M298.562,375.60775c0-.59.86263-1.06846,1.92693-1.06846,1.06361,0,1.92647.47844,1.92647,1.06846,0,.59026-.86286,1.06893-1.92647,1.06893C299.42461,376.67668,298.562,376.198,298.562,375.60775Z" class="g"/><path d="M584.17783,370.28369c0-.59025.8624-1.06869,1.92646-1.06869s1.92693.47844,1.92693,1.06869-.86285,1.06893-1.92693,1.06893S584.17783,370.87394,584.17783,370.28369Z" class="g"/><path d="M561.8547,350.7254c0-.59026.86286-1.06846,1.92693-1.06846,1.06384,0,1.9267.4782,1.9267,1.06846s-.86286,1.06892-1.9267,1.06892C562.71756,351.79432,561.8547,351.31565,561.8547,350.7254Z" class="g"/><path d="M447.77341,354.05068c0-.59025.86262-1.06869,1.92646-1.06869,1.06407,0,1.92693.47844,1.92693,1.06869s-.86286,1.0687-1.92693,1.0687C448.636,355.11938,447.77341,354.64094,447.77341,354.05068Z" class="g"/><path d="M364.06624,355.60336c0-.59025.86239-1.06846,1.92647-1.06846,1.0643,0,1.92692.47821,1.92692,1.06846,0,.59049-.86262,1.0687-1.92692,1.0687C364.92863,356.67206,364.06624,356.19385,364.06624,355.60336Z" class="g"/><polygon points="477.422 252.248 477.422 304.135 481.327 304.135 481.327 313.399 477.422 313.399 477.422 365.286 481.327 365.286 481.327 387.094 213.345 387.094 213.345 365.286 217.249 365.286 217.249 313.399 213.345 313.399 213.345 304.135 217.249 304.135 217.249 252.248 213.345 252.248 213.345 251.07 481.327 251.07 481.327 252.248 477.422 252.248" class="h"/><rect width="270.662" height="18.135" x="210.665" y="368.959" class="i"/><rect width="28.371" height="15.685" x="217.244" y="252.255" class="j"/><rect width="28.371" height="15.685" x="217.244" y="270.35" class="k"/><rect width="28.371" height="15.685" x="217.244" y="288.445" class="l"/><rect width="28.371" height="15.685" x="247.881" y="252.255" class="m"/><rect width="28.371" height="15.685" x="247.881" y="270.35" class="n"/><rect width="28.371" height="15.685" x="247.881" y="288.445" class="o"/><rect width="31.05" height="15.685" x="281.518" y="252.255" class="p"/><rect width="31.05" height="33.78" x="281.518" y="270.35" class="q"/><rect width="31.05" height="15.685" x="281.518" y="288.445" class="r"/><rect width="28.371" height="15.685" x="317.833" y="252.255" class="s"/><rect width="28.371" height="15.685" x="317.833" y="270.35" class="t"/><rect width="28.371" height="15.685" x="317.833" y="288.445" class="u"/><rect width="28.371" height="15.685" x="348.47" y="252.255" class="v"/><rect width="28.371" height="15.685" x="348.47" y="270.35" class="w"/><rect width="28.371" height="15.685" x="348.47" y="288.445" class="x"/><rect width="31.05" height="15.685" x="382.106" y="252.255" class="y"/><rect width="31.05" height="33.78" x="382.106" y="270.35" class="z"/><rect width="31.05" height="15.685" x="382.106" y="288.445" class="aa"/><rect width="28.371" height="15.685" x="418.422" y="252.255" class="ab"/><rect width="28.371" height="15.685" x="418.422" y="270.35" class="ac"/><rect width="28.371" height="15.685" x="418.422" y="288.445" class="ad"/><rect width="28.371" height="15.685" x="449.059" y="252.255" class="ae"/><rect width="28.371" height="15.685" x="449.059" y="270.35" class="af"/><rect width="28.371" height="15.685" x="449.059" y="288.445" class="ag"/><rect width="28.371" height="15.685" x="217.244" y="252.255" class="j"/><rect width="28.371" height="15.685" x="217.244" y="270.35" class="k"/><rect width="28.371" height="15.685" x="217.244" y="288.445" class="l"/><rect width="28.371" height="15.685" x="247.881" y="252.255" class="m"/><rect width="28.371" height="15.685" x="247.881" y="270.35" class="n"/><rect width="28.371" height="15.685" x="247.881" y="288.445" class="o"/><rect width="31.05" height="15.685" x="281.518" y="252.255" class="p"/><rect width="31.05" height="33.78" x="281.518" y="270.35" class="q"/><rect width="31.05" height="15.685" x="281.518" y="288.445" class="r"/><rect width="28.371" height="15.685" x="317.833" y="252.255" class="s"/><rect width="28.371" height="15.685" x="317.833" y="270.35" class="t"/><rect width="28.371" height="15.685" x="317.833" y="288.445" class="u"/><rect width="28.371" height="15.685" x="348.47" y="252.255" class="v"/><rect width="28.371" height="15.685" x="348.47" y="270.35" class="w"/><rect width="28.371" height="15.685" x="348.47" y="288.445" class="x"/><rect width="31.05" height="15.685" x="382.106" y="252.255" class="y"/><rect width="31.05" height="33.78" x="382.106" y="270.35" class="z"/><rect width="31.05" height="15.685" x="382.106" y="288.445" class="aa"/><rect width="28.371" height="15.685" x="418.422" y="252.255" class="ab"/><rect width="28.371" height="15.685" x="418.422" y="270.35" class="ac"/><rect width="28.371" height="15.685" x="418.422" y="288.445" class="ad"/><rect width="28.371" height="15.685" x="449.059" y="252.255" class="ae"/><rect width="28.371" height="15.685" x="449.059" y="270.35" class="af"/><rect width="28.371" height="15.685" x="449.059" y="288.445" class="ag"/><g class="ah"><polygon points="312.568 288.445 312.568 270.35 293.48 270.35 281.518 290.079 281.518 304.13 312.568 304.13 312.568 288.445" class="ai"/><polygon points="247.881 286.035 264.842 286.035 274.352 270.35 247.881 270.35 247.881 286.035" class="ai"/><polygon points="247.881 267.94 275.813 267.94 276.252 267.216 276.252 252.255 247.881 252.255 247.881 267.94" class="ai"/><polygon points="276.252 279.443 272.255 286.035 276.252 286.035 276.252 279.443" class="ai"/><polygon points="281.518 258.531 285.323 252.255 281.518 252.255 281.518 258.531" class="ai"/><polygon points="281.766 270.35 281.518 270.759 281.518 283.005 289.191 270.35 281.766 270.35" class="ai"/><polygon points="283.227 267.94 290.652 267.94 300.162 252.255 292.737 252.255 283.227 267.94" class="ai"/><rect width="28.371" height="15.685" x="348.47" y="288.445" class="ai"/><polygon points="312.568 267.94 312.568 252.255 304.451 252.255 294.941 267.94 312.568 267.94" class="ai"/><rect width="28.371" height="15.686" x="348.47" y="270.35" class="ai"/><rect width="28.371" height="15.686" x="317.833" y="270.35" class="ai"/><polygon points="245.615 267.94 245.615 252.255 238.832 252.255 229.322 267.94 245.615 267.94" class="ai"/><rect width="28.371" height="15.685" x="317.833" y="288.445" class="ai"/><rect width="28.371" height="15.685" x="317.833" y="252.255" class="ai"/><polygon points="418.422 286.035 427.153 286.035 436.663 270.35 418.422 270.35 418.422 286.035" class="ai"/><rect width="31.05" height="15.685" x="382.107" y="252.255" class="ai"/><polygon points="418.422 267.94 438.124 267.94 446.793 253.642 446.793 252.255 418.422 252.255 418.422 267.94" class="ai"/><polygon points="413.157 288.445 413.157 270.35 382.107 270.35 382.107 288.445 382.107 304.13 413.157 304.13 413.157 288.445" class="ai"/><polygon points="418.422 288.445 418.422 300.436 425.692 288.445 418.422 288.445" class="ai"/><polygon points="449.059 288.445 449.059 304.13 461.882 304.13 471.392 288.445 449.059 288.445" class="ai"/><polygon points="477.43 270.35 459.496 270.35 449.985 286.035 472.853 286.035 477.43 278.487 477.43 270.35" class="ai"/><polygon points="446.793 291.301 439.014 304.13 446.793 304.13 446.793 291.301" class="ai"/><polygon points="276.252 291.689 276.252 288.445 270.794 288.445 261.284 304.13 268.709 304.13 276.252 291.689" class="ai"/><polygon points="247.881 288.445 247.881 304.13 253.87 304.13 263.381 288.445 247.881 288.445" class="ai"/><rect width="28.371" height="15.685" x="217.244" y="288.445" class="ai"/><polygon points="245.615 286.035 245.615 270.35 227.861 270.35 218.351 286.035 245.615 286.035" class="ai"/><polygon points="477.43 267.94 477.43 252.255 470.467 252.255 460.956 267.94 477.43 267.94" class="ai"/><polygon points="276.252 298.764 272.999 304.13 276.252 304.13 276.252 298.764" class="ai"/><rect width="28.371" height="15.685" x="348.47" y="252.255" class="ai"/></g><rect width="28.371" height="15.685" x="217.244" y="313.406" class="j"/><rect width="28.371" height="15.685" x="217.244" y="331.501" class="k"/><rect width="28.371" height="15.685" x="217.244" y="349.596" class="l"/><rect width="28.371" height="15.685" x="247.881" y="313.406" class="m"/><rect width="28.371" height="15.685" x="247.881" y="331.501" class="n"/><rect width="28.371" height="15.685" x="247.881" y="349.596" class="o"/><rect width="31.05" height="15.685" x="281.518" y="313.406" class="p"/><rect width="31.05" height="33.78" x="281.518" y="331.501" class="q"/><rect width="31.05" height="15.685" x="281.518" y="349.596" class="r"/><rect width="28.371" height="15.685" x="317.833" y="313.406" class="s"/><rect width="28.371" height="15.685" x="317.833" y="331.501" class="t"/><rect width="28.371" height="15.685" x="317.833" y="349.596" class="u"/><rect width="28.371" height="15.685" x="348.47" y="313.406" class="v"/><rect width="28.371" height="15.685" x="348.47" y="331.501" class="w"/><rect width="28.371" height="15.685" x="348.47" y="349.596" class="x"/><rect width="31.05" height="15.685" x="382.106" y="313.406" class="y"/><rect width="31.05" height="33.78" x="382.106" y="331.501" class="z"/><rect width="31.05" height="15.685" x="382.106" y="349.596" class="aa"/><rect width="28.371" height="15.685" x="418.422" y="313.406" class="ab"/><rect width="28.371" height="15.685" x="418.422" y="331.501" class="ac"/><rect width="28.371" height="15.685" x="418.422" y="349.596" class="ad"/><rect width="28.371" height="15.685" x="449.059" y="313.406" class="ae"/><rect width="28.371" height="15.685" x="449.059" y="331.501" class="af"/><rect width="28.371" height="15.685" x="449.059" y="349.596" class="ag"/><rect width="28.371" height="15.685" x="217.244" y="313.406" class="j"/><rect width="28.371" height="15.685" x="217.244" y="331.501" class="k"/><rect width="28.371" height="15.685" x="217.244" y="349.596" class="l"/><rect width="28.371" height="15.685" x="247.881" y="313.406" class="m"/><rect width="28.371" height="15.685" x="247.881" y="331.501" class="n"/><rect width="28.371" height="15.685" x="247.881" y="349.596" class="o"/><rect width="31.05" height="15.685" x="281.518" y="313.406" class="p"/><rect width="31.05" height="33.78" x="281.518" y="331.501" class="q"/><rect width="31.05" height="15.685" x="281.518" y="349.596" class="r"/><rect width="28.371" height="15.685" x="317.833" y="313.406" class="s"/><rect width="28.371" height="15.685" x="317.833" y="331.501" class="t"/><rect width="28.371" height="15.685" x="317.833" y="349.596" class="u"/><rect width="28.371" height="15.685" x="348.47" y="313.406" class="v"/><rect width="28.371" height="15.685" x="348.47" y="331.501" class="w"/><rect width="28.371" height="15.685" x="348.47" y="349.596" class="x"/><rect width="31.05" height="15.685" x="382.106" y="313.406" class="y"/><rect width="31.05" height="33.78" x="382.106" y="331.501" class="z"/><rect width="31.05" height="15.685" x="382.106" y="349.596" class="aa"/><rect width="28.371" height="15.685" x="418.422" y="313.406" class="ab"/><rect width="28.371" height="15.685" x="418.422" y="331.501" class="ac"/><rect width="28.371" height="15.685" x="418.422" y="349.596" class="ad"/><rect width="28.371" height="15.685" x="449.059" y="313.406" class="ae"/><rect width="28.371" height="15.685" x="449.059" y="331.501" class="af"/><rect width="28.371" height="15.685" x="449.059" y="349.596" class="ag"/><g class="ah"><polygon points="312.568 349.596 312.568 331.501 293.48 331.501 281.518 351.23 281.518 365.281 312.568 365.281 312.568 349.596" class="ai"/><polygon points="247.881 347.187 264.842 347.187 274.352 331.501 247.881 331.501 247.881 347.187" class="ai"/><polygon points="247.881 329.092 275.813 329.092 276.252 328.367 276.252 313.406 247.881 313.406 247.881 329.092" class="ai"/><polygon points="276.252 340.594 272.255 347.187 276.252 347.187 276.252 340.594" class="ai"/><polygon points="281.518 319.682 285.323 313.406 281.518 313.406 281.518 319.682" class="ai"/><polygon points="281.766 331.501 281.518 331.91 281.518 344.156 289.191 331.501 281.766 331.501" class="ai"/><polygon points="283.227 329.092 290.652 329.092 300.162 313.406 292.737 313.406 283.227 329.092" class="ai"/><rect width="28.371" height="15.685" x="348.47" y="349.596" class="ai"/><polygon points="312.568 329.092 312.568 313.406 304.451 313.406 294.941 329.092 312.568 329.092" class="ai"/><rect width="28.371" height="15.686" x="348.47" y="331.501" class="ai"/><rect width="28.371" height="15.686" x="317.833" y="331.501" class="ai"/><polygon points="245.615 329.092 245.615 313.406 238.832 313.406 229.322 329.092 245.615 329.092" class="ai"/><rect width="28.371" height="15.685" x="317.833" y="349.596" class="ai"/><rect width="28.371" height="15.685" x="317.833" y="313.406" class="ai"/><polygon points="418.422 347.187 427.153 347.187 436.663 331.501 418.422 331.501 418.422 347.187" class="ai"/><rect width="31.05" height="15.685" x="382.107" y="313.406" class="ai"/><polygon points="418.422 329.092 438.124 329.092 446.793 314.794 446.793 313.406 418.422 313.406 418.422 329.092" class="ai"/><polygon points="413.157 349.596 413.157 331.501 382.107 331.501 382.107 349.596 382.107 365.281 413.157 365.281 413.157 349.596" class="ai"/><polygon points="418.422 349.596 418.422 361.587 425.692 349.596 418.422 349.596" class="ai"/><polygon points="449.059 349.596 449.059 365.281 461.882 365.281 471.392 349.596 449.059 349.596" class="ai"/><polygon points="477.43 331.501 459.496 331.501 449.985 347.187 472.853 347.187 477.43 339.638 477.43 331.501" class="ai"/><polygon points="446.793 352.452 439.014 365.281 446.793 365.281 446.793 352.452" class="ai"/><polygon points="276.252 352.841 276.252 349.596 270.794 349.596 261.284 365.281 268.709 365.281 276.252 352.841" class="ai"/><polygon points="247.881 349.596 247.881 365.281 253.87 365.281 263.381 349.596 247.881 349.596" class="ai"/><rect width="28.371" height="15.685" x="217.244" y="349.596" class="ai"/><polygon points="245.615 347.187 245.615 331.501 227.861 331.501 218.351 347.187 245.615 347.187" class="ai"/><polygon points="477.43 329.092 477.43 313.406 470.467 313.406 460.956 329.092 477.43 329.092" class="ai"/><polygon points="276.252 359.915 272.999 365.281 276.252 365.281 276.252 359.915" class="ai"/><rect width="28.371" height="15.685" x="348.47" y="313.406" class="ai"/></g><polygon points="477.43 243.262 477.43 191.387 481.32 191.387 481.32 182.111 477.43 182.111 477.43 130.236 481.32 130.236 481.32 125.825 213.354 125.825 213.354 130.236 217.244 130.236 217.244 182.111 213.354 182.111 213.354 191.387 217.244 191.387 217.244 243.262 213.354 243.262 213.354 251.07 481.32 251.07 481.32 243.262 477.43 243.262" class="aj"/><rect width="28.371" height="15.685" x="217.244" y="130.236" class="j"/><rect width="28.371" height="15.685" x="217.244" y="148.331" class="k"/><rect width="28.371" height="15.685" x="217.244" y="166.426" class="l"/><rect width="28.371" height="15.685" x="247.881" y="130.236" class="m"/><rect width="28.371" height="15.685" x="247.881" y="148.331" class="n"/><rect width="28.371" height="15.685" x="247.881" y="166.426" class="o"/><rect width="31.05" height="15.685" x="281.518" y="130.236" class="p"/><rect width="31.05" height="33.78" x="281.518" y="148.331" class="q"/><rect width="31.05" height="15.685" x="281.518" y="166.426" class="r"/><rect width="28.371" height="15.685" x="317.833" y="130.236" class="s"/><rect width="28.371" height="15.685" x="317.833" y="148.331" class="t"/><rect width="28.371" height="15.685" x="317.833" y="166.426" class="u"/><rect width="28.371" height="15.685" x="348.47" y="130.236" class="v"/><rect width="28.371" height="15.685" x="348.47" y="148.331" class="w"/><rect width="28.371" height="15.685" x="348.47" y="166.426" class="x"/><rect width="31.05" height="15.685" x="382.106" y="130.236" class="y"/><rect width="31.05" height="33.78" x="382.106" y="148.331" class="z"/><rect width="31.05" height="15.685" x="382.106" y="166.426" class="aa"/><rect width="28.371" height="15.685" x="418.422" y="130.236" class="ab"/><rect width="28.371" height="15.685" x="418.422" y="148.331" class="ac"/><rect width="28.371" height="15.685" x="418.422" y="166.426" class="ad"/><rect width="28.371" height="15.685" x="449.059" y="130.236" class="ae"/><rect width="28.371" height="15.685" x="449.059" y="148.331" class="af"/><rect width="28.371" height="15.685" x="449.059" y="166.426" class="ag"/><rect width="28.371" height="15.685" x="217.244" y="130.236" class="j"/><rect width="28.371" height="15.685" x="217.244" y="148.331" class="k"/><rect width="28.371" height="15.685" x="217.244" y="166.426" class="l"/><rect width="28.371" height="15.685" x="247.881" y="130.236" class="m"/><rect width="28.371" height="15.685" x="247.881" y="148.331" class="n"/><rect width="28.371" height="15.685" x="247.881" y="166.426" class="o"/><rect width="31.05" height="15.685" x="281.518" y="130.236" class="p"/><rect width="31.05" height="33.78" x="281.518" y="148.331" class="q"/><rect width="31.05" height="15.685" x="281.518" y="166.426" class="r"/><rect width="28.371" height="15.685" x="317.833" y="130.236" class="s"/><rect width="28.371" height="15.685" x="317.833" y="148.331" class="t"/><rect width="28.371" height="15.685" x="317.833" y="166.426" class="u"/><rect width="28.371" height="15.685" x="348.47" y="130.236" class="v"/><rect width="28.371" height="15.685" x="348.47" y="148.331" class="w"/><rect width="28.371" height="15.685" x="348.47" y="166.426" class="x"/><rect width="31.05" height="15.685" x="382.106" y="130.236" class="y"/><rect width="31.05" height="33.78" x="382.106" y="148.331" class="z"/><rect width="31.05" height="15.685" x="382.106" y="166.426" class="aa"/><rect width="28.371" height="15.685" x="418.422" y="130.236" class="ab"/><rect width="28.371" height="15.685" x="418.422" y="148.331" class="ac"/><rect width="28.371" height="15.685" x="418.422" y="166.426" class="ad"/><rect width="28.371" height="15.685" x="449.059" y="130.236" class="ae"/><rect width="28.371" height="15.685" x="449.059" y="148.331" class="af"/><rect width="28.371" height="15.685" x="449.059" y="166.426" class="ag"/><g class="ah"><polygon points="312.568 166.426 312.568 148.331 293.48 148.331 281.518 168.06 281.518 182.111 312.568 182.111 312.568 166.426" class="ai"/><polygon points="247.881 164.016 264.842 164.016 274.352 148.331 247.881 148.331 247.881 164.016" class="ai"/><polygon points="247.881 145.921 275.813 145.921 276.252 145.197 276.252 130.236 247.881 130.236 247.881 145.921" class="ai"/><polygon points="276.252 157.424 272.255 164.016 276.252 164.016 276.252 157.424" class="ai"/><polygon points="281.518 136.512 285.323 130.236 281.518 130.236 281.518 136.512" class="ai"/><polygon points="281.766 148.331 281.518 148.74 281.518 160.986 289.191 148.331 281.766 148.331" class="ai"/><polygon points="283.227 145.921 290.652 145.921 300.162 130.236 292.737 130.236 283.227 145.921" class="ai"/><rect width="28.371" height="15.685" x="348.47" y="166.426" class="ai"/><polygon points="312.568 145.921 312.568 130.236 304.451 130.236 294.941 145.921 312.568 145.921" class="ai"/><rect width="28.371" height="15.685" x="348.47" y="148.331" class="ai"/><rect width="28.371" height="15.685" x="317.833" y="148.331" class="ai"/><polygon points="245.615 145.921 245.615 130.236 238.832 130.236 229.322 145.921 245.615 145.921" class="ai"/><rect width="28.371" height="15.685" x="317.833" y="166.426" class="ai"/><rect width="28.371" height="15.685" x="317.833" y="130.236" class="ai"/><polygon points="418.422 164.016 427.153 164.016 436.663 148.331 418.422 148.331 418.422 164.016" class="ai"/><rect width="31.05" height="15.685" x="382.107" y="130.236" class="ai"/><polygon points="418.422 145.921 438.124 145.921 446.793 131.624 446.793 130.236 418.422 130.236 418.422 145.921" class="ai"/><polygon points="413.157 166.426 413.157 148.331 382.107 148.331 382.107 166.426 382.107 182.111 413.157 182.111 413.157 166.426" class="ai"/><polygon points="418.422 166.426 418.422 178.416 425.692 166.426 418.422 166.426" class="ai"/><polygon points="449.059 166.426 449.059 182.111 461.882 182.111 471.392 166.426 449.059 166.426" class="ai"/><polygon points="477.43 148.331 459.496 148.331 449.985 164.016 472.853 164.016 477.43 156.468 477.43 148.331" class="ai"/><polygon points="446.793 169.282 439.014 182.111 446.793 182.111 446.793 169.282" class="ai"/><polygon points="276.252 169.671 276.252 166.426 270.794 166.426 261.284 182.111 268.709 182.111 276.252 169.671" class="ai"/><polygon points="247.881 166.426 247.881 182.111 253.87 182.111 263.381 166.426 247.881 166.426" class="ai"/><rect width="28.371" height="15.685" x="217.244" y="166.426" class="ai"/><polygon points="245.615 164.016 245.615 148.331 227.861 148.331 218.351 164.016 245.615 164.016" class="ai"/><polygon points="477.43 145.921 477.43 130.236 470.467 130.236 460.956 145.921 477.43 145.921" class="ai"/><polygon points="276.252 176.745 272.999 182.111 276.252 182.111 276.252 176.745" class="ai"/><rect width="28.371" height="15.685" x="348.47" y="130.236" class="ai"/></g><rect width="28.371" height="15.685" x="217.244" y="191.387" class="j"/><rect width="28.371" height="15.685" x="217.244" y="209.482" class="k"/><rect width="28.371" height="15.685" x="217.244" y="227.577" class="l"/><rect width="28.371" height="15.685" x="247.881" y="191.387" class="m"/><rect width="28.371" height="15.685" x="247.881" y="209.482" class="n"/><rect width="28.371" height="15.685" x="247.881" y="227.577" class="o"/><rect width="31.05" height="15.685" x="281.518" y="191.387" class="p"/><rect width="31.05" height="33.78" x="281.518" y="209.482" class="q"/><rect width="31.05" height="15.685" x="281.518" y="227.577" class="r"/><rect width="28.371" height="15.685" x="317.833" y="191.387" class="s"/><rect width="28.371" height="15.685" x="317.833" y="209.482" class="t"/><rect width="28.371" height="15.685" x="317.833" y="227.577" class="u"/><rect width="28.371" height="15.685" x="348.47" y="191.387" class="v"/><rect width="28.371" height="15.685" x="348.47" y="209.482" class="w"/><rect width="28.371" height="15.685" x="348.47" y="227.577" class="x"/><rect width="31.05" height="15.685" x="382.106" y="191.387" class="y"/><rect width="31.05" height="33.78" x="382.106" y="209.482" class="z"/><rect width="31.05" height="15.685" x="382.106" y="227.577" class="aa"/><rect width="28.371" height="15.685" x="418.422" y="191.387" class="ab"/><rect width="28.371" height="15.685" x="418.422" y="209.482" class="ac"/><rect width="28.371" height="15.685" x="418.422" y="227.577" class="ad"/><rect width="28.371" height="15.685" x="449.059" y="191.387" class="ae"/><rect width="28.371" height="15.685" x="449.059" y="209.482" class="af"/><rect width="28.371" height="15.685" x="449.059" y="227.577" class="ag"/><rect width="28.371" height="15.685" x="217.244" y="191.387" class="j"/><rect width="28.371" height="15.685" x="217.244" y="209.482" class="k"/><rect width="28.371" height="15.685" x="217.244" y="227.577" class="l"/><rect width="28.371" height="15.685" x="247.881" y="191.387" class="m"/><rect width="28.371" height="15.685" x="247.881" y="209.482" class="n"/><rect width="28.371" height="15.685" x="247.881" y="227.577" class="o"/><rect width="31.05" height="15.685" x="281.518" y="191.387" class="p"/><rect width="31.05" height="33.78" x="281.518" y="209.482" class="q"/><rect width="31.05" height="15.685" x="281.518" y="227.577" class="r"/><rect width="28.371" height="15.685" x="317.833" y="191.387" class="s"/><rect width="28.371" height="15.685" x="317.833" y="209.482" class="t"/><rect width="28.371" height="15.685" x="317.833" y="227.577" class="u"/><rect width="28.371" height="15.685" x="348.47" y="191.387" class="v"/><rect width="28.371" height="15.685" x="348.47" y="209.482" class="w"/><rect width="28.371" height="15.685" x="348.47" y="227.577" class="x"/><rect width="31.05" height="15.685" x="382.106" y="191.387" class="y"/><rect width="31.05" height="33.78" x="382.106" y="209.482" class="z"/><rect width="31.05" height="15.685" x="382.106" y="227.577" class="aa"/><rect width="28.371" height="15.685" x="418.422" y="191.387" class="ab"/><rect width="28.371" height="15.685" x="418.422" y="209.482" class="ac"/><rect width="28.371" height="15.685" x="418.422" y="227.577" class="ad"/><rect width="28.371" height="15.685" x="449.059" y="191.387" class="ae"/><rect width="28.371" height="15.685" x="449.059" y="209.482" class="af"/><rect width="28.371" height="15.685" x="449.059" y="227.577" class="ag"/><g class="ah"><polygon points="312.568 227.577 312.568 209.482 293.48 209.482 281.518 229.211 281.518 243.262 312.568 243.262 312.568 227.577" class="ai"/><polygon points="247.881 225.168 264.842 225.168 274.352 209.482 247.881 209.482 247.881 225.168" class="ai"/><polygon points="247.881 207.073 275.813 207.073 276.252 206.348 276.252 191.387 247.881 191.387 247.881 207.073" class="ai"/><polygon points="276.252 218.575 272.255 225.168 276.252 225.168 276.252 218.575" class="ai"/><polygon points="281.518 197.663 285.323 191.387 281.518 191.387 281.518 197.663" class="ai"/><polygon points="281.766 209.482 281.518 209.891 281.518 222.137 289.191 209.482 281.766 209.482" class="ai"/><polygon points="283.227 207.073 290.652 207.073 300.162 191.387 292.737 191.387 283.227 207.073" class="ai"/><rect width="28.371" height="15.685" x="348.47" y="227.577" class="ai"/><polygon points="312.568 207.073 312.568 191.387 304.451 191.387 294.941 207.073 312.568 207.073" class="ai"/><rect width="28.371" height="15.685" x="348.47" y="209.482" class="ai"/><rect width="28.371" height="15.685" x="317.833" y="209.482" class="ai"/><polygon points="245.615 207.073 245.615 191.387 238.832 191.387 229.322 207.073 245.615 207.073" class="ai"/><rect width="28.371" height="15.685" x="317.833" y="227.577" class="ai"/><rect width="28.371" height="15.685" x="317.833" y="191.387" class="ai"/><polygon points="418.422 225.168 427.153 225.168 436.663 209.482 418.422 209.482 418.422 225.168" class="ai"/><rect width="31.05" height="15.685" x="382.107" y="191.387" class="ai"/><polygon points="418.422 207.073 438.124 207.073 446.793 192.775 446.793 191.387 418.422 191.387 418.422 207.073" class="ai"/><polygon points="413.157 227.577 413.157 209.482 382.107 209.482 382.107 227.577 382.107 243.262 413.157 243.262 413.157 227.577" class="ai"/><polygon points="418.422 227.577 418.422 239.568 425.692 227.577 418.422 227.577" class="ai"/><polygon points="449.059 227.577 449.059 243.262 461.882 243.262 471.392 227.577 449.059 227.577" class="ai"/><polygon points="477.43 209.482 459.496 209.482 449.985 225.168 472.853 225.168 477.43 217.619 477.43 209.482" class="ai"/><polygon points="446.793 230.433 439.014 243.262 446.793 243.262 446.793 230.433" class="ai"/><polygon points="276.252 230.822 276.252 227.577 270.794 227.577 261.284 243.262 268.709 243.262 276.252 230.822" class="ai"/><polygon points="247.881 227.577 247.881 243.262 253.87 243.262 263.381 227.577 247.881 227.577" class="ai"/><rect width="28.371" height="15.685" x="217.244" y="227.577" class="ai"/><polygon points="245.615 225.168 245.615 209.482 227.861 209.482 218.351 225.168 245.615 225.168" class="ai"/><polygon points="477.43 207.073 477.43 191.387 470.467 191.387 460.956 207.073 477.43 207.073" class="ai"/><polygon points="276.252 237.896 272.999 243.262 276.252 243.262 276.252 237.896" class="ai"/><rect width="28.371" height="15.685" x="348.47" y="191.387" class="ai"/></g><rect width="267.967" height="4.411" x="213.354" y="125.825" class="ak"/><rect width="260.186" height="5.328" x="217.244" y="130.236" class="ak"/><rect width="260.186" height="5.328" x="217.244" y="191.387" class="ak"/><rect width="267.966" height="38.731" x="213.354" y="71.408" class="aj"/><rect width="285.627" height="15.686" x="204.524" y="110.139" class="al"/><rect width="290.121" height="3.598" x="202.277" y="116.183" class="e"/><rect width="8.537" height="11.767" x="468.278" y="94.976" class="i"/><rect width="8.536" height="11.767" x="456.851" y="94.976" class="i"/><rect width="8.536" height="11.767" x="445.423" y="94.976" class="i"/><rect width="21.739" height="29.967" x="242.49" y="76.776" class="i"/><rect width="7.885" height="10.87" x="382.717" y="76.776" class="i"/><polygon points="338.342 251.07 318.002 271.406 317.835 252.248 217.249 352.857 217.249 365.286 213.345 365.286 213.345 368.959 210.665 368.959 210.665 380.995 210.665 387.094 334.999 387.094 382.104 387.094 386.659 211.261 379.833 209.579 338.342 251.07" class="ak"/><rect width="260.186" height="5.328" x="217.244" y="252.255" class="ak"/><rect width="260.186" height="5.328" x="217.244" y="313.406" class="ak"/><rect width="127.454" height="42.823" x="382.106" y="209.432" class="am"/><rect width="127.454" height="3.659" x="382.106" y="212.133" class="ak"/><rect width="127.454" height="3.659" x="382.106" y="242.304" class="ak"/><rect width="132.001" height="3.659" x="379.833" y="209.432" class="al"/><rect width="132.001" height="3.659" x="379.833" y="239.603" class="al"/><rect width="191.723" height="134.846" x="317.835" y="252.248" class="am"/><path d="M509.56033,254.91908V252.2552H317.83312v2.66388H333.648v13.02138H317.83312v2.66388H333.648v13.02138H317.83312v2.66388H333.648v13.02161H317.83312v2.66388H333.648v13.02138H317.83312v2.66388H333.648v13.02138H317.83312v2.66388H333.648V346.367H317.83312v2.66388H333.648v13.02139H317.83312v2.66411H509.56033v-2.66411H493.74386V349.03087h15.81647V346.367H493.74386V333.34561h15.81647v-2.66388H493.74386V317.66035h15.81647v-2.66388H493.74386V301.97509h15.81647v-2.66388H493.74386V286.2896h15.81647v-2.66388H493.74386V270.60434h15.81647v-2.66388H493.74386V254.91908Zm-94.82194,47.056h13.02138v13.02138H414.73839Zm-2.66388,13.02138H399.0529V301.97509h13.02161Zm2.66388-15.68526V286.2896h13.02138v13.02161Zm-2.66388,0H399.0529V286.2896h13.02161Zm-15.68526,0H383.36764V286.2896h13.02161Zm0,2.66388v13.02138H383.36764V301.97509Zm0,15.68526v13.02138H383.36764V317.66035Zm2.66365,0h13.02161v13.02138H399.0529Zm15.68549,0h13.02138v13.02138H414.73839Zm15.68526,0H443.445v13.02138H430.42365Zm0-2.66388V301.97509H443.445v13.02138Zm0-15.68526V286.2896H443.445v13.02161Zm0-15.68549V270.60434H443.445v13.02138Zm-2.66388,0H414.73839V270.60434h13.02138Zm-15.68526,0H399.0529V270.60434h13.02161Zm-15.68526,0H383.36764V270.60434h13.02161Zm-15.68549,0H367.68238V270.60434h13.02138Zm0,2.66388v13.02161H367.68238V286.2896Zm0,15.68549v13.02138H367.68238V301.97509Zm0,15.68526v13.02138H367.68238V317.66035Zm0,15.68526V346.367H367.68238V333.34561Zm2.66388,0h13.02161V346.367H383.36764Zm15.68526,0h13.02161V346.367H399.0529Zm15.68549,0h13.02138V346.367H414.73839Zm15.68526,0H443.445V346.367H430.42365Zm15.68526,0h13.60031V346.367H446.10891Zm0-2.66388V317.66035h13.60031v13.02138Zm0-15.68526V301.97509h13.60031v13.02138Zm0-15.68526V286.2896h13.60031v13.02161Zm0-15.68549V270.60434h13.60031v13.02138Zm0-15.68526V254.91908h13.60031v13.02138Zm-2.66388,0H430.42365V254.91908H443.445Zm-15.68526,0H414.73839V254.91908h13.02138Zm-15.68526,0H399.0529V254.91908h13.02161Zm-15.68526,0H383.36764V254.91908h13.02161Zm-15.68549,0H367.68238V254.91908h13.02138Zm-15.68526,0H351.99712V254.91908H365.0185Zm0,2.66388v13.02138H351.99712V270.60434Zm0,15.68526v13.02161H351.99712V286.2896Zm0,15.68549v13.02138H351.99712V301.97509Zm0,15.68526v13.02138H351.99712V317.66035Zm0,15.68526V346.367H351.99712V333.34561Zm0,15.68526v13.02139H351.99712V349.03087Zm2.66388,0h13.02138v13.02139H367.68238Zm15.68526,0h13.02161v13.02139H383.36764Zm15.68526,0h13.02161v13.02139H399.0529Zm15.68549,0h13.02138v13.02139H414.73839Zm15.68526,0H443.445v13.02139H430.42365Zm15.68526,0h13.60031v13.02139H446.10891Zm16.26442,0h13.02115v13.02139H462.37333Zm0-2.66388V333.34561h13.02115V346.367Zm0-15.68526V317.66035h13.02115v13.02138Zm0-15.68526V301.97509h13.02115v13.02138Zm0-15.68526V286.2896h13.02115v13.02161Zm0-15.68549V270.60434h13.02115v13.02138Zm0-15.68526V254.91908h13.02115v13.02138Zm-126.0617-13.02138h13.02161v13.02138H336.31163Zm0,15.68526h13.02161v13.02138H336.31163Zm0,15.68526h13.02161v13.02161H336.31163Zm0,15.68549h13.02161v13.02138H336.31163Zm0,15.68526h13.02161v13.02138H336.31163Zm0,15.68526h13.02161V346.367H336.31163Zm0,15.68526h13.02161v13.02139H336.31163ZM491.08,362.05226H478.05859V349.03087H491.08Zm0-15.68527H478.05859V333.34561H491.08Zm0-15.68526H478.05859V317.66035H491.08Zm0-15.68526H478.05859V301.97509H491.08Zm0-15.68526H478.05859V286.2896H491.08Zm0-15.68549H478.05859V270.60434H491.08Zm0-15.68526H478.05859V254.91908H491.08Z" class="an"/><polygon points="363.114 387.094 317.835 387.094 317.835 332.712 346.412 304.135 357.362 311.065 363.114 387.094" class="ak"/><g class="ao"><path d="M391.7132,220.19255v7.23389h7.63425v-7.23389h3.29617v18.05736h-3.29617v-7.957H391.7132v7.957H388.417V220.19255Z" class="ap"/><path d="M422.43917,229.03387c0,6.05524-3.67043,9.51036-8.653,9.51036-5.09073,0-8.30559-3.88366-8.30559-9.18878,0-5.54538,3.48238-9.45722,8.57311-9.45722C419.33151,219.89823,422.43917,223.89023,422.43917,229.03387Zm-13.47625.26868c0,3.66927,1.84861,6.58981,5.01057,6.58981,3.18783,0,4.98238-2.94641,4.98238-6.72427,0-3.40314-1.68736-6.618-4.98238-6.618C410.70457,222.55009,408.96292,225.5776,408.96292,229.30255Z" class="ap"/><path d="M425.19731,234.66057a9.12749,9.12749,0,0,0,4.36649,1.15163c2.11728,0,3.295-.99154,3.295-2.46474,0-1.36717-.91022-2.1702-3.21487-3.00048-2.97344-1.07169-4.87542-2.653-4.87542-5.25083,0-2.94757,2.46474-5.19792,6.37566-5.19792a9.52854,9.52854,0,0,1,4.34061.91137l-.803,2.65186a7.64839,7.64839,0,0,0-3.5905-.85731c-2.09026,0-3.00069,1.12576-3.00069,2.17042,0,1.393,1.04466,2.036,3.45626,2.97345,3.13493,1.17889,4.661,2.75906,4.661,5.358,0,2.89351-2.19629,5.41231-6.85825,5.41231a10.73143,10.73143,0,0,1-4.87543-1.12575Z" class="ap"/><path d="M439.18019,220.434a28.57494,28.57494,0,0,1,5.03667-.37448,8.17376,8.17376,0,0,1,5.33215,1.47321,5.09922,5.09922,0,0,1,1.76753,3.992,5.46968,5.46968,0,0,1-1.55314,4.09805,7.967,7.967,0,0,1-5.70663,1.929,9.312,9.312,0,0,1-1.60743-.106v6.8042h-3.26915Zm3.26915,8.41279a6.6503,6.6503,0,0,0,1.60743.13306c2.46474,0,3.965-1.20476,3.965-3.32089,0-2.0101-1.39328-3.0818-3.67066-3.0818a9.11139,9.11139,0,0,0-1.90175.16125Z" class="ap"/><path d="M457.44963,220.19255v18.05736h-3.29479V220.19255Z" class="ap"/><path d="M464.6826,222.95276h-5.14387v-2.76021h13.63682v2.76021h-5.19793v15.29715h-3.295Z" class="ap"/><path d="M476.95086,233.1333l-1.55314,5.11661H471.9955l5.7868-18.05736h4.20639l5.86695,18.05736h-3.53643l-1.63446-5.11661Zm5.1709-2.492-1.41891-4.44758c-.34862-1.09757-.64317-2.33051-.91161-3.37518h-.05405c-.2673,1.04467-.53482,2.30349-.85732,3.37518L477.488,230.6413Z" class="ap"/><path d="M490.371,220.19255h3.295v15.2983h7.42125v2.75906H490.371Z" class="ap"/></g><path d="M394.02338,217.88236v7.23389h7.63426v-7.23389h3.29617v18.05736h-3.29617v-7.957h-7.63426v7.957h-3.29617V217.88236Z" class="al"/><path d="M424.74936,226.72368c0,6.05524-3.67043,9.51036-8.653,9.51036-5.09073,0-8.30559-3.88366-8.30559-9.18878,0-5.54538,3.48237-9.45722,8.57311-9.45722C421.6417,217.588,424.74936,221.58005,424.74936,226.72368Zm-13.47626.26868c0,3.66927,1.84862,6.58981,5.01057,6.58981,3.18783,0,4.98239-2.94641,4.98239-6.72427,0-3.40314-1.68736-6.618-4.98239-6.618C413.01476,220.2399,411.2731,223.26741,411.2731,226.99236Z" class="al"/><path d="M427.5075,232.35038A9.12749,9.12749,0,0,0,431.874,233.502c2.11728,0,3.295-.99154,3.295-2.46474,0-1.36717-.91022-2.17019-3.21487-3.00048-2.97345-1.07169-4.87542-2.653-4.87542-5.25083,0-2.94757,2.46474-5.19792,6.37566-5.19792a9.52857,9.52857,0,0,1,4.34061.91137l-.803,2.65186a7.64843,7.64843,0,0,0-3.5905-.85731c-2.09026,0-3.00069,1.12576-3.00069,2.17043,0,1.393,1.04466,2.036,3.45626,2.97344,3.13493,1.17889,4.661,2.75906,4.661,5.358,0,2.89351-2.19629,5.41231-6.85825,5.41231a10.7313,10.7313,0,0,1-4.87543-1.12575Z" class="al"/><path d="M441.49038,218.12377a28.57591,28.57591,0,0,1,5.03667-.37448,8.17376,8.17376,0,0,1,5.33215,1.47321,5.09923,5.09923,0,0,1,1.76753,3.992,5.46968,5.46968,0,0,1-1.55314,4.09805,7.967,7.967,0,0,1-5.70663,1.929,9.312,9.312,0,0,1-1.60743-.106v6.8042h-3.26915Zm3.26915,8.41279a6.6503,6.6503,0,0,0,1.60743.13306c2.46474,0,3.965-1.20476,3.965-3.32089,0-2.0101-1.39328-3.0818-3.67066-3.0818a9.11139,9.11139,0,0,0-1.90175.16125Z" class="al"/><path d="M459.75982,217.88236v18.05736H456.465V217.88236Z" class="al"/><path d="M466.99279,220.64257h-5.14387v-2.76021h13.63682v2.76021h-5.19793v15.29715h-3.295Z" class="al"/><path d="M479.26105,230.82311l-1.55314,5.11661h-3.40222l5.78679-18.05736h4.2064l5.867,18.05736H486.6294l-1.63446-5.11661Zm5.17089-2.492-1.4189-4.44758c-.34862-1.09757-.64317-2.33051-.91161-3.37518h-.05405c-.2673,1.04467-.53482,2.30349-.85732,3.37518l-1.39189,4.44758Z" class="al"/><path d="M492.68118,217.88236h3.295v15.2983h7.42125v2.75906H492.68118Z" class="al"/><rect width="229.915" height="24.783" x="349.413" y="362.304" class="i"/><rect width="223.103" height="47.833" x="352.819" y="314.471" class="h"/><rect width="235.907" height="10.341" x="346.417" y="304.13" class="al"/><rect width="23.535" height="13.012" x="356.454" y="316.577" class="j"/><rect width="23.535" height="13.012" x="356.454" y="331.587" class="k"/><rect width="23.535" height="13.011" x="356.454" y="346.598" class="l"/><rect width="23.535" height="13.012" x="381.868" y="316.577" class="m"/><rect width="23.535" height="13.012" x="381.868" y="331.587" class="n"/><rect width="23.535" height="13.011" x="381.868" y="346.598" class="o"/><rect width="25.757" height="13.012" x="409.771" y="316.577" class="p"/><rect width="25.757" height="28.022" x="409.771" y="331.587" class="q"/><rect width="25.757" height="13.011" x="409.771" y="346.598" class="r"/><rect width="23.535" height="13.012" x="439.896" y="316.577" class="s"/><rect width="23.535" height="13.012" x="439.896" y="331.587" class="t"/><rect width="23.535" height="13.011" x="439.896" y="346.598" class="u"/><rect width="23.535" height="13.012" x="465.31" y="316.577" class="v"/><rect width="23.535" height="13.012" x="465.31" y="331.587" class="w"/><rect width="23.535" height="13.011" x="465.31" y="346.598" class="x"/><rect width="25.757" height="13.012" x="493.213" y="316.577" class="y"/><rect width="25.757" height="28.022" x="493.213" y="331.587" class="z"/><rect width="25.757" height="13.011" x="493.213" y="346.598" class="aa"/><rect width="23.535" height="13.012" x="523.338" y="316.577" class="ab"/><rect width="23.535" height="13.012" x="523.338" y="331.587" class="ac"/><rect width="23.535" height="13.011" x="523.338" y="346.598" class="ad"/><rect width="23.535" height="13.012" x="548.752" y="316.577" class="ae"/><rect width="23.535" height="13.012" x="548.752" y="331.587" class="af"/><rect width="23.535" height="13.011" x="548.752" y="346.598" class="ag"/><rect width="23.535" height="13.012" x="356.454" y="316.577" class="j"/><rect width="23.535" height="13.012" x="356.454" y="331.587" class="k"/><rect width="23.535" height="13.011" x="356.454" y="346.598" class="l"/><rect width="23.535" height="13.012" x="381.868" y="316.577" class="m"/><rect width="23.535" height="13.012" x="381.868" y="331.587" class="n"/><rect width="23.535" height="13.011" x="381.868" y="346.598" class="o"/><rect width="25.757" height="13.012" x="409.771" y="316.577" class="p"/><rect width="25.757" height="28.022" x="409.771" y="331.587" class="q"/><rect width="25.757" height="13.011" x="409.771" y="346.598" class="r"/><rect width="23.535" height="13.012" x="439.896" y="316.577" class="s"/><rect width="23.535" height="13.012" x="439.896" y="331.587" class="t"/><rect width="23.535" height="13.011" x="439.896" y="346.598" class="u"/><rect width="23.535" height="13.012" x="465.31" y="316.577" class="v"/><rect width="23.535" height="13.012" x="465.31" y="331.587" class="w"/><rect width="23.535" height="13.011" x="465.31" y="346.598" class="x"/><rect width="25.757" height="13.012" x="493.213" y="316.577" class="y"/><rect width="25.757" height="28.022" x="493.213" y="331.587" class="z"/><rect width="25.757" height="13.011" x="493.213" y="346.598" class="aa"/><rect width="23.535" height="13.012" x="523.338" y="316.577" class="ab"/><rect width="23.535" height="13.012" x="523.338" y="331.587" class="ac"/><rect width="23.535" height="13.011" x="523.338" y="346.598" class="ad"/><rect width="23.535" height="13.012" x="548.752" y="316.577" class="ae"/><rect width="23.535" height="13.012" x="548.752" y="331.587" class="af"/><rect width="23.535" height="13.011" x="548.752" y="346.598" class="ag"/><g class="ah"><polygon points="435.528 346.597 435.528 331.587 419.694 331.587 409.771 347.953 409.771 359.609 435.528 359.609 435.528 346.597" class="ai"/><polygon points="381.868 344.599 395.937 344.599 403.827 331.587 381.868 331.587 381.868 344.599" class="ai"/><polygon points="381.868 329.588 405.039 329.588 405.403 328.987 405.403 316.577 381.868 316.577 381.868 329.588" class="ai"/><polygon points="405.403 339.13 402.087 344.599 405.403 344.599 405.403 339.13" class="ai"/><polygon points="409.771 321.783 412.927 316.577 409.771 316.577 409.771 321.783" class="ai"/><polygon points="409.977 331.587 409.771 331.926 409.771 342.085 416.136 331.587 409.977 331.587" class="ai"/><polygon points="411.188 329.588 417.348 329.588 425.237 316.577 419.077 316.577 411.188 329.588" class="ai"/><rect width="23.535" height="13.011" x="465.31" y="346.597" class="ai"/><polygon points="435.528 329.588 435.528 316.577 428.795 316.577 420.906 329.588 435.528 329.588" class="ai"/><rect width="23.535" height="13.012" x="465.31" y="331.587" class="ai"/><rect width="23.535" height="13.012" x="439.896" y="331.587" class="ai"/><polygon points="379.989 329.588 379.989 316.577 374.362 316.577 366.473 329.588 379.989 329.588" class="ai"/><rect width="23.535" height="13.011" x="439.896" y="346.597" class="ai"/><rect width="23.535" height="13.011" x="439.896" y="316.577" class="ai"/><polygon points="523.338 344.599 530.58 344.599 538.47 331.587 523.338 331.587 523.338 344.599" class="ai"/><rect width="25.757" height="13.011" x="493.213" y="316.577" class="ai"/><polygon points="523.338 329.588 539.681 329.588 546.873 317.728 546.873 316.577 523.338 316.577 523.338 329.588" class="ai"/><polygon points="518.97 346.597 518.97 331.587 493.213 331.587 493.213 346.597 493.213 359.609 518.97 359.609 518.97 346.597" class="ai"/><polygon points="523.338 346.597 523.338 356.544 529.368 346.597 523.338 346.597" class="ai"/><polygon points="548.752 346.597 548.752 359.609 559.389 359.609 567.278 346.597 548.752 346.597" class="ai"/><polygon points="572.287 331.587 557.41 331.587 549.521 344.599 568.49 344.599 572.287 338.337 572.287 331.587" class="ai"/><polygon points="546.873 348.966 540.42 359.609 546.873 359.609 546.873 348.966" class="ai"/><polygon points="405.403 349.289 405.403 346.597 400.875 346.597 392.987 359.609 399.146 359.609 405.403 349.289" class="ai"/><polygon points="381.868 346.597 381.868 359.609 386.836 359.609 394.726 346.597 381.868 346.597" class="ai"/><rect width="23.535" height="13.011" x="356.454" y="346.597" class="ai"/><polygon points="379.989 344.599 379.989 331.587 365.261 331.587 357.372 344.599 379.989 344.599" class="ai"/><polygon points="572.287 329.588 572.287 316.577 566.511 316.577 558.622 329.588 572.287 329.588" class="ai"/><polygon points="405.403 355.157 402.704 359.609 405.403 359.609 405.403 355.157" class="ai"/><rect width="23.535" height="13.011" x="465.31" y="316.577" class="ai"/></g><rect width="223.103" height="7.312" x="352.819" y="314.471" class="ak"/><rect width="234.628" height="6.36" x="347.056" y="362.304" class="e"/><rect width="3.635" height="8.719" x="352.819" y="295.411" class="aq"/><rect width="3.635" height="8.719" x="380.252" y="295.411" class="aq"/><rect width="3.635" height="8.719" x="407.686" y="295.411" class="aq"/><rect width="3.635" height="8.719" x="435.119" y="295.411" class="aq"/><rect width="3.635" height="8.719" x="462.553" y="295.411" class="aq"/><rect width="3.635" height="8.719" x="489.986" y="295.411" class="aq"/><rect width="3.635" height="8.719" x="517.42" y="295.411" class="aq"/><rect width="3.635" height="8.719" x="544.854" y="295.411" class="aq"/><rect width="3.635" height="8.719" x="572.287" y="295.411" class="aq"/><rect width="235.907" height="3.934" x="346.417" y="291.992" class="i" rx=".85" ry=".85"/><rect width="3.635" height="8.719" x="235.786" y="62.69" class="aq"/><rect width="3.635" height="8.719" x="263.219" y="62.69" class="aq"/><rect width="3.635" height="8.719" x="290.653" y="62.69" class="aq"/><rect width="3.635" height="8.719" x="318.086" y="62.69" class="aq"/><rect width="3.635" height="8.719" x="345.52" y="62.69" class="aq"/><rect width="3.635" height="8.719" x="372.953" y="62.69" class="aq"/><rect width="3.635" height="8.719" x="400.387" y="62.69" class="aq"/><rect width="3.635" height="8.719" x="427.82" y="62.69" class="aq"/><rect width="3.635" height="8.719" x="455.254" y="62.69" class="aq"/><rect width="235.907" height="3.934" x="229.384" y="59.27" class="i" rx=".85" ry=".85"/><rect width="3.232" height="11.96" x="235.987" y="48.067" class="ar"/><path d="M241.9337,46.11055a4.3308,4.3308,0,1,1-4.33068-4.33091A4.33072,4.33072,0,0,1,241.9337,46.11055Z" class="e"/><path d="M237.847,55.31088l-.1504-4.025a5.36813,5.36813,0,0,0,.72771-.07762l.70322,3.9659A9.29563,9.29563,0,0,1,237.847,55.31088Zm-4.95467-1.217a9.35745,9.35745,0,0,1-1.06892-.71639l2.46543-3.18506a5.33561,5.33561,0,0,0,.60874.40752Zm10.81654-1.16572-2.70015-2.98846a5.271,5.271,0,0,0,.50593-.52557l3.08965,2.58418A9.32112,9.32112,0,0,1,243.70885,52.92815ZM228.804,49.266a9.38582,9.38582,0,0,1-.36177-1.23756l3.93448-.86147a5.27629,5.27629,0,0,0,.20538.70183Zm17.87186-1.93039-3.9897-.55352a5.30414,5.30414,0,0,0,.05036-.73071l4.02735-.11944v.155A9.21567,9.21567,0,0,1,246.67583,47.33564Zm-14.11341-3.04529-3.79379-1.35423a9.28989,9.28989,0,0,1,.51979-1.18536L232.854,43.625A5.10344,5.10344,0,0,0,232.56242,44.29035Zm9.35141-1.05922a5.368,5.368,0,0,0-.43662-.58748l3.0573-2.62161a9.2858,9.2858,0,0,1,.76906,1.03289Zm-7.06848-1.69868-2.04244-3.47129a9.24007,9.24007,0,0,1,1.15394-.57478l1.5409,3.721A5.26409,5.26409,0,0,0,234.84535,41.53245Zm4.223-.48052a5.1895,5.1895,0,0,0-.70414-.16795l.65794-3.974a9.14579,9.14579,0,0,1,1.26067.30194Z" class="e"/><rect width="3.232" height="11.96" x="455.455" y="48.067" class="ar"/><path d="M461.4019,46.11055a4.33068,4.33068,0,1,1-4.33068-4.33091A4.33071,4.33071,0,0,1,461.4019,46.11055Z" class="e"/><path d="M457.31541,55.31088l-.1504-4.025a5.3687,5.3687,0,0,0,.72748-.07762l.70322,3.9659A9.29266,9.29266,0,0,1,457.31541,55.31088Zm-4.95467-1.217a9.31529,9.31529,0,0,1-1.06891-.71639l2.46519-3.18506a5.33561,5.33561,0,0,0,.60874.40752Zm10.81654-1.16572-2.70038-2.98846a5.24521,5.24521,0,0,0,.50593-.52557l3.08965,2.58418A9.31878,9.31878,0,0,1,463.17728,52.92815ZM448.27241,49.266a9.35191,9.35191,0,0,1-.362-1.23756l3.93449-.86147a5.31466,5.31466,0,0,0,.2056.70183ZM466.144,47.33564l-3.98947-.55352a5.304,5.304,0,0,0,.05013-.73071L466.232,45.932v.155A9.21729,9.21729,0,0,1,466.144,47.33564Zm-14.11318-3.04529-3.794-1.35423a9.29135,9.29135,0,0,1,.5198-1.18536l3.56577,1.87425A5.07255,5.07255,0,0,0,452.03085,44.29035Zm9.35118-1.05922a5.33721,5.33721,0,0,0-.43662-.58748l3.0573-2.62161a9.28713,9.28713,0,0,1,.76907,1.03289Zm-7.06848-1.69868-2.04244-3.47129a9.25584,9.25584,0,0,1,1.15394-.57478l1.54112,3.721A5.26765,5.26765,0,0,0,454.31355,41.53245Zm4.22325-.48052a5.206,5.206,0,0,0-.70414-.16795l.65794-3.974a9.15377,9.15377,0,0,1,1.26067.30194Z" class="e"/><path d="M229.32192,361.10854V347.8402a3.39389,3.39389,0,0,1,3.39-3.39h7.40346a3.39374,3.39374,0,0,1,3.39,3.39v13.26834a3.39394,3.39394,0,0,1-3.39,3.39021h-7.40346A3.39409,3.39409,0,0,1,229.32192,361.10854Zm3.39-13.54487a.27988.27988,0,0,0-.27653.27653v13.26834a.28007.28007,0,0,0,.27653.27676h7.40346a.2839.2839,0,0,0,.27676-.27676V347.8402a.28386.28386,0,0,0-.27676-.27653Z" class="as"/><path d="M222.0365,362.345V344.937a3.69943,3.69943,0,0,1,3.69515-3.69538h6.012a3.69944,3.69944,0,0,1,3.69515,3.69538v17.408a3.69924,3.69924,0,0,1-3.69515,3.69514h-6.012A3.69923,3.69923,0,0,1,222.0365,362.345Zm3.69515-17.60157a.19879.19879,0,0,0-.19359.1936v17.408a.19879.19879,0,0,0,.19359.19359h6.012a.19879.19879,0,0,0,.19359-.19359V344.937a.19879.19879,0,0,0-.19359-.1936Z" class="at"/><path d="M226.68969,387.09378a11.597,11.597,0,0,0,2.37256-7.0306h7.0805a11.5985,11.5985,0,0,0,2.37256,7.0306Z" class="as"/><rect width="7.08" height="60.34" x="229.062" y="319.724" class="as"/><path d="M232.43536,319.72358h-3.37311v60.3396a11.59927,11.59927,0,0,1-2.37233,7.0306h5.74544Z" class="at"/><path d="M263.53651,321.45276c.006-20.14554-11.40055-52.95762-30.93389-53.63913-19.53358.68151-30.94014,33.49336-30.9339,53.63913-.35253,20.3858,13.814,38.75527,30.9339,39.67172C249.72227,360.2078,263.88905,341.83833,263.53651,321.45276Z" class="f"/><path d="M232.33209,267.837c-19.36631.97629-30.66961,33.56428-30.6636,53.61557-.35046,20.27745,13.66685,38.54412,30.6636,39.64007Z" class="g"/><ellipse cx="218.435" cy="341.633" class="f" rx="2.736" ry="4.436"/><path d="M214.05665,330.98552c-.90675,0-1.64185.98669-1.64185,2.20392,0,1.217.7351,2.20369,1.64185,2.20369.907,0,1.64208-.98668,1.64208-2.20369C215.69873,331.97221,214.96363,330.98552,214.05665,330.98552Z" class="f"/><path d="M219.861,330.98552c-.72332,0-1.30965.98669-1.30965,2.20392,0,1.217.58633,2.20369,1.30965,2.20369s1.30964-.98668,1.30964-2.20369C221.17064,331.97221,220.58432,330.98552,219.861,330.98552Z" class="f"/><path d="M207.15172,322.74785c-.90213,0-1.6333,1.32328-1.6333,2.95543,0,1.63238.73117,2.95565,1.6333,2.95565.9019,0,1.63308-1.32327,1.63308-2.95565C208.7848,324.07113,208.05362,322.74785,207.15172,322.74785Z" class="f"/><path d="M239.64015,284.42551c1.056,0,1.91214-1.28262,1.91214-2.86487s-.85616-2.86509-1.91214-2.86509-1.91215,1.28284-1.91215,2.86509S238.58416,284.42551,239.64015,284.42551Z" class="g"/><ellipse cx="244.921" cy="290.639" class="g" rx="2.116" ry="3.219"/><path d="M239.4022,292.18289c.56484,0,1.023-.78985,1.023-1.76406,0-.97444-.45811-1.76429-1.023-1.76429-.56508,0-1.02319.78985-1.02319,1.76429C238.379,291.393,238.83712,292.18289,239.4022,292.18289Z" class="g"/><ellipse cx="248.134" cy="298.731" class="g" rx="1.098" ry="1.588"/><path d="M542.36363,425.32741H445.02682a8.09984,8.09984,0,0,1-8.09975-8.1h0a8.0998,8.0998,0,0,1,8.09975-8.09976h97.33681a8.1,8.1,0,0,1,8.09976,8.09976h0A8.1,8.1,0,0,1,542.36363,425.32741Z" class="au"/><path d="M540.5774,367.12543a2.70933,2.70933,0,0,0-.201-.46689l2.78447-1.52311a5.902,5.902,0,0,1,.43663,1.016Z" class="al"/><path d="M535.54257,366.99675l-2.97067-1.11651a5.83438,5.83438,0,0,1,.48929-.99823l2.70246,1.66356A2.62539,2.62539,0,0,0,535.54257,366.99675Z" class="al"/><path d="M539.736,365.88255a2.74853,2.74853,0,0,0-.42068-.28508l1.52311-2.78378a5.9099,5.9099,0,0,1,.91577.61983Z" class="al"/><path d="M536.44632,365.79938l-1.89829-2.54282a5.834,5.834,0,0,1,.94718-.57616l1.38311,2.85678A2.66493,2.66493,0,0,0,536.44632,365.79938Z" class="al"/><path d="M538.35661,365.2923l-.10812-.01086a2.802,2.802,0,0,0-.40174-.00185l-.21554-3.16658a5.864,5.864,0,0,1,.8751.00532c.08224.00693.15617.01432.22986.02287Z" class="al"/><path d="M540.14377,367.93839a2.10632,2.10632,0,1,1-2.1062-2.1062A2.10625,2.10625,0,0,1,540.14377,367.93839Z" class="al"/><path d="M536.40011,367.04642a.40015.40015,0,0,0,.06053.374.41437.41437,0,0,0,.30887.10165,1.2661,1.2661,0,0,0,.70393-.2391,2.11613,2.11613,0,0,0,.52-.54151.49911.49911,0,0,0,.11135-.26868.33726.33726,0,0,0-.158-.27214.62407.62407,0,0,0-.31072-.09148A1.27791,1.27791,0,0,0,536.40011,367.04642Z" class="av"/><polygon points="537.631 393.359 518.346 392.033 512.453 409.128 526.203 409.129 539.507 409.129 537.631 393.359" class="aw"/><polygon points="488.956 393.359 467.246 392.033 460.611 409.128 476.091 409.129 491.068 409.129 488.956 393.359" class="aw"/><polygon points="549.531 392.743 512.453 392.743 512.453 367.796 544.037 367.796 549.531 392.743" class="h"/><polygon points="523.171 389.75 523.171 370.788 541.632 370.788 545.808 389.75 523.171 389.75" class="af"/><path d="M525.90238,388.15508a130.83933,130.83933,0,0,1,15.8844-16.66316l-.15478-.70345H523.17105v18.96134h1.58224A17.26152,17.26152,0,0,1,525.90238,388.15508Z" class="ax"/><path d="M512.45269,392.74289v15.44939h.80117c.22155-6.53137,4.53052-12.89825,12.94123-12.89825,8.42479,0,12.72729,6.36688,12.9419,12.89825h10.39424V392.74289Z" class="h"/><path d="M551.372,409.1286h-7.84841a2.05163,2.05163,0,0,1-2.05168-2.05168v-1.63954a2.05158,2.05158,0,0,1,2.05168-2.05145H551.372Z" class="ar"/><path d="M543.70146,403.38593h-.73325a1.49635,1.49635,0,0,0-1.49631,1.49631v2.74982a1.49641,1.49641,0,0,0,1.49631,1.49654h.73325Z" class="ar"/><path d="M520.43324,372.21455h-4.87681a.71308.71308,0,0,1-.71316-.71293h0a.71313.71313,0,0,1,.71316-.71315h4.87681a.71307.71307,0,0,1,.71292.71315h0A.713.713,0,0,1,520.43324,372.21455Z" class="ay"/><path d="M520.43324,374.89044h-4.87681a.71313.71313,0,0,1-.71316-.71316h0a.71308.71308,0,0,1,.71316-.71292h4.87681a.713.713,0,0,1,.71292.71292h0A.71307.71307,0,0,1,520.43324,374.89044Z" class="ay"/><path d="M520.43324,377.5661h-4.87681a.71308.71308,0,0,1-.71316-.71292h0a.71313.71313,0,0,1,.71316-.71316h4.87681a.71307.71307,0,0,1,.71292.71316h0A.713.713,0,0,1,520.43324,377.5661Z" class="ay"/><path d="M549.53123,402.05711h0v-6.28556h0a1.16675,1.16675,0,0,1,1.16687,1.16687v3.952A1.1667,1.1667,0,0,1,549.53123,402.05711Z" class="ai"/><path d="M551.67023,400.16252a2.23266,2.23266,0,0,0,.31627-.31788l3.08964,1.15117a4.84027,4.84027,0,0,1-.688.69236Z" class="ai"/><path d="M551.76264,397.67584l2.82213-1.43463a4.50524,4.50524,0,0,1,.63922.71593l-3.17027,1.04536A2.06925,2.06925,0,0,0,551.76264,397.67584Z" class="ai"/><path d="M552.3254,399.1197l.012-.08155a1.44756,1.44756,0,0,0,.00209-.30379l3.51448-.16263a3.01936,3.01936,0,0,1-.006.6614c-.00786.06215-.01594.118-.02542.17373Z" class="ai"/><rect width="72.685" height="3.32" x="451.859" y="407.469" class="aw"/><path d="M453.73069,372.34831V407.4685h9.06241c.41652-6.35557,4.72133-12.40711,12.92111-12.40711,8.21366,0,12.51268,6.05154,12.92251,12.40711H512.485V366.765a3.72216,3.72216,0,0,0-3.72217-3.72218h-45.727A9.30526,9.30526,0,0,0,453.73069,372.34831Z" class="az"/><path d="M501.68444,378.535a9.44718,9.44718,0,1,1-9.44706-9.44728A9.44693,9.44693,0,0,1,501.68444,378.535Z" class="al"/><path d="M500.10981,378.535a7.87243,7.87243,0,1,1-7.87243-7.87243A7.87229,7.87229,0,0,1,500.10981,378.535Z" class="ba"/><rect width="9.874" height="2.916" x="487.3" y="377.077" class="af"/><rect width="2.916" height="9.874" x="490.779" y="373.598" class="af"/><polygon points="512.453 390.512 512.453 392.743 549.531 392.743 549.04 390.512 512.453 390.512" class="bb"/><path d="M522.25113,395.83346a14.70776,14.70776,0,0,1,7.89345,0h19.38665v-3.09057H512.45269v3.09057Z" class="bb"/><path d="M512.45269,398.83486v9.35742h.80117a13.89176,13.89176,0,0,1,3.855-9.35742Z" class="bb"/><path d="M535.2896,398.83486a13.86915,13.86915,0,0,1,3.84739,9.35742h10.39424v-9.35742Z" class="bb"/><path d="M485.05362,398.83486a13.85828,13.85828,0,0,1,3.5831,8.63364H512.485v-8.63364Z" class="al"/><path d="M512.47187,366.63567a3.715,3.715,0,0,0-3.709-3.59281h-45.727a9.25164,9.25164,0,0,0-7.29535,3.59281Z" class="al"/><path d="M453.73069,390.51217v5.32129h17.3114a14.54143,14.54143,0,0,1,9.35049,0H512.485v-5.32129Z" class="al"/><path d="M453.73069,398.83486v8.63364h9.06241a13.88216,13.88216,0,0,1,3.5898-8.63364Z" class="al"/><path d="M512.45292,409.12767h1.48129v-.82589a12.48,12.48,0,0,1,12.46532-12.46555v-1.48129a13.96264,13.96264,0,0,0-13.94661,13.94684Z" class="bc"/><path d="M489.497,409.12767h-1.48129v-.82589a12.47994,12.47994,0,0,0-12.46532-12.46555v-1.48129A13.96264,13.96264,0,0,1,489.497,408.30178Z" class="bc"/><path d="M461.60358,409.12767h1.48129v-.82589a12.48,12.48,0,0,1,12.46555-12.46555v-1.48129a13.96283,13.96283,0,0,0-13.94684,13.94684Z" class="bc"/><path d="M536.16724,409.1286a10.12775,10.12775,0,1,1-10.12763-10.12787A10.12782,10.12782,0,0,1,536.16724,409.1286Z" class="bd"/><path d="M531.667,409.1286a5.62751,5.62751,0,1,1-5.62739-5.62762A5.62742,5.62742,0,0,1,531.667,409.1286Z" class="be"/><path d="M527.69948,409.1286a1.66,1.66,0,1,1-1.65987-1.6601A1.65992,1.65992,0,0,1,527.69948,409.1286Z" class="bc"/><path d="M517.08092,409.49961a7.29986,7.29986,0,0,1,.36109-4.01326,9.504,9.504,0,0,1,4.97406-5.3467,3.03976,3.03976,0,0,1,1.795-.334,1.32306,1.32306,0,0,1,1.12137,1.27245,1.42164,1.42164,0,0,1-.27746.69121,6.2022,6.2022,0,0,1-2.54814,1.67281,13.76462,13.76462,0,0,0-3.93748,2.98083,5.022,5.022,0,0,0-1.37041,2.255Z" class="bf"/><path d="M485.67806,409.1286a10.12776,10.12776,0,1,1-10.12764-10.12787A10.12782,10.12782,0,0,1,485.67806,409.1286Z" class="bd"/><path d="M481.17781,409.1286a5.62751,5.62751,0,1,1-5.62739-5.62762A5.62741,5.62741,0,0,1,481.17781,409.1286Z" class="be"/><path d="M477.21029,409.1286a1.66,1.66,0,1,1-1.65987-1.6601A1.65992,1.65992,0,0,1,477.21029,409.1286Z" class="bc"/><path d="M466.59174,409.49961a7.29986,7.29986,0,0,1,.36108-4.01326,9.50405,9.50405,0,0,1,4.97407-5.3467,3.03976,3.03976,0,0,1,1.795-.334,1.32306,1.32306,0,0,1,1.12136,1.27245,1.42153,1.42153,0,0,1-.27745.69121,6.2022,6.2022,0,0,1-2.54814,1.67281,13.76466,13.76466,0,0,0-3.93749,2.98083,5.02189,5.02189,0,0,0-1.3704,2.255Z" class="bf"/><path d="M459.93262,394.1655H457.752a.99254.99254,0,0,1-.99246-.99269h0a.99254.99254,0,0,1,.99246-.99268h2.18059a.99274.99274,0,0,1,.9927.99268h0A.99275.99275,0,0,1,459.93262,394.1655Z" class="av"/><path d="M466.11122,365.87469h-2.18059a.99253.99253,0,0,1-.99245-.99268h0a.99253.99253,0,0,1,.99245-.99269h2.18059a.99274.99274,0,0,1,.99269.99269h0A.99274.99274,0,0,1,466.11122,365.87469Z" class="av"/><path d="M505.78271,365.87469h-2.18035a.99274.99274,0,0,1-.99269-.99268h0a.99274.99274,0,0,1,.99269-.99269h2.18035a.99274.99274,0,0,1,.99269.99269h0A.99274.99274,0,0,1,505.78271,365.87469Z" class="av"/><path d="M545.20193,394.1655h-2.18059a.99274.99274,0,0,1-.99268-.99269h0a.99273.99273,0,0,1,.99268-.99268h2.18059a.99255.99255,0,0,1,.99247.99268h0A.99255.99255,0,0,1,545.20193,394.1655Z" class="av"/><rect width="16.973" height="12.405" x="458.842" y="370.788" class="af" rx="1" ry="1"/><path d="M460.36439,383.12511c.03281-.03373.06076-.07162.094-.10512A66.63627,66.63627,0,0,1,475.443,371.59033a1.82684,1.82684,0,0,0-1.48892-.80186H460.7033a1.861,1.861,0,0,0-1.86086,1.86109v8.68307A1.83488,1.83488,0,0,0,460.36439,383.12511Z" class="ax"/><path d="M540.34638,409.12767h-1.4813v-.82589a12.48014,12.48014,0,0,0-12.46555-12.46555v-1.48129a13.96284,13.96284,0,0,1,13.94685,13.94684Z" class="bc"/><path d="M306.13594,364.05634V361.069h-6.45028v-.18574a1.35788,1.35788,0,0,0-1.35793-1.35793h-.00647a1.35788,1.35788,0,0,0-1.35793,1.35793v.18574H247.84455v-.18574a1.35788,1.35788,0,0,0-1.35793-1.35793h-.00647a1.35788,1.35788,0,0,0-1.35793,1.35793v.18574H238.672v2.9873h6.45027v1.537H238.672v2.98708h6.45027v1.5372H238.672v2.98707h6.45027v.07647H238.672v4.53767h6.45027V385.147h-.11943a1.28083,1.28083,0,0,0-1.281,1.281v.7h5.52343v-.7a1.28083,1.28083,0,0,0-1.281-1.281h-.11967V377.7188h49.11878V385.147h-.11967a1.281,1.281,0,0,0-1.281,1.281v.7h5.52367v-.7a1.281,1.281,0,0,0-1.281-1.281h-.11967V377.7188h6.45028v-4.53767h-6.45028v-.07647h6.45028v-2.98707h-6.45028v-1.5372h6.45028v-2.98708h-6.45028v-1.537Zm-9.17261,9.12479H247.84455v-.07647h49.11878Zm0-3.06354H247.84455v-1.5372h49.11878Zm0-4.52428H247.84455v-1.537h49.11878Z" class="ak"/><path d="M252.64059,359.52537h1.54673a.5878.5878,0,0,1,.5878.5878V387.128a0,0,0,0,1,0,0h-2.72233a0,0,0,0,1,0,0v-27.0148A.5878.5878,0,0,1,252.64059,359.52537Z" class="bg"/><path d="M254.77512,378.90162V360.8833a1.358,1.358,0,0,0-1.35793-1.35793h-.00647a1.358,1.358,0,0,0-1.35793,1.35793v18.01832Z" class="bh"/><path d="M251.20662,385.147h4.41466a.5545.5545,0,0,1,.5545.5545V387.128a0,0,0,0,1,0,0h-5.52366a0,0,0,0,1,0,0v-1.42649A.5545.5545,0,0,1,251.20662,385.147Z" class="bg"/><path d="M304.4817,359.52537h1.54673a.5878.5878,0,0,1,.5878.5878V387.128a0,0,0,0,1,0,0H303.8939a0,0,0,0,1,0,0v-27.0148A.5878.5878,0,0,1,304.4817,359.52537Z" class="bg"/><path d="M306.61623,378.90162V360.8833a1.358,1.358,0,0,0-1.35793-1.35793h-.00647a1.358,1.358,0,0,0-1.35793,1.35793v18.01832Z" class="bh"/><path d="M303.04773,385.147h4.41456a.5546.5546,0,0,1,.5546.5546V387.128a0,0,0,0,1,0,0h-5.52366a0,0,0,0,1,0,0v-1.42649A.5545.5545,0,0,1,303.04773,385.147Z" class="bg"/><rect width="67.464" height="4.538" x="245.603" y="373.181" class="bi"/><rect width="67.464" height="1.303" x="245.603" y="373.181" class="bj"/><rect width="67.464" height="2.987" x="245.603" y="370.118" class="bk"/><rect width="67.464" height="2.987" x="245.603" y="365.593" class="bk"/><rect width="67.464" height="2.987" x="245.603" y="361.069" class="bk"/><polygon points="320.215 371.991 321.667 371.991 322.56 385.42 321.347 385.42 321.493 387.148 332.658 387.148 332.804 385.42 331.592 385.42 332.484 371.991 333.936 371.991 334.157 369.367 319.994 369.367 320.215 371.991" class="ak"/><polygon points="339.415 371.991 328.598 371.991 329.514 385.771 338.499 385.771 339.415 371.991" class="bk"/><path d="M330.93051,373.219h0a1.3973,1.3973,0,0,0-1.25721,1.59564l.48953,8.876a1.25881,1.25881,0,0,0,1.21585,1.20916h0a1.14681,1.14681,0,0,0,1.123-1.20916l-.19175-8.876A1.53083,1.53083,0,0,0,330.93051,373.219Z" class="bl"/><polygon points="339.735 385.421 328.278 385.421 328.423 387.148 339.589 387.148 339.735 385.421" class="bi"/><polygon points="341.088 369.367 326.924 369.367 327.146 371.991 340.867 371.991 341.088 369.367" class="bi"/></g></svg>