<svg xmlns="http://www.w3.org/2000/svg" xmlns:xlink="http://www.w3.org/1999/xlink" viewBox="0 0 911.59008 682.85603"><defs><style>.a{fill:none;}.b{isolation:isolate;}.c{fill:#224191;}.d{fill:#e5e5e5;}.e{fill:#232a60;}.f{fill:#d5d7db;}.g{fill:#2d2e2d;}.h{fill:#e0ac9b;}.ad,.i,.v{mix-blend-mode:multiply;}.i{fill:url(#a);}.j{fill:#d8d9d8;}.an,.k{fill:#fff;}.l{clip-path:url(#b);}.m{fill:#6f0f10;}.n{fill:#991b1e;}.o{fill:#444649;}.p{fill:#010101;}.q{fill:#37383a;}.r{fill:#1c1c1c;}.s{fill:#26282d;}.t{fill:#cb9483;}.u{clip-path:url(#c);}.w{fill:url(#d);}.x{fill:#5b2712;}.y{fill:#884027;}.z{fill:#555b67;}.aa{fill:#3c414d;}.ab{clip-path:url(#e);}.ac{fill:#25272b;}.ad{fill:url(#f);}.ae{clip-path:url(#g);}.af{fill:#121f48;}.ag{fill:#213f7d;}.ah{fill:#3c3f45;}.ai,.ak{fill:#6f93cc;}.aj{fill:#5471b7;}.ak,.al,.an{mix-blend-mode:soft-light;}.am{fill:#a71e22;}.ao{fill:#ba784b;}</style><linearGradient id="a" x1="1019.30102" y1="148.37179" x2="1008.68679" y2="113.5686" gradientTransform="matrix(-1, 0, 0, 1, 1169.17625, 0)" gradientUnits="userSpaceOnUse"><stop offset="0" stop-color="#fff"/><stop offset="0.25275" stop-color="#c6c0b9"/></linearGradient><clipPath id="b"><path class="a" d="M170.73258,134.74637c-1.6358,2.12818-10.1553,8.99145-15.0232,8.49295-4.88151-.49238-12.91545-4.94145-14.45863-8.55287-1.36952,1.54318-6.53026,5.6531-6.53026,5.6531l19.63912,76.70753,21.86672-75.13779Z"/></clipPath><clipPath id="c"><polygon class="a" points="640.467 262.364 886.451 279.056 887.402 25.159 640.454 47.751 640.467 262.364"/></clipPath><linearGradient id="d" x1="-147.80025" y1="188.04331" x2="-168.13671" y2="119.87204" gradientTransform="matrix(-1, 0, 0, 1, 586.05125, 0)" gradientUnits="userSpaceOnUse"><stop offset="0.25" stop-color="#fff"/><stop offset="0.64286" stop-color="#c6c0b9"/></linearGradient><clipPath id="e"><rect class="a" x="312.2033" y="46.54672" width="300.77041" height="213.54257"/></clipPath><linearGradient id="f" x1="453.03213" y1="124.77053" x2="481.06574" y2="124.77053" gradientTransform="translate(-10.01259 17.10226) rotate(-1.80512)" gradientUnits="userSpaceOnUse"><stop offset="0" stop-color="#fff"/><stop offset="0.64286" stop-color="#c6c0b9"/></linearGradient><clipPath id="g"><path class="a" d="M473.93763,128.2025c-1.3634,1.81559-8.6523,7.63486-12.829,7.17586-4.21617-.4522-11.20611-4.3299-12.5695-7.42852-1.15023,1.29665-5.48013,4.7746-5.48013,4.7746l18.07006,58.00616,17.65674-56.33018Z"/></clipPath></defs><title>InititalBadal1</title><g class="b"><rect class="c" x="299.75371" y="26.37572" width="328.29025" height="250.10016"/><rect class="d" x="311.99014" y="42.91554" width="303.7771" height="217.02052"/><polygon class="e" points="9.943 298.423 0 293.987 0 5.639 9.943 1.197 9.943 298.423"/><polygon class="c" points="297.459 276.476 7.947 299.094 7.947 1.03 297.459 26.376 297.459 276.476"/><polygon class="f" points="287.017 260.701 25.146 277.221 25.146 23.084 287.017 42.031 287.017 260.701"/><path class="g" d="M203.85921,155.35662c12.18409-.69872,19.16718,53.6429,26.68218,84.52831,1.19723,4.93463-2.18129,10.3882-13.04825,15.376-15.07014,6.90958-16.75979,8.94514-16.75979,8.94514l-14.08544-23.02445,14.53763-12.0172-3.43163-29.64187Z"/><path class="h" d="M156.308,160.05154l-18.74154-7.35564s5.67966-27.7255,5.73278-30.46591l12.56955-1.16385h.12662l12.26373.55843c-.047,2.74722,4.06979,26.90828,4.06979,26.90828L156.308,160.05154Z"/><path class="i" d="M155.46967,121.0532h.16l10.72054.54481c0,.90507,2.63349,6.85033,3.01962,10.51488-2.73359,4.18279-20.45089,16.89871-25.711,16.95864-4.3694.04018-2.78672,3.94376-5.52031.90439.65173-4.59549,5.29421-27.1405,5.30715-28.1845Z"/><path class="j" d="M170.44043,135.79037c-1.62967,2.135-10.33509,15.02388-15.203,14.54513-4.86177-.49238-12.74929-11.00657-14.31222-14.59144-1.34977,1.52275-6.51731,5.63949-6.51731,5.63949l20.756,52.36667,20.77642-50.76356Z"/><path class="k" d="M141.02465,135.8108c1.56293,3.61075,9.49744,12.68255,14.3524,13.16743.14642,0-3.5515,63.50605-3.5515,63.50605l-17.31822-71.0408S139.66807,137.34036,141.02465,135.8108Z"/><g class="l"><polygon class="m" points="152.178 156.939 155.756 156.893 155.909 147.163 148.853 147.236 148.7 151.413 152.178 156.939"/><polygon class="m" points="151.766 155.449 144.457 217.745 154.3 225.799 154.539 225.573 155.962 155.463 151.766 155.449"/><polygon class="n" points="158.476 156.866 155.523 156.893 155.669 147.163 162.892 147.103 162.759 151.266 158.476 156.866"/><polygon class="n" points="158.995 155.363 164.395 217.366 154.3 225.799 155.536 155.41 158.995 155.363"/><polygon class="n" points="151.586 156.846 159.068 156.753 159.088 156.055 151.686 156.128 151.586 156.846"/></g><path class="g" d="M158.50291,268.86758s-52.91217,4.23659-55.91136,3.21235c.98407-10.50126,6.484-20.12469,6.91639-28.13819.52575-10.6075,2.17517-37.82155.84446-42.28425-1.33-4.44226-14.88359-14.69767-14.88359-14.69767s-3.67135-30.27317,9.53694-33.05989c11.45877-2.42714,19.3-5.04768,32.04858-13.4807,0,0,3.42551,23.051,6.72367,30.13357,3.352,7.19629,7.43532,39.71068,10.81384,43.70756C157.82394,219.80655,158.50291,268.86758,158.50291,268.86758Z"/><path class="o" d="M156.69345,269.00719l-2.10161-54.74683s10.82746-36.47858,18.19605-67.01122l-.3589-7.53476c19.52607,13.75311,20.60344,8.98464,31.57664,13.97307,5.49311,2.49388.43857,14.47158.43857,14.47158s-4.59544,30.931-6.00514,35.374c-1.43631,4.44907-.299,30.4264-.09948,40.90042.11918,5.2479,3.37852,8.23347,4.49538,21.74754Z"/><polygon class="k" points="153.634 147.15 144.357 157.604 138.91 145.015 137.407 139.448 140.639 135.817 153.634 147.15"/><polygon class="k" points="158.709 147.362 166.709 157.105 174.391 139.927 170.068 135.066 158.709 147.362"/><path class="o" d="M140.10051,135.42467c.02656-.5455-9.07793,8.24028-9.07793,8.24028l-1.93545,17.1718,9.69017-1.3702-10.17573,9.889,25.99027,46.06865s-10.84653-56.65639-13.40715-64.51735C138.03908,141.25075,140.10051,135.42467,140.10051,135.42467Z"/><path class="g" d="M172.06942,135.15226c.00681-.53255,8.779,8.03394,8.779,8.03394l1.3831,17.04513-9.59006-1.14411,4.58936,6.59768-22.87122,51.36218s12.38971-60.29438,15.80773-67.96193A23.81827,23.81827,0,0,0,172.06942,135.15226Z"/><path class="h" d="M156.38768,72.17128a.335.335,0,0,0-.10624.02043v-.02043c-19.40617.11305-21.8136,13.78035-22.3591,30.41959-.66535,20.61025,7.342,33.49234,19.6255,34.38379a5.80478,5.80478,0,0,0,.81177.07287c.17911,0,.33915-.01975.52507-.03337.21315,0,.412.02656.63879.02656v-.05993c16.2334-.78453,19.45252-10.63406,20.51627-31.26406C176.95093,88.33858,176.97749,72.16447,156.38768,72.17128Z"/><path class="p" d="M136.56881,106.18868c.08645-3.94989,1.88909-7.61443.54545-10.46108a11.16194,11.16194,0,0,1-.53183-8.81847c2.23437-7.50206,10.64763-10.7076,13.08158-11.4322,2.46051-.70485.43926-4.62205.43926-4.62205a10.995,10.995,0,0,0-8.01419,1.456c-3.86408,2.46732-6.67736,4.25634-9.96257,11.03994-3.27228,6.82377-2.30116,10.4747-.26628,15.882a14.06151,14.06151,0,0,1,.2261,8.09318l2.38151-1.74884Z"/><path class="q" d="M167.89343,84.64816c6.31778,1.07056,6.51051,4.26248,6.4642,8.89815-.06674,4.6418,1.21016,14.61118,1.21016,14.61118l2.67367-.79815s-2.68661-2.40739.173-9.80934c2.58036-6.70392,1.6426-17.88346-4.84815-21.52145-4.2366-2.38083-5.23429-5.36027-15.54282-4.2829C153.87405,72.19784,165.28582,84.18916,167.89343,84.64816Z"/><path class="h" d="M175.608,106.22205c.99092-1.42332,3.72379-5.2806,4.37557-1.25035.62513,4.05068-1.6624,9.02482-3.2982,10.71442-1.62286,1.66917-2.594-.61836-2.97944.8179C173.49274,117.21568,175.608,106.22205,175.608,106.22205Z"/><path class="h" d="M136.54221,107.9314c-.83765-4.66836-4.65542-6.43764-5.44-2.38083-.78453,4.07655,1.19722,10.04225,2.79352,11.73117,1.60924,1.663,3.92333,2.14179,3.93014,1.41038C137.83273,117.98046,136.54221,107.9314,136.54221,107.9314Z"/><path class="r" d="M138.80386,89.45613c11.45876,5.90577,27.04108-4.03706,30.64569-4.72148,3.60461-.71166.8179-2.90657-1.85577-9.33127-1.962-4.70173-8.6523-3.83071-14.3449-5.71917-6.11893-1.98856-12.25079-1.33-10.62793-.78453,2.71385.92414.46582,2.99238-.34595,3.45139-2.66005,1.503-7.62125,1.40289-9.17737,7.31547-1.88913,7.04987-.56524,22.38565,1.044,23.15724,2.72,1.28371,2.48707.23291,2.34746-2.088C135.505,86.11779,138.80386,89.45613,138.80386,89.45613Z"/><path class="s" d="M163.02485,87.44782c-2.79284.57886,1.72229-8.59918-5.74572-14.29179-3.95053-2.97331-11.55888-5.46038-11.55888-5.46038.4522-.17979,5.79272,1.19722,12.30322,4.05,3.96419,1.76927,9.24479,11.4322,9.19784,14.3054C167.19471,88.91064,163.02485,87.44782,163.02485,87.44782Z"/><path class="s" d="M163.47705,87.00856c-2.55381.286-3.37171-8.75854-6.3314-12.24329-6.15843-7.22285-8.91177-7.06962-8.91177-7.06962s7.58174,5.141,8.33971,9.4307c.78521,4.30946-1.42945,13.30091,3.27914,13.0285C162.41334,90.01456,163.47705,87.00856,163.47705,87.00856Z"/><path class="s" d="M156.70707,89.52287c-2.5272.27922-7.342-1.38995-7.78809-8.021-.44538-6.584,1.29738-10.74029-1.32321-12.45645-3.35191-2.18129-4.62205-.27241-4.62205-.27241,4.72829-2.088,4.38238,2.135,3.3717,11.27285-.85126,7.73429,3.08568,10.89352,7.30253,11.07944C156.85962,91.27853,156.70707,89.52287,156.70707,89.52287Z"/><path class="s" d="M152.90973,90.1746c-2.53406.29216-12.19085,3.57806-9.65-5.91257,1.80878-6.74342,1.676-16.294-.63879-15.36235-.59861.25266,1.6896-.4195.37933,6.17136-.69872,3.49157-4.52944,14.57169-.32621,16.20749A11.09987,11.09987,0,0,0,152.90973,90.1746Z"/><path class="s" d="M168.01942,85.33939c-2.72-4.71535-.39908-11.725-9.57031-14.43139-7.54837-2.22828-8.88453-.17979-8.0605-.745.86489-.57206,11.612-3.24572,17.65056,2.88,6.03924,6.13118,6.02562,8.26616,4.4695,10.13487A7.42658,7.42658,0,0,1,168.01942,85.33939Z"/><polygon class="k" points="129.187 256.165 122.217 269.001 197.914 263.481 188.064 252.082 129.187 256.165"/><path class="h" d="M193.40494,254.42937c.47876-2.71316-4.86857-6.68348-8.01414-10.63405,0,0-14.29864-1.8224-23.97519,1.28371-2.28821.73822-3.52493,1.98857-7.75472,5.0007-3.16531,2.23509-2.7799,4.49606.77159,3.31246a28.82311,28.82311,0,0,0,5.91871-3.04619l5.20772-1.01062s-4.08337,1.33683-5.15456,1.75565c-1.07741.39227-6.06517,3.99688-7.48168,4.70173-2.01512,1.01131-2.3209,3.87771,1.0045,3.04619,3.34514-.83152,5.06748-2.1813,6.73047-2.7731,2.35427-.83152,6.56367-1.88233,6.56367-1.88233-4.72833,1.9552-11.65834,4.04319-13.12116,5.83222-1.44989,1.76928.0661,3.97713,3.43163,2.04849a26.3118,26.3118,0,0,1,10.87377-3.65773l-8.86545,3.15242s-2.60693,3.01281,1.81558,2.03487c11.1993-2.49387,20.35764-2.67366,23.69593-4.62205C187.79815,257.37544,193.03243,256.42475,193.40494,254.42937Z"/><path class="k" d="M194.72816,257.88144c.43857-3.71154.35208-12.42989-10.17573-16.24086-4.58187.53869-2.72,1.22379-2.72,1.22379s11.57249,11.565,3.88383,18.42214Z"/><path class="g" d="M205.33565,226.883c-4.27609,4.383-19.27341,13.59375-19.27341,13.59375s10.20229,13.32066,8.20691,25.53126c0,0,33.53865-8.0135,33.93772-20.53669C228.47928,237.451,205.33565,226.883,205.33565,226.883Z"/><path class="t" d="M122.3301,238.84093s24.74.24585,26.928.33234c2.16835.06674,2.58036.73141,6.298,3.54468,2.78671,2.088,2.17516,3.65773-1.01744,2.52044-2.68661-.95751-4.68879-1.82853-4.68879-1.82853l-4.78141-.39907s6.11824,2.60011,7.08256,2.98557c.97113.38613,4.18348,3.811,5.43387,4.46269,1.78217.95138,2.08113,3.84433-.94462,3.06593-3.006-.78453-4.32921-2.893-6.2381-3.65092a36.72771,36.72771,0,0,0-6.817-1.19041c5.36708,2.16767,11.82447,4.97413,13.0285,6.65692,1.22379,1.65623-1.96881,1.79584-5.18729.52574a50.72663,50.72663,0,0,0-8.0605-2.02874l7.82078,4.50219s2.53406,2.33452-2.51363,1.11074c-9.66973-2.34065-16.44039-2.79285-18.10274-3.2321C108.291,250.27926,114.84166,246.62153,122.3301,238.84093Z"/><path class="k" d="M120.94015,258.20015c-.37865-7.6478-2.70636-14.59756,6.584-20.52307,4.24345.53868,7.32228,1.25647,7.32228,1.25647s-5.60612,2.58718-6.05831,22.59881Z"/><path class="g" d="M97.31777,162.75177c-1.0242,2.34746-20.67018,64.68964-19.14062,86.91594.62518,8.7456,40.82147,16.38727,40.82147,16.38727s1.72224-19.01394,13.71288-29.08344l-24.71337-5.3269,8.24029-28.78992Z"/><polygon class="e" points="903.643 301.15 911.59 295.975 911.59 4.662 901.647 0.173 903.643 301.15"/><polygon class="c" points="630.033 278.298 903.643 301.15 903.643 0 630.033 25.618 630.033 278.298"/><polygon class="f" points="640.467 262.364 886.451 279.056 886.451 22.286 640.467 41.433 640.467 262.364"/><g class="u"><path class="h" d="M755.31545,203.69918l-10.30172-50.07166s2.06143-23.32341,2.0015-26.42271l9.67042-.47875-.00681-.00681.0933.01294.07287-.00613.00681.00613,9.38377.86489c.04625,3.14561,4.58862,28.59719,4.58862,28.59719l-7.24873,20.391-5.13417-6.804Z"/><path class="t" d="M721.9096,161.93387c4.4627-1.85577,22.18618-3.179,23.27711-21.68762,0,0,10.45426,2.80034,10.00888,6.17818-.42563,3.339.62517,69.33212-2.71317,69.85106C749.17,216.81417,717.16162,162.65847,721.9096,161.93387Z"/><g class="v"><path class="w" d="M754.24489,128.54777h.19273l11.85784.94457c.01975,1.01744,1.03718,9.41095,1.55612,13.53382A88.16734,88.16734,0,0,1,731.34036,176.718c-6.59773,3.24572-7.14935-11.94433-10.10224-15.3494,6.7836-1.05081,19.31973-6.73729,22.02682-12.58993,3.185-6.88984,1.49613-17.99583,1.48932-18.82735Z"/></g><path class="h" d="M756.45274,78.56261c-.82471,0-1.60924.08649-2.39445.13961l-.03949-1.94158c-20.42428.1723-25.00621,18.26892-23.07076,36.79049,2.40739,22.92434,16.32666,34.09095,24.21424,34.34361.05306,0,.1198-.00681.18654-.01362a6.41414,6.41414,0,0,0,1.66236.2329c8.90495.27241,20.331-8.94513,23.7028-31.56369C783.51357,97.59631,778.8384,78.48293,756.45274,78.56261Z"/><path class="s" d="M762.01936,92.89458c4.336,8.57262,9.716,3.20554,12.29029,15.4427.9575,4.34284,3.179,13.63325.43182,20.21049-3.52431,8.55968,7.28885-16.5262,7.28885-16.5262s6.298-21.42814-8.53925-31.54326c-7.8739-5.35415-10.60069-.06674-10.68037,1.55612C762.79708,83.218,762.01936,92.89458,762.01936,92.89458Z"/><path class="k" d="M786.55975,246.02292c-6.02562-12.782-2.61374-36.71081,2.40739-42.78275,0,0-5.40652-14.42458,8.24641-34.66232-2.12817-5.91257-21.02226-10.854-21.02226-10.854-3.41188,7.12274-14.33809.96432-17.451,3.88383-2.49387,2.38764.0933,13.26141-3.47113,14.63843-1.30346-1.9157-1.71616-5.9657-2.86639-14.332-3.31859-3.61824-11.898-1.33683-14.49814-6.644,0,0-16.74617,7.92089-26.89534,10.13556,13.28116,7.54156,9.55062,33.87778,9.55062,33.87778,4.54844,5.98545,9.8556,33.00609,6.50432,40.056-3.31246,7.0165-5.82609,30.00077-5.82609,30.00077l73.86088,6.89664S791.84715,257.29576,786.55975,246.02292Z"/><path class="x" d="M737.75819,99.51881c-5.713,17.79017-.77159,25.724,2.99919,28.71025-1.17747.52506-5.886,1.95519-6.1053-2.42782a10.28032,10.28032,0,0,0,6.91639,8.64617c-2.66,2.8194-6.69029,3.80415-7.54156,2.50682.67829,1.08417,5.10761,3.1926,5.10761,3.1926s-4.6023,4.90126-14.01257-2.4142c-8.79871-6.77679-17.17861-18.52839-15.91458-34.616,3.15236,5.51963,5.79265,5.207,6.75016,3.39145-2.34133-.22609-2.52725-6.44444-2.52725-6.44444s4.61524,3.70472,7.49526-1.57587C724.0514,92.695,726.9641,82.90544,737.81131,77.219,742.45311,74.81158,737.75819,99.51881,737.75819,99.51881Z"/><path class="y" d="M771.7824,100.52944c6.49757,18.28867,2.69954,28.18518-1.15092,31.06451,1.25035.59181,5.49988,2.10162,5.61974-2.34746-.2261,2.34065-3.19186,5.36028-8.59231,6.943,2.82,2.99306,7.76079,1.96881,8.65224.70485-.7246,1.091-4.87471,3.0598-4.87471,3.0598s5.726,4.176,15.44884-2.79353c8.779-5.21385,13.3479-12.26372,11.4322-29.06982-1.94839,2.52725-6.01813,2.707-6.24417,2.22829,2.51357-.13961,5.04763-3.49157,5.04763-3.49157a13.39683,13.39683,0,0,1-8.82528-6.38452c-3.51813-5.99906-6.90345-16.06787-18.4024-21.80747C765.05192,76.222,771.7824,100.52944,771.7824,100.52944Z"/><path class="x" d="M768.3637,93.54631c-9.1508,15.09675-25.53126,1.157-30.99777,10.78047-2.58718,4.56893-7.80171,14.92377-3.858,25.0995,2.42782,6.251-5.47945-16.65968-5.47945-16.65968s-7.54838-22.99788,8.78509-35.04164c7.32228-5.427,23.74911-7.68185,32.242.68442C769.89326,79.26065,768.3637,93.54631,768.3637,93.54631Z"/><path class="z" d="M730.78193,157.3915c-8.84577,2.79352-16.95257,4.75485-19.27347,6.73047,0,0,7.60149,43.09533,8.70542,47.19232,1.07055,4.06975,5.10761,33.02652,3.39145,40.24188-1.676,7.15611-2.91951,14.86452-2.36721,17.784.5455,2.92632,19.998,6.93614,27.13444,5.1873,7.2221-1.7291,9.11737,6.49756,9.05131,1.61605-.06674-4.88152-.30645-60.61309-.30645-60.61309s-15.2098-37.5689-18.30842-42.96254C735.67633,167.19471,730.78193,157.3915,730.78193,157.3915Z"/><path class="z" d="M737.59815,151.93112,725.82,158.682l.39914,14.90334,8.09381-1.98175-2.71317,10.80022s-1.13048-1.21017,8.732,8.99212c3.77084,3.93695,17.23173,29.51453,17.23173,29.51453s-3.57805-16.33347-7.1493-27.43334a279.74668,279.74668,0,0,1-7.61511-27.04108C741.54878,160.44381,737.59815,151.93112,737.59815,151.93112Z"/><polygon class="k" points="740.784 148.4 752.894 161.388 740.738 175.022 736.135 152.676 740.784 148.4"/><path class="z" d="M778.91808,159.41956c9.43751,3.63186,18.40852,6.85033,21.04882,9.13786,0,0-7.80784,43.18251-8.83141,47.28562-1.03106,4.10312-3.25253,28.75724-1.22378,36.53171,2.06824,7.7411,4.76847,20.19074,4.27609,23.15724-.52506,2.94608-22.891,5.85878-30.29973,2.69955-7.342-3.132-8.44657,2.84664-8.54606-2.03488-.07287-4.88151-1.58943-60.61989-1.58943-60.61989s14.24542-36.14557,17.27117-41.31312C774.05018,169.0498,778.91808,159.41956,778.91808,159.41956Z"/><path class="aa" d="M771.60942,153.36125l12.51644,7.75472.07281,15.32284-8.56581-2.77377,3.19192,11.33278s1.17747-1.15024-8.77148,8.22666c-3.79121,3.60461-16.57313,27.67987-16.57313,27.67987s3.07881-15.88809,6.31091-26.62225a262.479,262.479,0,0,0,6.93-26.58888C767.81208,161.71458,771.60942,153.36125,771.60942,153.36125Z"/><polygon class="k" points="757.198 161.029 770.093 150.675 778.28 156.7 770.651 174.643 757.198 161.029"/><path class="k" d="M890.88653,284.90889l-251.5834-20.35078c-1.676-.173-3.59775-18.81441-1.82172-18.66118l250.91805,5.6463c2.22147.18592,1.92864,1.23059,7.44827,2.56675C895.84773,254.11,893.24761,285.1418,890.88653,284.90889Z"/><polygon class="d" points="777.987 257.961 736.621 254.383 728.953 194.01 782.316 197.016 777.987 257.961"/><path class="t" d="M701.69843,244.94555c.459.16685,24.22167-2.24122,24.76036-2.14111,4.08336.51212,6.77.21248,9.69635-1.044,4.00363-1.76246,7.80778-3.13948,12.357-3.06593,4.55531.07968,5.32009-.26627,5.46651-1.07124.12666-.92413-2.77985-.97044-5.46651-1.46963-2.60693-.53868-7.76154.35277-6.98314-.21247.79815-.53869,10.85335-.24653,12.32979-.38614,1.50981-.17911,4.78209-1.27009,2.97263-1.8687-1.78222-.65174-11.66443-1.56293-13.068-1.70254-1.36334-.19273,12.01787.29283,12.92226.11986,1.15705-.23291.63811-1.37634-1.57655-1.76928-1.51594-.27241-10.58774-1.07056-11.55813-1.1373a25.36221,25.36221,0,0,1,4.03019-.54481c2.14792-.02656,2.94607,0,4.15623-.00681,2.248-.01975,3.7776-1.21016.805-1.64942-2.74721-.39226-4.42251-1.07737-5.46038-.97794a34.80585,34.80585,0,0,0-6.67729,1.34365c-1.02431.33233-7.04925,3.1926-9.91559,3.62436-9.98919,1.56974-30.83234-.74435-31.89609-.286Z"/><polygon class="k" points="723.951 229.218 728.487 230.129 730.27 246.342 723.439 247.014 723.938 231.06 723.951 229.218"/><path class="aa" d="M714.68744,162.97106c-6.5575-2.44689-11.25923,1.70934-13.461,18.828C699.291,196.91558,689.76091,221.33,688.7701,243.66865c-.36577,7.96107,29.98708,7.77447,35.30786,8.62574,1.32321-6.125,1.0243-23.86823,1.0243-23.86823s-9.17129-.25946-11.56574-.43244c-2.90583-.19954,10.42164-12.1105,10.2486-18.98739C723.64551,204.94952,714.68744,162.97106,714.68744,162.97106Z"/><path class="t" d="M824.38811,249.78757c-.35958.3589-25.21936,2.79284-25.70424,3.08568-3.56512,2.21466-6.95658,2.33452-10.38208,2.421-4.72148.126-8.95808.48556-13.02783,2.44689-4.0173,1.94225-4.90194,1.94225-5.46719,1.29733-.61155-.76478,1.92864-1.98856,4.05-3.54468,2.0485-1.52956,7.2031-2.93313,6.19179-3.09249-1.06374-.14642-9.88221,4.25634-11.29259,4.748-1.43626.47875-4.89446.86489-3.65087-.412,1.21011-1.264,9.48376-6.17817,10.65375-6.88983,1.13729-.745-10.5142,5.267-11.39884,5.47332-1.15023.27241-1.28984-.93095.41883-2.1881,1.15091-.86489,8.79259-5.34733,9.60368-5.82609a24.70842,24.70842,0,0,0-3.89059,1.2306c-1.91507.87783-2.63354,1.23672-3.71772,1.7359-1.95513.91733-3.96351.51213-1.5963-1.091,2.195-1.51594,3.26547-2.79966,4.30947-3.17217a36.6432,36.6432,0,0,1,6.73047-1.65623c1.09786-.173,13.54063.35958,16.46014-.50531,10.33509-2.98626,25.61775-8.93833,26.988-8.99145Z"/><polygon class="k" points="794.354 241.66 790.051 243.509 794.447 259.843 801.77 259.132 795.099 243.449 794.354 241.66"/><path class="aa" d="M797.24692,166.98836c3.8239-1.02424,10.26835,1.8224,14.01257,18.04964,3.72448,16.10737,24.34766,68.96574,20.01845,73.58166-4.28291,4.60843-27.101,4.98776-32.827,4.90808-1.60992-6.60449-6.20541-21.6345-6.20541-21.6345l12.304-4.39595c0-3.14561-13.40789-18.88115-13.40789-26.01683C791.11506,207.297,797.24692,166.98836,797.24692,166.98836Z"/></g><g class="ab"><path class="ac" d="M508.31465,145.14139c6.1645-.67216,8.34579,7.96039,13.64,43.45423,1.789,12.00426,9.70992,32.19568,6.79046,37.9346-5.70628,11.2061-29.1298,10.99363-29.1298,10.99363l-2.30115-59.8415L504.996,151.7452S507.21067,145.26057,508.31465,145.14139Z"/><path class="h" d="M449.91617,110.618l-1.34364,18.73473-7.84121,7.515S452.72264,170.593,460.73,173.61192c8.00669,2.99306,15.85471-18.50795,15.67493-24.23461-.17293-5.70623-1.915-37.1167-1.915-37.1167Z"/><path class="ad" d="M447.18939,105.81684c-1.849-4.87539,21.02226,7.48164,27.274,11.97089l-23.92883,32.43472c-3.89746-1.35046-2.23442-14.033-3.59168-15.71579C448.93143,131.22144,450.45486,114.35609,447.18939,105.81684Z"/><path class="h" d="M481.373,91.27853c.13961-11.66511-1.82852-21.50783-17.96995-21.9069h-.27922v-.10624c-17.17793-.346-18.54132,9.07793-18.96695,20.72942a3.95155,3.95155,0,0,0-.918-.10623c-3.15923.10623-3.03251,3.94376-2.88,8.67886.11991,4.10311,2.15542,7.46869,4.76847,8.21985a36.79406,36.79406,0,0,0,3.352,8.69248c.17979.32621.35277.64492.53261.97794.28529.47194.57132.93776.85734,1.38314.42564.66467.87783,1.29665,1.34365,1.88846.16616.22.32557.41882.49237.61223a23.51965,23.51965,0,0,0,1.84828,1.94157c.12666.11986.23971.22.333.31259a13.06458,13.06458,0,0,0,7.84734,3.53174c7.80784.36571,14.64456-8.15379,17.7173-18.51544,2.16154-1.11074,3.86408-4.01663,4.1631-7.5545C483.99963,95.4552,484.30608,91.7171,481.373,91.27853Z"/><path class="r" d="M457.75057,68.44749l.37184-1.05762s6.31846-7.08937,5.50669-7.08937c-.45833,0-7.85415,1.18361-8.79191,3.54469l4.842-2.77378-8.88521,3.971a5.01391,5.01391,0,0,0-3.73128,1.03038c-1.58268,1.35045-2.77991,2.39445-2.77991,2.39445s.29965,1.71548.56525-.69872c-2.17448.75184-3.53107,6.345-3.47114,10.45494-.19341,1.2306-.33914,2.60012-.43925,4.08337-.39908,6.13867.83833,7.7411.83833,7.7411l2.387.67829,1.82915,1.3239.71847-5.02794s-1.41033-4.64861,3.591-8.89883c5.02112-4.25634,12.26372-1.78834,12.26372-1.78834Z"/><path class="q" d="M482.84939,75.21746c-1.68892-3.57805-2.92627-6.80334-5.4202-8.00738-1.25715-2.86639-7.36858-6.49756-7.801-6.02562-.27921.26628,3.006,3.15242,2.82622,4.90808-1.40971-2.7731-4.635-7.46189-5.25336-7.19561,0,0,.06606,4.31628.20567,6.5575-.03337-.01975-.04631-.01975-.05312-.03337-.35889-3.57806-.93095-9.07794-.93095-7.84734,0,1.07055-1.65623,4.48244-2.48707,7.18267-.25265-.06674.25266.02656,0,0,.299-2.66686,2.91952-4.47632,1.33-7.34271.80428,3.53855-5.32078,4.34283-7.77447,8.33358a3.20921,3.20921,0,0,0-.81177.931,4.37119,4.37119,0,0,0-.412,1.44307,1.66028,1.66028,0,0,0-.0933.21248s-3.24572,4.88833-.15254,7.7016c1.4492,1.33684,8.87163.99769,13.70611,1.19723a15.86734,15.86734,0,0,1,7.24941,6.36477c1.2572,2.38695,1.44307,8.11974,1.44307,8.11974l3.43845-.38545,1.962,1.16385S486.2211,82.42669,482.84939,75.21746Z"/><path class="j" d="M475.6804,130.663c-1.39,1.81558-10.70766,11.21291-14.89727,10.76072-4.20322-.44606-11.10667-9.47088-12.49663-12.58312-1.16385,1.28371-5.48694,4.76847-5.48694,4.76847l19.83258,51.196,20.82268-46.54059Z"/><path class="k" d="M448.36618,128.91416c1.38383,3.09249,8.33359,10.89352,12.51638,11.35184.10624,0,.69872,49.0944.69872,49.0944L442.85336,133.669S447.216,130.19106,448.36618,128.91416Z"/><g class="ae"><polygon class="af" points="458.235 147.01 461.322 147.01 461.322 138.724 455.236 138.724 455.197 142.295 458.235 147.01"/><polygon class="af" points="457.85 145.76 452.516 198 460.969 204.843 461.162 204.651 461.468 145.786 457.85 145.76"/><polygon class="ag" points="463.629 147.01 461.109 147.01 461.109 138.724 467.307 138.724 467.267 142.295 463.629 147.01"/><polygon class="ag" points="464.095 145.76 469.429 198 460.969 204.843 461.109 145.76 464.095 145.76"/><polygon class="ag" points="457.737 146.93 464.148 146.93 464.148 146.325 457.823 146.325 457.737 146.93"/></g><path class="ac" d="M417.77366,254.42256c0-27.2733,3.12586-26.95459,3.31854-33.50527.2261-8.67205.14642-30.12-1.05694-33.83761-1.21084-3.72447-9.11811-25.28542-7.45575-33.59857.71166-3.638,1.56293-9.59006,4.96188-10.26222,9.65611-1.94158,10.408-2.96583,27.5062-10.4209,0,0,3.31246,19.65887,6.2116,25.68449,2.96645,6.11824,11.63855,34.74881,11.63855,34.74881l2.93308,5.1478-2.48094,49.26669S417.77366,256.16528,417.77366,254.42256Z"/><path class="ah" d="M459.8985,258.80558,458.72783,240.743l2.63349-53.1982a188.13914,188.13914,0,0,0,18.28259-46.86611l.65168-6.36477c15.01025,7.48232,16.89871,6.68417,26.802,10.16892,3.19879,1.11755.77091,8.845.77091,8.845s-8.29272,29.90747-9.51032,33.60538c-1.19047,3.751-2.63967,26.56232-2.40744,35.248.13966,5.10762,7.92769,17.20449,7.92769,34.84211Z"/><polygon class="j" points="459.373 138.704 451.566 147.529 446.67 136.742 445.327 131.98 448.02 128.914 459.373 138.704"/><polygon class="k" points="463.722 138.916 470.719 147.309 479.677 131.674 475.893 127.484 463.722 138.916"/><path class="ah" d="M446.31769,130.663c0-.44539-9.54307,6.07874-9.54307,6.07874l.05312,14.51788,8.24641-1.08417-8.52563,8.26684,25.25886,30.233s-12.51633-39.0249-14.83115-45.76219C444.11665,134.65989,446.31769,130.663,446.31769,130.663Z"/><path class="ac" d="M478.63936,130.60308c-1.21017.05993,7.66823,6.98313,7.66823,6.98313l1.33,14.571-8.25322-1.07736,3.99688,5.67966-24.21418,33.745s15.11649-41.433,17.94952-47.9571A20.0837,20.0837,0,0,0,478.63936,130.60308Z"/><path class="ai" d="M594.99082,248.31794c0,.41882-.76478.74435-1.73591.74435H255.92624c-.93776,0-1.70935-.32553-1.70935-.74435l-3.91039-6.84352a9.144,9.144,0,0,1,3.39214-.76478l329.973.0395a19.5294,19.5294,0,0,1,4.69492.77159Z"/><polygon class="d" points="410.964 239.373 416.836 235.249 489.56 235.249 500.753 238.003 410.964 239.373"/><path class="aj" d="M595.51589,263.83351a1.9231,1.9231,0,0,1-1.6753,2.135H254.95511a1.94142,1.94142,0,0,1-1.68211-2.135V250.07973a1.92407,1.92407,0,0,1,1.68211-2.10094H593.84059a1.90566,1.90566,0,0,1,1.6753,2.10094Z"/><rect class="aj" x="404.3794" y="237.51704" width="92.46281" height="7.34203"/><rect class="af" x="369.05852" y="178.43349" width="16.35394" height="66.50592"/><path class="ag" d="M377.38532,238.85387v6.08555h8.02713V178.43351h-8.02713v60.42036Z"/><path class="ak" d="M373.15553,235.82812c-.1328,0-.23972-.15323-.23972-.333v-3.28522c0-.19272.10692-.33914.23972-.33914h8.79191c.11986,0,.23972.14642.23972.33914v3.28522c0,.17979-.11986.333-.23972.333Z"/><g class="al"><path class="k" d="M373.15553,235.82812h8.79191c.11986,0,.23972-.15323.23972-.333v-1.66236h-9.27135v1.66236C372.91581,235.67489,373.02273,235.82812,373.15553,235.82812Z"/></g><g class="al"><path class="ai" d="M373.15553,189.94607c-.1328,0-.23972-.2329-.23972-.5523v-5.46651c0-.29965.10692-.54549.23972-.54549h8.79191c.11986,0,.23972.24584.23972.54549v5.46651c0,.3194-.11986.5523-.23972.5523Z"/><path class="k" d="M373.15553,189.94607h8.79191c.11986,0,.23972-.2329.23972-.5523v-2.75335h-9.27135v2.75335C372.91581,189.71317,373.02273,189.94607,373.15553,189.94607Z"/></g><rect class="m" x="353.63628" y="178.43349" width="16.35321" height="66.50592"/><path class="am" d="M362.00935,238.85387v6.08555h8.02032V178.43351h-8.02032v60.42036Z"/><path class="ak" d="M357.593,235.82812c-.1328,0-.25261-.15323-.25261-.333v-3.28522a.307.307,0,0,1,.25261-.33914h8.779c.1328,0,.2261.14642.2261.33914v3.28522c0,.17979-.0933.333-.2261.333Z"/><path class="an" d="M357.593,235.82812h8.779c.1328,0,.2261-.15323.2261-.333v-1.66236h-9.25768v1.66236C357.34036,235.67489,357.46017,235.82812,357.593,235.82812Z"/><path class="ak" d="M357.593,189.94607c-.1328,0-.25261-.2329-.25261-.5523v-5.46651c0-.29965.11981-.54549.25261-.54549h8.779c.1328,0,.2261.24584.2261.54549v5.46651c0,.3194-.0933.5523-.2261.5523Z"/><path class="an" d="M357.593,189.94607h8.779c.1328,0,.2261-.2329.2261-.5523v-2.75335h-9.25768v2.75335C357.34036,189.71317,357.46017,189.94607,357.593,189.94607Z"/><path class="ai" d="M296.335,229.54984c-.126-.05993-.13966-.27241-.08654-.43926l1.37021-2.89295a.25362.25362,0,0,1,.35208-.15255l7.85483,5.30716a.309.309,0,0,1,.07287.43244l-1.34977,2.89908a.23609.23609,0,0,1-.346.13348Z"/><path class="k" d="M296.335,229.54984l7.86772,5.2874a.23609.23609,0,0,0,.346-.13348l.69123-1.46282-8.29954-5.59318-.69191,1.46282C296.19535,229.27743,296.209,229.48991,296.335,229.54984Z"/><path class="ac" d="M417.88666,144.30306c-15.27585-.71779-30.9249,83.564-28.41741,86.62992,6.13187,7.43533,24.52064,10.26835,26.23612,8.30022,3.61142-4.1433,7.58855-13.52088,12.59606-27.10782l-9.61662-5.06744,8.44663-26.03725Z"/><path class="t" d="M426.99184,213.928s10.86015-.17979,12.88208.31258c2.00151.4917,5.154,2.63349,8.16674,5.92552,2.23441,2.44689-.24653,3.7306-3.01957,2.088-2.33458-1.39676-5.01437-3.1388-5.01437-3.1388l-3.39214.40521-.758.09329s7.562,4.90808,8.40646,5.44677c.83764.53868,4.36258,4.44294,5.4202,5.314,1.48938,1.204,1.35658,3.877-1.31709,2.56674-2.67979-1.32321-7.46869-4.93463-9.12424-6.00519-1.663-1.07055-2.1881-1.00382-2.1881-1.00382,4.61524,3.05913,10.14849,6.88984,11.01338,8.63187.85808,1.74272-.5455,2.8269-3.31854,1.044-2.77315-1.78835-10.14922-6.8694-10.14922-6.8694l8.02781,7.44826s1.17,3.924-2.993,1.25035c-8.42626-5.4202-14.36539-6.27828-15.662-7.2821C421.07245,227.927,419.00421,219.50078,426.99184,213.928Z"/><path class="k" d="M414.848,230.04221c.33915-3.166,2.24735-15.2166,10.89965-18.46232,3.87089,1.31708,5.44676,1.92863,5.44676,1.92863s-6.34434,3.07274-9.62275,21.10875Z"/><path class="t" d="M490.02525,212.44478s-10.87377-.173-12.88889.33233c-1.9947.48557-5.15388,2.62055-8.17355,5.91258-2.24735,2.45369.24653,3.751,3.01967,2.0948,2.32766-1.43013,4.99452-3.1388,4.99452-3.1388l3.41869.41882.74435.08649s-7.56812,4.88765-8.39283,5.43995c-.83765.55231-4.36939,4.45589-5.4202,5.314-1.503,1.217-1.37633,3.88383,1.31708,2.57355,2.64643-1.33,7.46189-4.92169,9.11744-6.00519,1.663-1.06443,2.20172-1.0045,2.20172-1.0045-4.62886,3.05231-10.16892,6.8769-11.04675,8.62574-.85127,1.73591.56524,2.82622,3.31859,1.044,2.79352-1.78222,10.17573-6.86327,10.17573-6.86327l-8.03394,7.44894s-1.17066,3.92333,2.98563,1.25035c8.42-5.427,14.37209-6.27828,15.66193-7.28278C495.94464,226.45054,498.01288,218.038,490.02525,212.44478Z"/><path class="k" d="M502.13575,228.5719c-.32553-3.15855-2.22079-15.18937-10.89352-18.46164-3.85728,1.31708-5.44,1.92863-5.44,1.92863s6.33145,3.07274,9.63023,21.10194Z"/><path class="ai" d="M552.268,225.93228a3.68,3.68,0,0,1-3.70473,3.66387H461.6739a3.69793,3.69793,0,0,1-3.7306-3.66387V159.18733a3.70381,3.70381,0,0,1,3.7306-3.67135h86.88938a3.68587,3.68587,0,0,1,3.70473,3.67135Z"/><polygon class="aj" points="500.247 200.314 493.071 245.445 519.753 245.445 510.503 200.314 500.247 200.314"/></g><path class="h" d="M664.96106,259.87613c-.33233-2.38083-.53868-6.84965-1.27009-9.1508-.73136-2.31477,1.96881-8.75241,1.23059-12.92227-.286-1.53637.79134-3.42482,2.00156-2.04168,1.21011,1.4097,1.74266,5.86558,1.73585,8.30634,0,1.264,3.418-5.15392,4.09018-7.30184.572-1.82921,6.07812-10.42158,7.30866-9.77666.9112.47875-4.94145,10.54825-3.877,10.82746.85127.17911,5.6926-12.816,7.13568-12.11117,2.7404,1.35045-3.57125,11.62561-2.60012,13.50725,0,0,1.21016-2.55993,2.44757-5.29353,1.16385-2.52725,1.8687-4.25634,2.60693-4.32308,3.56449-.299-4.955,12.66961-2.68723,12.91545,1.82234.19273,3.59842-8.606,5.28734-7.21535.805.711-3.05231,10.72667-3.05231,10.72667s-5.886,13.68023-8.56581,18.70817c-1.60986,3.03256-2.12817,14.24548-2.12817,14.24548l-11.373-7.18267S665.47318,263.99968,664.96106,259.87613Z"/><path class="s" d="M662.10153,266.83951c15.17637,4.06975,16.20743,11.27285,16.20743,11.27285s6.597,29.96059,1.44307,36.65088c-5.1811,6.67736-19.825-27.96521-20.55713-32.43471C658.47711,277.86583,662.10153,266.83951,662.10153,266.83951Z"/><path class="t" d="M627.399,485.29629c-5.46038,5.4202-8.12724,28.45759-2.82008,59.42268,3.24571,19.06025,9.84271,64.87624,8.22666,78.23027-1.84215,15.3426-4.70854,25.41822-9.25091,50.07846-.67829,3.6448,22.86509-19.3599,23.54338-23.67549.96432-6.03244,5.80565-9.94964,4.39595-14.23254-1.69573-5.26017-4.0105-8.65911-3.03937-18.3486,2.34065-23.19742,11.63174-41.8518,12.496-73.07635C661.86176,510.99373,649.658,463.24978,627.399,485.29629Z"/><path class="p" d="M651.494,635.11967c-1.54318-4.9612-13.81984-2.74654-16.294,7.31546,0,0-2.95288,6.15842-8.54606,18.57538a35.3601,35.3601,0,0,1-2.4537,4.55531c-5.20091.459-10.9337,1.33-11.04675,4.19642a9.18737,9.18737,0,0,0,3.7306,8.04755c3.31859,2.4142,12.29715,2.261,20.1315-.02043,2.18129-.64492,2.38088-6.25785,5.48694-15.32284,1.40289-4.12287,5.89214-8.29954,8.99144-12.00426C654.613,646.72485,653.79513,642.4685,651.494,635.11967Z"/><path class="p" d="M652.74438,647.54956c-1.85582,4.04387-3.88388,15.52238-3.25258,30.44615a9.75836,9.75836,0,0,1-3.26547,0s1.2374-24.85978-.62517-27.96521C643.74607,646.9312,652.74438,647.54956,652.74438,647.54956Z"/><path class="t" d="M580.193,488.58832c-5.47939,5.427-8.13336,28.45759-2.82621,59.42268,3.23891,19.06706,9.8359,64.87624,8.22666,78.22346-1.84214,15.363-4.70854,25.43184-9.25772,50.08527-.67148,3.6448,22.87122-19.366,23.55019-23.6755.9507-6.03924,5.80566-9.94282,4.396-14.23254-1.68959-5.26084-4.01049-8.6523-3.03937-18.34859,2.34746-23.20424,11.63175-41.84567,12.48982-73.08316C614.64969,514.28575,602.4459,466.54862,580.193,488.58832Z"/><path class="p" d="M604.28191,638.41169c-1.54318-4.96119-13.81984-2.73359-16.30078,7.30934,0,0-2.93926,6.17136-8.54606,18.58151a34.69627,34.69627,0,0,1-2.45364,4.5485c-5.19416.47262-10.92014,1.33-11.04681,4.20322A9.202,9.202,0,0,0,569.672,681.108c3.31864,2.40126,12.29709,2.26778,20.12468-.02656,2.1881-.64492,2.39445-6.251,5.49307-15.329,1.39676-4.1038,5.89282-8.28047,8.99212-12.00426C607.39415,650.02369,606.57626,645.76053,604.28191,638.41169Z"/><path class="p" d="M605.53226,650.8484c-1.86258,4.04318-3.88446,15.52919-3.26547,30.43934a9.77234,9.77234,0,0,1-3.26547,0s1.24359-24.85978-.61223-27.95909C596.52719,650.23,605.53226,650.8484,605.53226,650.8484Z"/><path class="p" d="M575.445,324.307c-6.59086,12.34953-15.36983,40.62121-15.36983,65.32776,0,24.70043,9.33127,78.50336,7.68185,93.327a205.80959,205.80959,0,0,1-4.93464,27.16775s2.55381.173,6.57725.41882c1.89532.11986,5.82609-3.85046,8.23347-3.43163,4.94758.85126,3.87708,5.34733,6.2776,5.48694,7.44895.41882,13.29478-.13961,19.79916-.27309,3.31859-.07968,8.1736-3.4977,10.43457-3.57125,9.40409-.2724,8.88516,2.81328,10.14844,2.74654,6.96338-.34528,15.29015-2.61306,23.88253-4.223,2.61986-.48556,2.91951-3.58418,5.22066-4.14329,1.94157-.4917,6.4642,2.78671,8.02713,2.26165,4.98094-1.68279,7.31546-4.8284,5.97863-6.79041-.7511-1.10392-9.06431-13.17492-9.06431-28.00539,0-14.81753,4.396-51.32881,4.396-76.036,0-24.70656-16.74617-55.72476-23.337-65.60085C632.80556,319.08633,575.445,324.307,575.445,324.307Z"/><path class="s" d="M647.90236,439.04173c-1.09036,13.17492,5.49983,58.19208,13.18849,66.42556-6.87008-2.73973-6.977-2.81941-11.91777,1.57655C644.23776,511.43979,647.90236,439.04173,647.90236,439.04173Z"/><path class="s" d="M573.24328,437.93781c3.29884,15.38277-.55162,68.08178-3.84365,72.46411,6.17817.14642,6.58406-5.21385,13.99963,2.20173C585.38714,514.5854,573.24328,437.93781,573.24328,437.93781Z"/><path class="s" d="M624.29287,511.50585c-5.48626-4.38914-20.03139.82471-20.03139.82471s9.065-27.72618,5.49376-57.38031C609.75524,454.95025,613.05339,503.26624,624.29287,511.50585Z"/><path class="p" d="M658.1979,226.14476c-7.07643-5.15392-8.41327-6.36477-26.50308-16.40021l-42.94891-4.51581c-19.89177,18.04963-24.89315,14.319-33.06664,17.51094-11.25247,4.396-7.96044,20.31061-7.96044,20.31061s6.55074,14.10587,12.73566,21.59431c-2.05462,9.46407-2.088,20.80979,7.56813,30.5592.26627,5.97251,1.07736,24.81348.55911,30.0607-1.03787,10.56119-9.05818,24.15493-12.769,46.527-.173,1.06442,22.91753-.11986,48.72188-.27922,46.66658-.26628,57.87268-7.56812,57.78619-7.9672-5.49307-24.99258-13.85934-38.14775-13.58693-42.81.50531-8.7851.758-40.96035,2.46051-43.10214,2.19491-2.73973-13.4269-1.05013,10.43519,37.60907,15.92759,25.80435,20.3106-7.96039,20.3106-7.96039S665.2934,231.25919,658.1979,226.14476Z"/><path class="t" d="M519.71343,421.67039c.13961-1.7291,1.99538-12.07031,2.21472-13.15449a30.17726,30.17726,0,0,0-1.82245,4.4157c-.69191,2.40126-.87783,3.30565-1.2701,4.65542-.66535,2.48775-2.44756,3.9642-2.04849.58568.37252-3.15242.11305-5.1478.55843-6.31165a44.0511,44.0511,0,0,1,3.48544-7.2821c.65173-1.07124,7.82759-11.77135,9.191-14.99732,2.01513-4.60843,10.11512-54.22857,9.65-56.38943-.66535-2.95969,20.05113-11.23335,20.583-3.053,1.264,19.43277-17.74386,61.39149-17.74386,61.47117-1.08349,12.942-5.79884,15.41546-8.14017,18.4882-3.2321,4.24341-2.48026,3.45207-3.36485,5.84584-1.82926,4.94144-1.9355,5.899-2.83983,5.89282-1.08423-.047-.23977-3.29884.01362-6.37839.21923-3.08568,2.67293-6.597,1.82166-5.81246-.8574.79815-3.5045,10.00888-4.12968,11.63855-.65173,1.64942-2.84664,5.094-2.97263,2.97263-.15323-2.10161,1.802-13.37378,2.05463-14.96327.21315-1.58336-3.29884,13.51339-3.751,14.49814C520.6042,425.02235,519.48734,424.21126,519.71343,421.67039Z"/><path class="ao" d="M568.99374,237.96923c2.44076,1.68279,10.78048,11.03994,13.38133,12.15068,1.15018-3.305,4.23591-14.10587,3.91033-12.76223-.30577,1.19722-2.44756,9.4702-2.67366,13.79328.83765.27241,7.48844,4.32241,8.33971,4.56213l.07968-.04631,4.7351-14.97076-1.36952,15.78866c.11918.02656.24584.05311.35889.07967,1.03719-4.163,3.39214-13.2546,5.75254-20.61024,0,2.95288-2.46051,16.4867-3.292,20.98276a56.14818,56.14818,0,0,0,5.65311.50531c1.76933-10.41476,2.45438-47.857,3.14561-27.39384.55911,16.63312-.67829,24.16855-.99769,27.4204a80.48728,80.48728,0,0,0,18.8614-2.374c-.8049-7.52862-3.13267-29.24892-2.48094-24.67386.75184,5.27378,5.08112,22.353,5.48013,23.90908,1.19042-.31939,2.34133-.66535,3.48476-1.00449-.38546-2.66-1.629-11.36547-1.86871-13.03532.3194,2.16154,3.51132,9.1583,4.88833,12.05806.13961-.0538.31259-.0933.46519-.16-.23909-2.15473-.72466-6.311-1.21022-10.18186a32.878,32.878,0,0,1-1.37633-7.62805c0-2.76016.67829,2.088,1.37633,7.62805,1.11074,4.0105,2.57356,8.02713,3.11905,9.50357,1.1836-.41883,2.34133-.85808,3.4582-1.30346l.32626-3.60462,1.10387,3.03937c1.19041-.49237,2.33452-.97113,3.41188-1.46282-.83827-3.166-3.95732-15.06406-2.93994-13.01556.92482,1.86257,4.48244,8.732,5.98545,11.64536,2.35432-1.10393,4.30333-2.11523,5.8397-2.93313-.75184-3.49157-2.38764-11.153-3.811-17.51708-1.42332-4.682-2.50063-8.67954-2.50063-9.73648,0-1.13116,1.15018,3.69724,2.50063,9.73648a75.22379,75.22379,0,0,0,4.90808,12.57563c1.6556-4.10993,3.02575-11.79791,3.02575-11.79791s-7.40877-9.61662-12.62262-54.34843c-3.7306-31.99546-14.83041-39.8033-14.83041-39.8033-9.45732-7.6948-20.278-2.80647-24.4274-3.84365-15.36983-3.84434-27.07444,13.7-28.33841,27.5532-2.36721,26.02976-3.5045,58.90987-20.517,62.20189,1.50981,1.6896,2.00219,3.07274,3.638,4.4627,8.433,3.292,14.904,2.5075,17.49119-4.11674C578.45781,227.169,570.04455,234.4981,568.99374,237.96923Z"/><path class="s" d="M555.81269,371.79147c.97045,1.70254,18.88734.53868,39.5309.40588,22.23924,2.47413,54.98654,1.217,67.52267-9.18417-1.091-3.85727-.8179-1.11074-.8179-1.11074s-19.89859,9.07113-51.47523,8.24642C585.3279,369.47738,555.81269,371.79147,555.81269,371.79147Z"/><path class="p" d="M548.54354,232.07709c-4.38915,29.64119-6.58406,76.30164-6.03857,79.04817.55162,2.75334-3.57124,14.82434-4.94144,20.84928-.36571,1.61605-12.62262,58.21251-12.62262,58.21251s20.02457,8.36628,23.875,8.36628c6.5773-14.82434,16.20749-67.66228,17.29166-71.51342,1.09031-3.85046,4.396-34.03034,4.52875-50.36449C570.82908,254.27682,548.77644,230.44742,548.54354,232.07709Z"/><path class="p" d="M225.81923,652.36434c-1.35658,7.42919-7.44213,14.85771-1.35658,19.59281,6.07874,4.72829,12.17042,4.72829,19.61937,2.69341,7.41494-2.03487,10.12193-6.09168,14.16512-9.4702,4.05681-3.36557,14.86452-5.38683,18.26278-10.12874,3.352-4.72216,7.77448-14.23254,1.676-15.376-8.43306-1.56293-15.85545,5.16686-37.92851.13961Z"/><path class="p" d="M304.64812,325.11808c4.64861,21.70056-5.35347,46.5869-6.90959,58.997-1.54318,12.40333-15.49582,102.804-16.08762,108.37065-1.55,14.731-3.10611,24.11476-7.75472,38.06059-4.65542,13.97307-7.75472,110.87134-6.20469,121.72536,1.54927,10.85334-48.84178,17.82966-48.84178,17.82966s-.51893-98.50069,15.40252-154.49854c4.41571-55.82487,2.76633-93.22692,6.05219-108.69618,1.0903-5.17435-5.06812-48.09058,13.16811-73.83432C267.83719,312.77468,304.64812,325.11808,304.64812,325.11808Z"/><path class="s" d="M296.12248,380.3709c-2.41419,21.7203-9.6636,122.30354-12.86914,127.93622-3.22529,5.63949-4.23655,7.47551-9.35715,22.23924-5.13418,14.78416-2.02194,109.209-1.21017,112.42133.80428,3.22529-16.47376,13.73335-16.47376,13.73335s-2.73355-79.055,10.13555-126.66681c2.46056-9.08406,11.5453-31.65631,13.14156-42.91554C281.11223,475.85946,296.12248,380.3709,296.12248,380.3709Z"/><path class="p" d="M298.89563,651.02137c-3.41189,10.68037-6.37163,16.35323-3.08573,23.13069,3.29816,6.7366,19.33947,4.25635,28.6435-.19341,5.5135-2.63348,7.69479-6.65011,14.11268-6.83671,13.7068-.37865,25.51833-22.67781,14.272-23.60263-11.23948-.94457-18.56175,3.66454-23.66937-.55162C324.09451,638.77059,298.89563,651.02137,298.89563,651.02137Z"/><path class="t" d="M277.99249,125.32929c1.73591,5.65924,1.60316,26.5024-.57818,35.28137-2.12817,8.77147-12.70229,20.64293-12.70229,20.64293l49.14751,9.25773s-4.28359-33.23968,4.8679-39.56427C324.38053,147.05641,277.99249,125.32929,277.99249,125.32929Z"/><path class="t" d="M325.65063,108.43671c2.7602,9.08474-.38546,9.80322,1.08417,13.4807,3.64417,9.11811,4.336,30.81867-1.82239,34.616-2.80647,1.76246-8.31316,5.71985-14.2053,4.38982-10.20229-2.32158-23.14431-13.15517-29.03645-22.52594-9.25772-14.79029-7.15611-34.12364,8.57262-40.9406C307.3947,90.05474,320.54982,91.76409,325.65063,108.43671Z"/><path class="x" d="M327.67869,108.46327C330.79161,92.881,289.98381,72.73652,270.88338,91.651c-2.00832,1.9947-1.42333.73822-2.95289,2.50682-1.46282,1.71616-4.22293,2.248-5.68647,3.41189-9.16443,7.342-6.40427,33.17975-.758,42.29105,7.12273,11.49213,10.3487,14.9837,9.411,18.14225-1.53637,5.11442,34.88841,0,34.88841,0l4.59549-18.335,5.57956-4.4695,3.27228-9.45045,3.15923-3.77759s-2.12136-8.64549-1.90889-13.28116C320.78273,102.24492,327.67869,108.46327,327.67869,108.46327Z"/><path class="p" d="M271.7612,163.4968c-7.78123,4.38233-14.77054,10.77366-30.84522,22.3659,0,0-6.02563.29216-7.04306,2.75948-13.73336,32.91347,2.3747,42.59683,4.5826,55.45916,4.37615,25.35148,6.66368,47.10583,3.418,65.33457-5.49307,30.7458-12.05738,71.9125-10.92009,76.162.4522,1.73591,48.89486,13.68705,78.3767,9.2979,26.48945-3.94376,46.24162-9.02481,47.89035-10.3882-2.66-23.809-10.16142-65.9468-10.98613-82.08142-1.25035-24.16787,3.47794-39.0249,4.55531-49.85236,1.08417-10.8336-2.85959-25.77712-1.6358-28.02515,3.292-6.07193-.49919-37.795-.49919-37.795s-13.68636-6.97632-33.21243-17.95633c-4.77528-2.69341-16.74617,1.20336-16.74617,1.20336Z"/><path class="p" d="M270.41143,159.49311l-7.42919,9.58325s16.70666-.75116,26.2831.15323c15.31,1.43626,31.27086,3.42482,31.27086,3.42482l-3.45138-9.69629s-6.21835-2.65392-28.56451-4.05C282.33533,158.51517,270.41143,159.49311,270.41143,159.49311Z"/><path class="s" d="M346.24725,184.32633a25.43018,25.43018,0,0,0-9.25772,7.47483s-2.69954-10.35484-31.31717-13.53382C258.3003,172.967,240.916,185.8627,240.916,185.8627s19.79235-17.37814,24.56082-17.37814c4.795,0,30.41959-3.591,53.54346,2.6866,4.635,1.25716,18.56789,8.9717,20.65656,10.17573Z"/><path class="y" d="M276.54329,90.65336c3.79735-2.52044,15.18324-.61224,17.404,4.59549,2.44757,5.81246-.63811-4.59549-.63811-4.59549s4.56212,2.06824,4.56212,8.40645c5.70623-3.811,1.74272-6.817,1.74272-6.817l3.81033,6.95657,4.42246-3.15923s10.11581,4.75553,5.69329,10.43451c12.32978-6.012,3.15855-12.01719,3.15855-12.01719s9.49063,4.42251,11.599,14.64455c4.43546-8.22053-1.48325-18.495-14.7576-24.14131-10.44132-4.41639-13.92608-2.20853-13.92608-2.20853s-16.44039-1.88846-26.88172,7.59536a29.41184,29.41184,0,0,0-5.6,6.58406Z"/><path class="t" d="M316.69868,120.70043c-5.04764-.64492-8.85184,3.17217-5.04764,11.3859,3.77755,8.21985,6.94359,9.48995,10.096,6.9627C324.926,136.49522,316.69868,120.70043,316.69868,120.70043Z"/><path class="p" d="M341.99772,335.29994c4.64861,21.70056,5.26016,45.4496,4.82159,57.93942-.811,23.33023-5.03475,102.81766-5.63336,108.35772-1.54931,14.731-1.77541,18.24235-6.43083,32.195-4.64175,13.94651-1.03718,114.78854.51894,125.64869,1.54249,10.84721-49.407,12.07712-49.407,12.07712s-8.46638-77.093,5.48695-151.5191c.85739-73.03617-3.7381-111.882-2.20173-136.69544C290.71522,358.5035,341.99772,335.29994,341.99772,335.29994Z"/><path class="s" d="M274.02218,342.60928c0,4.39595-9.86928,48.08309-9.86928,48.08309l6.03856-.5455Z"/><path class="s" d="M343.64033,205.841c-7.688,7.13568-7.94745,77.47162-6.85033,96.6783,1.09779,19.21348,10.00275,72.631,11.09986,77.57241,1.11074,4.94758-30.5987,11.11281-30.5987,11.11281s35.54015-3.42483,39.92929-6.71685c4.40277-3.29884-5.74572-49.02153-7.25548-57.67383s-5.0743-25.66406-3.43169-33.89754c1.65623-8.22666-.286-28.74361,1.90889-41.373Z"/><path class="p" d="M342.36342,184.63892c11.17274-6.37158,18.51477,15.6688,23.935,36.49153a182.10527,182.10527,0,0,0,9.57712,28.12525c14.3449,30.5987,10.122,43.30781,4.23659,46.77281-22.25285,13.15518-36.87085-29.60169-41.00052-46.68019C331.41678,217.49927,342.36342,184.63892,342.36342,184.63892Z"/><path class="s" d="M358.21814,197.78047c-.79815,11.19249-9.43,23.64894-8.67205,23.56245,3.26552-.44538,12.26373-9.776,12.26373-9.776s.45219,1.6358,0,5.95888c-.29284,2.8664-1.7829,12.26985-4.28972,14.9837-2.421,2.61374,7.28891-7.98082,7.28891-11.96476C364.809,216.54789,358.21814,197.78047,358.21814,197.78047Z"/><path class="s" d="M330.79161,331.5026c-1.64261,8.7851-2.19491,15.376,1.09031,15.376,3.29884,0,20.86971-3.29883,20.86971-3.29883l.79815,2.64029s-19.4729,5.61361-22.75817,3.40508c-3.29884-2.201-2.75334-8.23279-2.75334-12.62943C328.03827,332.60653,330.79161,331.5026,330.79161,331.5026Z"/><path class="p" d="M330.79161,331.5026c4.93464-1.091,18.6748-4.47563,20.72262-1.58949,2.075,2.88,2.03555,8.53925,3.11292,12.58312.758,2.80647-21.73392,4.34284-21.73392,4.34284Z"/></g></svg>