<svg xmlns="http://www.w3.org/2000/svg" viewBox="0 0 288.01674 278.53299"><defs><style>.a{fill:#b4b4b4;}.b{fill:#3e2512;}.c{fill:#010101;}.d{fill:#99c5b3;}.e{fill:#9fafb4;}.f{fill:#fdd8c2;}.g,.p{fill:#a6836f;}.g{opacity:0.4;}.h{fill:#dcdfe0;}.i{fill:#754d25;}.j{fill:#7b5a46;}.k{fill:#926a53;}.l{fill:#addcca;}.m{fill:#edf0f1;}.n{fill:#522a15;fill-opacity:0.3;}.o{fill:#e6e6e5;}.q{fill:#2b180f;}.r{fill:#9fb0b4;}.s{fill:#717171;}.t{fill:#959494;}.u{fill:#19475d;}.v{fill:#98d0dd;}.w{fill:#76ab96;}.x{fill:#669482;}.y{fill:#c4e8f4;}.z{fill:#d59b41;}.aa{fill:#fff;}.ab{fill:#e2e2e2;}.ac{fill:#bcbebf;}.ad{fill:#db925e;}.ae{fill:#a95b26;fill-opacity:0.5;}.af{fill:#696e8b;}.ag{fill:#7b81a1;}.ah{fill:#7b441d;}.ai{fill:#452716;}.aj,.ak{fill:none;stroke:#010101;stroke-miterlimit:10;stroke-width:2px;}.ak{stroke-linecap:round;}</style></defs><title>red1</title><path class="a" d="M215.94632,196.96291c7.87432-.3281,44.94926.98429,52.49548,3.281-2.29668-13.28792-19.19366-40.52-19.19366-40.52l-29.36466,1.64049"/><path class="b" d="M230.82471,253.94538a57.51888,57.51888,0,0,1,.132,11.09761c-5.74169,3.0349-20.342,6.56194-27.88822,3.77311.73821-6.97205,14.2453-2.43316,16.542-13.50643C222.94528,254.27092,230.82471,253.94538,230.82471,253.94538Z"/><path class="b" d="M254.71686,256.07479c1.42131,5.24955,2.51519,9.51547,2.51519,9.51547,5.57764,4.26526,17.06037,7.10854,20.56051,6.45235,1.96858-9.51481-10.77207-7.43664-12.2722-16.79449C263.66129,255.68521,254.71686,256.07479,254.71686,256.07479Z"/><path class="c" d="M209.7676,155.021c.21785,12.68619,7.65515,75.46292,9.8429,100.28869,4.59336,2.07751,11.26422-.32809,11.26422-.32809-.76512-16.51443-4.883-81.06235-3.6802-88.062,3.60906-1.422,9.04123-.04935,9.04123-.04935,2.29668,5.03038,16.51253,83.18921,18.48111,89.20453,6.34276,3.06246,11.10148.4031,11.10148.4031-3.82823-14.54584-12.08577-97.41082-12.742-102.4412C246.733,149.22483,211.73618,154.36479,209.7676,155.021Z"/><path class="d" d="M221.77,79.09414c-.437,8.09349-8.06593,63.02214-6.31586,75.48982,16.18633.3281,27.7793.98429,27.7793.98429l2.29668-76.66572S221.98855,77.453,221.77,79.09414Z"/><path class="e" d="M190.51881,156.07385c-.20506,2.21465,11.5244.86125,11.48339-.123C201.67411,153.73616,191.66715,152.62883,190.51881,156.07385Z"/><path class="f" d="M191.91323,154.96652c.41012,2.95287-.57417,7.21813-1.10734,9.59683-.38833,1.7315-1.14833,6.19283-1.64048,10.62213s1.31239,5.65967,3.404,6.52093c1.82375.751,5.4136,2.29667,8.1204-.3281.205-.86125-3.0349-14.68233-1.80454-14.43626s2.05061,6.31587,2.95287,6.644c1.51745.98429,2.08774.12369,2.00959-.36911-.43-2.70358-1.23036-7.1361-1.64048-9.5148s-2.17364-1.43543-2.58376-3.322a39.5564,39.5564,0,0,1-.41012-5.90575"/><path class="g" d="M199.39409,158.74154c-.18-1.94358-.18071-4.26717-.18071-4.26717l-7.30015.49215a16.58079,16.58079,0,0,1-.08137,4.13966A28.89394,28.89394,0,0,1,199.39409,158.74154Z"/><path class="h" d="M205.61127,202.04841c5.0855,3.281,15.09245,2.95287,15.09245,2.95287-.65619-11.31934-1.96858-107.94384,3.77311-127.13751-3.60906,0-11.43726,1.88656-13.40584,3.19895s-22.35671,44.047-20.55218,75.21619a29.08358,29.08358,0,0,1,11.48339-.3281c-.164-10.00695,7.71028-46.0976,7.71028-46.0976C209.38438,126.4221,202.16625,182.0345,205.61127,202.04841Z"/><path class="i" d="M213.31386,23.64256c-4.92854.28584-10.49975-5.99931.07179-16.21388.428-.428,3.35656,1.21435,3.35656,1.21435,1.8571-8.071,4.64335-8.57087,5.643-8.64266.99964-.07113,9.07135,10.14278,12.14214,11.00023.42935-1.92888.71518-3.35722,1.429-2.78626.71388.57161,4,4.14288,8.57153,4.85734,4.571.71387,10.14285,1.35727,7.14254,8.14284,7.21425,1.35661,5.21365,4.214,2.64275,9.2854s-1.14322,11.35713-1.14322,11.35713l-4.214,1.14257S216.45637,31.21445,213.31386,23.64256Z"/><path class="f" d="M228.0859,63.91966c.41012,3.60907,1.80453,10.171.16405,11.89351a7.12268,7.12268,0,0,1-3.60907,2.0506c5.4136,8.1204,8.94064,9.51481,19.02961-1.31238-2.54275-.24608-1.14833,1.06631-1.31238-.41012s-.98429-13.12388-.98429-13.12388Z"/><path class="g" d="M242.04923,72.33226c-.29476-3.91282-.67541-9.31487-.67541-9.31487l-13.28792.90227c.30243,2.66447,1.13809,6.93295.89714,9.68076A34.29347,34.29347,0,0,0,242.04923,72.33226Z"/><path class="j" d="M227.81292,85.137a18.39421,18.39421,0,0,0,1.96858,4.59336l1.31239.3281,3.718-4.04675-3.172-2.95287Z"/><path class="k" d="M229.3925,88.92936c-1.88208,5.10985-6.39913,46.90374-6.26461,50.87036s3.55716,10.18577,3.74175,10.0813c1.36107-.76643,5.41484-6.69587,5.684-9.04891s-1.21114-47.608-.74078-51.57465C231.67829,88.92169,229.3925,88.92936,229.3925,88.92936Z"/><path class="l" d="M228.69464,74.80132c-2.30435,1.586-5.25656,3.33609-5.25656,3.33609.73822,4.92145,1.64048,8.42093,2.76126,10.06141a22.39687,22.39687,0,0,1,5.4405-5.14c1.55846,2.7068,3.82823,6.04223,3.82823,6.04223,2.87085-1.14834,8.94064-7.38218,9.35076-12.30363-.82024-.84715-2.60109-2.27233-2.60109-2.27233-1.39441,2.13263-9.45646,7.6039-10.44075,7.85C229.39828,81.55486,228.69464,74.80132,228.69464,74.80132Z"/><path class="m" d="M224.58576,77.37163c-1.47643.3281-4.48377.62863-5.35848,1.23036-1.42131,4.53889-2.24155,16.1043-2.24155,16.1043l2.7337-.92982a25.89075,25.89075,0,0,0-2.46073,3.11692s-.437,21.87224,3.281,28.8174C221.19586,114.82913,222.18015,88.36287,224.58576,77.37163Z"/><path class="e" d="M260.73153,124.94566c-.73822.41012,3.363,9.10469,5.57764,9.10469C267.62156,130.11319,265.89905,124.61757,260.73153,124.94566Z"/><polygon class="f" points="263.848 124.371 257.451 126.914 262.153 133.695 266.555 131.426 263.848 124.371"/><polygon class="g" points="263.848 124.371 257.451 126.914 262.153 133.695 266.555 131.426 263.848 124.371"/><path class="h" d="M244.24466,76.63341c3.445.65619,8.94064.24607,11.56542,1.72251s33.66134,24.5188,32.15348,37.403c-.90227,7.71028-17.88127,18.2914-21.65439,18.2914-1.39441-7.62825-5.57764-9.10469-5.57764-9.10469,5.49562-3.03489,11.97553-12.8778,10.82719-14.76435-4.47223-7.34694-15.2565-11.31934-15.2565-11.31934-3.11692,18.04532.65619,42.65258,7.87432,66.1115s12.13958,37.56708,12.13958,37.56708c-9.8429,5.90575-22.47463,3.93716-22.47463,3.93716C247.60766,192.36955,231.12079,128.4727,244.24466,76.63341Z"/><path class="m" d="M249.49421,77.2896c-1.14834,4.59336-3.77311,16.2408-3.77311,16.2408l-2.7068-.3281,1.72251,2.7068s-6.15182,34.94231-6.726,44.37509c-.49214-17.14306.41013-45.35938,6.23384-63.65078A9.56192,9.56192,0,0,1,249.49421,77.2896Z"/><path class="f" d="M220.45633,17.35748c-6.99955,4-8.80986,4.85675-7.09509,15.14245s3.2387,21.33266,2.4768,29.71389c.1903,2.85674,17.714,9.71409,32.57062,1.14256,1.33294-13.52375,1.52389-31.80872-1.52387-40.18929C243.8371,14.78585,231.12335,12.40459,220.45633,17.35748Z"/><path class="n" d="M248.40866,63.35638c.42805-4.34026.737-9.17135.86-14.00881-.464-2.967-.86256-5.668-.95548-7.34825a1.524,1.524,0,0,0-1.92823-.49982c-1.07143,1.92888.57161,6.64271.214,8.214-.35755,1.57192-5.92884,5.85706-6.71443,5.78592s.07172-4.49984-1.35727-3.92823c-10.64261,7.14253-16.856,3.99937-17.99919,4.28514s.4281,4.07175-.214,4.42865c-.52292.2903-2.45948-1.25851-4.27877-3.306.01089,1.83019-.048,3.58472-.19732,5.23485C216.02834,65.07056,233.55205,71.92791,248.40866,63.35638Z"/><path class="o" d="M228.61839,113.92844h8.74517a1,1,0,0,1,1,1v3.98807a1,1,0,0,1-1,1h-8.74525a1,1,0,0,1-1-1v-3.98817A1,1,0,0,1,228.61839,113.92844Z" transform="translate(-27.3095 102.80412) rotate(-23.54438)"/><path class="b" d="M226.50393,114.772h30.59078a1,1,0,0,1,1,1v42.7309a1,1,0,0,1-1,1H226.5039a1,1,0,0,1-1-1V115.772A1,1,0,0,1,226.50393,114.772Z" transform="translate(-34.65196 108.01209) rotate(-23.54574)"/><path class="f" d="M259.009,126.4221c-3.19894-4.51133-4.92145-6.97206-6.56194-6.31586s-10.74517,6.972-10.41707,8.53051,5.24955,6.97206,6.39789,7.21813,6.726-4.59335,7.30015-3.77311,2.38513,3.69752,3.85514,3.85514c2.29668.24607,4.34728-2.21466,3.93716-2.78883S259.009,126.4221,259.009,126.4221Z"/><path class="f" d="M248.12289,42.11855c.66643-7.23736,9.99921-4.18967,9.33278,1.04833-.66643,5.23741-6.6664,10.285-8.85671,5.71355A48.038,48.038,0,0,1,248.12289,42.11855Z"/><path class="p" d="M229.33977,53.33257c-.02713.08075-.30606.09384-.78659-.02459a4.21693,4.21693,0,0,1-1.89432-1.03,3.17521,3.17521,0,0,1-.81723-1.39383,4.1,4.1,0,0,1-.05325-1.82459,10.00951,10.00951,0,0,1,.57364-1.76715c.21188-.5517.42178-1.12295.59115-1.71567a14.956,14.956,0,0,0,.4524-6.25232c-.2078-1.63629-.42212-2.66995-.2352-2.72955.15793-.053.6904.87766,1.15088,2.55472a13.175,13.175,0,0,1,.42666,3.043,12.53119,12.53119,0,0,1-.52984,3.756c-.34711,1.29492-1.00324,2.454-1.2414,3.36325a2.65741,2.65741,0,0,0,.37662,2.34424,5.505,5.505,0,0,0,1.40228,1.18036C229.14458,53.08776,229.37093,53.24123,229.33977,53.33257Z"/><path class="q" d="M240.81285,41.35769c-.33145.16873-.88043-.21073-1.54248-.85047-.31179-.30847-.681-.67379-1.09054-1.079a5.71413,5.71413,0,0,0-1.141-.86749.18192.18192,0,0,1-.11685-.04886c-.00074-.00909-.00437-.00546-.00437-.00546-.02145-.056-.02283-.03439-.14261.03418a3.756,3.756,0,0,0-.618.99548c-.34112.7674-.60644,1.37775-.98529,1.39246-.34213.01684-.759-.55182-.85889-1.66641a3.77246,3.77246,0,0,1,.4733-2.11707,3.01627,3.01627,0,0,1,.53678-.63794,2.30909,2.30909,0,0,1,.85153-.48169,2.351,2.351,0,0,1,1.01678-.11413,3.45657,3.45657,0,0,1,.90964.236,5.03629,5.03629,0,0,1,1.95239,1.73407c.18588.30023.35221.59009.49719.86407.12421.27881.22525.54325.30933.78736C241.17153,40.51687,241.12978,41.19756,240.81285,41.35769Z"/><path class="q" d="M222.74324,42.06463c-.31417.199-.8963-.12729-1.61541-.70209l-1.18686-.97205a5.71554,5.71554,0,0,0-1.21732-.75671.18272.18272,0,0,1-.12112-.03772c-.00159-.009-.00486-.00506-.00486-.00506-.02661-.05369-.02594-.03214-.13876.04736a3.75224,3.75224,0,0,0-.52191,1.04877c-.2677.79589-.47455,1.42846-.85034,1.47866-.339.04886-.80747-.47818-1.01139-1.57852a3.771,3.771,0,0,1,.273-2.15225,3.01357,3.01357,0,0,1,.47477-.68536,2.30751,2.30751,0,0,1,.80273-.55921,2.35207,2.35207,0,0,1,1.00162-.20877,3.45928,3.45928,0,0,1,.92755.14972,5.037,5.037,0,0,1,2.10626,1.54337c.2132.28149.406.55447.576.81366.14981.26593.27518.51971.38178.75485C223.02153,41.1939,223.04378,41.87551,222.74324,42.06463Z"/><path class="i" d="M233.67056,25.7143c-.35691,1.50019-.21464,5.50015.28584,5.57128.49982.07113,3.28543-2,8.71444,2.85739a7.713,7.713,0,0,0,.214-4.78562C242.09923,27.07157,235.3136,23.9284,233.67056,25.7143Z"/><path class="i" d="M218.75757,26.46341c.49025,1.44573,1.181,5.17651.79781,5.30277s-2.87085-1.47644-5.88908,3.957a9.61346,9.61346,0,0,1-.83559-4.71514C213.12928,28.65759,217.21768,24.8768,218.75757,26.46341Z"/><path class="i" d="M214.09945,16.00021c4.42872,3.35721,14.17483,4.39282,19.318,1.82185,5.92883,1.57126,11.68142,4.60681,12.39588,4.67794-.07172,5.21431-1.28548,8.28576-.49982,11.50006a28.55139,28.55139,0,0,1,.64274,8.78557c-.21464,1.857,2.35692,3.14252,2.35692,3.14252a24.73184,24.73184,0,0,1,1.28614-7.64295c.35625-.92793.07113-10.214-1.28614-14.57085C246.95657,19.35742,236.24218,6.572,214.09945,16.00021Z"/><path class="p" d="M236.74242,54.92861c.07806.04639.03406.27155-.1171.646A6.80721,6.80721,0,0,1,235.8,57.06652a8.984,8.984,0,0,1-4.51517,3.46622,8.30006,8.30006,0,0,1-3.18991.37649,8.72532,8.72532,0,0,1-2.51514-.61c-1.35257-.58155-1.99753-1.23532-1.90936-1.3711.10181-.17163.89844.17548,2.197.48438a9.33188,9.33188,0,0,0,5.0069-.13269,10.57473,10.57473,0,0,0,4.2066-2.80658c.48081-.47571.84445-.89435,1.11389-1.17792C236.47139,55.01754,236.66408,54.88207,236.74242,54.92861Z"/><path class="p" d="M250.932,47.88024c-.08984-.18207.573-.53012,1.21158-1.2659a1.19748,1.19748,0,0,0,.26084-1.25714.8832.8832,0,0,0-.50006-.44687l-.17276-.04339c-.02784-.01349-.05994-.00092-.08939-.00449l-.045-.001-.02256-.00119a.23508.23508,0,0,0-.11142.00455c-.47613.14114-1.06067.41382-1.51092.59021l.12277-.75961c.07822-.4437.13467-.89273.231-1.3136l.11508-.4213a2.14016,2.14016,0,0,1,.11948-.34567,3.946,3.946,0,0,1,.7315-1.25913,2.20933,2.20933,0,0,1,2.4722-.70422,2.16736,2.16736,0,0,1,1.20935,1.10935c.158.344.14765.5624.07382.59649-.08892.04422-.23779-.09219-.48272-.2865a2.23266,2.23266,0,0,0-1.06284-.52481,1.25464,1.25464,0,0,0-1.275.58539,3.17634,3.17634,0,0,0-.45194.92334,1.52463,1.52463,0,0,0-.08435.27588l-.05441.22263c0,.00582.00241.00265.00241.00265l-.00134.00156.00036.00668c-.00637-.00085.01889.00351-.0296-.0043l.05637.00332.11236.008a1.11482,1.11482,0,0,1,.2208.0292,3.893,3.893,0,0,1,.41913.133,2.00382,2.00382,0,0,1,1.07293,2.61758,2.64725,2.64725,0,0,1-.68362.90021C251.73812,48.02383,250.97887,48.00292,250.932,47.88024Z"/><path class="p" d="M253.67757,123.03268c.02838.1658-.43326.5787-1.28757,1.3594-.84454.756-2.042,1.77164-3.40271,2.85068-2.71991,2.15884-5.0838,3.72989-5.3165,3.445-.22784-.27884,1.76175-2.30664,4.498-4.47852a32.117,32.117,0,0,1,3.67642-2.57361,6.70629,6.70629,0,0,1,1.26108-.60019C253.41945,122.92138,253.6783,122.94759,253.67757,123.03268Z"/><path class="p" d="M245.01015,132.9016c-.20914-.29705,1.91626-2.1546,4.74735-4.14767s5.29653-3.36752,5.50567-3.07047c.21.29822-1.91568,2.15543-4.74673,4.1485S245.22008,133.19982,245.01015,132.9016Z"/><path class="p" d="M256.30248,128.55581c.18933.31009-1.73184,1.82913-4.29111,3.39169s-4.7883,2.57739-4.97763,2.26734c-.19-.31128,1.73132-1.83,4.29062-3.39258S256.11245,128.24453,256.30248,128.55581Z"/><path class="p" d="M197.49041,182.69088c-.16108.06952-.59223-.54211-.9744-1.63855a21.28968,21.28968,0,0,1-.947-4.3699c-.438-3.45334-.13507-6.31427.254-6.29471.33938.01593.62655,2.75268,1.05456,6.13428.21243,1.68194.40454,3.20275.54456,4.31124C197.55977,181.9338,197.66457,182.618,197.49041,182.69088Z"/><path class="p" d="M194.56447,182.2539c-.14819.09637-.65182-.46073-1.01968-1.51056a16.56289,16.56289,0,0,1-.803-4.17,18.20122,18.20122,0,0,1,.12652-4.22989c.17633-1.08326.48658-1.724.65805-1.6828.18326.0419.20774.693.27262,1.73666.05487,1.04352.13894,2.48627.25738,4.0759.1203,1.58972.26718,3.02.39368,4.04751C194.569,181.55035,194.72649,182.15523,194.56447,182.2539Z"/><path class="p" d="M191.61159,180.996c-.14337.088-.62219-.37771-.95309-1.3475a10.39615,10.39615,0,0,1-.37516-3.81873c.21384-2.942.82779-5.19384,1.16416-5.16909.38925.02966.35632,2.42248.15216,5.24353a26.76055,26.76055,0,0,0-.02951,3.54959C191.6372,180.343,191.78151,180.90115,191.61159,180.996Z"/><path class="r" d="M209.3839,115.75887c-.18344-.02942-.08206-1.85711.00494-4.8298.10733-2.97052.26526-7.08011.61222-11.61893a106.17085,106.17085,0,0,1,1.42825-11.58255c.56531-2.94339,1.16486-4.709,1.32782-4.66885.19089.045-.08206,1.86343-.40613,4.80841-.32721,2.94586-.69858,7.02325-1.03543,11.54416-.34552,4.51907-.651,8.622-.99719,11.58813C209.99263,113.96792,209.56,115.78817,209.3839,115.75887Z"/><path class="r" d="M275.98812,112.03081c.03378-.18161,1.00033-.15042,2.52877-.071.37928.01489.79429.03116,1.2396.04862l.67578.00259.34308-.01224c.06183-.00528.04819-.01025.06354-.01526.03964-.01416.0144-.05533-.01239-.05587a9.22528,9.22528,0,0,0-.99784-.421,17.2282,17.2282,0,0,0-5.70468-.71616c-1.49866.05255-2.44116.21738-2.49975.0282-.05365-.15558.82116-.65143,2.398-.95484a13.01762,13.01762,0,0,1,6.23089.39463,6.82471,6.82471,0,0,1,.88385.36462,2.44438,2.44438,0,0,1,.50553.305,2.0901,2.0901,0,0,1,.56289.48667l.22309.27325.09735.28467a.69749.69749,0,0,1-.04032.57874,1.23006,1.23006,0,0,1-1.01162.5885,4.73288,4.73288,0,0,1-.67722.047l-.39319-.01706c-.25549-.01593-.49753-.04223-.73016-.07144-.46448-.05984-.88913-.13507-1.274-.21387C276.86272,112.56322,275.95485,112.20675,275.98812,112.03081Z"/><path class="r" d="M256.302,98.86242c-.02521.06869-.3418.06552-.8016-.21988a4.47665,4.47665,0,0,1-1.44431-1.67493,17.15839,17.15839,0,0,1-1.63718-6.81277,29.74306,29.74306,0,0,1,.32047-6.92566c.303-1.75842.76736-2.79327.93756-2.74075.17889.05178.049,1.11325-.0108,2.84152a64.26555,64.26555,0,0,0,.06817,6.73572,23.63732,23.63732,0,0,0,1.16492,6.50427,5.86353,5.86353,0,0,0,.93491,1.68283C256.124,98.60421,256.34612,98.76492,256.302,98.86242Z"/><path class="s" d="M221.45217,86.68328c.76387-5.95765,4.883-11.52243,7.47575-12.77078a12.97388,12.97388,0,0,1-.15506,1.48989,21.51352,21.51352,0,0,0-6.01854,11.44881.65647.65647,0,0,1-1.30215-.16792Z"/><path class="s" d="M214.01874,111.43857a1.55625,1.55625,0,0,0,.223-.0141.72023.72023,0,0,0,.60428-.74334.5799.5799,0,0,0-.67345-.55107.81844.81844,0,0,1-.60625-.21851,2.11517,2.11517,0,0,1-.35625-1.63858c.4934-6.74968,1.8628-15.5327,5.58532-19.04438a4.96966,4.96966,0,0,1,3.51037-1.47578h.00256c2.96764.37875,2.20252,7.27449,1.39317,14.57465-.22429,2.01346-.455,4.09484-.62417,6.157a1.54428,1.54428,0,0,1-1.32584,1.5097.72519.72519,0,0,0-.61584.73054.58411.58411,0,0,0,.66132.56649,2.98229,2.98229,0,0,0,2.56584-2.80929c.16786-2.04424.39792-4.11663.6203-6.11979.91959-8.29022,1.71352-15.45-2.45751-15.914l-.066-.00381A6.44252,6.44252,0,0,0,217.961,88.3071c-4.06341,3.83276-5.5264,12.98226-6.03777,19.98188a3.14515,3.14515,0,0,0,.737,2.62989A1.97494,1.97494,0,0,0,214.01874,111.43857Z"/><path class="t" d="M215.103,110.85227c-.05125.6241-.43059,1.13035-.84839,1.13167s-.71518-.503-.66387-1.12721c.05125-.62286.4319-1.12977.8497-1.13043C214.85821,109.72506,215.15429,110.22934,215.103,110.85227Z"/><path class="t" d="M222.47747,110.55107c-.0519.62411-.43191,1.12977-.84905,1.131-.4178.00131-.71453-.50238-.66328-1.12655.05132-.62286.43132-1.12977.84846-1.131C222.2314,109.42386,222.52878,109.92756,222.47747,110.55107Z"/><path class="s" d="M243.29692,76.13424c-.06411-.13137-.9837-1.42715-1.06186-1.51042a3.87479,3.87479,0,0,1-.06148-.67673,3.97391,3.97391,0,0,1,2.3037,1.613c.85613,1.7622-.33643,3.76025-1.98781,6.526a39.59607,39.59607,0,0,0-6.23574,17.1693.65684.65684,0,0,1-.65173.58316.72016.72016,0,0,1-.07369-.00387.657.657,0,0,1-.57928-.72542,41.29317,41.29317,0,0,1,6.41389-17.696C242.85668,78.91152,243.84287,77.25817,243.29692,76.13424Z"/><ellipse class="s" cx="235.46617" cy="102.35443" rx="2.87085" ry="3.89615"/><path class="o" d="M233.91093,102.24543c0,1.12531.67154,2.03716,1.50077,2.03716s1.50078-.91185,1.50078-2.03716-.67161-2.03708-1.50078-2.03708S233.91093,101.12019,233.91093,102.24543Z"/><path class="f" d="M149.56052,66.70658c-.09292,3.63085-.908,10.28951.87668,11.86208,1.7853,1.57257,3.4168,3.01311,3.4168,3.01311-4.68306,8.56254-9.64553,10.23124-20.64254.32809,2.51164-.46714,2.7545-3.92882,2.78882-5.41359.03425-1.48543.2445-9.52636.2445-9.52636Z"/><path class="g" d="M149.56052,66.70658l-13.31574.26333s-.12724,4.86187-.19962,7.72314a36.50321,36.50321,0,0,0,13.34363.78435A79.05554,79.05554,0,0,1,149.56052,66.70658Z"/><path class="f" d="M156.81907,41.98075c2.132-4.79711,6.47217-2.89329,6.09092,3.04513-.38066,5.93908-4.03461,10.65934-7.6898,3.122C156.43841,43.42706,156.81907,41.98075,156.81907,41.98075Z"/><path class="a" d="M154.90876,251.939a57.53714,57.53714,0,0,0,1.1112,11.04249c6.04544,2.37293,20.94819,4.24348,28.13554.628-1.51488-6.8458-14.42851-.824-17.94984-11.57053C162.77475,251.38019,154.90876,251.939,154.90876,251.939Z"/><path class="a" d="M131.40535,256.72908c-.8251,5.3758-1.4345,9.73713-1.4345,9.73713-4.19636,4.48252-10.4302,14.05179-15.13281,11.70065-3.02111-9.23474,5.296-11.58273,5.73913-21.0501C122.47364,257.34295,131.40535,256.72908,131.40535,256.72908Z"/><path class="a" d="M116.91587,202.48543c7.21813-1.31238,44.40233.00066,51.62046,1.75007,1.74941-8.9682-7.4373-47.46445-9.18671-47.90213s-26.46659,3.93716-27.12278,4.59336"/><path class="u" d="M165.03619,147.80285c1.20346,12.63173.56393,79.32186,1.16947,104.23609-4.33252,2.57864-11.23023.935-11.23023.935-1.0881-16.49645-4.22169-81.09949-6.2005-87.9203-3.745-1.00929-8.99.96251-8.99.96251-1.71929,5.25591-7.09673,84.515-8.37959,90.713-5.96027,3.75323-10.98678,1.64305-10.98678,1.64305,2.17554-14.88293.78277-103.091.87182-108.163C127.05485,144.71737,163.00737,147.3716,165.03619,147.80285Z"/><path class="v" d="M131.74847,79.44914a30.67866,30.67866,0,0,1-5.20853,2.46072l-2.07784,68.6267s27.779,1.96858,38.49658-1.20281c5.41747-1.60327-4.26525-64.96316-4.4293-65.45531s-4.55235-3.97817-4.55235-3.97817-9.00855,4.68818-11.57886,4.90734S131.74847,79.44914,131.74847,79.44914Z"/><path class="h" d="M155.57651,80.92557c-1.69561,16.51443,4.7574,99.90548,6.726,133.2073,10.4991.98429,17.71723-2.29668,18.70152-3.60907,1.47643-12.13958-9.73332-56.37752-9.73332-70.15759s-2.07817-47.7932-2.40626-50.91012S155.57651,80.92557,155.57651,80.92557Z"/><path class="w" d="M141.83745,92.08086c-.65619,5.57765-3.97817,47.90214-3.65007,48.88643s6.06979,7.54622,6.23384,7.05408,4.92145-5.90575,4.92145-7.05408-5.0855-48.88643-5.0855-48.88643Z"/><path class="x" d="M138.2694,88.7999c.98429,1.31238,2.3787,4.67538,3.11692,5.00347a5.02886,5.02886,0,0,0,3.11692,0c.41012-.32809,2.95287-4.34728,2.95287-4.34728l-4.59335-4.26526S138.76155,88.30775,138.2694,88.7999Z"/><path class="y" d="M135.93171,76.74234c-1.31239.76512-5.07172,2.65168-5.07172,3.08936s4.04642,11.3738,6.3431,13.12387a64.31641,64.31641,0,0,0,5.19508-6.9445l6.01533,5.63211c5.63211-5.24955,6.15181-11.00469,6.09669-11.33279s-4.14222-2.74781-4.89389-3.59561c-2.40626,4.10121-7.21813,8.09283-7.21813,8.09283S136.53344,79.039,135.93171,76.74234Z"/><path class="z" d="M158.84848,24.97549c1.59823,4.49211,2.512,8.68046,1.97889,11.64934-.53257,2.96954-.68507,9.44112-.91317,9.97427-.22881.53316-1.52322.685-1.52322.685s.91375-15.91269-.91381-22.613"/><path class="f" d="M157.32467,23.83352c2.89388,8.07046.55173,17.95562,1.98006,40.81091.22816,3.65454-17.49806,11.10784-31.5908,2.05126-1.30149-1.82317-4.95642-37.38066-2.06313-41.644C128.54441,20.78773,148.64546,13.93549,157.32467,23.83352Z"/><path class="f" d="M124.50889,42.56391c-2.132-4.79652-6.47158-2.89329-6.09092,3.04513.38059,5.93908,6.09092,11.72624,7.766,5.25342A74.83115,74.83115,0,0,1,124.50889,42.56391Z"/><path class="z" d="M124.88955,22.76786c-.98974-6.24283,11.3446-12.1069,20.32881-11.87815,8.98486.22815,10.93933-2.53757,10.93933-2.53757,2.28454,3.50263,12.74072,13.95816,2.157,17.91776-3.27394-3.35013-13.40006-7.081-18.806-4.49211-5.40625,2.58829-11.82723,2.132-13.50229,4.64526,3.2992,11.87685.10124,12.94316.63407,14.92263.53316,1.97948,1.06632,6.39533.762,6.92849-.30506.5325-1.82763.30441-1.82763.30441s-.76157-5.17717-1.90355-7.00474C122.52941,39.74687,115.04244,23.68167,124.88955,22.76786Z"/><path class="z" d="M129.25474,38.80805c-1.421-4.77085,4.87309-10.96493,7.91888-6.19342,1.11632,2.64079,1.32006,3.75711.2025,3.4527C136.2598,35.76226,133.72152,35.356,129.25474,38.80805Z"/><path class="z" d="M157.28681,38.11281c1.18935-4.8343-5.39628-10.717-8.20813-5.8039-.98816,2.69079-1.13686,3.8161-.03589,3.45722C150.14368,35.40858,152.65887,34.88054,157.28681,38.11281Z"/><path class="q" d="M137.68112,44.03647c0,1.65394-.86381,2.99388-1.92914,2.99388-1.06507,0-1.92888-1.33994-1.92888-2.99388,0-1.65459.86381-2.99513,1.92888-2.99513C136.81731,41.04134,137.68112,42.38188,137.68112,44.03647Z"/><path class="q" d="M153.13756,43.50331c0,1.65328-.86381,2.9952-1.92881,2.9952s-1.92888-1.34192-1.92888-2.9952.86381-2.99454,1.92888-2.99454S153.13756,41.85,153.13756,43.50331Z"/><path class="p" d="M143.08666,54.74609c-.14664-.11918.30725-.8917,1.02963-2.091a11.51861,11.51861,0,0,0,1.04227-2.09268,1.4143,1.4143,0,0,0,.07733-.45819c-.01288-.05008-.01248-.02213-.03229-.03226a1.54755,1.54755,0,0,0-.46014-.011,5.10732,5.10732,0,0,0-.72684.13559,2.42756,2.42756,0,0,1-1.05914.148c-.06964-.046-.16916-.02421-.19052-.1681a2.01544,2.01544,0,0,1-.18616-.17718,1.27211,1.27211,0,0,1-.13-.638c-.013-.58914.009-.70084.01847-.97406.02743-.48526.0665-.94635.11078-1.38373.0888-.87439.19784-1.65274.31124-2.30261.2262-1.29953.47986-2.08264.65214-2.06073.17208.02179.23367.828.243,2.136l-.02344,2.29862c-.02164.74963-.031,2.25751-.01141,1.8309.0097-.00372-.01737.00229.01992-.00687a5.86416,5.86416,0,0,1,.85492-.14413,2.32758,2.32758,0,0,1,1.08069.12952,1.25653,1.25653,0,0,1,.78125,1.12451,2.34473,2.34473,0,0,1-.18237.95245,8.66879,8.66879,0,0,1-1.43012,2.23432C143.927,54.30019,143.22176,54.85665,143.08666,54.74609Z"/><path class="aa" d="M135.09224,57.33528c3.65519.98941,8.528,3.04514,16.2177,0C147.19849,67.91831,141.48822,68.83212,135.09224,57.33528Z"/><path class="ab" d="M155.194,80.10533c-.3281,5.57765.98363,60.1782,3.17138,73.41166,1.53156-18.37342,2.62477-44.43021,3.82823-50.00786a38.42067,38.42067,0,0,0-3.281-3.93716l2.84263-.76512c.65619-3.281.76577-14.8746.65619-15.31162C162.30249,83.0582,155.194,80.10533,155.194,80.10533Z"/><path class="h" d="M129.82091,80.43343c1.47643,17.1155-2.78882,99.24928-4.7574,132.5511-10.4991.98429-19.68581-1.64048-20.6701-2.95287-1.47644-12.13958,12.95982-56.9786,12.95982-70.75867s-1.14834-47.19213-.82024-50.309S129.82091,80.43343,129.82091,80.43343Z"/><path class="ab" d="M130.20347,79.61319c.3281,5.57764.08235,60.58832-2.10507,73.82177-1.53123-18.37342-3.69142-44.84033-4.89422-50.418a38.3285,38.3285,0,0,1,3.281-3.93717l-2.84329-.76512c-.65619-3.281-.76545-14.87459-.65619-15.31162S130.20347,79.61319,130.20347,79.61319Z"/><path class="h" d="M116.64224,88.36222c-1.859,4.04674-17.33433,38.76988-14.38146,44.45711,6.67119-.21851,15.53013-8.42028,15.53013-8.42028S119.48553,88.58073,116.64224,88.36222Z"/><path class="f" d="M151.05238,117.22515a44.31846,44.31846,0,0,1,12.26642-3.58728c3.504-.50691,7.54688-1.03619,8.40623-.06411,1.34441,1.52132,3.5693,7.89867.26589,9.82434s-16.86424.70107-19.46979,2.19542C150.99083,125.2084,151.05238,117.22515,151.05238,117.22515Z"/><path class="g" d="M165.83465,113.29632c.68309,5.57765,1.35084,10.1838,1.48542,11.10273a12.72109,12.72109,0,0,0,4.67085-1.001c3.30341-1.92567,1.07852-8.303-.26589-9.82434C171.06753,112.83043,168.55043,112.96567,165.83465,113.29632Z"/><path class="p" d="M161.06307,116.728c-.05612-.35742,2.5535-1.06967,5.84933-1.48514a27.56794,27.56794,0,0,1,4.26193-.24576c1.10447.0343,1.802.23749,1.78431.4166-.01712.1842-.6626.3125-1.7211.51346-1.05823.19174-2.5279.41961-4.16187.62393C163.80831,116.96288,161.11959,117.08974,161.06307,116.728Z"/><path class="p" d="M162.91256,118.13073c-.006-.36212,2.38882-.69965,5.35275-.6832,2.96148-.00015,5.38135.44556,5.34121.82486-.03747.34561-2.4013.49411-5.34918.4935C165.31343,118.74953,162.91848,118.49648,162.91256,118.13073Z"/><path class="p" d="M164.19164,120.38772c.01843-.36087,2.12109-.556,4.69824-.33029a16.45353,16.45353,0,0,1,3.286.58038,3.65,3.65,0,0,1,.976.43362c.23087.15012.32221.349.24857.39426-.08234.066-.19269.07455-.41357.09161-.22367.0083-.55463.00827-.96781-.00058-.82574-.01879-1.97561-.07315-3.24582-.18606C166.232,121.14791,164.1726,120.75378,164.19164,120.38772Z"/><path class="h" d="M152.78768,116.30491c4.48443,1.313,3.172,8.6401,3.172,8.6401-6.67086,5.90574-43.09026,17.38978-52.60507,12.57726-1.859-3.82823-1.96858-6.78111.54694-10.71827S128.50885,120.13314,152.78768,116.30491Z"/><path class="ab" d="M168.64591,88.52626c1.859,4.04675,15.63907,38.60584,12.68619,44.29307-6.67086-.21851-13.34238-9.29629-13.34238-9.29629S165.80263,88.74478,168.64591,88.52626Z"/><path class="r" d="M106.52556,129.21011c-.15506-.04673-.11621-.79355.43924-1.82871a9.0024,9.0024,0,0,1,3.14188-3.2001,10.33787,10.33787,0,0,1,4.1864-1.53257c1.148-.13128,1.85867.05033,1.85733.21827.00729.36142-2.64215.68466-5.34216,2.43054a13.55789,13.55789,0,0,0-3.07328,2.609C107.05706,128.69137,106.71419,129.27627,106.52556,129.21011Z"/><path class="r" d="M118.93938,95.85415c.29065-.03848,1.36591,3.73874,2.15579,8.59753l.06031.47269c.01644.17462.03039.34769.03225.49112l.01789.88541c.00579.57888.00079,1.13656-.013,1.66806-.02637,1.0628-.08881,2.02044-.17719,2.82363-.16888,1.60859-.47787,2.58811-.654,2.55951-.18363-.02841-.207-1.00821-.27756-2.59253l-.106-2.78332-.06344-1.643-.03723-.86529c-.00455-.15323-.01865-.27756-.0308-.40228l-.05636-.42749C119.01671,99.88137,118.50835,95.91308,118.93938,95.85415Z"/><path class="f" d="M130.72318,117.09824a44.30074,44.30074,0,0,0-11.89351-4.67537c-3.445-.82025-7.42352-1.711-8.36647-.82025-1.47644,1.39441-4.26526,7.54623-1.14834,9.76088s16.73294,2.21466,19.19366,3.93716C130.067,125.05459,130.72318,117.09824,130.72318,117.09824Z"/><path class="g" d="M130.23169,116.79705c-.28073,2.32936-.934,6.46777-2.05126,6.644-2.46073-1.72251-16.07675-1.72251-19.19367-3.93716a3.12635,3.12635,0,0,1-1.07786-1.381,3.702,3.702,0,0,0,1.406,3.24061c3.11692,2.21466,16.73294,2.21466,19.19366,3.93716,1.55846-.24607,2.21466-8.20242,2.21466-8.20242C130.56555,116.997,130.399,116.89706,130.23169,116.79705Z"/><path class="p" d="M120.79811,115.70431c-.0885.35385-2.75506-.014-5.97226-.718-1.609-.35043-3.05227-.70962-4.089-.99567-1.03623-.29522-1.66758-.48077-1.6681-.665-.00155-.18067.71146-.32062,1.81461-.25559a27.56053,27.56053,0,0,1,4.22275.628C118.35134,114.40829,120.88649,115.352,120.79811,115.70431Z"/><path class="p" d="M118.82961,116.93468c-.03864.36237-2.44666.39945-5.38.15107-2.93591-.26441-5.27679-.62513-5.283-.97129-.00592-.38281,2.44425-.60885,5.39365-.34246C116.51351,116.02209,118.8683,116.57317,118.82961,116.93468Z"/><path class="p" d="M117.3532,119.06731c-.01386.36493-2.10056.57285-4.65167.56638-1.27527-.00168-2.42548-.05093-3.24961-.10635-.41232-.02829-.742-.0579-.964-.08616-.21844-.03665-.3273-.05505-.40313-.12789-.06943-.052.03909-.24189.2825-.37085a3.64587,3.64587,0,0,1,1.011-.3444,16.44885,16.44885,0,0,1,3.32505-.28274C115.29055,118.322,117.3673,118.70486,117.3532,119.06731Z"/><path class="ab" d="M130.69594,116.30491c-4.4841,1.313-3.17171,8.6401-3.17171,8.6401,6.67119,5.90574,43.09027,17.38978,52.60507,12.57726,2.43317-3.445,2.29668-6.88938-.54661-10.71827C176.79642,123.05333,154.97543,120.13314,130.69594,116.30491Z"/><path class="h" d="M177.28554,128.77276c-.188.06595-.53058-.519-1.20846-1.3039a13.55576,13.55576,0,0,0-3.07328-2.609c-2.7-1.74588-5.34948-2.06952-5.34219-2.42954-.00134-.16867.70938-.35052,1.85736-.2193a10.337,10.337,0,0,1,4.1864,1.53259,9.00139,9.00139,0,0,1,3.14191,3.20011C177.40267,127.97893,177.44127,128.72582,177.28554,128.77276Z"/><path class="h" d="M155.80722,261.91708c.082.455.15572.81644.21274,1.06441,6.04544,2.37293,20.94819,4.24348,28.13554.628a4.47269,4.47269,0,0,0-.34476-.9875C175.15981,266.37073,162.38707,263.00905,155.80722,261.91708Z"/><path class="h" d="M129.97085,266.46621s.11115-.79583.30184-2.11852c-8.24763,10.49463-12.16779,13.72494-15.79766,12.48887.09672.42869.21209.86893.363,1.3303C119.54065,280.518,125.77449,270.94873,129.97085,266.46621Z"/><path class="p" d="M123.57,49.97536c-.0065.13221-.75106.33225-1.663-.46618a2.14362,2.14362,0,0,1-.607-2.01764,2.02544,2.02544,0,0,1,.74722-1.16144c.14395-.10147.09918-.066.10535-.07507l-.00214-.00363-.00281-.00165c-.00436-.01618.00928.04269-.01584-.06281a3.85473,3.85473,0,0,0-.65176-1.55,1.15344,1.15344,0,0,0-.247-.25509c-.05365-.02106-.10849-.013-.19284.102a5.091,5.091,0,0,0-.35519.9245c-.08219.25286-.17109.40173-.26178.40451-.09107.00277-.17612-.14267-.251-.42212a2.40531,2.40531,0,0,1,.022-1.28287,1.16047,1.16047,0,0,1,.91034-.83029,1.60721,1.60721,0,0,1,1.267.53424,4.2252,4.2252,0,0,1,1.05337,2.1185c.02408.06995.04661.31009.06873.471l.06506.52783.00794.06525a.31.31,0,0,1-.05564.03021l-.11672.05688-.23182.11261a2.30645,2.30645,0,0,0-.3508.17716.87624.87624,0,0,0-.33877.43652,1.29077,1.29077,0,0,0,.1481,1.10217C123.01885,49.55065,123.63314,49.78146,123.57,49.97536Z"/><path class="p" d="M136.36153,56.72634c.11041.346-.43842.83426-1.19449,1.16135-.75625.32022-1.44113.40622-1.648.10809-.21033-.30121.29044-.96548,1.12354-1.31769C135.46868,56.32122,136.25124,56.37884,136.36153,56.72634Z"/><path class="a" d="M71.69331,196.96291c-7.87432-.3281-44.94926.98429-52.49548,3.281,2.29668-13.28792,19.19366-40.52,19.19366-40.52l29.36466,1.64049"/><path class="v" d="M56.81458,253.94538a57.53743,57.53743,0,0,0-.13169,11.09761c5.74169,3.0349,20.342,6.56194,27.88822,3.77311-.73821-6.97205-14.245-2.43316-16.54166-13.50643C64.694,254.27092,56.81458,253.94538,56.81458,253.94538Z"/><path class="v" d="M32.9231,256.07479c-1.42164,5.24955-2.51552,9.51547-2.51552,9.51547-5.57764,4.26526-17.0607,7.10854-20.56051,6.45235-1.96858-9.51481,10.7724-7.43664,12.2722-16.79449C23.97859,255.68521,32.9231,256.07479,32.9231,256.07479Z"/><path class="c" d="M77.87236,155.021c-.21851,12.68619-7.65581,75.46292-9.84291,100.28869-4.59335,2.07751-11.26454-.32809-11.26454-.32809.76545-16.51443,4.88332-81.06235,3.68019-88.062-3.60906-1.422-9.04156-.04935-9.04156-.04935-2.29667,5.03038-16.51186,83.18921-18.48044,89.20453-6.34309,3.06246-11.10181.4031-11.10181.4031,3.82791-14.54584,12.0861-97.41082,12.74229-102.4412C40.90668,149.22483,75.90378,154.36479,77.87236,155.021Z"/><path class="ac" d="M65.8696,79.09414c.43735,8.09349,8.06593,63.02214,6.31586,75.48982-16.18633.3281-27.779.98429-27.779.98429L42.10981,78.90253S65.65108,77.453,65.8696,79.09414Z"/><path class="e" d="M97.12081,156.07385c.20506,2.21465-11.5244.86125-11.48338-.123C85.96552,153.73616,95.97248,152.62883,97.12081,156.07385Z"/><path class="ad" d="M95.7264,154.96652c-.41012,2.95287.57417,7.21813,1.10733,9.59683.388,1.7315,1.14834,6.19283,1.64048,10.62213s-1.31239,5.65967-3.404,6.52093c-1.82343.751-5.4136,2.29667-8.1204-.3281-.20506-.86125,3.0349-14.68233,1.80454-14.43626s-2.05061,6.31587-2.95287,6.644c-1.51745.98429-2.08808.12369-2.0096-.36911.43-2.70358,1.23036-7.1361,1.64048-9.5148s2.17365-1.43543,2.58377-3.322a39.5564,39.5564,0,0,0,.41012-5.90575"/><path class="ae" d="M95.92155,159.9469a18.38539,18.38539,0,0,1-.19515-4.98038l-7.30015-.49215a48.22754,48.22754,0,0,1-.273,5.09508A28.82862,28.82862,0,0,1,95.92155,159.9469Z"/><path class="h" d="M82.35613,203.68889c-5.0855,3.281-15.09245,2.95287-15.09245,2.95287.65619-11.31934,1.64081-109.58432-4.10088-128.778,3.60906,0,11.43725,1.88656,13.40583,3.19895s22.35672,44.047,20.55218,75.21619a29.08353,29.08353,0,0,0-11.48338-.3281c.16405-10.00695-7.71028-46.0976-7.71028-46.0976C78.25525,126.4221,85.80114,183.675,82.35613,203.68889Z"/><path class="ad" d="M59.55373,63.91966c-.41012,3.60907-1.80453,10.171-.16405,11.89351a7.12268,7.12268,0,0,0,3.60907,2.0506c-5.4136,8.1204-8.94064,9.51481-19.02961-1.31238,2.54275-.24608,1.14833,1.06631,1.31238-.41012s.98429-13.12388.98429-13.12388Z"/><path class="ae" d="M45.59072,72.33226c.29443-3.91282.67509-9.31487.67509-9.31487l13.28792.90227c-.30277,2.66447-1.13843,6.93295-.89715,9.68076A34.29122,34.29122,0,0,1,45.59072,72.33226Z"/><path class="af" d="M59.827,85.137a18.4084,18.4084,0,0,1-1.96859,4.59336l-1.31238.3281-3.71832-4.04675,3.17171-2.95287Z"/><path class="ag" d="M58.24712,88.92936c1.88235,5.10985,6.39913,46.90374,6.26461,50.87036s-3.55689,10.18577-3.74207,10.0813c-1.36108-.76643-5.41485-6.69587-5.68369-9.04891s1.21147-47.608.74078-51.57465C55.96133,88.92169,58.24712,88.92936,58.24712,88.92936Z"/><path class="h" d="M58.94524,74.80132c2.30377,1.586,5.25631,3.33609,5.25631,3.33609-.73822,4.92145-1.64048,8.42093-2.76126,10.06141a22.4015,22.4015,0,0,0-5.44083-5.14c-1.55846,2.7068-3.8279,6.04223-3.8279,6.04223-2.87085-1.14834-8.94064-7.38218-9.35076-12.30363.82024-.84715,2.60108-2.27233,2.60108-2.27233,1.39441,2.13263,9.45647,7.6039,10.44076,7.85C58.24135,81.55486,58.94524,74.80132,58.94524,74.80132Z"/><path class="m" d="M63.05354,77.37163c1.47643.3281,4.04642.46458,4.92112,1.06631,1.42165,4.53889,2.67957,16.26835,2.67957,16.26835l-2.734-.92982a25.84592,25.84592,0,0,1,2.46073,3.11692s.73788,29.88371-2.98043,36.82886C66.7443,122.84059,65.4598,88.36287,63.05354,77.37163Z"/><path class="h" d="M43.395,76.63341c-3.445.65619-9.48758,1.231-12.11235,2.70746s.05479,19.5211.05479,19.5211c3.11692,18.04532-.65619,42.65258-7.87432,66.1115s-12.13958,37.56708-12.13958,37.56708c9.8429,5.90575,28.05194,4.75741,28.05194,4.75741C45.60929,193.1898,56.51884,128.4727,43.395,76.63341Z"/><path class="m" d="M37.78976,77.53568C38.9381,82.129,41.91853,93.5304,41.91853,93.5304l2.7068-.3281-1.72251,2.7068s6.12426,31.66134,6.78045,37.6491c.49214-17.14305-.46459-38.63339-6.2883-56.92479A10.04513,10.04513,0,0,0,37.78976,77.53568Z"/><path class="ad" d="M67.183,17.35748c6.99987,4,8.80985,4.85675,7.09535,15.14245s-3.23864,21.33266-2.47673,29.71389c-.19,2.85674-17.71369,9.71409-32.57063,1.14256-1.33319-13.52375-1.52355-31.80872,1.52388-40.18929C43.8022,14.78585,56.51628,12.40459,67.183,17.35748Z"/><path class="k" d="M45.03446,174.74824h3.98807a1.00008,1.00008,0,0,1,1.00008,1.00008v8.74521a1,1,0,0,1-1,1H45.0344a.99993.99993,0,0,1-.99993-.99993v-8.74536a1,1,0,0,1,1-1Z" transform="translate(-55.5452 24.77017) rotate(-18.80274)"/><path class="b" d="M4.78894,170.93162H47.52a1,1,0,0,1,1,1V202.523a1,1,0,0,1-1,1H4.78888a1,1,0,0,1-1-1v-30.5914a1,1,0,0,1,1-1Z" transform="translate(-58.94063 18.41691) rotate(-18.79968)"/><path class="ad" d="M39.51673,42.11855c-.66676-7.23736-9.99954-4.18967-9.33311,1.04833.66676,5.23741,6.66673,10.285,8.857,5.71355A48.051,48.051,0,0,0,39.51673,42.11855Z"/><path class="ah" d="M58.29952,53.33163c-.03105-.091.19539-.24424.58446-.49543a5.50029,5.50029,0,0,0,1.40243-1.18008,2.65666,2.65666,0,0,0,.37648-2.34415c-.2384-.90924-.89448-2.06854-1.24152-3.36337a12.53205,12.53205,0,0,1-.5298-3.756,13.17609,13.17609,0,0,1,.42673-3.043c.46045-1.67706.99274-2.60779,1.15-2.555.18758.05981-.02658,1.09356-.23436,2.72985a14.957,14.957,0,0,0,.45232,6.25238c.16935.59269.37925,1.164.59109,1.7157a10.02046,10.02046,0,0,1,.57378,1.767,4.09884,4.09884,0,0,1-.05306,1.82465,3.17458,3.17458,0,0,1-.81726,1.39389,4.21529,4.21529,0,0,1-1.89448,1.02972C58.60578,53.426,58.32677,53.41271,58.29952,53.33163Z"/><path class="q" d="M46.82531,41.35677c-.31569-.15945-.357-.83993-.04519-1.824.08411-.24408.18514-.50849.30933-.7873.145-.274.31129-.56387.49716-.8641a5.03542,5.03542,0,0,1,1.95233-1.73416,3.45636,3.45636,0,0,1,.90967-.23593,2.35037,2.35037,0,0,1,1.01674.11419,2.30847,2.30847,0,0,1,.8515.48169,3.01742,3.01742,0,0,1,.53671.63794,3.773,3.773,0,0,1,.47326,2.1171c-.09977,1.11453-.51621,1.6832-.85695,1.66641-.38024-.01483-.646-.62524-.98723-1.39258a3.75887,3.75887,0,0,0-.618-.99542c-.11975-.06854-.12111-.09018-.14256-.03418,0,0-.00361-.00366-.00434.00543a.18192.18192,0,0,1-.11685.04886,5.71151,5.71151,0,0,0-1.14085.86749l-1.0905,1.079C47.70743,41.14684,47.158,41.52611,46.82531,41.35677Z"/><path class="q" d="M64.89469,42.06356c-.29933-.18838-.27668-.86972.126-1.82022.10662-.23511.232-.48889.38178-.75479.17-.25919.36278-.5322.576-.81366a5.03606,5.03606,0,0,1,2.10611-1.54346,3.45743,3.45743,0,0,1,.92763-.14972,2.35086,2.35086,0,0,1,1.00158.2088,2.30789,2.30789,0,0,1,.80266.55924,3.01463,3.01463,0,0,1,.4747.68542,3.77232,3.77232,0,0,1,.27286,2.15216c-.2038,1.10028-.67171,1.62738-1.00937,1.57874-.37718-.05042-.58455-.683-.85236-1.47894a3.75591,3.75591,0,0,0-.52191-1.04877c-.11274-.07941-.112-.101-.13864-.0473,0,0-.00326-.00394-.00484.005a.18236.18236,0,0,1-.121.03769,5.71309,5.71309,0,0,0-1.21722.75681c-.44573.365-.84755.69409-1.18685.972C65.79261,41.93728,65.21006,42.26333,64.89469,42.06356Z"/><path class="ai" d="M53.96906,25.7143c.35691,1.50019.21432,5.50015-.28583,5.57128-.49982.07113-3.28576-2-8.71412,2.85739a7.70852,7.70852,0,0,1-.21432-4.78562C45.54039,27.07157,52.326,23.9284,53.96906,25.7143Z"/><path class="ai" d="M68.88205,26.46341c-.48992,1.44573-1.181,5.17651-.7978,5.30277.38289.12625,2.87085-1.47644,5.88907,3.957a9.6178,9.6178,0,0,0,.83534-4.71514C74.51,28.65759,70.42194,24.8768,68.88205,26.46341Z"/><path class="ai" d="M74.29053,22.16934c-4.42865,3.35722-14.543-1.44821-19.68581-4.01918C48.2613,15.85348,41.6449,21.51315,41.82627,22.5c.07146,5.21431,1.28575,8.28576.50015,11.50006a28.5532,28.5532,0,0,0-.64307,8.78557c.21438,1.857-2.35692,3.14252-2.35692,3.14252a24.75573,24.75573,0,0,0-1.28581-7.64295c-.3569-.92793-.07146-10.214,1.28581-14.57085C40.68338,19.35742,56.5733,5.60046,74.29053,22.16934Z"/><path class="ah" d="M50.898,54.92812c.07807-.04638.27053.08921.54694.36707.26932.28363.63286.70233,1.11365,1.178a10.574,10.574,0,0,0,4.20649,2.80658,9.33069,9.33069,0,0,0,5.00679.13278c1.29856-.309,2.095-.65631,2.19643-.48529.08855.13635-.55623.79037-1.90877,1.372a8.724,8.724,0,0,1-2.51512.61,8.30047,8.30047,0,0,1-3.18983-.37661,8.98335,8.98335,0,0,1-4.515-3.46619,6.79769,6.79769,0,0,1-.82506-1.492C50.86348,55.19991,50.81969,54.97466,50.898,54.92812Z"/><path class="ah" d="M36.70725,47.88119c-.04663.122-.80582.1427-1.85361-.6301a2.64667,2.64667,0,0,1-.68353-.90027,2.00391,2.00391,0,0,1,1.07309-2.61743,3.893,3.893,0,0,1,.41913-.133,1.11453,1.11453,0,0,1,.22079-.0292l.11234-.008.05636-.00332c-.04876.00781-.02315.00342-.02965.00427l.00039-.00668-.00136-.00153s.00242.00317.00242-.00268l-.05447-.22263a1.52583,1.52583,0,0,0-.08437-.27591,3.17766,3.17766,0,0,0-.45208-.92337,1.25481,1.25481,0,0,0-1.27515-.58536,2.23143,2.23143,0,0,0-1.06271.52506c-.24483.19436-.39347.33081-.48206.28671-.07414-.03424-.08469-.25269.0732-.59677a2.16666,2.16666,0,0,1,1.20918-1.1095,2.20946,2.20946,0,0,1,2.47232.70407,3.94645,3.94645,0,0,1,.73163,1.25907,2.13939,2.13939,0,0,1,.11952.34567l.11513.42126c.09639.42087.15291.86991.23118,1.3136l.12294.76c-.45025-.17639-1.035-.44922-1.51109-.5903a.23513.23513,0,0,0-.11148-.00455l-.02257.00122-.04506.001c-.02943.00357-.06152-.009-.08938.00449l-.17276.04342a.88353.88353,0,0,0-.50014.44687,1.19746,1.19746,0,0,0,.26067,1.25711C36.1346,47.35018,36.79734,47.69848,36.70725,47.88119Z"/><path class="e" d="M11.59681,162.67679c.35533,1.64049,12.87813-.164,12.68652-2.62477C23.27148,156.36093,11.56958,157.01712,11.59681,162.67679Z"/><path class="ad" d="M21.467,157.67332c.082,3.19894,1.14833,10.90922,1.14833,10.90922L14.16679,170.223l-.71066-11.48339"/><path class="ae" d="M21.467,157.67332l-8.01082,1.06631.42935,6.93872a20.306,20.306,0,0,1,8.1284-1.84423C21.75626,161.62393,21.50507,159.1613,21.467,157.67332Z"/><path class="ad" d="M22.48168,167.29c5.48919-.67483,8.46838-1.05929,9.08835.5953s2.08486,12.63816.71164,13.44554c-1.37262.80744-8.68885.81643-9.6446.13334-.95516-.68317-1.13522-8.06534-2.12817-7.93653-.99321.12756-4.33927.72732-5.44627-.25244-1.72888-1.53221-1.29152-4.7055-.59084-4.78884C15.17221,168.40248,22.48168,167.29,22.48168,167.29Z"/><path class="ah" d="M28.57881,168.94695c.06162-.05926.2589.13.38126.45722a7.32663,7.32663,0,0,1,.38921,1.41531,35.576,35.576,0,0,1,.514,4.69739c.18918,3.67523.0022,6.65506-.34976,6.67267-.37512.0187-.77864-2.94855-.96678-6.60282-.09582-1.82791-.13011-3.48257-.12529-4.67733.00191-.59614.01852-1.08347.0345-1.40973C28.488,169.15792,28.493,169.01232,28.57881,168.94695Z"/><path class="ah" d="M25.551,169.561c.36044-.04554,1.00537,2.70251,1.43933,6.13748s.49275,6.25708.13232,6.30264c-.36183.04569-1.00636-2.70242-1.44032-6.13739S25.18918,169.60671,25.551,169.561Z"/><path class="ah" d="M22.7289,170.72787c.35671-.06894,1.10811,2.262,1.67715,5.20593s.74039,5.387.38369,5.456c-.35807.06922-1.10909-2.26178-1.67813-5.20575S22.37084,170.79708,22.7289,170.72787Z"/><path class="ah" d="M90.1483,182.69051c-.17352-.0726-.06851-.75671.06928-1.85727.14-1.10849.33218-2.62933.54465-4.31128.42813-3.38156.71579-6.11834,1.05374-6.13421.39053-.01962.69293,2.8414.25485,6.29471a21.289,21.289,0,0,1-.94714,4.36987C90.74138,182.14877,90.31,182.76031,90.1483,182.69051Z"/><path class="ah" d="M93.074,182.25344c-.1614-.09833-.00372-.70309.11539-1.73276.12662-1.02755.27347-2.45779.39383-4.04751.11853-1.58966.20282-3.03238.25772-4.07593.06488-1.04361.08917-1.6947.27176-1.73645.17215-.04132.48257.59939.65887,1.68268a18.19877,18.19877,0,0,1,.12625,4.22989,16.56025,16.56025,0,0,1-.80322,4.17C93.72658,181.79317,93.22274,182.35015,93.074,182.25344Z"/><path class="ah" d="M96.02681,180.99551c-.16928-.09452-.02459-.6525.04267-1.54172a26.72635,26.72635,0,0,0-.02933-3.54956c-.20422-2.821-.23718-5.21387.15066-5.24347.33774-.02493.95173,2.2269,1.16562,5.169a10.39027,10.39027,0,0,1-.37536,3.81884C96.65,180.61843,96.17076,181.08392,96.02681,180.99551Z"/><path class="r" d="M78.25475,115.759c-.39.01865-.91287-7.33633-1.70168-16.36215-.39705-4.51391-.85054-8.58526-1.2209-11.529-.368-2.94318-.639-4.76511-.451-4.80887.16615-.03982.76228,1.723,1.37059,4.65616a104.35713,104.35713,0,0,1,1.61438,11.56351C78.65953,108.36132,78.59177,115.74483,78.25475,115.759Z"/><path class="h" d="M31.802,79.17616c-2.40593.21917-7.19057,2.569-12.44011,19.30259S8.75319,122.97708,8.75319,129.86712s1.31239,29.8568,2.84362,32.80967c4.37451-2.95287,10.82752-3.49948,12.68652-2.62477.21851-14.54584-5.46839-27.23138,4.04642-45.05819C33.68888,105.26051,36.94229,97.44131,31.802,79.17616Z"/><path class="aj" d="M45.32,35.23042c-1.28.54851-1.55366,6.99063-.91794,7.7673.63532.77732,10.38052,1.272,11.01617.8478.63572-.42357,1.48287-7.06176,1.34159-7.768C56.61877,35.37137,51.74608,32.47618,45.32,35.23042Z"/><path class="aj" d="M63.74241,36.08911c-1.31462.45816-2.03138,6.86694-1.45051,7.68593.5806.81828,10.26877,1.982,10.93166,1.60328.66295-.37934,1.96569-6.94253,1.87343-7.65771C75.0044,37.00673,70.34313,33.78345,63.74241,36.08911Z"/><path class="ak" d="M56.407,40.03205c1.20057-1.34126,5.2611-1.40727,5.82595.42869"/><line class="ak" x1="38.36393" y1="39.3124" x2="44.0236" y2="38.57418"/><path class="r" d="M32.37571,107.22826c-.19463-.0783.19206-1.33279.63256-3.379a46.588,46.588,0,0,0,1.01665-8.07981,39.94384,39.94384,0,0,0-.44627-8.10766,21.5,21.5,0,0,0-.52768-2.395c-.16579-.54956-.26589-.86963-.18308-.92282.06874-.04673.32422.19009.653.7167a10.15671,10.15671,0,0,1,.9664,2.39276,27.24211,27.24211,0,0,1,.85507,8.36716,29.98027,29.98027,0,0,1-1.43484,8.27444C33.21878,106.141,32.51688,107.289,32.37571,107.22826Z"/><path class="s" d="M66.1759,86.68328c-.76354-5.95765-4.88267-11.52243-7.47575-12.77078a13.04514,13.04514,0,0,0,.15539,1.48989A21.51826,21.51826,0,0,1,64.87441,86.8512a.65614.65614,0,1,0,1.30149-.16792Z"/><path class="aa" d="M73.61,111.43857a1.55818,1.55818,0,0,1-.22331-.0141.72051.72051,0,0,1-.60428-.74334.58005.58005,0,0,1,.67345-.55107.81751.81751,0,0,0,.60593-.21851A2.11243,2.11243,0,0,0,74.418,108.273c-.49339-6.74968-1.86247-15.5327-5.585-19.04438a4.96984,4.96984,0,0,0-3.5107-1.47578h-.00256c-2.96731.37875-2.20219,7.27449-1.39251,14.57465.224,2.01346.45468,4.09484.62417,6.157a1.54386,1.54386,0,0,0,1.32551,1.5097.7249.7249,0,0,1,.61551.73054.58383.58383,0,0,1-.661.56649,2.982,2.982,0,0,1-2.56585-2.80929c-.16785-2.04424-.39791-4.11663-.62063-6.11979-.91919-8.29022-1.71352-15.45,2.45784-15.914l.066-.00381a6.44194,6.44194,0,0,1,4.49854,1.86281c4.06341,3.83276,5.52607,12.98226,6.03744,19.98188a3.143,3.143,0,0,1-.737,2.62989A1.97353,1.97353,0,0,1,73.61,111.43857Z"/><path class="t" d="M72.52543,110.85227c.05125.6241.43092,1.13035.84872,1.13167.41721.00124.71486-.503.66354-1.12721-.05124-.62286-.4319-1.12977-.84937-1.13043C72.77052,109.72506,72.47412,110.22934,72.52543,110.85227Z"/><path class="t" d="M65.15126,110.55107c.05158.62411.43125,1.12977.84872,1.131.4178.00131.71486-.50238.66361-1.12655-.05132-.62286-.43165-1.12977-.84911-1.131C65.397,109.42386,65.09994,109.92756,65.15126,110.55107Z"/><path class="s" d="M44.33149,76.13424c.06411-.13137.98369-1.42715,1.06185-1.51042a3.86583,3.86583,0,0,0,.06155-.67673,3.97383,3.97383,0,0,0-2.30377,1.613c-.85613,1.7622.33643,3.76025,1.98781,6.526a39.59607,39.59607,0,0,1,6.23574,17.1693.65684.65684,0,0,0,.65173.58316.72.72,0,0,0,.07369-.00387.657.657,0,0,0,.57929-.72542,41.29316,41.29316,0,0,0-6.4139-17.696C44.77172,78.91152,43.78553,77.25817,44.33149,76.13424Z"/><ellipse class="aa" cx="52.16224" cy="102.35443" rx="2.87085" ry="3.89615"/><path class="h" d="M53.71748,102.24543c0,1.12531-.67155,2.03716-1.50078,2.03716s-1.50078-.91185-1.50078-2.03716.67161-2.03708,1.50078-2.03708S53.71748,101.12019,53.71748,102.24543Z"/></svg>