<svg xmlns="http://www.w3.org/2000/svg" viewBox="0 0 412.66316 258.11029"><defs><style>.a{fill:#c0e4de;}.b{fill:#09181e;}.ad,.ae,.af,.aj,.an,.ao,.ap,.as,.at,.au,.ax,.b,.ba,.bb,.bd,.bg,.bh,.bi,.bk,.bl,.bm,.bn,.bo,.bp,.bq,.br,.bs,.bt,.bu,.bw,.d,.e,.g,.h,.m,.n,.o,.p,.q,.r,.s,.t,.u,.v,.x,.y,.z{fill-rule:evenodd;}.c,.m{fill:#013148;}.d{fill:#913d3c;}.e{fill:#b11f24;}.f{fill:#c8c7c6;}.g,.i{fill:#f0efef;}.bj,.h{fill:#d6d5d5;}.j{fill:#b0b0b0;}.k{fill:#035470;}.l{fill:#8a181a;}.n{fill:#d58086;}.am,.o{fill:#fff;}.p{fill:#606060;}.q{fill:#efaf7a;}.r{fill:#db955d;}.s{fill:#af7272;}.t{fill:#f7c397;}.u{fill:#dd8d74;}.av,.v{fill:#1e1917;}.w{fill:#7d7674;}.x{fill:#a5a5a5;}.y{fill:#931a1d;}.z{fill:#7f7f7f;}.aa,.af{fill:#79c4e2;}.ab{fill:#6badc4;}.ac{fill:#e3a875;}.ad,.ag{fill:#f6c196;}.ae,.ah{fill:#afe1f2;}.ai,.an{fill:#eeedee;}.aj{fill:#e4a676;}.ak{fill:#de5d55;}.al{fill:#b06428;}.ao{fill:#d4d4d4;}.ap{fill:#d84241;}.aq,.as{fill:#28364d;}.ar,.at{fill:#acacac;}.au,.aw{fill:#6d0e0f;}.ax{fill:#9d1c20;}.ay,.ba{fill:#2da588;}.az,.bb{fill:#298c75;}.bc,.bd{fill:#514643;}.be{fill:#565656;}.bf,.bn{fill:#2d2e2d;}.bg{fill:#6d2728;}.bh{fill:#7d522e;}.bi{fill:#0b98ab;}.bk{fill:#1b1b1b;}.bl{fill:#333;}.bm{fill:#e0e1e0;}.bo{fill:#c2c2c2;}.bp{fill:#7d522d;}.bq,.bv{fill:#1c1c1c;}.br{fill:#71451e;}.bs{fill:#df5d55;}.bt{fill:#e37069;}.bu{fill:#5a3212;}.bw{fill:#333231;}</style></defs><title>red1</title><ellipse class="a" cx="206.3316" cy="247.62009" rx="206.33151" ry="10.49007"/><path class="b" d="M254.06545,238.23569v-16.0505h8.964c1.176,5.6347,1.276,16.3361,1.496,17.3711.026.1201.718-.9554,1.381,0,1.434,2.0677,1.947,7.9501,1.796,8.6651-.186.8808-2.752.6655-7.07,1.2022-.69.0859-.354-1.2807-1.069-1.2022a27.6072,27.6072,0,0,1-9.564,2.6449c-5.391,0-8.386.2744-9.035,0-4.639-1.9604-1.094-6.9675,1.772-7.1476a20.23406,20.23406,0,0,0,8.183-2.4151C252.70446,240.36589,254.06545,240.00889,254.06545,238.23569Z"/><path class="b" d="M296.43044,238.20089l-1.092-16.0157-8.944.5711c-.791,5.6973-.163,16.3819-.312,17.4287-.018.1215-.781-.9076-1.377.088-1.291,2.1545-1.403,8.0569-1.204,8.7607.246.867,2.792.4887,7.136.7492.695.0417.267-1.3005.985-1.2676a27.69405,27.69405,0,0,0,9.723,2.0298c5.38-.3435,8.387-.2604,9.017-.5757,4.495-2.2516.617-7.0219-2.255-7.0192a20.30433,20.30433,0,0,1-8.33-1.8884C297.93346,240.23969,296.55047,239.97019,296.43044,238.20089Z"/><path class="c" d="M272.81945,148.618c-.769-6.372,14.945-8.792,15.727,0,1.391,15.63049,7.85,68.20249,9.768,89.76319.127,2.1418-14.963,1.9789-15.06.6037C282.75445,231.86009,275.18346,168.20789,272.81945,148.618Z"/><path class="c" d="M251.11346,148.236c.888-6.338,15.742-14.106,14.365-5.23-1.871,12.0697.581,81.4774.644,95.0294.003.7179-13.832,1.6928-13.871.134C251.50745,208.41339,248.35145,167.93979,251.11346,148.236Z"/><path class="d" d="M266.28945,92.073c6.45-1.439,23.319-35.961,18.914-36.685-8.254-1.355-21.7-2.341-28.495-1.949C254.65246,53.558,263.30645,92.739,266.28945,92.073Z"/><path class="e" d="M274.50146,59.011c2.191.057-4.26,6.407-4.291,7.512-.062,2.265,2.494,11.105,2.426,11.9-.111,1.293-5.712,13.658-5.712,13.658s-3.848-9.754-2.699-13.658c1.186-4.032,2.941-11.263,2.699-11.9-.236-.622-2.599-6.456-2.699-7.112C264.07345,58.424,271.64644,58.938,274.50146,59.011Z"/><path class="f" d="M253.43445,54.801c-5.174.554-18.954,35.802-18.605,41.05.681,10.255,13.478,34.184,18.605,34.096,1.915-.033,5.323-9.165,4.573-9.162-4.53.02-9.77-17.414-10.5-24.934-.242-2.483,6.708-28.474,8.661-30.564C257.43645,63.931,253.74645,54.767,253.43445,54.801Z"/><path class="g" d="M267.21145,164.186c-11.228-.0443-21.217-.8457-21.144-2.7859.096-2.5781,1.484-22.8171,3.051-45.6111,1.925-28.017.873-59.472,3.576-61.587.76-.594,3.595-.847,7.424-.85.005,6.35,4.479,23.275,7.454,38.729,0,0,.71-2.198,1.827-5.525,3.497-10.411,10.983-31.867,13.19-31.561,5.809.805,9.646,1.717,9.595,2.725-.538,10.701,5.052,100.09181,5.734,103.68011.252,1.32611-14.845,2.4658-26.618,2.7859-1.082-4.7775-1.615-13.656-1.901-12.077C268.48147,157.17579,267.42644,163.25939,267.21145,164.186Z"/><path class="h" d="M264.71145,164.16309a79.61734,79.61734,0,0,1,4.902-13.2661c.251-.442-2.187,12.3624-2.402,13.289Q265.94848,164.181,264.71145,164.16309Z"/><path class="h" d="M267.83144,94.031a29.00112,29.00112,0,0,1,0-3.445c4.468-12.272,14.631-36.013,15.462-35.693.757.292,5.193,1.163,5.287,1.19.809.226-3.338,9.502-4.157,10.295-.546.529-4.128.039-4.123.06.469,1.749,4.145,6.822,4.123,6.85C282.47945,75.777,272.83645,87.659,267.83144,94.031Z"/><path class="h" d="M273.87945,164.10449c.583-2.2099,15.648-4.5244,16.751-6.5688,1.082-2.0064-7.013-21.0677-1.7-41.0957-.103-2.284-.192-4.58-.263-6.865a308.62811,308.62811,0,0,1,1.041-34.445c.376-2.851,1.55-3.838,2.647-2.458,1.238,28.939,5.026,85.90509,5.563,88.72809C298.15246,162.631,285.16146,163.70129,273.87945,164.10449Z"/><path class="i" d="M290.88344,57.17c5.174.554,25.749,34.415,25.401,39.663-.199,2.999-2.016,6.56-4.615,10.096-5.321,7.24-13.923,14.375-18.642,16.36-.857.361-5.181-8.849-4.222-9.271,5.406-2.38,14.181-10.799,14.801-17.185.241-2.483-11.411-25.638-13.365-27.728C288.97344,67.748,290.57146,57.136,290.88344,57.17Z"/><path class="h" d="M291.79046,112.325c.123.312.28.651.311.733.356.943.853,1.983,2.004,2.1,2.526.256,5.715-2.573,7.341-4.102,4.281-4.026,7.786-8.604,11.474-13.124.723-.885,2.097-2.204,3.268-2.072a3.82214,3.82214,0,0,1,.096.973c-.607,9.139-16.234,23.502-23.257,26.456-.857.361-5.181-8.849-4.222-9.271A19.565,19.565,0,0,0,291.79046,112.325Z"/><path class="j" d="M290.04345,115.08a35.95063,35.95063,0,0,0,4.937,10.223c.554.576-.125.931-.555.483-4.873-2.888-8.055-14.154-5.936-18.008C288.50344,107.778,289.45644,113.248,290.04345,115.08Z"/><path class="k" d="M284.98745,75.279h1.069a.534.534,0,0,1,.534.534V86.127a.534.534,0,0,1-.534.534h-1.069a.535.535,0,0,1-.535-.535V75.814A.535.535,0,0,1,284.98745,75.279Z"/><path class="l" d="M280.60045,76.107h1.068a.535.535,0,0,1,.535.535V86.955a.534.534,0,0,1-.534.534h-1.07a.534.534,0,0,1-.534-.534V76.642A.535.535,0,0,1,280.60045,76.107Z"/><path class="h" d="M287.01745,79.545c0-1.271-7.583-1.271-7.583,0v7.189a2.34326,2.34326,0,0,0,2.379,2.304h2.824a2.34351,2.34351,0,0,0,2.38-2.304Z"/><path class="m" d="M286.59045,75.6a.321.321,0,1,0-.642,0v5.877a.321.321,0,1,0,.642,0Z"/><path class="n" d="M280.06545,76.428a.3205.3205,0,1,1,.641,0v5.877a.3205.3205,0,1,1-.641,0Z"/><path class="o" d="M268.08446,92.789a13.073,13.073,0,0,1-1.322-3.238c4.468-12.271,13.348-35.691,14.18-35.371.756.291,6.475,1.463,6.569,1.489.809.226-3.338,8.881-4.157,9.674-.546.529-4.128.039-4.123.06.469,1.749,4.145,6.822,4.123,6.851C281.41045,74.742,273.08944,86.418,268.08446,92.789Z"/><path class="o" d="M270.21044,97.806c-2.64.467-8.279-44.255-6.958-45.162-.803.129-3.342.345-6.857.708-.838.087-3.493,10.597-2.866,11.541.418.628,7.66-.02,7.65,0-.842,1.612-1.712,2.96-2.381,4.117C256.51046,72.967,269.75646,99.831,270.21044,97.806Z"/><path class="p" d="M267.57244,95.252a2.55536,2.55536,0,1,1-2.639,2.554A2.59794,2.59794,0,0,1,267.57244,95.252Z"/><path class="p" d="M267.57244,106.073a2.55537,2.55537,0,1,1-2.639,2.554A2.59794,2.59794,0,0,1,267.57244,106.073Z"/><path class="q" d="M275.50945,43.593l-8.59-.661-1.059,12.898c-.572,3.178,8,4.337,8.59.661Z"/><path class="r" d="M275.50945,43.593l-8.59-.661-.736,8.966c-.572,3.178,7.999,4.337,8.59.661Z"/><path class="s" d="M274.98745,51.937c-1.906,3.178-4.014,5.476-6.487,6.509,0,0,4.126,6.188,4.126,8.006,0,.008.669.41,1.506-.791a89.11085,89.11085,0,0,0,6.369-11.282C280.60946,53.872,274.45446,51.638,274.98745,51.937Z"/><path class="s" d="M266.03945,51.558c.076,3.128-.012,5.855,2.461,6.888,0,0-3.533,5.437-4.349,8.162-.276.922-.376.805-1.023.329-3.28-2.412-3.84-12.365-2.509-13.585A32.0572,32.0572,0,0,1,266.03945,51.558Z"/><path class="t" d="M286.63647,34.799a71.55951,71.55951,0,0,1-.802,9.524c-.556,2.913-4.021,5.328-7.273,6.261-3.636,1.044-13.838,1.044-17.474,0-3.252-.933-6.717-3.348-7.272-6.261-1.035-5.427.947-20.187,2.303-28.352.233-1.404,4.646-4.778,7.898-5.711a34.165,34.165,0,0,1,14.545,0c3.252.933,7.647,4.674,7.782,6.352.186,2.303.307,5.062.363,7.958,1.659-1.341,3.653-2.173,5.226-.685,4.665,4.415-1.079,11.495-3.399,11.495A3.36464,3.36464,0,0,1,286.63647,34.799Z"/><path class="o" d="M260.46946,41.074a2.86229,2.86229,0,0,0-.312,1.142c-.13,2.42,2.931,4.545,6.833,4.742,3.901.197,7.175-1.608,7.305-4.028a2.8623,2.8623,0,0,0-.187-1.168Z"/><path class="u" d="M267.80346,29.968c-1.505,3.284-1.693,3.694-2.865,6.252-.428.933.575,1.95,1.619,2.096a1.90969,1.90969,0,0,0,2.166-1.567A16.98918,16.98918,0,0,0,267.80346,29.968Z"/><path class="v" d="M275.17547,29.162a1.59485,1.59485,0,1,1-1.647,1.594A1.62088,1.62088,0,0,1,275.17547,29.162Z"/><path class="w" d="M275.44247,23.812a2.90293,2.90293,0,0,1,2.924,2.594c.014.231-.044.458-.286.48-.383.035-.325-.655-.492-1.104-.579-1.556-3.563-1.942-4.274-.115a2.72142,2.72142,0,0,0-.125.731c-.046.376-.734.548-.624-.364a2.794,2.794,0,0,1,2.81-2.221C275.40844,23.812,275.40844,23.812,275.44247,23.812Z"/><path class="v" d="M261.70745,28.374a1.59483,1.59483,0,1,1-1.646,1.594A1.62241,1.62241,0,0,1,261.70745,28.374Z"/><path class="w" d="M261.31446,23.025a2.75313,2.75313,0,0,1,2.824,2.371c.014.222-.025.46-.266.498-.255.039-.324-.157-.395-.631-.202-1.347-2.144-2.025-3.459-1.309a2.1239,2.1239,0,0,0-1.057,1.839.39784.39784,0,0,1-.203.285.31938.31938,0,0,1-.441-.295,2.52292,2.52292,0,0,1,.036-.446,2.88737,2.88737,0,0,1,2.894-2.312Z"/><path class="x" d="M253.53345,39.459l.011-.01c1.324-1.123,3.319-2.207,5.002-1.93,5.105.84,10.291,1.961,15.338-.108,2.316-.95,5.098.714,7.505,1.538-.166-2.692,1.318-24.471,2.365-24.518a6.77138,6.77138,0,0,1,2.869,1.714c.438,1.114-.526,16.137-.301,17.309q.16053.837.301,1.717a69.42761,69.42761,0,0,1-.789,9.152c-.556,2.913-4.021,5.328-7.273,6.261-3.636,1.044-13.838,1.044-17.474,0-3.252-.933-6.717-3.348-7.272-6.261A25.64572,25.64572,0,0,1,253.53345,39.459Z"/><path class="x" d="M280.40145,6.181c-5.048-3.583-15.179,3.673-23.472-.799-1.327-.716-5.103-4.247-6.695-3.835-1.942.503-1.867,6.92-1.698,8.315,1.002,8.251,10.223,9.105,17.074,8.831,2.685-.107,10.483-2.02,10.568-1.868-.904,6.015.504,6.231,7.165.326.059-.142-.268,1.468-.272,1.562-.038.951-.102,1.902-.122,2.854-.061,2.949.06,5.894.041,8.844-.009,1.369-.501,4.264,1.311,2.325,4.215-4.51,5.176-17.133,2.295-22.116-1.232-2.134-4.663-3.652-5.077-3.652-.031,0,5.118-2.474,3.753-3.906C282.30846-.046,280.94445,6.566,280.40145,6.181Z"/><path class="y" d="M356.31264,32.658c-3.681-8.323,12.734-21.863,14.212,0,.48,7.095-1.042,10.276-1.856,17.342-.385,3.343-1.104,7.405.199,10.642,1.008,2.502,3.318,3.724,5.694,4.807.481.22,2.586.743,2.118,1.575-1.123,2-3.951.124-4.827-1.045a7.9325,7.9325,0,0,1-.853-1.508c-.137-.303-.517-1.208-.475-.88.303,2.377,1.918,4.503,2.201,6.859.474,3.941-2.469,7.615-4.518,10.72a48.53993,48.53993,0,0,1-3.17,4.464c-.119.142-.904,1.214-1.224.893-1.098-1.098-.621-3.83-1.568-5.224-2.945-4.337-4.97-6.046-4.412-12.764C358.44164,61.236,356.31264,32.658,356.31264,32.658Z"/><path class="x" d="M336.73561,237.785v-14.8125h8.282c1.087,5.2001,1.18,15.076,1.383,16.0312.024.1108.663-.8817,1.275,0,1.325,1.9082,1.8,7.3369,1.66,7.9967-.172.8129-2.543.6141-6.532,1.1095-.638.0792-.328-1.1819-.988-1.1095a25.53087,25.53087,0,0,1-8.836,2.4409c-4.981,0-7.749.2532-8.349,0-4.286-1.8092-1.01-6.4301,1.637-6.5963a18.72171,18.72171,0,0,0,7.562-2.2288C335.47762,239.75081,336.73561,239.42131,336.73561,237.785Z"/><path class="z" d="M345.63164,227.21121c.522,5.0904.613,11.0606.769,11.7925.024.1108.663-.8817,1.275,0a5.99839,5.99839,0,0,1,.688,1.4801c-.002,2.384-15.633,1.6787-14.534.1324,1.648-.8654,2.906-1.1949,2.906-2.8312v-10.5738Z"/><path class="x" d="M365.18663,238.79911l-.608-14.8008,8.275-.32c1.3,5.1539,1.798,15.0185,2.04,15.9651.028.1098.626-.9066,1.274-.0493,1.403,1.8555,2.1,7.2616,1.988,7.9264-.139.8188-2.516.7118-6.482,1.361-.634.1038-.376-1.1684-1.032-1.0705a25.49245,25.49245,0,0,1-8.73,2.7804c-4.977.1925-7.732.5525-8.342.3226-4.356-1.6421-1.273-6.3859,1.365-6.6543a18.67858,18.67858,0,0,0,7.464-2.5192C364.01064,240.812,365.25362,240.43421,365.18663,238.79911Z"/><path class="z" d="M364.80663,229.553l.38,9.2461c.067,1.6351-1.176,2.0129-2.788,2.9414-1.14.6566,14.927.53,14.757-.0048a7.44081,7.44081,0,0,0-.988-2.1416c-.648-.8573-1.246.1591-1.274.0493-.177-.69-.489-6.1196-1.149-11.00849Z"/><path class="aa" d="M335.05962,138.72c.274-1.951,33.189-3.885,33.535,0,1.285,14.425,7.253,79.3017,9.025,99.19919.118,1.9766-13.825,1.8263-13.914.5572-.459-6.5303-7.362-70.03639-9.597-88.5394h-7.265c-.814,19.22871.981,76.5512,1.032,87.6631.003.6625-12.78,1.5623-12.816.1237C334.37163,210.263,332.50862,156.90452,335.05962,138.72Z"/><path class="ab" d="M339.61162,149.937h7.232c-.814,19.229.981,76.5513,1.032,87.6631.003.6625-12.78,1.5623-12.816.1237l-.018-.7051c3.764.0387,8.84-.473,8.838-.8905-.049-10.5247-1.661-63.0729-1.14-84.3522C342.75063,151.317,336.63564,149.937,339.61162,149.937Zm25.038-12.12c2.089-1.556,3.715-1.678,3.945.903,1.285,14.425,7.253,79.3017,9.025,99.19919.118,1.9766-13.825,1.8263-13.914.5572-.012-.166-.028-.3652-.048-.5961,4.141.2404,10.042-.1441,9.966-1.433C371.87361,216.80041,366.03261,153.3,364.64961,137.817Z"/><path class="ac" d="M332.74263,126.901c.413.347,6.483-5.705,5.458-3.241-1.255-1.447-5.458-17.202-5.458-17.202.965-2.389.547-12.975,6.137-19.478,4.916-5.719-3.347-16.294-3.347-16.294-2.815,3.695-10.707,28.854-10.4,35.772C325.45561,113.729,332.74263,126.901,332.74263,126.901Z"/><path class="aa" d="M336.15263,68.499c-2.819.302-11.259,15.789-15.301,26.116-1.393,2.433,13.2,7.44,14.19,3.456,1.971-7.926,2.436-18.611,3.637-19.894C339.85063,76.925,336.44063,68.468,336.15263,68.499Z"/><path class="ad" d="M350.50362,77.69c2.179-.285,11.634-8.307,9.747-8.798a46.82681,46.82681,0,0,0-16.011-1.216C342.82063,67.85,349.54762,77.7,350.50362,77.69Z"/><path class="ae" d="M375.63661,145.068c-.082,3.499-45.532,3.99-44.801-.913.869-5.835.856-12.501,1.329-19.372,1.779-25.856.807-54.885,3.305-56.837.701-.548,6.936-.781,10.474-.784.003,3.48,1.176,4.41,4.96,8.328,0,0,5.533-3.844,7.43-7.544,5.367.744,12.527,1.809,12.481,2.74C370.47362,77.463,376.24461,119.238,375.63661,145.068Z"/><path class="aa" d="M343.85964,74.073a5.48255,5.48255,0,0,1-.262-4.689,6.05838,6.05838,0,0,1,2.547-3.045,4.24823,4.24823,0,0,1,2.145-.619c.417.005.831,1.34.831,1.34-.783.379,1.165,2.965.947,3.507,2.832-.102,5.949-2.217,9.029,0-.342-1.468.043-2.811-1.639-3.46-.351-.136,2.609.121,3.556,1.777,1.118,1.955.777,4.464.237,6.219a26.87057,26.87057,0,0,1-2.154,4.684c-3.644,3.343-12.173,1.526-13.599,0C344.59462,78.82,343.97762,76.299,343.85964,74.073Z"/><rect class="aa" x="355.68861" y="85.68551" width="11.23889" height="2.0475"/><path class="af" d="M343.73064,67.189c.796-.018,1.552-.026,2.213-.027l4.96,8.328s5.533-3.844,7.43-7.544c.935.13,1.924.269,2.921.416-.021.037-2.8,3.091-5.473,6-2.453,2.669-4.816,5.215-4.878,5.196C350.25362,79.355,343.94862,68.582,343.73064,67.189Z"/><path class="af" d="M371.33162,79.558c1.352,15.333,4.781,45.301,4.305,65.51-.059,2.532-23.875,3.489-36.757,1.966.335-.019.62-.026.732-.047,2.416-.453,4.753-1.221,7.196-1.556,7.553-1.036,15.428-3.187,18.465-10.797a47.8942,47.8942,0,0,0,2.312-24.527c-.045-.256-1.729-1.314-2.312-2.644C364.11763,104.828,366.71361,79.939,371.33162,79.558Z"/><path class="ag" d="M372.61864,138.79c-.031-.053-3.308-36.318-4.644-45.556-1.066-7.369,7.798-5.447,7.798-5.447,2.373,3.115,3.089,38.093,1.644,49.066.77,4.126,2.377,9.956.618,14.117-.492,1.162-1.818,4.3075-3.491,4.3075-.948,0-.965-2.3515-1.048-2.8935-.415-2.707.003-6.091-.877-8.689-.029-.087.757,5.601-1.293,5.294-.951-.142-.917-5.402-.908-5.939C370.44261,141.613,372.01161,140.073,372.61864,138.79Z"/><path class="ac" d="M377.94762,106.891c1.434-1.795-5.764,4.001-8.099,3.065-.714-7.066-1.411-13.519-1.874-16.722-1.066-7.369,7.798-5.447,7.798-5.447C376.86562,89.22,377.60661,97.405,377.94762,106.891Z"/><path class="ah" d="M370.75362,70.686c2.302.246,5.483,13.417,11.805,26.203.779,1.576-13.816,9.572-14.584,7.723-2.992-7.204-1.526-19.909-1.648-21.42C366.19063,81.509,370.46562,70.655,370.75362,70.686Z"/><path class="ai" d="M348.69261,65.508l-.19.356a4.76175,4.76175,0,0,0-1.931,1.691,5.8987,5.8987,0,0,0-1.185,3.621c.075.892.001.248.001.248l.174.363-.148.151a.6361.6361,0,0,1-.516-.212c-.724-1.024-.336-2.528-.127-3.23a4.42172,4.42172,0,0,1,2.246-2.738,4.66119,4.66119,0,0,1,1.287-.427S348.53664,65.432,348.69261,65.508Z"/><path class="ai" d="M347.67162,64.524a3.113,3.113,0,0,1,1.214.253l.162.154.014.209-.146.147a4.05851,4.05851,0,0,1-.901-.058c-2.221.033-3.653,2.768-3.959,3.505a4.85224,4.85224,0,0,0,.863,5.248l.083.203-.077.197-.197.079a.8695.8695,0,0,1-.393-.228,5.35557,5.35557,0,0,1-1.355-6.046,6.06,6.06,0,0,1,2.547-3.044A4.24823,4.24823,0,0,1,347.67162,64.524Z"/><path class="ai" d="M355.46163,65.529c2.105.044,3.469,2.615,3.761,3.799.039.156.073.312.103.469a11.14556,11.14556,0,0,1-.847,6.17c-.013.03-.031.074-.031.074l-.151.159-.216.019-.16-.137-.026-.215a12.804,12.804,0,0,0,.318-5.412,5.79707,5.79707,0,0,0-1.881-3.872,2.06747,2.06747,0,0,0-1.204-.467l-.315-.26.071-.193A1.29634,1.29634,0,0,1,355.46163,65.529Z"/><path class="ai" d="M355.85863,65.029a5.70712,5.70712,0,0,1,4.537,2.658c1.118,1.956.777,4.465.237,6.22a16.37989,16.37989,0,0,1-2.603,5.058l-.189.117-.215-.039-.118-.174a1.15475,1.15475,0,0,1,.222-.525,14.38217,14.38217,0,0,0,2.186-7.812,4.92773,4.92773,0,0,0-3.076-4.622,8.12238,8.12238,0,0,0-1.079-.326l-.188-.123s-.055-.188-.052-.204C355.52062,65.257,355.63463,65.006,355.85863,65.029Z"/><path class="ad" d="M356.54863,58.156l-7.936-.61-.979,9.892c-.528,2.932,7.391,4.542,7.937,1.149Z"/><path class="aj" d="M356.54863,58.156l-7.936-.61-.681,8.275c-.528,2.932,7.392,4.002,7.937.61Z"/><path class="t" d="M366.55962,51.395c-.126,3.648-5.256,13.462-13.849,13.636-10.975.223-12.657-9.687-12.903-11.18-1.24-7.51-1.885-16.918-1.175-21.186.215-1.296,4.293-4.41,7.298-5.271a31.61422,31.61422,0,0,1,13.438,0c3.005.861,7.066,4.314,7.191,5.862.171,2.126-.052,8.618,0,11.291,1.533-1.238,2.664-1.631,3.798,0C373.12761,48.528,367.29863,54.532,366.55962,51.395Z"/><path class="ak" d="M347.78664,57.23a1.1468,1.1468,0,0,1,.238.413,4.23827,4.23827,0,0,0,4.732,2.438,5.67758,5.67758,0,0,0,4.418-3.066,5.35928,5.35928,0,0,0,.321-.857l.132-.18.205-.048h.004l.175.117.056.212a5.722,5.722,0,0,1-3.548,4.568,5.994,5.994,0,0,1-1.242.36,4.77393,4.77393,0,0,1-5.907-3.639l.034-.215.171-.132C347.64562,57.211,347.71663,57.221,347.78664,57.23Z"/><path class="u" d="M350.49062,47.584c.61-.036,1.362,4.03,2.2,6.507.101.301-1.942.943-2.14.302C350.19563,53.238,350.55962,48.844,350.49062,47.584Z"/><path class="v" d="M359.10161,46.291a1.47182,1.47182,0,1,1-1.521,1.471A1.49692,1.49692,0,0,1,359.10161,46.291Z"/><path class="al" d="M358.41362,41.357a2.69237,2.69237,0,0,1,2.84,2.238c.026.212-.015.425-.237.458-.351.052-.336-.587-.515-.992-.619-1.404-3.393-1.605-3.949.115a2.53623,2.53623,0,0,0-.075.68c-.022.348-.646.542-.595-.303a2.56855,2.56855,0,0,1,2.47-2.192Z"/><path class="v" d="M345.83263,47.658a1.47185,1.47185,0,1,1-1.522,1.471A1.49754,1.49754,0,0,1,345.83263,47.658Z"/><path class="al" d="M345.46962,42.721a2.5436,2.5436,0,0,1,2.609,2.188c.013.205-.023.425-.246.459-.235.036-.299-.144-.365-.581-.187-1.244-1.981-1.869-3.196-1.209a1.95762,1.95762,0,0,0-.976,1.698.3711.3711,0,0,1-.188.263.29528.29528,0,0,1-.407-.273,2.32372,2.32372,0,0,1,.032-.412,2.66584,2.66584,0,0,1,2.675-2.133Z"/><path class="am" d="M361.72762,45.185a48.46862,48.46862,0,0,0-8.496,1.039c-.23.06-.527.175-.527.175a4.42394,4.42394,0,0,0,3.313,4.225c2.51.734,5.686-.63,6.131-3.282a3.78984,3.78984,0,0,0-.285-2.155A1.18948,1.18948,0,0,0,361.72762,45.185Zm.436-.841c.242.039.261.091.382.329a4.61292,4.61292,0,0,1-.137,4.357c-1.805,3.065-7.12,3.598-9.564.405a4.69876,4.69876,0,0,1-.969-3.233.65664.65664,0,0,1,.072-.218c.331-.552,1.062-.56,1.655-.68a66.85371,66.85371,0,0,1,8.369-.954A.68518.68518,0,0,1,362.16362,44.344Z"/><path class="am" d="M347.20363,46.765c-2.521.017-5.041.272-7.555.534l-.13.013a3.8407,3.8407,0,0,0,1.269,3.78c2.38,2.017,7.019,1.039,7.937-2.321a3.78944,3.78944,0,0,0,.025-1.895A14.856,14.856,0,0,0,347.20363,46.765Zm.183-.814c.147.001.293.002.44.007.119.004.239.009.358.016.084.006.168.012.252.02q.099.0105.198.024c.051.007.101.015.152.024a.85275.85275,0,0,1,.757.549,5.07169,5.07169,0,0,1-2.101,5.298c-2.538,1.789-6.718,1.306-8.288-1.483a4.57074,4.57074,0,0,1-.384-3.544c.09-.298.459-.338.788-.373,2.54-.264,5.087-.521,7.641-.538Z"/><path class="am" d="M351.11162,46.309c.646.009,1.652.195,1.344.816a.44146.44146,0,0,1-.632.149,1.34938,1.34938,0,0,0-1.586.012.99435.99435,0,0,0-.341.382c-.165.372-1,.309-.773-.331C349.38863,46.593,350.42061,46.305,351.11162,46.309Z"/><path class="am" d="M366.84862,43.401a.40708.40708,0,0,1,.076.8c-.228.057-.456.115-.685.172-1.205.306-2.395.666-3.621.91a.53335.53335,0,0,1-.538-.23c-.204-.504.72-.647,1.49-.842.992-.252,1.983-.507,2.978-.757A.75059.75059,0,0,1,366.84862,43.401Z"/><path class="an" d="M358.47261,69.021c-2.723.74-11.804.839-13.593,0-2.521-1.183-1.879,7.559,0,9.57,2.273,2.431,11.335,2.381,13.593,0C360.36763,76.593,361.16963,68.288,358.47261,69.021Z"/><path class="ao" d="M358.47261,69.021a15.978,15.978,0,0,1-2.472.383c.635,6.308-.843,12.903-11.121,9.187,2.273,2.431,11.335,2.381,13.593,0C360.36763,76.593,361.16963,68.288,358.47261,69.021Z"/><path class="ap" d="M336.53761,31.537c.686-1.662,4.141-3.937,6.817-5.053.029-.012,13.691-2.486,17.549-.109a3.51166,3.51166,0,0,1-.032-.902c.037-.37.157-1.039.53-1.257.305-.179.539.217.614.437a4.09728,4.09728,0,0,1,.085,1.77l-.002.015a4.27243,4.27243,0,0,1,2.748-1.25c.396-.012,1.283.018,1.437.499.151.476-.592.808-.939.922-1.051.346-2.186.332-3.262.594l.019.008a9.34188,9.34188,0,0,1,4.692,3.37c2.661,4.599-.009,15.125,0,13.861.018-2.721-4.638-11.952-4.692-11.82-9.537,9.8-18.539,2.993-24.954,10-.133.145-.623-1.171-.901-1.72A8.94,8.94,0,0,1,336.53761,31.537Z"/><path class="b" d="M68.79452,237.37219v-15.2754h-8.541c-1.1208,5.3625-1.21621,15.5472-1.42591,16.5323-.0244.1142-.6836-.9093-1.315,0-1.3664,1.9678-1.8559,7.5662-1.712,8.2467.1774.8382,2.6226.6333,6.73651,1.1441.658.0817.338-1.2188,1.01859-1.1441a26.33386,26.33386,0,0,0,9.113,2.5171c5.1368,0,7.99079.2612,8.60949,0,4.4198-1.8657,1.0417-6.631-1.6883-6.8025a19.30039,19.30039,0,0,1-7.7979-2.2984C70.09173,239.39959,68.79452,239.05979,68.79452,237.37219Z"/><path class="b" d="M39.45432,238.41809l.6275-15.2635-8.5341-.33c-1.3402,5.315-1.8539,15.488-2.104,16.4642-.029.1132-.6457-.935-1.3139-.0508-1.4461,1.9135-2.1653,7.4885-2.0493,8.1741.1428.8444,2.5944.7341,6.684,1.4035.6542.1071.3879-1.2048,1.0647-1.1039a26.28148,26.28148,0,0,0,9.0024,2.8673c5.1326.1985,7.9736.5698,8.6026.3327,4.4928-1.6935,1.3132-6.5855-1.4076-6.8624a19.25991,19.25991,0,0,1-7.6972-2.5979C40.66722,240.49389,39.385,240.10429,39.45432,238.41809Z"/><path class="aa" d="M70.523,135.21029c-.2823-2.011-34.2268-4.006-34.5835,0-1.3246,14.876-7.4794,81.7808-9.3066,102.3004-.1215,2.0384,14.2572,1.8833,14.3492.5746.4734-6.7344,7.59191-72.2258,9.8962-91.307h7.4929c.8386,19.8296-1.0117,78.9441-1.0648,90.4033-.0032.6832,13.17941,1.6111,13.2166.1276C71.23252,208.98989,73.15442,153.9634,70.523,135.21029Z"/><path class="ab" d="M65.82852,146.77829h-7.4573c.8386,19.8299-1.0117,78.9441-1.0648,90.4033-.0032.6832,13.17941,1.6111,13.2166.1276l.0184-.7271c-3.8812.0399-9.1159-.4879-9.11389-.9184.05029-10.8537,1.71289-65.0447,1.1759-86.98939C62.59182,148.20029,68.89782,146.77829,65.82852,146.77829Zm-25.8204-12.499c-2.1538-1.605-3.8315-1.731-4.0686.931-1.3246,14.876-7.4794,81.7808-9.3066,102.3004-.1215,2.0384,14.2572,1.8833,14.3492.5746.012-.1712.0284-.3766.0488-.6147-4.2702.2479-10.3561-.1487-10.2769-1.4778C32.55822,215.73159,38.58162,150.24629,40.00812,134.27929Z"/><path class="ad" d="M54.59622,72.27329c-2.2472-.295-11.9973-8.567-10.0518-9.074a48.27713,48.27713,0,0,1,16.512-1.253C62.51982,62.12529,55.58243,72.28229,54.59622,72.27329Z"/><path class="ae" d="M31.43992,142.16829c.0848,3.608,44.1937,3.703,43.4398-1.353-.8969-6.017-.8835-12.892-1.371-19.978-1.83421-26.664-.83231-51.749-3.408-53.762-.72349-.565-7.1534-5.657-10.8017-5.66-.0031,3.588-1.2123,4.547-5.1151,8.589,0,0-5.7064-3.964-7.6618-7.78-5.5356.767-9.9953,3.892-9.947,4.851C36.92662,74.06529,30.81322,115.53029,31.43992,142.16829Z"/><rect class="aa" x="37.65912" y="80.51769" width="11.5903" height="2.1116"/><path class="af" d="M61.58122,61.44328c-.8209-.018-1.6002-.027-2.2822-.028l-5.1151,8.589s-5.7064-3.964-7.6618-7.78c-.96449.134-1.9851.277-3.0127.429.02211.038,2.8879,3.187,5.6444,6.187,2.5294,2.752,4.9666,5.378,5.0301,5.359C54.85412,73.9903,61.356,62.8803,61.58122,61.44328Z"/><path class="f" d="M70.48422,67.08829c11.413,33.004,8.2875,64.696,5.54921,66.332-1.5098.902-10.05111,1.364-9.35651,1.367,4.1957.019,1.8095-60.576,0-62.512C65.50232,71.01929,70.39192,66.82129,70.48422,67.08829Z"/><path class="g" d="M60.46182,163.87459s-.00439-96.78929,0-101.88829c3.5465.003,9.1543,3.791,9.8576,4.341,2.5038,1.959,1.1048,26.774,2.8879,52.725,1.4507,21.113,2.73651,39.8587,2.8257,42.2467C76.09842,163.0484,70.52072,163.79809,60.46182,163.87459ZM42.205,62.7423c1.80411-.25,1.9095,100.35849,1.73421,101.13229-10.90441-.2965-16.16621-1.3474-15.93261-2.5756.632-3.3237,5.8089-82.8297,5.311-92.74169C33.27072,67.62329,36.82392,63.4883,42.205,62.7423Z"/><path class="i" d="M38.34572,64.34529c-5.9214.099-27.6728,32.288-27.3501,37.149.1845,2.778,1.8668,6.076,4.2739,9.351,4.9289,6.707,12.8969,13.315,17.267,15.154.7941.334,4.7993-8.196,3.9108-8.588-5.0071-2.204-13.1346-10.002-13.709-15.917-.2234-2.3,11.8951-19.016,13.7046-20.952C37.61742,79.28629,38.63632,64.34029,38.34572,64.34529Z"/><path class="h" d="M43.94312,124.44929c-.1818-1.354,1.6651-63.206.85-63.062-1.8162.322-7.6975,3.395-7.7843,3.419-.7501.21-.759,9.421,0,10.156a39.35551,39.35551,0,0,0,4.5871,2.112c-1.1852.948-4.6909,1.819-4.5871,3.671C37.17052,83.6303,39.02982,98.83429,43.94312,124.44929Z"/><path class="h" d="M60.54052,121.89629c.1836-3.089,1.4361-59.463.2125-60.303.74361.12,5.0087,2.255,7.0266,3.164.7079.318,3.1973,7.307,2.6168,8.181-.3869.583-6.67-.018-6.66059,0,.77959,1.494,3.424,4.099,4.04379,5.171C69.89872,81.77429,60.96152,123.77229,60.54052,121.89629Z"/><path class="h" d="M35.62682,81.5203a288.44822,288.44822,0,0,1,.9483,31.777q-.06345,2.049-.1472,4.106a23.313,23.313,0,0,1-5.1391-3.365c.618-10.308,1.1885-20.588,1.572-28.85C33.96912,83.67229,34.94192,82.38429,35.62682,81.5203Zm.7421,37.292q-.01815.4215-.0371.843c4.9212,18.551-2.5771,36.2059-1.5745,38.0643.5705,1.0575,5.1749,2.1932,9.2233,3.34641-.0103,1.7388-.02459,2.7342-.04139,2.80859-10.90441-.2965-16.16621-1.3474-15.93261-2.5756.2784-1.464,1.4386-17.7097,2.6072-36.27769a17.18031,17.18031,0,0,0,1.9227.978C33.14422,126.25529,35.63262,121.31929,36.36892,118.81229Z"/><path class="h" d="M33.68212,115.84329c-.1136.289-.2585.603-.2873.679-.3298.873-.7901,1.837-1.8565,1.945-2.3397.238-5.2929-2.382-6.7994-3.799-3.9654-3.729-7.2118-7.969-10.6278-12.156-.6692-.82-1.9423-2.042-3.0267-1.919a3.51355,3.51355,0,0,0-.0888.901c.5621,8.465,15.0365,21.768,21.5409,24.505.7941.334,4.7993-8.196,3.9108-8.588A17.99617,17.99617,0,0,1,33.68212,115.84329Z"/><path class="j" d="M35.30092,118.3953a33.298,33.298,0,0,1-4.5727,9.469c-.5132.534.1151.863.5142.447,4.5135-2.675,7.4604-13.11,5.4974-16.679C36.727,111.6323,35.844,116.6993,35.30092,118.3953Z"/><path class="o" d="M43.94312,124.86029c-.1818-1.354,2.3026-64.44,1.4875-64.296-1.8162.323-7.6975,3.395-7.7843,3.419-.7501.21-.1061,9.421.6529,10.156a38.20706,38.20706,0,0,0,3.9342,2.112c-1.4129,1.54-4.038,2.436-3.9342,4.288C38.46092,83.42429,40.42132,98.63129,43.94312,124.86029Z"/><path class="o" d="M60.328,121.89629c.1836-3.089,1.0111-60.491-.21249-61.332.74369.12,5.00869,2.256,7.0266,3.164.708.319,2.55979,7.308,1.97929,8.182-.3868.582-6.03249-.018-6.0231,0,.7797,1.493,2.7482,4.593,3.368,5.665C68.58542,81.2403,60.749,123.77229,60.328,121.89629Z"/><path class="aq" d="M50.40632,58.23129a8.60636,8.60636,0,0,0-5.3761,2.764c-2.588,2.823-3.5336,6.708-4.0479,10.399a1.70031,1.70031,0,0,0,.0295.44c.1016.374.2406.425.5194.67l.4281.148.4495-.027a1.53488,1.53488,0,0,0,.69181-.503,2.77508,2.77508,0,0,0,.25709-1.041,18.30711,18.30711,0,0,1,2.7294-7.552,6.84087,6.84087,0,0,1,7.289-2.665,13.38194,13.38194,0,0,1,9.09621,7.987,30.45905,30.45905,0,0,1,1.8624,15.097,8.071,8.071,0,0,1-.3344,1.947c-.00121.003.01379-.032.008-.018l-.0017.004-.09349.431c.06209.356.03389.504.29739.787a1.74423,1.74423,0,0,0,.35691.257l.43919.1.43451-.068a1.50141,1.50141,0,0,0,.6483-.572,8.21642,8.21642,0,0,0,.56079-2.615c.7129-5.77.2511-11.829-2.1783-17.068a15.48973,15.48973,0,0,0-6.30459-7.08,13.37416,13.37416,0,0,0-7.67761-1.831Z"/><path class="ar" d="M41.80312,71.12929c-1.4668.179-2.3991,1.724-2.7898,2.967a24.11676,24.11676,0,0,0-.6154,8.547c.1111,2.031.0264,4.135.7822,6.032a2.41892,2.41892,0,0,0,2.4458,1.638l.3867-.202.1275-.408-.2077-.371-.4183-.125c-.8722.08-1.299-.945-1.4307-1.608a32.10359,32.10359,0,0,1-.4267-4.319c-.1949-3.24-.5453-6.631.8875-9.626.0449-.094.0929-.186.1446-.277q.05145-.09.1081-.177a1.74058,1.74058,0,0,1,1.8284-.795c1.7549.349,2.6645,2.406,3.2414,4.122a40.33089,40.33089,0,0,1,1.6388,9.878,2.2379,2.2379,0,0,1,.00091.416,2.13,2.13,0,0,1-2.06651,1.987l-.40649.162-.1712.392.166.391.4023.167a3.31622,3.31622,0,0,0,3.2628-3.541c-.2505-4.207-.5379-8.532-2.4367-12.209a4.98269,4.98269,0,0,0-3.9383-3.055A3.287,3.287,0,0,0,41.80312,71.12929Z"/><path class="aq" d="M41.79032,70.71329c-1.8.206-2.8879,2.136-3.2931,3.784q-.10755.438-.1823.881a21.12871,21.12871,0,0,0-.2599,2.586l.245.671s.6194.312.6505.314l.6822-.231.3317-.634c.1469-1.681.2571-3.497,1.2974-4.827a1.562,1.562,0,0,1,2.1306-.072c1.354.957,1.9439,2.701,2.4467,4.37l.0229.077.45311.558.71889.096.57081-.428.1063-.702c-.72931-2.894-1.9146-6.251-5.35021-6.453A2.86171,2.86171,0,0,0,41.79032,70.71329Z"/><path class="as" d="M44.17222,88.1883a.68342.68342,0,0,1,1.36681-.008l.01619,2.421a.68336.68336,0,0,1-1.3667.008Z"/><path class="as" d="M40.814,88.69429a.66955.66955,0,0,1,.4845-.825.69574.69574,0,0,1,.8383.492l.6307,2.349a.6695.6695,0,0,1-.4845.825.69575.69575,0,0,1-.8383-.492Z"/><path class="as" d="M64.02952,84.9303a3.41036,3.41036,0,0,0-3.1047,3.717,3.46683,3.46683,0,0,0,3.8401,3.005,3.41038,3.41038,0,0,0,3.1047-3.717A3.4668,3.4668,0,0,0,64.02952,84.9303Z"/><path class="at" d="M64.16412,86.21929a2.10988,2.10988,0,0,0-1.92,2.299,2.1451,2.1451,0,0,0,2.3748,1.859,2.10994,2.10994,0,0,0,1.92011-2.299A2.14456,2.14456,0,0,0,64.16412,86.21929Z"/><path class="au" d="M41.10972,21.0913l27.7414,7.951a1.13837,1.13837,0,0,1,.1239-.24l-.1239.24c-.6071,1.594,1.5257,5.351,2.0122,6.558,2.2455,5.57,5.497,10.971,5.4541,17.11-.01439,2.064-2.6521,7.964-5.4541,7.479-.2802-.048.7642-2.759.91591-3.547.32119-1.67-.73471,4.068-9.60371,4.111-.5543-.589,1.5075-2.134,1.475-2.579-.00121-.016-11.58041,3.377-11.58041,3.377-1.785-.41-3.26109-.535-5.0332-.995a47.484,47.484,0,0,1-4.5775-2.382c-.0942-.116.9041,2.202,0,2.382-3.8686.769-5.1514-4.138-5.3054-3.914-.4231.614.6867,3.304-.0709,3.547-3.8082,1.222-2.4103-9.18-2.3682-9.936.4112-7.38-.5719-17.695,2.1642-24.607C37.94152,22.9623,40.47182,22.37029,41.10972,21.0913Z"/><path class="ad" d="M48.36212,52.12729l8.1849-.629,1.009,10.201c.5447,3.025-7.6223,4.685-8.18489,1.186Z"/><path class="aj" d="M48.36212,52.12729l8.1849-.629.70141,8.534c.54469,3.024-7.62231,4.128-8.18491.629Z"/><path class="t" d="M38.03882,45.15529c.13,3.762,5.42041,13.883,14.2818,14.063,11.318.23,13.0521-9.99,13.3063-11.53,1.2781-7.745,1.94381-17.446,1.2116-21.849-.2222-1.335-4.42679-4.547-7.52569-5.435a32.60928,32.60928,0,0,0-13.85891,0c-3.099.888-7.286,4.448-7.4151,6.045-.1772,2.192.0534,8.888,0,11.644-1.5809-1.277-2.7477-1.682-3.9175,0C31.26562,42.1993,37.27642,48.39029,38.03882,45.15529Z"/><path class="ak" d="M50.14522,50.7533l.17511.023.08539-.065Zm.1554-.331s.274.687.46371,1.195c.4463,1.194,1.18029,2.493,2.72959,2.611,1.503.115,2.4319-1.795,2.328-3.576l.16721-.236.2136.165c.33839,1.845-.1908,4.266-2.33471,4.457-1.9632.175-3.4616-1.896-3.7773-4.207l-.0147-.11c-.0325-.245.0602.026.0602.026l-.0251-.274C50.19052,50.4043,50.12452,50.39029,50.30062,50.42229Z"/><path class="u" d="M53.89493,39.55629c-.62931.042-.84481,4.296-1.36421,6.937-.063.32,2.115.717,2.2295.036C54.96642,45.30229,53.99622,40.85529,53.89493,39.55629Z"/><ellipse class="av" cx="47.03692" cy="39.61029" rx="1.569" ry="1.517"/><path class="aw" d="M46.78253,33.00229a2.76351,2.76351,0,0,0-2.78621,2.468c-.01329.22.0419.436.27221.457.36479.034.30959-.623.46879-1.051.5515-1.481,3.3953-1.848,4.073-.109a2.59631,2.59631,0,0,1,.1188.695c.04411.358.69941.522.5946-.346a2.66274,2.66274,0,0,0-2.6775-2.114Z"/><ellipse class="av" cx="59.65692" cy="41.07329" rx="1.569" ry="1.517"/><path class="aw" d="M60.03142,34.46529a2.62227,2.62227,0,0,0-2.6905,2.256c-.0135.212.0234.439.2534.474.2426.038.3086-.148.3764-.599.1927-1.283,2.04271-1.928,3.2958-1.247a2.02028,2.02028,0,0,1,1.0067,1.751.37956.37956,0,0,0,.194.271.30416.30416,0,0,0,.4197-.281,2.432,2.432,0,0,0-.03381-.425,2.74964,2.74964,0,0,0-2.758-2.2Z"/><path class="o" d="M36.70312,43.80329a1.23466,1.23466,0,1,1-1.275,1.234A1.25561,1.25561,0,0,1,36.70312,43.80329Z"/><path class="ax" d="M43.73312,26.85629q-.5475-.4965-1.0975-1.061c-.0556-.136-4.8567,9.383-4.8382,12.19.0086,1.304-2.7443-9.551,0-14.294.897-1.551,5.1291-4.428,5.9357-5.013-.4667-2.4,3.64311-4.42,4.7553-1.826.34441.804-.1704.895-.7272,1.063a15.05288,15.05288,0,0,0-2.2083.763c6.2074-.634,16.392.778,16.4158.788l.041.017a10.60193,10.60193,0,0,0,1.8302-.856c.3388-.202,1.1213-.967,1.59181-.768.67669.287.22,2.14.04879,2.576a2.42793,2.42793,0,0,1-.3871.655c1.8317,1.135,3.4527,2.49,3.90551,3.586a9.21956,9.21956,0,0,1,.29979,9.658c-.2861.567-.7921,1.924-.9292,1.774-3.0064-3.284-6.564-3.626-10.4741-3.97.2741.087,1.3489.413,1.0757.588a6.767,6.767,0,0,1-2.42139.605c-4.236.747-8.2504-1.579-11.15191-4.435A12.78025,12.78025,0,0,1,43.73312,26.85629Z"/><path class="x" d="M147.40129,235.02957l-1.263-16.0038-8.937.6608c-.73,5.705.012,16.3827-.126,17.4309-.016.1216-.79-.8997-1.376.1018-1.267,2.1673-1.317,8.0706-1.11,8.7724.255.8645,2.797.4606,7.144.6775.696.0347.253-1.3032.972-1.2775a27.69907,27.69907,0,0,0,9.744,1.9321c5.375-.3975,8.384-.3446,9.009-.6661,4.471-2.2967.542-7.0279-2.329-6.9963a20.3114,20.3114,0,0,1-8.35-1.8047C148.92629,237.05327,147.54129,236.79757,147.40129,235.02957Z"/><path class="z" d="M136.90029,224.315c-.13,5.5417.281,11.9993.175,12.8025-.016.1216-.79-.8997-1.376.1018a6.51019,6.51019,0,0,0-.616,1.654c.205,2.5756,17.014.5664,15.696-1.0166-1.853-.8034-3.238-1.0591-3.378-2.8271l-.901-11.4243Z"/><path class="x" d="M105.15729,238.11807l-.1719-16.0497,8.9629-.09c1.237,5.6226,1.452,16.3224,1.683,17.3552.027.1198.707-.9626,1.38-.0139,1.456,2.0532,2.033,7.9301,1.889,8.6466-.176.8826-2.745.693-7.056,1.2731-.69.0928-.369-1.277-1.082-1.1914a27.59949,27.59949,0,0,1-9.5353,2.7407c-5.3907.0542-8.3829.3587-9.0352.0908-4.6592-1.9138-1.1678-6.9562,1.6953-7.1651a20.22744,20.22744,0,0,0,8.1575-2.497C103.81879,240.26177,105.17629,239.89107,105.15729,238.11807Z"/><path class="z" d="M105.04989,228.09167l.1074,10.0264c.019,1.773-1.3385,2.1437-3.1127,3.0993-1.255.6758,16.1307,1.0369,15.9647.4524a8.06857,8.06857,0,0,0-.998-2.3501c-.673-.9487-1.353.1337-1.38.0139-.169-.7529-.328-6.6434-.882-11.959Z"/><path class="ay" d="M140.76429,127.863c-.461-2.086-36.1472-1.549-36.1893,2.676-.1564,15.687-1.0662,86.2583-1.2819,107.8977.0413,2.145,15.0752.87,15.0632-.5082-.061-7.0922,1.974-76.2572,2.808-96.4265l7.841-.58c2.516,20.71061,5.467,82.787,6.359,94.79671.053.716,13.924.6683,13.841-.8889C147.6063,205.10527,145.06829,147.306,140.76429,127.863Z"/><path class="az" d="M136.80829,140.345l-7.803.577c2.516,20.7109,5.467,82.787,6.359,94.79671.053.716,13.924.6683,13.841-.8889l-.041-.7632c-4.058.3421-9.58.1942-9.613-.257-.845-11.3751-3.585-68.2787-5.961-91.2286C133.53929,142.086,140.0203,140.108,136.80829,140.345Zm-28.0527-11.097c-2.3866-1.515-4.1526-1.517-4.1806,1.291-.1564,15.687-1.0662,86.2583-1.2819,107.8977.0413,2.145,15.0752.87,15.0632-.5082-.002-.1803-.002-.3967,0-.6478-4.448.5901-10.8492.6455-10.8762-.7532C107.69319,215.16067,108.58279,146.087,108.75559,129.248Z"/><path class="ac" d="M145.49729,114.411c-.447.376-7.016-6.182-5.907-3.512,1.359-1.568,5.907-18.64,5.907-18.64-1.044-2.589-.592-14.059-6.641-21.105-5.321-6.198,3.621-17.657,3.621-17.657,3.048,4.004,11.589,31.265,11.256,38.762C153.3843,100.138,145.49729,114.411,145.49729,114.411Z"/><path class="az" d="M141.80629,51.128c3.052.327,12.186,17.108,16.561,28.298,1.507,2.637-14.286,8.062-15.358,3.746-2.134-8.589-2.636-20.167-3.937-21.558C137.80429,60.257,141.49529,51.094,141.80629,51.128Z"/><path class="ad" d="M126.27429,61.087c-2.358-.309-12.591-9.001-10.549-9.534a50.62455,50.62455,0,0,1,17.329-1.317C134.59029,50.424,127.30929,61.097,126.27429,61.087Z"/><path class="ba" d="M99.07309,134.097c.089,3.79,49.2802,4.323,48.4892-.991-.942-6.321-.928-13.545-1.439-20.99-1.925-28.017-.874-59.472-3.577-61.587-.759-.594-7.507-.847-11.336-.85-.003,3.77-1.272,4.778-5.368,9.024,0,0-5.989-4.165-8.041-8.174-5.81.805-13.5594,1.959-13.5087,2.968C104.66149,60.841,98.41539,106.107,99.07309,134.097Z"/><rect class="az" x="108.49929" y="69.75026" width="12.1639" height="2.2187"/><path class="bb" d="M133.60529,49.708c-.862-.019-1.679-.028-2.395-.029l-5.368,9.024s-5.989-4.165-8.041-8.174c-1.013.14-2.084.291-3.162.45.044.076,11.063,12.175,11.203,12.132C126.54529,62.891,133.36929,51.217,133.60529,49.708Z"/><path class="bb" d="M103.73279,63.111c-1.463,16.614-5.1743,49.087-4.6597,70.986.0644,2.743,25.8402,3.78,39.78321,2.13-.363-.021-.672-.029-.793-.051-2.614-.491-5.144-1.324-7.788-1.687-8.175-1.122-16.698-3.453-19.985-11.698a51.96259,51.96259,0,0,1-2.502-26.578c.0479-.277,1.871-1.424,2.502-2.865C111.54029,90.493,108.73109,63.523,103.73279,63.111Z"/><path class="ag" d="M105.08979,110.977c1.7555-1.881,6.3445-.839,5.6445-2.656-1.22-3.163-8.096.1-9.2053,2.77-1.3586-1.568-10.1195-21.431-10.1195-21.431,1.0436-2.589,5.5094-5.98,11.5592-13.027,5.3208-6.197,0-19.737,0-19.737-3.0474,4.005-20.1285,25.267-19.7959,32.764.3495,7.879,12.4497,24.943,12.4497,24.943.4464.376,2.5491,2.977,3.0193,3.325,2.1073,1.56,3.8254,1.592,4.3269,1.437,2.4511-.757,6.8766,2.825,7.7656,1.408.923-1.472-5.293-3.83-5.1647-3.923,1.8253-1.322,5.3427.958,6.1657-.315,1.492-2.307-3.1912-3.009-5.4862-3.354.0824-.015,5.6782.603,5.4862-1.422C111.47029,108.959,105.94839,110.057,105.08979,110.977Z"/><path class="ac" d="M83.17279,89.66c-.3509-3.01,7.5685-4.164,8.2367,0,1.0436-2.589,5.5094-5.98,11.5592-13.027,5.3208-6.197,0-19.737,0-19.737C99.92129,60.901,82.84019,82.163,83.17279,89.66Z"/><path class="ay" d="M104.35779,53.497c-2.491.267-12.6283,12.827-19.4708,26.682-.8432,1.707,14.6514,10.227,15.7851,8.367,3.9892-6.542,7.6908-14.891,7.8232-16.529C108.64269,70.194,104.66959,53.463,104.35779,53.497Z"/><path class="ad" d="M119.73229,39.92l8.59-.661,1.059,10.718c.571,3.178-8,4.922-8.59,1.246Z"/><path class="aj" d="M119.73229,39.92l8.59-.661.736,8.966c.571,3.178-8,4.337-8.59.661Z"/><path class="t" d="M108.60469,31.126c.1364,3.953,1.8036,15.262,8.0746,15.785,3.779.316,13.696,1.044,17.333,0,3.252-.933,6.467-26.448,5.11-34.613-.233-1.404-4.645-4.778-7.898-5.711a34.16529,34.16529,0,0,0-14.545,0c-3.252.933-7.646,4.674-7.782,6.352-.1855,2.303-.3066,5.062-.3626,7.958-1.6592-1.341-3.6532-2.173-5.226-.685-4.6644,4.415,1.0791,11.494,3.3996,11.494A3.36144,3.36144,0,0,0,108.60469,31.126Z"/><path class="ak" d="M116.39429,34.392l-.184.106-.067.207c.227,3.671,4.116,6.477,6.76,7.138a9.63874,9.63874,0,0,0,8.17-1.576l.046-.036.109-.189-.052-.206-.187-.104-.217.047c-.044.028-.087.057-.131.084a9.23225,9.23225,0,0,1-7.812.751c-2.794-.939-5.332-2.83-6.035-5.639-.034-.135-.074-.338-.074-.338l-.117-.186A1.61568,1.61568,0,0,0,116.39429,34.392Z"/><path class="u" d="M126.50629,21.921c1.03.086,3.457,7.657,2.099,11.603-.177.514-3.48,1.139-3.654,0C124.63729,31.474,126.31429,24.083,126.50629,21.921Z"/><path class="v" d="M120.06629,25.489a1.59482,1.59482,0,1,0,1.646,1.594A1.62175,1.62175,0,0,0,120.06629,25.489Z"/><path class="bc" d="M119.79929,20.139a2.90289,2.90289,0,0,0-2.924,2.593c-.014.232.044.459.285.481.383.035.325-.655.492-1.104.579-1.556,3.564-1.942,4.275-.115a2.72109,2.72109,0,0,1,.125.731c.046.375.734.548.624-.364a2.7973,2.7973,0,0,0-2.81-2.222Z"/><path class="v" d="M133.53329,24.701a1.59486,1.59486,0,1,0,1.647,1.594A1.62217,1.62217,0,0,0,133.53329,24.701Z"/><path class="bc" d="M133.92629,19.352a2.75285,2.75285,0,0,0-2.823,2.371c-.014.222.024.46.266.498.254.039.324-.157.395-.631.202-1.347,2.143-2.025,3.459-1.309a2.12087,2.12087,0,0,1,1.056,1.839.40037.40037,0,0,0,.204.285.319.319,0,0,0,.44-.295,2.54276,2.54276,0,0,0-.035-.446,2.88674,2.88674,0,0,0-2.895-2.312Z"/><path class="bd" d="M145.66429,13.151c.845-4.64-6.448-7.777-7.847-8.906,1.124-1.111,1.208-4.94-.894-3.597-.262.167-.444,2.175-2.911,1.859-.034-.004-14.818-2.694-18.993-.118a3.82586,3.82586,0,0,0,.034-.977c-.039-.401-.169-1.126-.573-1.363-.331-.194-.584.235-.665.474a4.44835,4.44835,0,0,0-.092,1.918l.002.016a4.6207,4.6207,0,0,0-2.974-1.354c-.428-.013-1.389.019-1.555.54-.164.516.64.876,1.017,1,1.136.374,2.365.359,3.529.643a.0786.0786,0,0,1-.02.009c-.414,0-3.845,1.518-5.0779,3.651-2.8801,4.984-1.9193,17.607,2.2959,22.117,1.812,1.939,1.32-.956,1.311-2.326-.02-2.949.101-5.894.04-8.843-.02-.952-.083-1.903-.122-2.854-.003-.094-.33-1.704-.272-1.562,6.662,5.904,8.069,5.688,7.166-.327.048-.086,22.861,4.534,23.766,2.323.444-1.083-1.886-2.207-2.21-2.323C140.98929,12.943,145.51828,13.957,145.66429,13.151Z"/><path class="be" d="M201.064,157.5926c.697-5.7706-11.017-7.9616-11.725,0-1.259,14.1545-3.537,64.4685-5.273,83.9934-.04.667-7.535,5.6634-5.916,6.0297,3.087.6989,16.486-3.6838,16.404-4.499C193.746,235.0798,198.923,175.33261,201.064,157.5926Z"/><path class="bf" d="M201.064,157.5926c.697-5.7706-11.017-7.9616-11.725,0-.309,3.4706-.551,7.80351-.849,13.5164-.222,4.2472-.475,9.2571-.812,15.2427-.721,4.059,10.347,4.9005,10.519.494.585-6.71561,1.09-12.25331,1.548-16.94711C200.222,165.0058,200.649,161.03,201.064,157.5926Z"/><path class="be" d="M213.724,156.2808c-.804-5.7398-11.545-12.8738-10.299-4.8358,1.695,10.9308.699,76.4008.642,88.6732.192.7969-2.924,4.5034,0,5.513,4.214,1.4548,15.054.1137,16.613,0,1.678-.1223-7.035-3.5245-6.956-4.5873C214.398,214.0973,216.225,174.1245,213.724,156.2808Z"/><path class="bf" d="M214.992,178.4003c-.058-9.09289-10.674-13.1905-10.604-.2313.016,3.0221.023,6.22331.021,9.5747.721,2.53761,10.946,1.3434,10.564-.5894C215.001,184.0138,215.009,181.1089,214.992,178.4003Z"/><path class="b" d="M216.285,242.218c-.771-.4054-5.092,2.5937-7.828,2.187-2.993-.4451-4.389-4.2591-4.493-3.7693-.023.1087-.65-.8652-1.25,0-1.298,1.8724-1.764,7.1994-1.627,7.847.169.7976,2.493.6026,6.402,1.0886.626.0778.322-1.1597.968-1.0886a25.01051,25.01051,0,0,0,8.662,2.3951c4.882,0,7.594.2485,8.182,0,4.201-1.7753.99-6.3096-1.605-6.4728A18.33407,18.33407,0,0,1,216.285,242.218Z"/><path class="b" d="M181.979,242.218c.771-.4054,5.092,2.5937,7.828,2.187,2.993-.4451,4.389-4.2591,4.493-3.7693.023.1087.65-.8652,1.25,0,1.299,1.8724,1.764,7.1994,1.627,7.847-.169.7976-2.493.6026-6.402,1.0886-.626.0778-.322-1.1597-.968-1.0886a25.01156,25.01156,0,0,1-8.661,2.3951c-4.882,0-7.595.2485-8.183,0-4.201-1.7753-.99-6.3096,1.605-6.4728A18.334,18.334,0,0,0,181.979,242.218Z"/><path class="bg" d="M218.395,132.262l-34.391,2.436-3.098,48.7166a122.71566,122.71566,0,0,0,41.393,0Z"/><path class="bh" d="M206.564,109.514c-5.841-1.304-21.117-32.567-17.128-33.221,4.102-.674,9.62-1.247,14.782-1.568,4.244-.264,7.743,1.064,11.41,1.568C217.475,76.546,209.266,110.116,206.564,109.514Z"/><path class="bi" d="M207.783,106.518c-5.841-.83-21.117-20.733-17.129-21.15a234.03222,234.03222,0,0,1,25.805-1.124C218.321,84.312,210.485,106.902,207.783,106.518Z"/><path class="bj" d="M218.205,75.761c4.686.502,17.164,32.421,16.849,37.174-.617,9.287-12.206,30.957-16.849,30.877-1.734-.03-4.82-8.3-4.141-8.297,4.102.018,8.848-15.771,9.509-22.58.219-2.249-6.074-25.786-7.844-27.678C214.581,84.028,217.923,75.73,218.205,75.761Z"/><path class="g" d="M205.73,174.8179c10.167-.0402,19.213-.7658,19.147-2.5228-.087-2.3348-1.344-20.66309-2.763-41.3051-1.743-25.372-.791-53.857-3.239-55.772-.687-.538-3.255-.767-6.722-.769-.005,5.75-4.057,21.077-6.75,35.072,0,0-.643-1.991-1.655-5.004-3.167-9.428-9.946-28.858-11.945-28.581-5.261.729-8.735,1.555-8.689,2.468.487,9.691-4.575,90.6415-5.192,93.8911-.229,1.20081,13.443,2.2329,24.105,2.5228.979-4.3265,1.462-12.3671,1.721-10.937C204.579,168.4696,205.535,173.9787,205.73,174.8179Z"/><path class="h" d="M184.412,77.43a1.25491,1.25491,0,0,1,1.111.649c1.472,2.207,1.353,5.625,1.513,8.14.367,5.779.315,11.513.315,17.3,0,20.266-1.156,40.534-.699,60.81209a10.03207,10.03207,0,0,0,.619,3.9127c.647,1.3823,2.477,2.2591,3.845,2.8057,3.208,1.2825,8.023,1.216,11.172,2.4737-.083.4567-.17.8918-.261,1.2947-10.662-.2899-24.334-1.322-24.105-2.5228.617-3.2496,5.679-84.2001,5.192-93.8911C183.097,78.067,183.559,77.743,184.412,77.43Z"/><path class="h" d="M207.993,174.79711a71.99046,71.99046,0,0,0-4.439-12.0139c-.228-.40031,1.981,11.19549,2.176,12.03469Q206.873,174.81342,207.993,174.79711Z"/><path class="h" d="M205.168,111.287a26.32008,26.32008,0,0,0,0-3.12c-4.047-11.113-13.25-32.613-14.003-32.323-.685.264-4.702,1.054-4.787,1.077-.733.206,3.022,8.605,3.764,9.324.495.478,3.739.035,3.734.054-.425,1.584-3.754,6.178-3.734,6.204C191.902,94.756,200.635,105.517,205.168,111.287Z"/><path class="h" d="M180.852,129.121c11.212,1.752,25.877,4.388,26.402,4.805,1.167.926.311,23.6214-1.851,23.5369-1.376.2492-15.161-.812-26.159-2.5616C179.736,147.482,180.304,138.41,180.852,129.121Z"/><path class="bk" d="M205.186,132.705c-.701-.814-38.616-6.062-39.24-5.254-.193.251-1.66,21.928-.941,22.902.619.839,37.364,5.7961,38.248,5.7598C204.541,156.0599,205.952,133.595,205.186,132.705Z"/><path class="bl" d="M204.194,133.185c-.7-.814-38.615-6.062-39.239-5.254-.194.251-1.66,21.928-.941,22.901.619.839,38.472,5.6817,39.239,5.2541C203.983,155.6794,204.961,134.074,204.194,133.185Z"/><path class="bm" d="M199.334,130.912c-.484-.679-28.784-2.277-29.299-1.493-.159.244-2.449,20.008-1.961,20.83.421.709,28.697,1.944,29.299,1.493C197.945,151.313,199.863,131.654,199.334,130.912Z"/><polygon class="bn" points="196.944 132.326 196.937 132.412 196.606 136.563 196.401 139.092 196.203 141.497 195.978 144.129 195.728 147.004 195.441 150.268 195.199 150.485 194.997 150.231 195.257 146.964 195.489 144.088 195.705 141.455 195.909 139.051 196.128 136.523 196.492 132.374 196.5 132.289 196.74 132.085 196.944 132.326"/><polygon class="bn" points="193.905 131.812 193.898 131.897 193.567 136.048 193.362 138.578 193.164 140.983 192.939 143.615 192.689 146.489 192.402 149.753 192.16 149.97 191.958 149.716 192.218 146.45 192.45 143.573 192.666 140.941 192.87 138.537 193.089 136.008 193.453 131.86 193.461 131.774 193.701 131.571 193.905 131.812"/><polygon class="bn" points="190.803 131.742 190.796 131.827 190.465 135.978 190.261 138.508 190.062 140.913 189.838 143.545 189.587 146.419 189.301 149.683 189.059 149.9 188.856 149.646 189.116 146.38 189.348 143.504 189.564 140.871 189.768 138.467 189.987 135.938 190.351 131.79 190.359 131.704 190.6 131.501 190.803 131.742"/><polygon class="bn" points="187.723 131.521 187.716 131.607 187.385 135.758 187.18 138.287 186.982 140.692 186.757 143.324 186.507 146.199 186.22 149.463 185.978 149.68 185.776 149.426 186.036 146.159 186.267 143.283 186.484 140.65 186.688 138.246 186.907 135.718 187.271 131.569 187.278 131.484 187.519 131.28 187.723 131.521"/><polygon class="bn" points="184.607 131.547 184.601 131.632 184.27 135.783 184.065 138.313 183.867 140.718 183.642 143.35 183.392 146.224 183.105 149.488 182.863 149.705 182.66 149.451 182.92 146.185 183.152 143.308 183.368 140.676 183.573 138.272 183.792 135.743 184.156 131.595 184.163 131.509 184.404 131.306 184.607 131.547"/><polygon class="bn" points="174.469 131.14 174.46 131.203 174.047 134.248 173.792 136.104 173.546 137.868 173.27 139.797 172.963 141.905 172.612 144.297 172.358 144.5 172.17 144.235 172.495 141.839 172.783 139.729 173.051 137.798 173.303 136.035 173.572 134.181 174.018 131.141 174.027 131.078 174.279 130.888 174.469 131.14"/><path class="bo" d="M177.262,129.291c2.916.093,6.769.276,10.064.47-.462,6.455-1.286,12.222-1.592,16.016-.023.284-.799.446-1.88.518a7.14838,7.14838,0,0,0,.165,1.542,6.0326,6.0326,0,0,1,2.576,2.716,3.27743,3.27743,0,0,0,.731,1.078c-3.212-.123-6.752-.291-9.911-.476.228-1.392.523-3.212.814-5.062a3.13846,3.13846,0,0,1-1.213-.316C176.42,145.232,176.595,138.41,177.262,129.291Z"/><path class="bp" d="M177.196,154.8985c-2.051.5464-1.623-1.5245-1.569-1.8455.415-2.476,2.502-15.193,2.304-15.587l-.012-.01c.004,0,.008.003.012.01l5.575,4.403a8.65474,8.65474,0,0,0-.929,5.769,6.03264,6.03264,0,0,1,2.576,2.716c.83,2.138,4.778,3.128,3.441,3.941-1.944,1.1828-3.059-.704-3.853-1.242-.497.918-.375,2.5565-1.546,2.854-.939.2385-1.2-.2198-1.405-.2052a1.95841,1.95841,0,0,1-1.359.4046c-.52-.0439-.539-.4696-.806-.511a1.96821,1.96821,0,0,1-1.283.1064C177.811,155.5494,177.376,154.9812,177.196,154.8985Z"/><path class="i" d="M184.292,77.906c-4.685.502-10.616,65.935-8.718,67.672.616.563,8.644.921,8.718,0,1.126-13.929,3.779-54.703,4.454-56.864C189.241,87.128,184.575,77.876,184.292,77.906Z"/><path class="k" d="M215.808,93.742h.968a.484.484,0,0,1,.484.484v9.339a.484.484,0,0,1-.484.484h-.968a.484.484,0,0,1-.484-.484V94.226A.484.484,0,0,1,215.808,93.742Z"/><path class="h" d="M217.647,97.605c0-1.151-6.868-1.151-6.868,0v6.51a2.12321,2.12321,0,0,0,2.156,2.087h2.557a2.123,2.123,0,0,0,2.155-2.087Z"/><path class="m" d="M217.26,94.032a.2905.2905,0,0,0-.581,0v5.323a.2905.2905,0,0,0,.581,0Z"/><path class="o" d="M204.939,110.162a11.85566,11.85566,0,0,0,1.197-2.932c-4.046-11.113-9.184-33.071-9.937-32.781-.685.263-8.768,2.074-8.853,2.098-.733.205,3.022,8.042,3.764,8.761.495.478,3.739.035,3.734.054-.425,1.584-3.754,6.177-3.734,6.204C192.87,93.819,200.406,104.392,204.939,110.162Z"/><path class="o" d="M203.013,114.705c2.391.423,5.626-38.96,5.914-40.634.727.117,3.414.049,6.597.378.759.078,3.163,9.596,2.595,10.451-.378.569-6.936-.018-6.927,0,.762,1.46,1.55,2.68,2.156,3.728C215.42,92.212,203.425,116.539,203.013,114.705Z"/><path class="p" d="M205.403,112.392a2.3142,2.3142,0,1,0,2.389,2.313A2.354,2.354,0,0,0,205.403,112.392Z"/><path class="p" d="M205.403,122.191a2.31469,2.31469,0,1,0,2.389,2.313A2.354,2.354,0,0,0,205.403,122.191Z"/><path class="aq" d="M204.992,71.101a8.61,8.61,0,0,1,5.376,2.764c2.588,2.823,3.534,6.708,4.048,10.399a1.72205,1.72205,0,0,1-.029.441c-.102.374-.241.425-.52.669l-.428.148-.449-.027a1.53178,1.53178,0,0,1-.692-.503,2.78445,2.78445,0,0,1-.257-1.041,18.30643,18.30643,0,0,0-2.73-7.552,6.8417,6.8417,0,0,0-7.289-2.665,13.382,13.382,0,0,0-9.096,7.987,30.45393,30.45393,0,0,0-1.862,15.097,8.04575,8.04575,0,0,0,.334,1.947c.001.003-.014-.032-.008-.018l.002.004.093.431c-.062.356-.034.504-.297.787a1.75259,1.75259,0,0,1-.357.257l-.439.1-.435-.068a1.50475,1.50475,0,0,1-.648-.572,8.23853,8.23853,0,0,1-.561-2.615c-.713-5.77-.251-11.829,2.179-17.068a15.49,15.49,0,0,1,6.304-7.08,13.37631,13.37631,0,0,1,7.678-1.831Z"/><path class="ar" d="M213.595,83.999c1.467.179,2.399,1.725,2.79,2.967a24.126,24.126,0,0,1,.616,8.547c-.112,2.031-.027,4.135-.783,6.032a2.42073,2.42073,0,0,1-2.445,1.639l-.387-.203-.128-.408.208-.371.418-.125c.873.08,1.299-.945,1.431-1.608a32.17037,32.17037,0,0,0,.427-4.318c.195-3.241.545-6.631-.888-9.627-.045-.094-.093-.186-.144-.277q-.0525-.09-.108-.177a1.7416,1.7416,0,0,0-1.829-.795c-1.755.349-2.664,2.406-3.241,4.122a40.31751,40.31751,0,0,0-1.639,9.878,2.27335,2.27335,0,0,0-.001.416,2.13018,2.13018,0,0,0,2.067,1.987l.406.162.171.393-.166.39-.402.167a3.31613,3.31613,0,0,1-3.263-3.541c.251-4.207.538-8.532,2.437-12.209a4.98184,4.98184,0,0,1,3.938-3.055A3.28763,3.28763,0,0,1,213.595,83.999Z"/><path class="aq" d="M213.608,83.583c1.8.206,2.888,2.136,3.293,3.784.072.292.132.586.183.881a21.14929,21.14929,0,0,1,.259,2.586l-.245.672s-.619.311-.65.313l-.682-.231-.332-.634c-.147-1.681-.257-3.497-1.297-4.827a1.56251,1.56251,0,0,0-2.131-.072c-1.354.957-1.944,2.701-2.447,4.37l-.023.077-.453.558-.719.096-.57-.428-.107-.702c.73-2.894,1.915-6.251,5.351-6.453A2.856,2.856,0,0,1,213.608,83.583Z"/><path class="as" d="M211.226,101.058a.68351.68351,0,0,0-1.367-.008l-.016,2.421a.68351.68351,0,1,0,1.367.009Z"/><path class="as" d="M214.584,101.564a.669.669,0,0,0-.484-.825.69508.69508,0,0,0-.838.492l-.631,2.349a.669.669,0,0,0,.484.825.69666.69666,0,0,0,.839-.492Z"/><path class="as" d="M191.369,97.8a3.41089,3.41089,0,0,1,3.105,3.717,3.467,3.467,0,0,1-3.84,3.005,3.41019,3.41019,0,0,1-3.105-3.717A3.467,3.467,0,0,1,191.369,97.8Z"/><path class="at" d="M191.234,99.089a2.109,2.109,0,0,1,1.92,2.299,2.14413,2.14413,0,0,1-2.374,1.859,2.109,2.109,0,0,1-1.92-2.299A2.14415,2.14415,0,0,1,191.234,99.089Z"/><path class="bq" d="M209.893,40.571s-.879-14.431-5.412-17.884a14.28138,14.28138,0,0,0-13.515-2.088c-10.482,3.875-17.423,19.836-13.209,29.888,2.311,5.513,9.708,7.299,14.873,4.72C198.55,52.251,209.171,46.893,209.893,40.571Z"/><path class="bh" d="M198.989,65.611l7.779-.599.959,11.681c.518,2.877-7.244,3.927-7.779.598Z"/><path class="br" d="M198.989,65.611l7.779-.599.589,7.174c.518,2.878-7.244,3.928-7.779.598Z"/><path class="bh" d="M188.138,57.647c.198,10.15,7.949,15.422,15.546,15.003,13.279-.733,14.484-9.672,14.402-11.965a180.38022,180.38022,0,0,0-2.311-20.088c-.211-1.271-4.207-4.327-7.153-5.172-3.293-.945-20.096,4.233-20.218,5.752-.169,2.086-.278,4.585-.329,7.207-1.503-1.214-3.309-1.968-4.733-.62-4.224,3.998.977,10.409,3.079,10.409A3.03941,3.03941,0,0,0,188.138,57.647Z"/><path class="bs" d="M201.343,64.233c.092.426,8.671.238,8.545-.432a4.28936,4.28936,0,0,1-8.545.432Z"/><path class="bt" d="M209.09,66.322a4.38062,4.38062,0,0,1-3.261,1.666,4.15482,4.15482,0,0,1-4.486-3.755c.041.187,1.719.256,3.578.217A14.38865,14.38865,0,0,1,209.09,66.322Z"/><path class="bu" d="M206.499,56.366c.797,1.74.897,1.957,1.518,3.312.226.494-.305,1.033-.858,1.11a1.01057,1.01057,0,0,1-1.147-.83A8.99991,8.99991,0,0,1,206.499,56.366Z"/><path class="v" d="M198.517,52.542a1.44429,1.44429,0,1,0,1.492,1.444A1.46868,1.46868,0,0,0,198.517,52.542Z"/><path class="bv" d="M198.276,47.698a2.62727,2.62727,0,0,0-2.648,2.348c-.013.21.04.415.258.435.347.032.295-.592.446-.999.524-1.409,3.227-1.759,3.871-.105a2.48181,2.48181,0,0,1,.113.662c.042.34.665.497.565-.329a2.53148,2.53148,0,0,0-2.545-2.012Z"/><path class="v" d="M210.713,51.829a1.44429,1.44429,0,1,0,1.492,1.444A1.46868,1.46868,0,0,0,210.713,51.829Z"/><path class="bv" d="M211.069,46.985a2.49332,2.49332,0,0,0-2.557,2.147c-.013.201.022.417.241.451.231.035.293-.142.358-.571.183-1.22,1.941-1.834,3.132-1.186a1.92181,1.92181,0,0,1,.957,1.666.36193.36193,0,0,0,.184.258.28909.28909,0,0,0,.399-.267,2.33718,2.33718,0,0,0-.032-.405,2.614,2.614,0,0,0-2.621-2.093Z"/><path class="bw" d="M192.193,32.726c.01.026,1.388-1.884,1.718-2.369.835-1.23,3.296-3.976,4.949-2.916.361.232-1.405,2.066-1.568,2.391a29.59458,29.59458,0,0,1,13.682-.925c7.607,1.533,11.748,12.959,9.537,14.155-2.945,1.592-8.136.61-13.074-1,.272.233,2.414,2.209,2.59,2.424.675.825.765,1.849-.586,1.715a9.65269,9.65269,0,0,1-3.56-1.271c-3.059-1.691-9.363-7.334-9.581-7.438-.02-.034-.041-.069-.062-.105l-.013.005-.015.005c.043.046.073.078.09.095,2.317,10.556-3.409,11.964-5.18,4.174-.053-.129-.018,7.634,0,8.496.055,2.671-3.468,1.123-4.014-1.981-.806-4.587-.487-9.739,1.068-12.43a8.08,8.08,0,0,1,2.552-2.157c-1.569-.254-3.5-.676-2.915-1.128C188.977,31.566,192.193,32.726,192.193,32.726Z"/></svg>