<svg xmlns="http://www.w3.org/2000/svg" viewBox="0 0 394.302 325.79559"><defs><style>.a{fill:#eb2e48;}.a,.aa,.ae,.af,.ag,.ak,.ao,.ap,.aq,.at,.au,.av,.ay,.bb,.bc,.be,.bh,.bi,.bj,.bl,.bm,.bn,.bo,.bp,.bq,.br,.bs,.bt,.bu,.bv,.bx,.c,.e,.f,.h,.i,.n,.o,.p,.q,.r,.s,.t,.u,.v,.w,.y,.z{fill-rule:evenodd;}.b{fill:#c0e4de;}.c{fill:#09181e;}.d,.n{fill:#013148;}.e{fill:#913d3c;}.f{fill:#b11f24;}.g{fill:#c8c7c6;}.h,.j{fill:#f0efef;}.bk,.i{fill:#d6d5d5;}.k{fill:#b0b0b0;}.l{fill:#035470;}.m{fill:#8a181a;}.o{fill:#d58086;}.an,.p{fill:#fff;}.q{fill:#606060;}.r{fill:#efaf7a;}.s{fill:#db955d;}.t{fill:#af7272;}.u{fill:#f7c397;}.v{fill:#dd8d74;}.aw,.w{fill:#1e1917;}.x{fill:#7d7674;}.y{fill:#a5a5a5;}.z{fill:#931a1d;}.aa{fill:#7f7f7f;}.ab,.ag{fill:#79c4e2;}.ac{fill:#6badc4;}.ad{fill:#e3a875;}.ae,.ah{fill:#f6c196;}.af,.ai{fill:#afe1f2;}.aj,.ao{fill:#eeedee;}.ak{fill:#e4a676;}.al{fill:#de5d55;}.am{fill:#b06428;}.ap{fill:#d4d4d4;}.aq{fill:#d84241;}.ar,.at{fill:#28364d;}.as,.au{fill:#acacac;}.av,.ax{fill:#6d0e0f;}.ay{fill:#9d1c20;}.az,.bb{fill:#2da588;}.ba,.bc{fill:#298c75;}.bd,.be{fill:#514643;}.bf{fill:#565656;}.bg,.bo{fill:#2d2e2d;}.bh{fill:#6d2728;}.bi{fill:#7d522e;}.bj{fill:#0b98ab;}.bl{fill:#1b1b1b;}.bm{fill:#333;}.bn{fill:#e0e1e0;}.bp{fill:#c2c2c2;}.bq{fill:#7d522d;}.br,.bw{fill:#1c1c1c;}.bs{fill:#71451e;}.bt{fill:#df5d55;}.bu{fill:#e37069;}.bv{fill:#5a3212;}.bx{fill:#333231;}</style></defs><title>red1_1</title><polygon class="a" points="6.302 108.05 186.696 0 394.302 103.48 259.104 325.796 6.302 108.05"/><ellipse class="b" cx="195.90102" cy="241.21368" rx="195.90094" ry="9.95977"/><path class="c" d="M241.2218,232.30369V217.06458h8.51086c1.11656,5.34985,1.21148,15.51027,1.42036,16.493.02468.114.68172-.90711,1.3112,0,1.36149,1.96317,1.84856,7.5482,1.70519,8.227-.1766.83628-2.61286.63186-6.71258,1.14143-.65512.08156-.33611-1.216-1.015-1.14143a26.21148,26.21148,0,0,1-9.08051,2.5112c-5.11848,0-7.96207.26053-8.57827,0-4.40449-1.8613-1.03869-6.61528,1.68243-6.78627a19.21128,19.21128,0,0,0,7.76933-2.293C239.92961,234.3262,241.2218,233.98725,241.2218,232.30369Z"/><path class="c" d="M281.44514,232.27065l-1.03678-15.20607-8.49186.54223c-.751,5.40929-.15475,15.55375-.29624,16.54763-.01709.11536-.74152-.86171-1.30737.08355-1.22575,2.04559-1.33209,7.64961-1.14314,8.31783.23356.82317,2.65085.464,6.77524.71133.65987.03959.2535-1.23476.93522-1.20352a26.29408,26.29408,0,0,0,9.23147,1.92718c5.108-.32613,7.963-.24723,8.56117-.54659,4.26776-2.13778.58581-6.66693-2.141-6.66436a19.27814,19.27814,0,0,1-7.90889-1.79294C282.87218,234.20638,281.5591,233.9505,281.44514,232.27065Z"/><path class="d" d="M259.02774,147.21639c-.73011-6.04988,14.1895-8.34755,14.932,0,1.3207,14.84033,7.45317,64.75469,9.27421,85.22544.12059,2.03353-14.20657,1.87886-14.29868.57318C268.4605,226.25039,261.27225,165.816,259.02774,147.21639Z"/><path class="d" d="M238.419,146.8537c.84311-6.0176,14.94621-13.39291,13.6388-4.96562-1.77642,11.45955.55163,77.35852.61146,90.22543.00284.68161-13.13276,1.60723-13.16979.12723C238.79312,203.989,235.79666,165.56142,238.419,146.8537Z"/><path class="e" d="M252.82785,93.52988C258.9518,92.16362,274.968,59.3868,270.7857,58.69939c-7.83674-1.2865-20.603-2.22265-27.0545-1.85046C241.77914,56.96191,249.99565,94.16222,252.82785,93.52988Z"/><path class="f" d="M260.62472,62.13924c2.08025.05412-4.04466,6.08312-4.0741,7.13226-.05884,2.15049,2.36794,10.54361,2.30339,11.29842-.10541,1.22763-5.42325,12.96755-5.42325,12.96755s-3.65348-9.2609-2.56257-12.96755c1.126-3.82817,2.79234-10.69363,2.56257-11.29842-.22409-.59057-2.46762-6.12964-2.56257-6.75247C250.72387,61.58192,257.914,62.06993,260.62472,62.13924Z"/><path class="g" d="M240.62271,58.14207c-4.91244.526-17.99583,33.99212-17.66447,38.97483.64657,9.73657,12.79665,32.45591,17.66447,32.37235,1.81818-.03133,5.0539-8.70168,4.34182-8.69884-4.301.019-9.27611-16.53368-9.9692-23.67351-.22977-2.35748,6.36889-27.03457,8.22316-29.01893C244.42239,66.81053,240.91893,58.10979,240.62271,58.14207Z"/><path class="h" d="M253.70324,161.99738c-10.6604-.04206-20.14443-.80294-20.07512-2.64506.09116-2.44777,1.409-21.66364,2.89676-43.30535,1.82769-26.60067.82887-56.46554,3.39523-58.47362.72159-.564,3.41326-.80418,7.04869-.807.00476,6.029,4.2526,22.0984,7.07718,36.77115,0,0,.67413-2.08688,1.73467-5.24569,3.32019-9.88471,10.42775-30.256,12.52318-29.96551,5.51536.76429,9.1584,1.63019,9.10995,2.58723-.5108,10.16,4.79661,95.03191,5.44414,98.43882.23928,1.25906-14.09455,2.34114-25.27237,2.64506-1.02731-4.536-1.53338-12.96565-1.8049-11.46647C254.90905,155.34156,253.90737,161.11763,253.70324,161.99738Z"/><path class="i" d="M251.32962,161.97564a75.59308,75.59308,0,0,1,4.6542-12.59546c.23832-.41966-2.07645,11.73745-2.28058,12.6172Q252.50411,161.99269,251.32962,161.97564Z"/><path class="i" d="M254.29189,95.38889a27.53226,27.53226,0,0,1,0-3.27084c4.24215-11.65162,13.89138-34.19245,14.68036-33.88863.71875.27724,4.93048,1.10421,5.01975,1.12984.76809.21458-3.16927,9.02165-3.94687,9.77456-.51839.50227-3.91931.037-3.91456.057.44529,1.66059,3.93545,6.47713,3.91456,6.50372C268.19941,78.05768,259.04388,89.339,254.29189,95.38889Z"/><path class="i" d="M260.03415,161.92c.55354-2.09818,14.857-4.29568,15.9042-6.23673,1.02731-1.905-6.65847-20.00267-1.61407-39.01821-.09779-2.16854-.18228-4.34847-.2497-6.51795a293.02564,293.02564,0,0,1,.98839-32.70372c.357-2.70688,1.47163-3.644,2.51319-2.33374,1.17542,27.47606,4.77192,81.56238,5.28176,84.24267C283.0801,160.521,270.74583,161.53719,260.03415,161.92Z"/><path class="j" d="M276.17856,60.39132c4.91245.526,24.44731,32.67523,24.11691,37.65793-.18894,2.84738-1.91408,6.22837-4.38169,9.58561-5.052,6.874-13.21916,13.64831-17.6996,15.533-.81367.34276-4.91908-8.40166-4.00858-8.80232,5.13272-2.25969,13.46412-10.25308,14.0528-16.31625.22881-2.35748-10.83416-24.34194-12.68939-26.32628C274.36511,70.43456,275.88235,60.359,276.17856,60.39132Z"/><path class="i" d="M277.03972,112.75809c.11677.29623.26584.61809.29528.696.338.89532.80987,1.88274,1.90269,1.99383,2.39831.24306,5.42609-2.44293,6.9699-3.89462,4.06456-3.82248,7.39238-8.169,10.894-12.46056.68644-.84026,1.991-2.09258,3.10277-1.96726a3.62865,3.62865,0,0,1,.09115.92382c-.57631,8.677-15.41331,22.31391-22.08129,25.11857-.81367.34276-4.91908-8.40166-4.00858-8.80232A18.57581,18.57581,0,0,0,277.03972,112.75809Z"/><path class="k" d="M275.381,115.37381a34.13327,34.13327,0,0,0,4.68744,9.70621c.526.54688-.11868.88393-.52694.45858-4.62667-2.742-7.64782-13.43848-5.63592-17.09764C273.91887,108.441,274.82369,113.63442,275.381,115.37381Z"/><path class="l" d="M270.58062,77.58486h1.015a.507.507,0,0,1,.507.507v9.79261a.507.507,0,0,1-.507.507h-1.015a.508.508,0,0,1-.508-.508v-9.7907A.508.508,0,0,1,270.58062,77.58486Z"/><path class="m" d="M266.4154,78.371h1.014a.508.508,0,0,1,.508.508V88.6706a.507.507,0,0,1-.507.507h-1.0159a.507.507,0,0,1-.507-.507V78.879A.508.508,0,0,1,266.4154,78.371Z"/><path class="i" d="M272.508,81.6352c0-1.20675-7.19966-1.20675-7.19966,0v6.82558a2.22481,2.22481,0,0,0,2.25873,2.18753h2.68124a2.225,2.225,0,0,0,2.25969-2.18753Z"/><path class="n" d="M272.10258,77.88963a.30478.30478,0,0,0-.60955,0v5.5799a.30478.30478,0,0,0,.60955,0Z"/><path class="o" d="M265.90744,78.67577a.3043.3043,0,1,1,.60859,0v5.5799a.3043.3043,0,1,1-.60859,0Z"/><path class="p" d="M254.53212,94.20968a12.41171,12.41171,0,0,1-1.25519-3.07431c4.24215-11.65066,12.67325-33.88674,13.46319-33.58291.71776.27629,6.14765,1.389,6.23692,1.41373.76809.21457-3.16927,8.432-3.94687,9.185-.51839.50227-3.91931.037-3.91456.057.44529,1.66058,3.93545,6.47712,3.91456,6.50466C267.18445,77.075,259.28408,88.16076,254.53212,94.20968Z"/><path class="p" d="M256.55062,98.97307c-2.50652.44338-7.86046-42.01781-6.60624-42.879-.76241.12247-3.173.32756-6.51036.6722-.79564.08261-3.31642,10.06129-2.72112,10.95757.39687.59626,7.27278-.019,7.26327,0-.79943,1.53051-1.62544,2.81037-2.26063,3.90888C243.54321,75.38974,256.11959,100.89569,256.55062,98.97307Z"/><path class="q" d="M254.046,96.54818a2.42618,2.42618,0,1,1-2.50557,2.42489A2.4666,2.4666,0,0,1,254.046,96.54818Z"/><path class="q" d="M254.046,106.82215a2.42619,2.42619,0,1,1-2.50557,2.42489A2.4666,2.4666,0,0,1,254.046,106.82215Z"/><path class="r" d="M261.58176,47.50066l-8.15575-.62758-1.00546,12.246c-.5431,3.01735,7.59558,4.11776,8.15575.62759Z"/><path class="s" d="M261.58176,47.50066l-8.15575-.62758-.69879,8.51275c-.5431,3.01734,7.59462,4.11774,8.15575.62758Z"/><path class="t" d="M261.08614,55.42286c-1.80965,3.01734-3.81109,5.19917-6.15906,6.17995,0,0,3.91742,5.87517,3.91742,7.60128,0,.00759.63519.38927,1.42985-.751a84.60484,84.60484,0,0,0,6.047-10.71166C266.42394,57.26,260.5801,55.139,261.08614,55.42286Z"/><path class="t" d="M252.59049,55.063c.07215,2.96986-.01139,5.559,2.33659,6.53979,0,0-3.35439,5.16215-4.12915,7.74938-.26205.8754-.357.76431-.97128.31238-3.11419-2.29007-3.64587-11.73992-2.38217-12.89825A30.43641,30.43641,0,0,1,252.59049,55.063Z"/><path class="u" d="M272.14627,39.15123a67.942,67.942,0,0,1-.76146,9.04254c-.52789,2.76573-3.81775,5.05864-6.90534,5.94449-3.45218.99121-13.13846.99121-16.59064,0-3.0876-.88585-6.37744-3.17876-6.90439-5.94449-.98268-5.15266.89914-19.16651,2.18657-26.91874.22123-1.333,4.41115-4.53646,7.49874-5.4223a32.43766,32.43766,0,0,1,13.80972,0c3.08759.88584,7.26043,4.43772,7.38861,6.0309.17658,2.18657.29146,4.8061.34463,7.55569,1.57513-1.27321,3.46835-2.06315,4.96183-.65037,4.42918,4.19181-1.02447,10.9139-3.22719,10.9139A3.19467,3.19467,0,0,1,272.14627,39.15123Z"/><path class="p" d="M247.30207,45.109a2.71782,2.71782,0,0,0-.29624,1.08427c-.12341,2.29766,2.78283,4.31524,6.48757,4.50228,3.7038.187,6.8123-1.52671,6.93574-3.82437a2.71773,2.71773,0,0,0-.17756-1.109Z"/><path class="v" d="M254.26532,34.56444c-1.42892,3.118-1.60741,3.50726-2.72019,5.93594-.40634.88585.546,1.85143,1.53718,1.99005a1.81315,1.81315,0,0,0,2.05649-1.48779A16.13036,16.13036,0,0,0,254.26532,34.56444Z"/><path class="w" d="M261.26466,33.79918a1.51423,1.51423,0,1,1-1.56375,1.51343A1.53895,1.53895,0,0,1,261.26466,33.79918Z"/><path class="x" d="M261.51816,28.71965a2.75617,2.75617,0,0,1,2.77616,2.46286c.0133.21932-.04178.43485-.27152.45573-.36366.03323-.30858-.62189-.46713-1.04818-.54974-1.47734-3.3829-1.84383-4.058-.10919a2.58379,2.58379,0,0,0-.11868.69405c-.04366.357-.69687.5203-.59245-.3456a2.65273,2.65273,0,0,1,2.66795-2.10873C261.48585,28.71965,261.48585,28.71965,261.51816,28.71965Z"/><path class="w" d="M248.47748,33.051a1.5142,1.5142,0,1,1-1.56279,1.51342A1.54039,1.54039,0,0,1,248.47748,33.051Z"/><path class="x" d="M248.10436,27.97243a2.614,2.614,0,0,1,2.68123,2.25114c.0133.21078-.02373.43674-.25255.47283-.24211.037-.30762-.14906-.375-.59912-.19177-1.2789-2.0356-1.92262-3.28412-1.24281a2.01649,2.01649,0,0,0-1.00357,1.746.37775.37775,0,0,1-.19273.27059.30324.30324,0,0,1-.41872-.28009,2.39544,2.39544,0,0,1,.03418-.42345,2.7414,2.7414,0,0,1,2.74771-2.19512Z"/><path class="y" d="M240.7167,43.57565l.01045-.0095c1.257-1.06623,3.15121-2.09543,4.74913-1.83243,4.84693.79754,9.77077,1.86187,14.56262-.10254,2.19893-.902,4.84028.67791,7.12561,1.46025-.15762-2.55592,1.25137-23.23393,2.24544-23.27855a6.42911,6.42911,0,0,1,2.724,1.62735c.41585,1.05768-.49941,15.32124-.28581,16.434q.15243.79468.28581,1.63019a65.91737,65.91737,0,0,1-.74912,8.68936c-.52789,2.76573-3.81775,5.05864-6.90534,5.94449-3.45218.99121-13.13846.99121-16.59064,0-3.0876-.88585-6.37744-3.17876-6.90439-5.94449A24.34984,24.34984,0,0,1,240.7167,43.57565Z"/><path class="y" d="M266.22645,11.97994c-4.79281-3.40188-14.41165,3.48731-22.28543-.75862-1.25991-.67981-4.845-4.0323-6.35654-3.64112-1.84383.47756-1.77263,6.57017-1.61216,7.89466.95134,7.83388,9.70619,8.64471,16.21087,8.38456,2.54926-.10158,9.95306-1.91789,10.03375-1.77356-.85829,5.71092.47852,5.916,6.8028.30951.056-.13482-.25445,1.39379-.25825,1.483-.0361.90292-.09686,1.80585-.11584,2.70972-.05792,2.79992.057,5.596.03891,8.39692-.00852,1.2998-.47565,4.04844,1.24473,2.20746,4.00192-4.282,4.91434-16.26688,2.179-20.998a9.59556,9.59556,0,0,0-4.82034-3.46739c-.02944,0,4.85925-2.34893,3.56326-3.70853C268.03706,6.06773,266.742,12.34547,266.22645,11.97994Z"/><path class="z" d="M338.30014,37.11847c-3.49492-7.90225,12.09024-20.75776,13.49352,0,.45575,6.73633-.98931,9.75653-1.76216,16.46533-.36555,3.174-1.04819,7.03066.189,10.104.957,2.37552,3.15026,3.53574,5.40615,4.564.45667.20888,2.45527.70543,2.01091,1.49537-1.06621,1.8989-3.75125.11774-4.583-.99217a7.53128,7.53128,0,0,1-.80987-1.43176c-.13007-.28768-.49087-1.14694-.451-.83552.28769,2.25684,1.821,4.27537,2.08976,6.51227.45,3.74177-2.34418,7.23-4.28961,10.17808a46.08643,46.08643,0,0,1-3.00976,4.23832c-.113.13482-.8583,1.15264-1.16213.84786-1.04248-1.0425-.58961-3.63638-1.48872-4.95991-2.79613-4.11776-4.71876-5.74036-4.18895-12.11875C340.32151,64.25179,338.30014,37.11847,338.30014,37.11847Z"/><path class="y" d="M319.71278,231.87579V217.8121h7.86334c1.032,4.93722,1.12034,14.31387,1.31308,15.22078.0228.1052.62948-.83713,1.21054,0,1.258,1.81174,1.709,6.966,1.57609,7.59245-.16331.77181-2.41445.58306-6.20178,1.05341-.60575.0752-.31142-1.12215-.93806-1.05341a24.24013,24.24013,0,0,1-8.38932,2.31751c-4.72921,0-7.35726.2404-7.92693,0-4.06934-1.71774-.959-6.105,1.55424-6.26284a17.77534,17.77534,0,0,0,7.17973-2.11613C318.51838,233.74222,319.71278,233.42937,319.71278,231.87579Z"/><path class="aa" d="M328.15909,221.83652c.49559,4.83307.582,10.50146.73011,11.19636.0228.1052.62948-.83713,1.21054,0a5.69537,5.69537,0,0,1,.65324,1.40528c-.00192,2.26348-14.84271,1.59384-13.79927.12571,1.56467-.82165,2.75907-1.1345,2.75907-2.68808V221.83652Z"/><path class="y" d="M346.72553,232.83863l-.57727-14.05259,7.85668-.30382c1.23427,4.89336,1.70711,14.25928,1.93688,15.158.02657.10425.59436-.86076,1.20958-.0468,1.33209,1.7617,1.99385,6.8945,1.88751,7.5257-.132.77741-2.3888.67581-6.15431,1.2922-.602.09855-.357-1.10934-.97985-1.01639a24.2039,24.2039,0,0,1-8.28865,2.63985c-4.72542.18276-7.34116.52457-7.92031.30629-4.13581-1.55909-1.20865-6.06308,1.296-6.31791a17.73434,17.73434,0,0,0,7.0867-2.39185C345.609,234.74977,346.78913,234.39107,346.72553,232.83863Z"/><path class="aa" d="M346.36474,224.05994l.36079,8.77869c.0636,1.55244-1.11655,1.91114-2.647,2.7927-1.08239.62341,14.1724.50321,14.011-.00456a7.06412,7.06412,0,0,0-.93806-2.03333c-.61522-.814-1.183.15105-1.20958.0468-.16806-.65511-.4643-5.81023-1.09093-10.452Z"/><path class="ab" d="M318.12151,137.81878c.26017-1.85238,31.51121-3.68861,31.83973,0,1.22,13.69577,6.88633,75.2928,8.56875,94.18443.11205,1.87668-13.12609,1.734-13.21061.529-.43578-6.20018-6.98983-66.49588-9.11183-84.06351H329.3098c-.77285,18.25664.93142,72.68134.97984,83.23151.00284.629-12.13394,1.48332-12.16813.11745C317.4683,205.7451,315.69948,155.084,318.12151,137.81878Z"/><path class="ac" d="M322.4434,148.46873h6.8664c-.77285,18.25692.93142,72.68144.97984,83.23151.00284.629-12.13394,1.48332-12.16813.11745l-.01709-.66946c3.57372.03674,8.39314-.44909,8.39123-.84548-.04654-9.99265-1.577-59.88441-1.08239-80.088C325.42372,149.779,319.61786,148.46873,322.4434,148.46873Zm23.77226-11.5073c1.98341-1.47734,3.52719-1.59318,3.74558.85735,1.22,13.69577,6.88633,75.2928,8.56875,94.18443.11205,1.87668-13.12609,1.734-13.21061.529-.01139-.15761-.02657-.34674-.04558-.566,3.93169.22825,9.53438-.13681,9.4622-1.36055C353.07447,211.952,347.52874,151.66172,346.21566,136.96143Z"/><path class="ad" d="M315.92166,126.59726c.39211.32946,6.15526-5.4166,5.18209-3.07717-1.19156-1.37384-5.18209-16.33239-5.18209-16.33239.91621-2.26824.51934-12.31909,5.82675-18.49333,4.66747-5.4299-3.17782-15.47031-3.17782-15.47031-2.67267,3.50822-10.1657,27.39536-9.87425,33.96364C309.003,114.09113,315.92166,126.59726,315.92166,126.59726Z"/><path class="ab" d="M319.15927,71.14762c-2.67649.28674-10.68983,14.99083-14.52752,24.79577-1.32255,2.31,12.53272,7.06389,13.47267,3.2813,1.87137-7.52533,2.31286-17.67017,3.45316-18.88832C322.67033,79.14766,319.43271,71.11819,319.15927,71.14762Z"/><path class="ae" d="M332.78478,79.874c2.06886-.27058,11.04587-7.88705,9.25427-8.35323a44.45979,44.45979,0,0,0-15.20162-1.15453C325.49019,70.53143,331.87711,79.88349,332.78478,79.874Z"/><path class="af" d="M356.64724,143.84587c-.07786,3.32212-43.23023,3.78829-42.53619-.86685.82508-5.54.81274-11.869,1.26182-18.3927,1.68906-24.54891.76621-52.11042,3.13792-53.96373.66555-.52031,6.58537-.74153,9.94451-.74438.00284,3.30409,1.11655,4.18706,4.70925,7.907,0,0,5.25331-3.64967,7.05442-7.16262,5.09569.70637,11.89371,1.71754,11.85,2.60147C351.74525,79.65848,357.2245,119.32164,356.64724,143.84587Z"/><path class="ab" d="M326.47667,76.43985a5.2054,5.2054,0,0,1-.24878-4.452,5.75209,5.75209,0,0,1,2.41827-2.89107,4.03361,4.03361,0,0,1,2.03655-.58771c.39591.00476.789,1.27227.789,1.27227-.74341.35984,1.10611,2.81511.89912,3.32971,2.68883-.09684,5.64826-2.10493,8.57258,0-.32472-1.39378.04082-2.66889-1.55615-3.28508-.33327-.12913,2.47711.11488,3.37623,1.68716,1.06149,1.85617.73773,4.23833.225,5.90462a25.51217,25.51217,0,0,1-2.0451,4.4472c-3.4598,3.174-11.55763,1.44886-12.91154,0C327.1745,80.94687,326.58868,78.55332,326.47667,76.43985Z"/><rect class="ab" x="337.70766" y="87.4653" width="10.67074" height="1.94399"/><path class="ag" d="M326.35419,69.90385c.75575-.01709,1.47352-.02469,2.10111-.02564l4.70925,7.907s5.25331-3.64967,7.05442-7.16262c.88773.12341,1.82672.25539,2.77333.395-.01994.03511-2.65845,2.93473-5.19632,5.69668-2.329,2.53407-4.57255,4.95137-4.63143,4.93333C332.54742,81.45483,326.56116,71.22642,326.35419,69.90385Z"/><path class="ag" d="M352.55987,81.64757c1.28365,14.55787,4.53932,43.01092,4.08737,62.1983-.056,2.404-22.66806,3.31262-34.89883,1.86661.31806-.018.58865-.02468.695-.04462,2.29388-.4301,4.51271-1.15928,6.83224-1.47734,7.17115-.98363,14.64805-3.02589,17.53154-10.25118a45.47315,45.47315,0,0,0,2.19511-23.2871c-.04271-.24306-1.64157-1.24757-2.19511-2.51034C345.71057,105.6401,348.17531,82.00931,352.55987,81.64757Z"/><path class="ah" d="M353.78183,137.88524c-.02944-.05032-3.14079-34.482-4.40925-43.253-1.01212-6.99648,7.4038-5.17165,7.4038-5.17165,2.253,2.95754,2.93283,36.16731,1.56087,46.58559.7311,3.91743,2.25685,9.4527.58677,13.40336-.46713,1.10326-1.72609,4.08975-3.31452,4.08975-.90007,0-.91621-2.23263-.995-2.74723-.394-2.57016.00284-5.78309-.83265-8.24975-.02756-.0826.71872,5.31785-1.22763,5.02637-.90295-.13482-.87067-5.12892-.86212-5.63876C351.71581,140.56553,353.20549,139.10338,353.78183,137.88524Z"/><path class="ad" d="M358.84142,107.59881c1.36152-1.70426-5.47263,3.79875-7.68958,2.91006-.67789-6.70879-1.33965-12.83558-1.77926-15.87666-1.01212-6.99648,7.4038-5.17165,7.4038-5.17165C357.81411,90.82112,358.51765,98.59236,358.84142,107.59881Z"/><path class="ai" d="M352.01109,73.22406c2.18563.23357,5.20582,12.73875,11.20822,24.87838.73964,1.49633-13.11755,9.08812-13.84673,7.33259-2.84075-6.83983-1.44885-18.90256-1.5647-20.33718C347.67877,83.49993,351.73766,73.19464,352.01109,73.22406Z"/><path class="aj" d="M331.06533,68.30783l-.1804.338a4.52093,4.52093,0,0,0-1.83338,1.60551,5.60044,5.60044,0,0,0-1.1251,3.438c.07122.8469.001.23546.001.23546l.16521.34464-.14053.14337a.60393.60393,0,0,1-.4899-.20127,3.73707,3.73707,0,0,1-.12059-3.06673,4.19821,4.19821,0,0,1,2.13246-2.59958,4.42534,4.42534,0,0,1,1.22195-.40541S330.91723,68.23567,331.06533,68.30783Z"/><path class="aj" d="M330.09594,67.37356a2.95584,2.95584,0,0,1,1.15265.24022l.1538.14622.0133.19844-.13862.13955a3.85308,3.85308,0,0,1-.85545-.05506c-2.10873.03133-3.46835,2.62807-3.75888,3.32782a4.607,4.607,0,0,0,.81938,4.9827l.07881.19274-.0731.187-.18706.075a.82553.82553,0,0,1-.37314-.21649,5.08485,5.08485,0,0,1-1.28648-5.74035,5.75356,5.75356,0,0,1,2.41824-2.89012A4.03352,4.03352,0,0,1,330.09594,67.37356Z"/><path class="aj" d="M337.49215,68.32776c1.99859.04179,3.29362,2.48281,3.57086,3.60695.037.14812.0693.29624.09782.4453a10.58216,10.58216,0,0,1-.8042,5.85809c-.01234.02848-.02944.07025-.02944.07025l-.14337.151-.20508.018-.15192-.13008-.02465-.20413a12.15672,12.15672,0,0,0,.30191-5.13841,5.504,5.504,0,0,0-1.78592-3.67626,1.96284,1.96284,0,0,0-1.14314-.44338l-.29905-.24687.06739-.18324A1.23087,1.23087,0,0,1,337.49215,68.32776Z"/><path class="aj" d="M337.86908,67.853a5.41857,5.41857,0,0,1,4.30763,2.52364c1.0615,1.85711.73773,4.23928.225,5.90556a15.55166,15.55166,0,0,1-2.47141,4.80231l-.17944.11107-.20413-.037-.112-.16521a1.09635,1.09635,0,0,1,.21079-.49845,13.65507,13.65507,0,0,0,2.0755-7.41708,4.67863,4.67863,0,0,0-2.92052-4.38836A7.71138,7.71138,0,0,0,337.776,68.38l-.17851-.11678s-.05221-.1785-.04937-.1937C337.54816,68.06951,337.65641,67.83121,337.86908,67.853Z"/><path class="ae" d="M338.5242,61.32749l-7.53482-.57917-.92951,9.39194c-.50129,2.78378,7.01736,4.31239,7.53578,1.09091Z"/><path class="ak" d="M338.5242,61.32749l-7.53482-.57917-.64657,7.85669c-.50132,2.78377,7.01831,3.79969,7.53577.57916Z"/><path class="u" d="M348.02911,54.90827c-.11964,3.4636-4.99028,12.78147-13.1489,12.94667-10.42019.21173-12.01714-9.1973-12.25071-10.61482-1.17733-7.13036-1.78971-16.06275-1.11561-20.115.20412-1.23049,4.076-4.18706,6.92907-5.00453a30.016,30.016,0,0,1,12.75869,0c2.85307.81747,6.70878,4.09591,6.82746,5.56566.16237,2.01852-.04938,8.18234,0,10.72021,1.45552-1.17542,2.52933-1.54856,3.606,0C354.26507,52.18622,348.73076,57.8867,348.02911,54.90827Z"/><path class="al" d="M330.20515,60.4483a1.089,1.089,0,0,1,.226.39212,4.024,4.024,0,0,0,4.4928,2.31476,5.39055,5.39055,0,0,0,4.19466-2.911,5.08819,5.08819,0,0,0,.30476-.81369l.12532-.17089.19465-.04558h.00379l.16615.11109.05317.20127a5.43273,5.43273,0,0,1-3.36862,4.33709,5.69175,5.69175,0,0,1-1.17922.3418,4.53261,4.53261,0,0,1-5.6084-3.455l.03228-.20413.16238-.12533C330.07126,60.43027,330.13868,60.43976,330.20515,60.4483Z"/><path class="v" d="M332.77244,51.28994c.57917-.03419,1.29314,3.82627,2.08879,6.178.09588.28579-1.84384.89534-2.03183.28674C332.49237,56.6581,332.838,52.48624,332.77244,51.28994Z"/><path class="w" d="M340.94812,50.06229a1.39742,1.39742,0,1,1-1.4441,1.39664A1.42125,1.42125,0,0,1,340.94812,50.06229Z"/><path class="am" d="M340.29491,45.37772a2.55627,2.55627,0,0,1,2.69643,2.12486c.02469.20129-.01423.40352-.225.43485-.33324.04938-.319-.55733-.48895-.94185-.58772-1.333-3.22148-1.52386-3.74937.10919a2.40815,2.40815,0,0,0-.07122.64561c-.02089.33042-.61334.51461-.56492-.28767a2.4387,2.4387,0,0,1,2.34513-2.08119Z"/><path class="w" d="M328.34992,51.36019a1.39745,1.39745,0,1,1-1.44506,1.39664A1.42184,1.42184,0,0,1,328.34992,51.36019Z"/><path class="am" d="M328.00526,46.67277a2.415,2.415,0,0,1,2.47712,2.07739c.01234.19464-.02185.40352-.23357.4358-.22313.03417-.28389-.13672-.34653-.55164-.17756-1.1811-1.88088-1.77451-3.03445-1.14788a1.85866,1.85866,0,0,0-.92668,1.61216.35232.35232,0,0,1-.17848.2497.28035.28035,0,0,1-.38641-.25919,2.20628,2.20628,0,0,1,.03037-.39118,2.53107,2.53107,0,0,1,2.53976-2.02516Z"/><path class="an" d="M343.44138,49.01221a46.01858,46.01858,0,0,0-8.06651.98648c-.21836.057-.50034.16614-.50034.16614A4.20032,4.20032,0,0,0,338.02,54.17625c2.38312.69689,5.39856-.59816,5.82107-3.11608a3.59823,3.59823,0,0,0-.27059-2.04606A1.12882,1.12882,0,0,0,343.44138,49.01221Zm.414-.79849c.22977.037.24782.0864.36268.31236a4.37974,4.37974,0,0,1-.13007,4.13676c-1.71375,2.91-6.76006,3.4161-9.08051.38452a4.46124,4.46124,0,0,1-.92-3.06956.62351.62351,0,0,1,.06835-.207c.31426-.52409,1.00833-.53168,1.57134-.64563a63.47542,63.47542,0,0,1,7.94594-.90576A.65.65,0,0,1,343.85534,48.21372Z"/><path class="an" d="M329.65161,50.51234c-2.39355.01614-4.78618.25824-7.17306.507l-.12344.01234a3.64654,3.64654,0,0,0,1.20483,3.58891c2.25969,1.915,6.66419.98648,7.53578-2.20366a3.59767,3.59767,0,0,0,.02373-1.79921A14.10424,14.10424,0,0,0,329.65161,50.51234Zm.17374-.77286c.13957.001.27818.0019.41776.00665.113.00379.22693.00855.3399.0152.07977.00569.15951.01138.23927.019q.094.01.188.02279c.04842.00665.09588.01424.14433.02279a.80962.80962,0,0,1,.71872.52124,4.81531,4.81531,0,0,1-1.9948,5.03018c-2.4097,1.69856-6.37838,1.24-7.869-1.408a4.33969,4.33969,0,0,1-.36459-3.36483c.08545-.28294.43581-.32093.74816-.35415,2.4116-.25066,4.82984-.49467,7.25475-.51081Z"/><path class="an" d="M333.362,50.07938c.61334.00855,1.5685.18515,1.27606.77476a.41915.41915,0,0,1-.6.14146,1.28117,1.28117,0,0,0-1.50583.0114.94407.94407,0,0,0-.32376.36269c-.15667.35319-.94945.29337-.73393-.31428C331.72615,50.349,332.706,50.07559,333.362,50.07938Z"/><path class="an" d="M348.3035,47.31838a.38651.38651,0,0,1,.07218.75957c-.2165.05412-.433.10919-.6504.1633-1.14407.29053-2.27392.63233-3.43792.864a.50638.50638,0,0,1-.51083-.21837c-.19367-.47852.6836-.6143,1.4147-.79943.94185-.23926,1.88275-.48137,2.82745-.71874A.71274.71274,0,0,1,348.3035,47.31838Z"/><path class="ao" d="M340.35092,71.64324c-2.58534.70258-11.20726.79658-12.90583,0-2.39355-1.1232-1.784,7.17686,0,9.0862,2.15811,2.30811,10.762,2.26065,12.90583,0C342.15014,78.83245,342.9116,70.94729,340.35092,71.64324Z"/><path class="ap" d="M340.35092,71.64324a15.16981,15.16981,0,0,1-2.347.36363c.60291,5.98912-.8004,12.25072-10.55881,8.72257,2.15811,2.30811,10.762,2.26065,12.90583,0C342.15014,78.83245,342.9116,70.94729,340.35092,71.64324Z"/><path class="aq" d="M319.52479,36.05414c.65133-1.578,3.93168-3.738,6.4724-4.79755.02753-.01139,12.99887-2.36033,16.66184-.10348a3.33444,3.33444,0,0,1-.03037-.85641c.03512-.3513.149-.98648.50321-1.19346.28957-.17.51175.206.58294.41492a3.89025,3.89025,0,0,1,.08073,1.68051l-.00192.01424a4.05649,4.05649,0,0,1,2.6091-1.18681c.376-.01139,1.21813.01709,1.36434.47378.14337.45194-.562.76715-.89153.87539-.99786.3285-2.07549.31522-3.09709.564l.018.0076a8.86964,8.86964,0,0,1,4.45483,3.19964c2.52649,4.3665-.00855,14.36039,0,13.16028.01709-2.58344-4.40354-11.34779-4.45483-11.22246-9.05487,9.30459-17.60178,2.84169-23.69249,9.49447-.12627.13768-.59152-1.11181-.85545-1.633A8.488,8.488,0,0,1,319.52479,36.05414Z"/><path class="c" d="M65.31679,231.48384V216.98065H57.20756c-1.06414,5.09141-1.15472,14.76125-1.35382,15.69655-.02317.10843-.649-.86333-1.24852,0-1.29733,1.86832-1.76208,7.18371-1.62546,7.82981.16843.79582,2.49.60128,6.396,1.08626.62473.07757.32091-1.15719.9671-1.08626a25.00263,25.00263,0,0,0,8.65232,2.38985c4.87712,0,7.58684.248,8.17426,0,4.19637-1.77138.98905-6.29578-1.60295-6.45861a18.32475,18.32475,0,0,1-7.40369-2.18221C66.54841,233.40875,65.31679,233.08613,65.31679,231.48384Z"/><path class="c" d="M37.45981,232.47687l.59578-14.4919-8.10268-.31331c-1.27245,5.04631-1.76018,14.705-1.99764,15.63189-.02753.10748-.61306-.88773-1.24748-.04823-1.373,1.81677-2.05584,7.10994-1.9457,7.76088.13558.80171,2.46324.697,6.3461,1.33255.62113.10168.3683-1.1439,1.01088-1.0481a24.95288,24.95288,0,0,0,8.54731,2.72235c4.87313.18847,7.57051.541,8.16772.31588,4.26567-1.60789,1.24681-6.25258-1.33645-6.51549a18.28617,18.28617,0,0,1-7.30809-2.46657C38.61139,234.44773,37.394,234.07782,37.45981,232.47687Z"/><path class="ab" d="M66.95791,134.48648c-.268-1.90934-32.49655-3.80349-32.83522,0-1.25764,14.124-7.1013,77.64657-8.83613,97.12886-.11535,1.93535,13.53647,1.78809,13.62381.54555.44947-6.394,7.20812-68.57461,9.39593-86.6912h7.11411c.79621,18.82716-.96055,74.95328-1.011,85.83318-.003.64867,12.51315,1.52966,12.54847.12115C67.63154,204.53634,69.45628,152.29157,66.95791,134.48648Z"/><path class="ac" d="M62.50073,145.46969H55.42041c.79621,18.82745-.96055,74.95328-1.011,85.83318-.003.64867,12.51315,1.52966,12.54847.12115l.01747-.69034c-3.685.03788-8.65507-.46323-8.65317-.872.04775-10.305,1.62631-61.75653,1.11645-82.59187C59.42765,146.8198,65.41487,145.46969,62.50073,145.46969ZM37.98561,133.60254c-2.04492-1.52386-3.63781-1.64349-3.86292.88394-1.25764,14.124-7.1013,77.64657-8.83613,97.12886-.11535,1.93535,13.53647,1.78809,13.62381.54555.0114-.16255.027-.35756.04634-.58363-4.05433.23537-9.83257-.14118-9.75738-1.40309C30.91232,210.93723,36.63123,148.76237,37.98561,133.60254Z"/><path class="ae" d="M51.83625,74.7311c-2.1336-.28009-11.39081-8.13392-9.54366-8.61528a45.83651,45.83651,0,0,1,15.67728-1.18966C59.35929,65.09611,52.77259,74.73965,51.83625,74.7311Z"/><path class="af" d="M29.85056,141.09273c.08051,3.42561,41.95959,3.51581,41.24381-1.2846-.85156-5.71282-.83884-12.24027-1.3017-18.96805C68.0512,95.524,69.00245,71.70711,66.557,69.79587c-.68693-.53644-6.79178-5.371-10.25565-5.37387-.00295,3.40662-1.151,4.31714-4.85652,8.1548,0,0-5.41793-3.76361-7.27448-7.3867-5.25576.72823-9.49,3.69525-9.44415,4.60577C35.05989,76.43251,29.25554,115.80135,29.85056,141.09273Z"/><rect class="ab" x="35.75536" y="82.55872" width="11.00438" height="2.00486"/><path class="ag" d="M58.46814,64.44858c-.7794-.01708-1.51931-.02563-2.16683-.02658l-4.85652,8.1548s-5.41793-3.76361-7.27448-7.3867c-.91574.12723-1.88475.263-2.8604.40732.021.03607,2.74191,3.02588,5.35907,5.87423,2.40153,2.61287,4.71552,5.10613,4.77581,5.08809C52.08111,76.36131,58.25432,65.813,58.46814,64.44858Z"/><path class="g" d="M66.92107,69.80821c10.83605,31.33557,7.86854,61.42547,5.26867,62.97876-1.43347.8564-9.543,1.29505-8.8835,1.2979,3.9836.018,1.718-57.51374,0-59.35187C62.191,73.54049,66.83343,69.55471,66.92107,69.80821Z"/><path class="h" d="M57.40533,161.70172s-.00418-91.89634,0-96.73758c3.36721.00284,8.69152,3.59936,9.35927,4.12154,2.37723,1.86,1.049,25.42051,2.74191,50.05963,1.37736,20.04568,2.59816,37.84374,2.68285,40.111C72.25145,160.9173,66.95572,161.62909,57.40533,161.70172ZM40.07145,65.68192c1.7129-.23736,1.813,95.28513,1.64654,96.0198-10.35316-.28151-15.349-1.27928-15.12717-2.44539.6-3.15568,5.51524-78.64246,5.04251-88.05337C31.58881,70.31617,34.96238,66.39021,40.07145,65.68192Z"/><path class="j" d="M36.40725,67.20388c-5.62206.094-26.27387,30.65576-25.96748,35.271.17517,2.63757,1.77243,5.76885,4.05784,8.87828,4.67973,6.368,12.24493,12.6419,16.39411,14.38793.754.31711,4.55668-7.78168,3.7131-8.15386-4.754-2.09258-12.47061-9.49637-13.016-15.11235-.2121-2.18373,11.29378-18.0547,13.0118-19.89282C35.71577,81.38957,36.68316,67.19913,36.40725,67.20388Z"/><path class="i" d="M41.72169,124.26947c-.17261-1.28555,1.58092-60.01078.807-59.87406-1.72439.30573-7.30837,3.22338-7.39078,3.24617-.71219.19939-.72064,8.94475,0,9.64259a37.36527,37.36527,0,0,0,4.35521,2.00523c-1.12529.90008-4.45377,1.72705-4.35521,3.48542C35.29146,85.514,37.05677,99.94938,41.72169,124.26947Z"/><path class="i" d="M57.48005,121.84553c.17432-2.93283,1.3635-56.457.20175-57.25452.706.11392,4.7555,2.141,6.67139,3.00405.67212.30192,3.03567,6.9376,2.48452,7.76743-.36734.55352-6.33282-.0171-6.32389,0,.74019,1.41848,3.25091,3.89178,3.83937,4.90958C66.36517,83.75181,57.87976,123.6267,57.48005,121.84553Z"/><path class="i" d="M33.8258,83.51065a273.86673,273.86673,0,0,1,.90036,30.17058q-.06024,1.94543-.13976,3.89844a22.13487,22.13487,0,0,1-4.87931-3.1949c.58676-9.7869,1.12842-19.54722,1.49254-27.39155C32.2519,85.55385,33.17552,84.331,33.8258,83.51065Zm.70458,35.40679q-.01722.4002-.03522.80038c4.67242,17.6132-2.44682,34.37561-1.49491,36.14006.54166,1.004,4.9133,2.08232,8.757,3.17723-.00978,1.6509-.02335,2.596-.0393,2.66661-10.35316-.28151-15.349-1.27928-15.12717-2.44539.26432-1.39,1.36587-16.81443,2.4754-34.44377a16.3126,16.3126,0,0,0,1.8255.92856C31.4687,125.98417,33.83131,121.2977,34.53038,118.91744Z"/><path class="i" d="M31.97941,116.09853c-.10786.27439-.24543.57252-.27278.64468-.31313.82887-.75016,1.74412-1.76265,1.84667-2.22142.226-5.02533-2.26158-6.45567-3.60695a115.51817,115.51817,0,0,1-10.09054-11.54149c-.63537-.77854-1.84411-1.93877-2.87369-1.822a3.33563,3.33563,0,0,0-.08431.85545c.53368,8.03707,14.27636,20.66757,20.452,23.26621.754.31711,4.55668-7.78168,3.7131-8.15386A17.08705,17.08705,0,0,1,31.97941,116.09853Z"/><path class="k" d="M33.51637,118.52152a31.61458,31.61458,0,0,1-4.34153,8.99032c-.48726.507.10928.81937.4882.4244,4.28533-2.53977,7.08326-12.44725,5.21949-15.83583C34.87038,112.10041,34.032,116.91126,33.51637,118.52152Z"/><path class="p" d="M41.72169,124.6597c-.17261-1.28555,2.1862-61.1824,1.4123-61.04568-1.72439.30667-7.30837,3.22338-7.39078,3.24616-.71218.19938-.10074,8.94475.61989,9.6426A36.27429,36.27429,0,0,0,40.09842,78.508c-1.34148,1.46214-3.83387,2.31285-3.73532,4.07123C36.51663,85.31839,38.37793,99.75664,41.72169,124.6597Z"/><path class="p" d="M57.27829,121.84553c.17432-2.93283.96-57.433-.20176-58.23151.70611.11394,4.7555,2.142,6.67139,3.00405.67221.30287,2.4304,6.93856,1.87924,7.76839-.36724.55258-5.72754-.0171-5.71861,0,.74028,1.41752,2.60927,4.36081,3.19774,5.37861C65.11826,83.2448,57.678,123.6267,57.27829,121.84553Z"/><path class="ar" d="M47.85816,61.399a8.17131,8.17131,0,0,0-5.10433,2.62427c-2.45717,2.68029-3.355,6.3689-3.84327,9.87331a1.6143,1.6143,0,0,0,.028.41775c.09647.35511.22844.40352.49315.63613l.40645.14053.42678-.02564a1.4572,1.4572,0,0,0,.65683-.47758,2.63461,2.63461,0,0,0,.2441-.98837,17.38148,17.38148,0,0,1,2.59143-7.17022,6.49505,6.49505,0,0,1,6.92052-2.53029,12.70541,12.70541,0,0,1,8.63636,7.58324A28.919,28.919,0,0,1,61.08244,85.8159a7.66235,7.66235,0,0,1-.31749,1.84858c-.00114.00284.0131-.03038.00759-.01709l-.00161.00379-.08877.40921c.059.338.03218.47852.28236.74722a1.65654,1.65654,0,0,0,.33886.244l.417.09494.41253-.06456a1.42554,1.42554,0,0,0,.61553-.54309,7.80086,7.80086,0,0,0,.53245-2.48279,29.99171,29.99171,0,0,0-2.06818-16.20518,14.7067,14.7067,0,0,0-5.98589-6.72209,12.698,12.698,0,0,0-7.28948-1.73843Z"/><path class="as" d="M39.68987,73.64493c-1.39265.17-2.27782,1.63685-2.64877,2.817a22.89755,22.89755,0,0,0-.58429,8.11494,17.94957,17.94957,0,0,0,.74266,5.72706,2.29663,2.29663,0,0,0,2.32216,1.5552l.36715-.19179.12106-.38738-.19721-.35224-.39715-.11868c-.82811.076-1.23333-.89724-1.35837-1.52672a30.47968,30.47968,0,0,1-.40513-4.10066c-.18505-3.07622-.51774-6.29578.84263-9.13937.04263-.08926.08821-.17661.13729-.263q.04886-.08544.10264-.16805a1.65256,1.65256,0,0,1,1.736-.75481c1.66618.33135,2.5298,2.28437,3.07754,3.91363A38.2923,38.2923,0,0,1,45.104,88.14869a2.12521,2.12521,0,0,1,.00086.395,2.02235,2.02235,0,0,1-1.962,1.88656l-.386.15381-.16254.37218.1576.37124.382.15855a3.14857,3.14857,0,0,0,3.09785-3.362c-.23783-3.99433-.5107-8.10069-2.31352-11.59181a4.7308,4.7308,0,0,0-3.7392-2.90055A3.12147,3.12147,0,0,0,39.68987,73.64493Z"/><path class="ar" d="M39.67772,73.25c-1.709.1956-2.74191,2.028-3.12663,3.59271q-.1021.41586-.17308.83647a20.06013,20.06013,0,0,0-.24676,2.45527l.23261.63707s.58809.29624.61762.29814l.64771-.21933.31493-.602c.13948-1.596.24411-3.32021,1.23182-4.583a1.48306,1.48306,0,0,1,2.02289-.06836c1.28555.90862,1.84563,2.56446,2.323,4.14909l.02174.07311.4302.52979.68256.09114.54194-.40636.10093-.66651c-.69244-2.74771-1.81781-5.935-5.07974-6.12679A2.71759,2.71759,0,0,0,39.67772,73.25Z"/><path class="at" d="M41.93921,89.84156a.64886.64886,0,0,1,1.2977-.00759l.01538,2.2986a.64882.64882,0,0,1-1.29761.0076Z"/><path class="at" d="M38.75077,90.322a.63571.63571,0,0,1,.46-.78329.66057.66057,0,0,1,.79592.46713l.59882,2.23025a.63565.63565,0,0,1-.46.78329.66056.66056,0,0,1-.79592-.46713Z"/><path class="at" d="M60.79267,86.74827a3.238,3.238,0,0,0-2.94775,3.52909,3.29156,3.29156,0,0,0,3.646,2.85309,3.238,3.238,0,0,0,2.94775-3.5291A3.29154,3.29154,0,0,0,60.79267,86.74827Z"/><path class="au" d="M60.92047,87.97209a2.00321,2.00321,0,0,0-1.82294,2.18279,2.03666,2.03666,0,0,0,2.25475,1.765,2.00328,2.00328,0,0,0,1.823-2.18278A2.03614,2.03614,0,0,0,60.92047,87.97209Z"/><path class="av" d="M39.03152,26.13648l26.339,7.54907a1.08022,1.08022,0,0,1,.11763-.22788l-.11763.22788C64.79412,35.199,66.8191,38.766,67.281,39.912c2.132,5.28842,5.21911,10.41638,5.17837,16.24505-.01366,1.95965-2.518,7.56139-5.17837,7.1009-.266-.04556.72556-2.61951.8696-3.36768.305-1.58558-.69757,3.86236-9.11822,3.90318-.52627-.55923,1.4313-2.02612,1.40044-2.44863-.00114-.01518-10.995,3.20628-10.995,3.20628-1.69477-.38926-3.09624-.50794-4.77876-.94469a45.08351,45.08351,0,0,1-4.3461-2.26159c-.08943-.11013.8584,2.09069,0,2.26159-3.673.73012-4.891-3.92882-5.0372-3.71614-.40171.583.652,3.137-.06731,3.36768C31.59279,64.4182,32.92,54.54205,32.96,53.82427c.39041-7.00692-.543-16.80048,2.05479-23.36306C36.02348,27.9129,38.42587,27.35082,39.03152,26.13648Z"/><path class="ae" d="M45.9173,55.60353l7.77113-.5972.958,9.68532c.51717,2.87207-7.237,4.44816-7.77113,1.126Z"/><path class="ak" d="M45.9173,55.60353l7.77113-.5972.66594,8.10258c.51716,2.87113-7.237,3.91933-7.77113.5972Z"/><path class="u" d="M36.11587,48.984c.12342,3.57183,5.14638,13.18118,13.55981,13.35209,10.74585.21837,12.39229-9.485,12.63364-10.94713,1.21349-7.35348,1.84554-16.56406,1.15035-20.74448-.211-1.26752-4.203-4.31713-7.14526-5.16024a30.96079,30.96079,0,0,0-13.1583,0c-2.94233.84311-6.91767,4.22314-7.04024,5.73941-.16825,2.08119.0507,8.43869,0,11.05536-1.501-1.21245-2.6088-1.597-3.71946,0C29.68507,46.17742,35.392,52.05545,36.11587,48.984Z"/><path class="al" d="M47.61026,54.299l.16625.02183.08108-.06172Zm.14754-.31428s.26015.65227.44026,1.1346c.42374,1.13364,1.12063,2.367,2.59161,2.479,1.427.10919,2.309-1.70426,2.21031-3.39521l.15875-.22408.20281.15665c.32129,1.75173-.18116,4.05035-2.21668,4.23169-1.864.16616-3.28661-1.80015-3.58635-3.99433l-.014-.10444c-.03086-.23261.05715.02469.05715.02469l-.02383-.26014C47.65327,53.96764,47.5906,53.95434,47.7578,53.98472Z"/><path class="v" d="M51.1704,43.668c-.59749.03988-.80209,4.07883-1.29524,6.58631-.05981.30383,2.00808.68077,2.1168.03419C52.18773,49.12356,51.26658,44.90136,51.1704,43.668Z"/><ellipse class="aw" cx="44.65909" cy="43.7193" rx="1.48968" ry="1.44031"/><path class="ax" d="M44.41755,37.44535a2.6238,2.6238,0,0,0-2.64535,2.34324c-.01263.20888.03978.414.25844.4339.34636.03227.294-.59151.4451-.99787.52362-1.40613,3.22366-1.75458,3.8671-.1035a2.46492,2.46492,0,0,1,.11279.65988c.04188.3399.66405.4956.56455-.32852A2.52813,2.52813,0,0,0,44.478,37.44535Z"/><ellipse class="aw" cx="56.64112" cy="45.10834" rx="1.48968" ry="1.44031"/><path class="ax" d="M56.99668,38.83439a2.4897,2.4897,0,0,0-2.55448,2.142c-.01282.20129.02221.41682.24059.45.23033.03607.293-.14053.35737-.56873.183-1.21813,1.93944-1.83053,3.12919-1.184a1.91819,1.91819,0,0,1,.95581,1.66249.36039.36039,0,0,0,.18419.2573.28877.28877,0,0,0,.39848-.2668,2.308,2.308,0,0,0-.03209-.40352,2.61064,2.61064,0,0,0-2.61858-2.08878Z"/><path class="p" d="M34.84769,47.70033A1.17225,1.17225,0,1,1,33.63714,48.872,1.19214,1.19214,0,0,1,34.84769,47.70033Z"/><path class="ay" d="M41.52231,31.61005q-.51983-.47142-1.042-1.00737c-.05279-.12913-4.61119,8.90866-4.59362,11.57377.00816,1.23808-2.60557-9.06817,0-13.57141.85165-1.47259,4.86981-4.20415,5.63564-4.75958-.44311-2.27867,3.45893-4.19656,4.5149-1.73368.327.76335-.16178.84974-.69044,1.00925a14.2918,14.2918,0,0,0-2.09666.72443c5.8936-.60194,15.56334.73867,15.58594.74817l.03893.01614a10.06617,10.06617,0,0,0,1.73768-.81273c.32167-.19178,1.06461-.91811,1.51133-.72918.64249.27249.20887,2.03183.04633,2.44578a2.30534,2.30534,0,0,1-.36753.62189c1.7391,1.07763,3.27816,2.36413,3.70807,3.40472A8.75348,8.75348,0,0,1,65.7955,38.71c-.27164.53834-.75206,1.82674-.88223,1.68433-2.85442-3.118-6.23217-3.44271-9.9446-3.76931.26024.08261,1.28071.39211,1.02132.55827a6.42488,6.42488,0,0,1-2.299.57441c-4.02185.70925-7.83332-1.49917-10.58814-4.21079A12.13418,12.13418,0,0,1,41.52231,31.61005Z"/><path class="y" d="M139.94979,229.25964l-1.19915-15.19477-8.48521.6274c-.69311,5.41659.01138,15.55451-.11964,16.54972-.0152.11545-.75006-.85422-1.30644.09665-1.203,2.05774-1.25042,7.66261-1.05389,8.32894.24211.82079,2.65561.43731,6.78286.64325.66082.03294.2402-1.23732.92286-1.21292a26.299,26.299,0,0,0,9.25141,1.83443c5.10328-.37741,7.96017-.32718,8.55357-.63243,4.245-2.1806.51461-6.67262-2.21125-6.64262a19.28446,19.28446,0,0,1-7.9279-1.71347C141.39769,231.181,140.08271,230.93826,139.94979,229.25964Z"/><path class="aa" d="M129.97963,219.08669c-.12342,5.26155.2668,11.3927.16616,12.1553-.0152.11545-.75006-.85422-1.30644.09665a6.18136,6.18136,0,0,0-.58486,1.57039c.19463,2.4454,16.1539.53777,14.90252-.96521-1.75932-.76278-3.0743-1.00556-3.20722-2.68418l-.85545-10.84677Z"/><path class="y" d="M99.84133,232.192l-.16321-15.23835,8.5098-.08545c1.17446,5.33836,1.37859,15.49726,1.59792,16.47785.02563.11375.67126-.91394,1.31023-.0132,1.3824,1.94941,1.93023,7.52922,1.79351,8.2095-.1671.838-2.60623.658-6.6993,1.20874-.65512.08811-.35034-1.21245-1.02731-1.13117a26.20437,26.20437,0,0,1-9.05326,2.60215c-5.11818.05146-7.95912.34056-8.57845.08621-4.42366-1.81706-1.10876-6.60455,1.6096-6.80289a19.20491,19.20491,0,0,0,7.74512-2.37077C98.57049,234.22734,99.85936,233.87538,99.84133,232.192Z"/><path class="aa" d="M99.73936,222.67247l.102,9.51954c.018,1.68337-1.27084,2.03533-2.95535,2.94262-1.19156.64164,15.31525.98448,15.15764.42953a7.66037,7.66037,0,0,0-.94755-2.2313c-.639-.90074-1.2846.12695-1.31023.0132-.16046-.71484-.31142-6.30756-.83742-11.35444Z"/><path class="az" d="M133.6483,127.51058c-.4377-1.98055-34.31987-1.47069-34.35984,2.54072-.14849,14.894-1.0123,81.89773-1.2171,102.4432.03922,2.03657,14.31311.826,14.30172-.48251-.05791-6.73367,1.87421-72.4022,2.666-91.5519l7.44462-.55068c2.38881,19.66363,5.19063,78.60191,6.03754,90.00449.05032.67981,13.2201.63452,13.1413-.844C140.14443,200.84809,137.73472,145.97069,133.6483,127.51058Z"/><path class="ba" d="M129.89229,139.36158l-7.40854.54783c2.38881,19.66391,5.19063,78.60191,6.03754,90.00449.05032.67981,13.2201.63452,13.1413-.844l-.03893-.72462c-3.85285.32481-9.0957.18438-9.127-.244-.80228-10.80006-3.40377-64.827-5.65966-86.61676C126.78854,141.01457,132.94192,139.13657,129.89229,139.36158Zm-26.63457-10.536c-2.266-1.43842-3.94267-1.44031-3.96926,1.22573-.14849,14.894-1.0123,81.89773-1.2171,102.4432.03922,2.03657,14.31311.826,14.30172-.48251-.0019-.17118-.0019-.37664,0-.615-4.22314.56027-10.30074.61287-10.32638-.71512C102.249,210.39516,103.09366,144.81331,103.25772,128.82557Z"/><path class="ad" d="M138.142,114.73861c-.42439.357-6.66131-5.86949-5.60838-3.33446,1.29029-1.48873,5.60838-17.6977,5.60838-17.6977-.99121-2.45811-.56206-13.34828-6.30527-20.03809-5.052-5.88467,3.43794-16.76439,3.43794-16.76439,2.89392,3.80158,11.00315,29.68447,10.687,36.80248C145.63033,101.18714,138.142,114.73861,138.142,114.73861Z"/><path class="ba" d="M134.63763,54.65473c2.89771.31046,11.57,16.24314,15.72379,26.86746,1.43082,2.50369-13.5638,7.65445-14.5816,3.55664-2.02613-8.15481-2.50275-19.14752-3.738-20.46819C130.83794,63.32223,134.34235,54.62245,134.63763,54.65473Z"/><path class="ae" d="M119.8908,64.11027c-2.23879-.29337-11.95448-8.546-10.01571-9.052a48.06561,48.06561,0,0,1,16.453-1.25042C127.78641,53.98632,120.87349,64.11978,119.8908,64.11027Z"/><path class="bb" d="M94.0647,133.42944c.0845,3.5984,46.789,4.10445,46.03794-.9409-.89438-6.00146-.88108-12.86028-1.36625-19.92891-1.82768-26.60066-.82982-56.46554-3.39618-58.47362-.72062-.564-7.1275-.80419-10.76293-.807-.00285,3.57942-1.2077,4.53646-5.09664,8.56782,0,0-5.68624-3.95445-7.6345-7.76078-5.51629.76431-12.87394,1.86-12.8258,2.818C99.37059,63.87671,93.44025,106.8544,94.0647,133.42944Z"/><rect class="ba" x="103.01437" y="72.33562" width="11.54899" height="2.10654"/><path class="bc" d="M126.85121,53.30651c-.81843-.018-1.59413-.02658-2.27393-.02754l-5.09664,8.56782s-5.68624-3.95445-7.6345-7.76078c-.96179.13292-1.97865.27629-3.00215.42725.04177.07216,10.50373,11.55952,10.63665,11.5187C120.14811,65.82308,126.62714,54.73923,126.85121,53.30651Z"/><path class="bc" d="M98.48884,66.032c-1.389,15.77411-4.91273,46.60553-4.42414,67.39748.06114,2.60433,24.53391,3.58891,37.77206,2.02232-.34465-.01994-.638-.02754-.75291-.04842-2.48186-.46618-4.884-1.25707-7.39431-1.60172-7.76173-1.06528-15.85387-3.27844-18.9747-11.10664a49.3358,49.3358,0,0,1-2.37552-25.23441c.04548-.263,1.77642-1.352,2.37552-2.72017C105.90164,92.02973,103.23446,66.42313,98.48884,66.032Z"/><path class="ah" d="M99.77724,111.47821c1.66675-1.78591,6.02377-.79659,5.35915-2.52173-1.15832-3.00311-7.68672.09494-8.74,2.63-1.28991-1.48872-9.60793-20.34761-9.60793-20.34761.99084-2.45811,5.23088-5.67769,10.97486-12.36844,5.05182-5.88373,0-18.73925,0-18.73925C94.87,63.93367,78.65241,84.12083,78.96819,91.23883c.33184,7.4807,11.82035,23.68208,11.82035,23.68208.42383.357,2.42023,2.8265,2.86666,3.15691,2.00077,1.48114,3.632,1.51152,4.10817,1.36435,2.32718-.71873,6.529,2.68219,7.373,1.33683.87634-1.39759-5.02542-3.63639-4.90361-3.72469,1.733-1.25516,5.07261.90958,5.854-.29908,1.41658-2.19036-3.02987-2.85689-5.20886-3.18443.07824-.01426,5.39115.57251,5.20886-1.35013C105.83518,109.56223,100.59243,110.60472,99.77724,111.47821Z"/><path class="ad" d="M78.96819,91.23883c-.33316-2.85783,7.1859-3.9535,7.82032,0,.99084-2.45811,5.23088-5.67769,10.97486-12.36844,5.05182-5.88373,0-18.73925,0-18.73925C94.87,63.93367,78.65241,84.12083,78.96819,91.23883Z"/><path class="az" d="M99.08224,56.904c-2.36508.2535-11.98991,12.17856-18.4865,25.33315-.80058,1.62071,13.91073,9.71,14.98712,7.944,3.78754-6.21128,7.302-14.13821,7.42772-15.69341C103.15053,72.75689,99.37828,56.87169,99.08224,56.904Z"/><path class="ae" d="M113.67952,44.01332l8.15576-.62759,1.00546,10.17618c.54213,3.01735-7.59558,4.67318-8.15575,1.183Z"/><path class="ak" d="M113.67952,44.01332l8.15576-.62759.69879,8.51275c.54213,3.01735-7.59558,4.11776-8.15576.62758Z"/><path class="u" d="M103.11445,35.66388c.12951,3.75317,1.71242,14.49046,7.66641,14.987,3.588.3,13.00363.99121,16.45677,0,3.0876-.88583,6.14009-25.111,4.85168-32.86323-.22123-1.333-4.41018-4.53646-7.49874-5.4223a32.43825,32.43825,0,0,0-13.80971,0c-3.08761.88584-7.25948,4.43772-7.3886,6.0309-.17613,2.18657-.29111,4.8061-.34427,7.5557-1.57532-1.2732-3.46852-2.06314-4.96182-.65037-4.4286,4.19181,1.02455,10.91295,3.22775,10.91295A3.19154,3.19154,0,0,0,103.11445,35.66388Z"/><path class="al" d="M110.51027,38.76478l-.1747.10063-.06361.19653c.21552,3.48543,3.90792,6.14958,6.41826,6.77716a9.15147,9.15147,0,0,0,7.757-1.49632l.04367-.03419.10349-.17944-.04937-.19558-.17755-.09874-.206.04462c-.04177.02658-.0826.05412-.12437.07975a8.76553,8.76553,0,0,1-7.41709.713c-2.65276-.89154-5.06246-2.68694-5.72991-5.35394-.03229-.12817-.07027-.32091-.07027-.32091l-.11108-.1766A1.53391,1.53391,0,0,0,110.51027,38.76478Z"/><path class="v" d="M120.11108,26.92421c.97793.08165,3.28224,7.26992,1.99289,11.01644-.16806.488-3.30407,1.08143-3.46928,0C118.33656,35.99429,119.92878,28.97692,120.11108,26.92421Z"/><path class="w" d="M113.99663,30.31185a1.5142,1.5142,0,1,0,1.5628,1.51341A1.53976,1.53976,0,0,0,113.99663,30.31185Z"/><path class="bd" d="M113.74313,25.2323a2.75614,2.75614,0,0,0-2.77618,2.46192c-.01329.22026.04178.43579.27059.45668.36364.03322.30857-.62188.46713-1.04819.54973-1.47734,3.38383-1.84383,4.05889-.10919a2.58341,2.58341,0,0,1,.11868.69405c.04368.356.69689.5203.59245-.3456a2.65588,2.65588,0,0,0-2.66794-2.10967Z"/><path class="w" d="M126.78285,29.56367a1.51423,1.51423,0,1,0,1.56374,1.51343A1.54018,1.54018,0,0,0,126.78285,29.56367Z"/><path class="bd" d="M127.156,24.48508a2.61367,2.61367,0,0,0-2.68029,2.25114c-.01329.21078.02279.43676.25255.47283.24116.037.30762-.14906.375-.5991.19178-1.27891,2.03466-1.92264,3.28414-1.24283a2.01364,2.01364,0,0,1,1.00261,1.746.38011.38011,0,0,0,.19368.27059.30289.30289,0,0,0,.41777-.2801,2.41448,2.41448,0,0,0-.03323-.42345,2.74083,2.74083,0,0,0-2.74866-2.19512Z"/><path class="be" d="M138.3006,18.59755c.80228-4.40543-6.122-7.38384-7.45032-8.45577,1.06718-1.05484,1.14693-4.69027-.8488-3.41516-.24876.15855-.42156,2.06505-2.76385,1.765-.03228-.0038-14.06891-2.55782-18.03285-.112a3.63217,3.63217,0,0,0,.03227-.92762c-.037-.38073-.16045-1.06907-.544-1.29409-.31427-.18419-.55447.22312-.63138.45a4.22341,4.22341,0,0,0-.08735,1.821l.0019.01518a4.38711,4.38711,0,0,0-2.82365-1.28554c-.40637-.01234-1.31879.018-1.47639.5127-.15572.48992.60764.83172.96558.94944,1.07858.3551,2.24544.34086,3.3506.6105l-.019.00855a9.60273,9.60273,0,0,0-4.82121,3.46643c-2.7345,4.732-1.82227,16.71692,2.17984,20.99892,1.7204,1.841,1.25327-.90766,1.24473-2.2084-.019-2.79993.09589-5.59606.038-8.396-.019-.90388-.07881-1.8068-.11584-2.70972-.00284-.08925-.31332-1.61786-.25825-1.483,6.32522,5.60553,7.66109,5.40045,6.80374-.31048.04558-.08165,21.70532,4.30481,22.56457,2.20558.42155-1.02826-1.79066-2.09543-2.09827-2.20558C133.86193,18.40008,138.162,19.36281,138.3006,18.59755Z"/><path class="bf" d="M190.8997,155.73731c.66177-5.47889-10.46006-7.55913-11.13228,0-1.19534,13.439-3.35818,61.20945-5.00643,79.74732-.038.63328-7.15409,5.3771-5.61693,5.72488,2.93095.66357,15.65259-3.49757,15.57474-4.27156C183.95165,229.30733,188.86692,172.58051,190.8997,155.73731Z"/><path class="bg" d="M190.8997,155.73731c.66177-5.47889-10.46006-7.55913-11.13228,0-.29337,3.29515-.52314,7.409-.80608,12.83311-.21078,4.03249-.451,8.78913-.77095,14.47214-.68454,3.85381,9.82394,4.65277,9.98724.469.55543-6.37611,1.03491-11.63387,1.46975-16.09038C190.10027,162.77575,190.50568,159.00094,190.8997,155.73731Z"/><path class="bf" d="M202.91971,154.49182c-.76336-5.44964-10.96137-12.223-9.77837-4.59134,1.60932,10.37823.66366,72.53855.60955,84.19055.18228.75662-2.77619,4.27574,0,5.2343,4.001,1.38126,14.293.108,15.77317,0,1.59318-.11611-6.67937-3.34632-6.60435-4.35539C203.55963,209.38555,205.29427,171.43348,202.91971,154.49182Z"/><path class="bg" d="M204.1236,175.49313c-.05507-8.63323-10.1344-12.52369-10.06793-.21961.01518,2.86933.02183,5.9087.01993,9.09067.68455,2.40932,10.39265,1.27549,10.03-.5596C204.13214,180.82285,204.13974,178.0648,204.1236,175.49313Z"/><path class="c" d="M205.35123,236.08468c-.732-.3849-4.83458,2.46258-7.43226,2.07644-2.84171-.4226-4.16713-4.04379-4.26588-3.57875-.02183.10321-.61714-.82146-1.18681,0-1.23237,1.77775-1.67482,6.83545-1.54475,7.45031.16046.75728,2.367.57214,6.07837,1.03357.59435.07387.30571-1.10107.91907-1.03357a23.74594,23.74594,0,0,0,8.2241,2.274c4.63521,0,7.21011.23593,7.76839,0,3.98863-1.68556.93995-5.99064-1.52386-6.14559A17.40715,17.40715,0,0,1,205.35123,236.08468Z"/><path class="c" d="M172.77949,236.08468c.732-.3849,4.83459,2.46258,7.43227,2.07644,2.8417-.4226,4.16714-4.04379,4.26587-3.57875.02184.10321.61715-.82146,1.18681,0,1.23334,1.77775,1.67483,6.83545,1.54476,7.45031-.16046.75728-2.367.57214-6.07837,1.03357-.59435.07387-.30573-1.10107-.91907-1.03357a23.74693,23.74693,0,0,1-8.22316,2.274c-4.6352,0-7.211.23593-7.76932,0-3.98864-1.68556-.94-5.99064,1.52385-6.14559A17.407,17.407,0,0,0,172.77949,236.08468Z"/><path class="bh" d="M207.35457,131.68723l-32.65244,2.31286-2.9414,46.25385a116.51223,116.51223,0,0,0,39.30049,0Z"/><path class="bi" d="M196.12166,110.0892c-5.54573-1.23808-20.04949-30.92066-16.26214-31.54159,3.89463-.63994,9.13369-1.184,14.03474-1.48874,4.02945-.25065,7.35157,1.01021,10.83319,1.48874C206.48108,78.78781,198.68706,110.66077,196.12166,110.0892Z"/><path class="bj" d="M197.279,107.24465c-5.54571-.788-20.04947-19.68489-16.26308-20.0808a222.202,222.202,0,0,1,24.5005-1.06719C207.28432,86.16123,199.84445,107.60925,197.279,107.24465Z"/><path class="bk" d="M207.17418,78.04249c4.4491.47663,16.29631,30.78205,15.99724,35.29478-.58581,8.81752-11.589,29.392-15.99724,29.31608-1.64635-.02848-4.57634-7.88041-3.93167-7.87757,3.89464.01709,8.40072-14.97373,9.0283-21.43851.20793-2.13532-5.767-24.48247-7.44747-26.27882C203.73338,85.89159,206.90643,78.01307,207.17418,78.04249Z"/><path class="h" d="M195.32982,172.09183c9.653-.03817,18.24173-.72709,18.17907-2.39527-.0826-2.21677-1.27606-19.61853-2.62332-39.217-1.65488-24.08937-.751-51.13438-3.07526-52.95258-.65228-.5108-3.09046-.72823-6.38219-.73013-.00475,5.45933-3.85191,20.0115-6.40877,33.299,0,0-.6105-1.89035-1.57133-4.751-3.00691-8.9514-9.4432-27.39916-11.34116-27.13617-4.995.69215-8.29342,1.4764-8.24974,2.34324.46238,9.20109-4.34372,86.05935-4.92953,89.14467-.21743,1.1401,12.76341,2.12,22.88642,2.39527.92952-4.10779,1.3881-11.74192,1.634-10.38411C194.237,166.06444,195.14467,171.29505,195.32982,172.09183Z"/><path class="i" d="M175.0895,79.62713a1.19143,1.19143,0,0,1,1.05483.61619c1.39759,2.09543,1.2846,5.34064,1.43652,7.7285.34845,5.48685.29908,10.931.29908,16.42545,0,19.24149-1.09757,38.4849-.66367,57.73789a9.525,9.525,0,0,0,.58771,3.7149c.61429,1.31242,2.35179,2.1449,3.65063,2.66387,3.04582,1.21766,7.61741,1.15453,10.60722,2.34865-.0788.4336-.1614.84671-.24781,1.22925-10.123-.27525-23.10385-1.25517-22.88642-2.39527.58581-3.08532,5.39191-79.94358,4.92953-89.14467C173.841,80.23192,174.27961,79.92431,175.0895,79.62713Z"/><path class="i" d="M197.47842,172.07208a68.3512,68.3512,0,0,0-4.21459-11.40657c-.21649-.38007,1.88084,10.62954,2.066,11.42632Q196.415,172.08756,197.47842,172.07208Z"/><path class="i" d="M194.79623,111.77257a24.98805,24.98805,0,0,0,0-2.96227c-3.84241-10.55122-12.58018-30.96434-13.29512-30.689-.65036.25064-4.46429,1.00071-4.545,1.02255-.69595.19559,2.86923,8.17,3.57372,8.85265.47.45383,3.55.03323,3.54524.05127-.40352,1.50393-3.56423,5.86568-3.54524,5.89037C182.20086,96.07726,190.49238,106.29427,194.79623,111.77257Z"/><path class="i" d="M171.70946,128.705c10.64521,1.66343,24.56885,4.16618,25.06732,4.5621,1.108.87918.29528,22.42727-1.75743,22.347-1.30644.2366-14.39458-.77095-24.8366-2.4321C170.64988,146.13783,171.18917,137.52444,171.70946,128.705Z"/><path class="bl" d="M194.81331,132.10784c-.66555-.77285-36.66386-5.75555-37.25631-4.9884-.18325.23832-1.57608,20.81948-.89343,21.74424.58771.7966,35.47515,5.5031,36.31446,5.46864C194.20093,154.28209,195.5406,132.95285,194.81331,132.10784Z"/><path class="bm" d="M193.87147,132.56357c-.66462-.77285-36.66292-5.75555-37.25537-4.98839-.18419.23831-1.57608,20.81948-.89343,21.74329.58771.79659,36.52714,5.39448,37.25536,4.98849C193.67114,153.92082,194.5997,133.40763,193.87147,132.56357Z"/><path class="bn" d="M189.25716,130.40548c-.45954-.64467-27.32891-2.16189-27.81788-1.41753-.15095.23167-2.32518,18.99655-1.86186,19.777.39972.67315,27.2463,1.84572,27.81787,1.41752C187.93837,149.77516,189.75941,131.11,189.25716,130.40548Z"/><polygon class="bo" points="186.988 131.748 186.981 131.83 186.667 135.771 186.472 138.172 186.284 140.455 186.071 142.954 185.833 145.684 185.561 148.783 185.331 148.989 185.139 148.748 185.386 145.646 185.607 142.915 185.812 140.416 186.005 138.133 186.213 135.733 186.559 131.794 186.566 131.713 186.794 131.519 186.988 131.748"/><polygon class="bo" points="184.103 131.26 184.096 131.341 183.782 135.282 183.587 137.684 183.399 139.967 183.185 142.466 182.948 145.195 182.676 148.294 182.446 148.5 182.254 148.259 182.501 145.158 182.721 142.426 182.926 139.927 183.12 137.645 183.328 135.244 183.673 131.306 183.681 131.224 183.909 131.031 184.103 131.26"/><polygon class="bo" points="181.157 131.194 181.151 131.274 180.837 135.215 180.643 137.617 180.454 139.901 180.241 142.4 180.003 145.129 179.731 148.228 179.502 148.434 179.309 148.192 179.556 145.092 179.776 142.361 179.981 139.861 180.175 137.579 180.383 135.177 180.728 131.239 180.736 131.157 180.965 130.965 181.157 131.194"/><polygon class="bo" points="178.233 130.984 178.226 131.065 177.912 135.007 177.718 137.408 177.53 139.691 177.316 142.19 177.079 144.92 176.806 148.019 176.576 148.225 176.385 147.984 176.631 144.882 176.851 142.151 177.057 139.651 177.25 137.369 177.458 134.969 177.804 131.029 177.811 130.949 178.039 130.755 178.233 130.984"/><polygon class="bo" points="175.275 131.008 175.269 131.089 174.955 135.03 174.76 137.432 174.572 139.716 174.358 142.215 174.121 144.943 173.849 148.042 173.619 148.248 173.426 148.007 173.673 144.906 173.893 142.175 174.098 139.676 174.293 137.393 174.501 134.992 174.846 131.054 174.853 130.972 175.082 130.78 175.275 131.008"/><polygon class="bo" points="165.649 130.622 165.641 130.682 165.248 133.573 165.006 135.335 164.773 137.01 164.511 138.841 164.219 140.843 163.886 143.114 163.645 143.307 163.466 143.055 163.775 140.78 164.048 138.777 164.303 136.943 164.542 135.27 164.797 133.509 165.221 130.623 165.229 130.563 165.469 130.383 165.649 130.622"/><path class="bp" d="M168.301,128.86642c2.76859.08831,6.4268.262,9.55523.44625-.43863,6.12868-1.221,11.60414-1.51151,15.20635-.02184.26964-.75861.42345-1.785.49181a6.78691,6.78691,0,0,0,.15667,1.46405,5.72758,5.72758,0,0,1,2.44578,2.5787,3.11183,3.11183,0,0,0,.694,1.0235c-3.04961-.11678-6.41067-.27628-9.41-.45194.21647-1.32163.49656-3.04962.77285-4.8061a2.97993,2.97993,0,0,1-1.15168-.3C167.50152,144.00157,167.66767,137.52444,168.301,128.86642Z"/><path class="bq" d="M168.23829,153.1794c-1.94733.51878-1.541-1.44743-1.48968-1.7522.394-2.35083,2.37551-14.425,2.18752-14.799l-.0114-.0095c.0038,0,.00761.00285.0114.0095l5.29317,4.18042a8.21733,8.21733,0,0,0-.882,5.47736,5.72759,5.72759,0,0,1,2.44578,2.5787c.788,2.02991,4.53646,2.96987,3.26705,3.74177-1.84573,1.123-2.90437-.66841-3.65822-1.17921-.47189.87159-.356,2.42726-1.46785,2.70972-.89153.22644-1.13934-.20869-1.334-.19483a1.85938,1.85938,0,0,1-1.29029.38415c-.49372-.04168-.51175-.44586-.76525-.48517a1.86873,1.86873,0,0,1-1.21815.101C168.82219,153.7974,168.40918,153.25792,168.23829,153.1794Z"/><path class="j" d="M174.97556,80.07906c-4.44816.47663-10.07933,62.60183-8.27728,64.251.58487.53453,8.207.87444,8.27728,0,1.06909-13.22486,3.588-51.93762,4.22885-53.98939C179.67438,88.83487,175.24426,80.05058,174.97556,80.07906Z"/><path class="l" d="M204.89835,95.11451h.91905a.45954.45954,0,0,1,.45954.45954v8.86688a.45954.45954,0,0,1-.45954.45954h-.91907a.45953.45953,0,0,1-.45953-.45953V95.57405A.45954.45954,0,0,1,204.89835,95.11451Z"/><path class="i" d="M206.64438,98.78223c0-1.09281-6.5208-1.09281-6.5208,0v6.1809a2.01587,2.01587,0,0,0,2.047,1.9815h2.42773a2.01564,2.01564,0,0,0,2.04606-1.9815Z"/><path class="n" d="M206.277,95.38986a.27581.27581,0,0,0-.55162,0v5.05391a.27581.27581,0,0,0,.55162,0Z"/><path class="p" d="M194.57881,110.70444a11.256,11.256,0,0,0,1.13649-2.78377c-3.84147-10.55122-8.71973-31.39918-9.43467-31.12385-.65037.24971-8.32475,1.96916-8.40546,1.992-.69594.19464,2.86924,7.63545,3.57373,8.31811.47.45383,3.55.03322,3.54523.05127-.40352,1.50393-3.56422,5.86473-3.54523,5.89037C183.11992,95.18762,190.275,105.22614,194.57881,110.70444Z"/><path class="p" d="M192.75018,115.01778c2.27012.40162,5.34158-36.99047,5.615-38.57984.69024.11108,3.2414.04652,6.2635.35888.72062.07406,3.0031,9.11091,2.46381,9.92268-.35888.54024-6.58536-.01709-6.57681,0,.72347,1.38619,1.47163,2.54451,2.047,3.53954C204.53,93.66186,193.14134,116.75906,192.75018,115.01778Z"/><path class="q" d="M195.01935,112.82172a2.19721,2.19721,0,1,0,2.26823,2.19606A2.235,2.235,0,0,0,195.01935,112.82172Z"/><path class="q" d="M195.01935,122.12535a2.19768,2.19768,0,1,0,2.26823,2.19607A2.235,2.235,0,0,0,195.01935,122.12535Z"/><path class="ar" d="M194.62912,73.61808a8.17475,8.17475,0,0,1,5.10424,2.62427c2.45717,2.68028,3.35534,6.3689,3.84337,9.8733a1.635,1.635,0,0,1-.02755.4187c-.09684.3551-.22881.40352-.49371.63519l-.40636.14051-.42631-.02563a1.45442,1.45442,0,0,1-.657-.47757,2.64368,2.64368,0,0,1-.244-.98838,17.38126,17.38126,0,0,0-2.592-7.17023,6.49585,6.49585,0,0,0-6.92053-2.53027,12.70554,12.70554,0,0,0-8.63617,7.58324A28.91464,28.91464,0,0,0,181.40522,98.035a7.6392,7.6392,0,0,0,.31712,1.84858c.00095.00284-.0133-.0304-.00759-.0171l.00189.0038.08831.40921c-.05888.338-.0323.47852-.282.74722a1.66407,1.66407,0,0,1-.339.244l-.4168.09493-.413-.06455a1.42861,1.42861,0,0,1-.61525-.54309,7.82177,7.82177,0,0,1-.53263-2.4828,29.98541,29.98541,0,0,1,2.06884-16.20517,14.70686,14.70686,0,0,1,5.98531-6.72209,12.7,12.7,0,0,1,7.28986-1.73844Z"/><path class="as" d="M202.79723,85.86405c1.39283.17,2.27771,1.6378,2.64895,2.817A22.90612,22.90612,0,0,1,206.031,96.796a17.9687,17.9687,0,0,1-.74341,5.72708,2.29836,2.29836,0,0,1-2.3214,1.55614l-.36743-.19274-.12154-.38737.19748-.35225.39687-.11868c.82887.076,1.23334-.89723,1.35867-1.52671a30.5449,30.5449,0,0,0,.4054-4.09972c.18515-3.07716.51746-6.29578-.84311-9.14033-.04272-.08924-.08828-.17659-.13672-.263q-.04985-.08546-.10254-.16806a1.65355,1.65355,0,0,0-1.73653-.7548c-1.66629.33135-2.52933,2.28437-3.07716,3.91361a38.27955,38.27955,0,0,0-1.55615,9.37865,2.158,2.158,0,0,0-.00094.395,2.02249,2.02249,0,0,0,1.96251,1.88655l.38546.15382.16236.37312-.1576.37028-.38168.15857a3.14849,3.14849,0,0,1-3.098-3.362c.2383-3.99432.51079-8.10068,2.3138-11.5918a4.73,4.73,0,0,1,3.73892-2.90057A3.121,3.121,0,0,1,202.79723,85.86405Z"/><path class="ar" d="M202.80957,85.46908c1.709.19558,2.742,2.028,3.12653,3.5927.06835.27725.12532.55638.17375.83646a20.08076,20.08076,0,0,1,.24591,2.45529l-.23262.638s-.58772.29526-.61714.29716l-.64753-.21931-.31522-.602c-.13955-1.596-.244-3.32023-1.23143-4.583a1.48352,1.48352,0,0,0-2.02327-.06837c-1.28555.90863-1.84572,2.56446-2.3233,4.14908l-.02183.07312-.43011.52979-.68264.09114-.54119-.40635-.10159-.66653c.69309-2.7477,1.81818-5.935,5.08049-6.12677A2.71088,2.71088,0,0,1,202.80957,85.46908Z"/><path class="at" d="M200.548,102.06068a.649.649,0,0,0-1.2979-.00761l-.01519,2.29862a.649.649,0,1,0,1.29789.00855Z"/><path class="at" d="M203.73623,102.5411a.63521.63521,0,0,0-.45954-.78329.65994.65994,0,0,0-.79563.46711l-.5991,2.23025a.63524.63524,0,0,0,.45952.78331.66145.66145,0,0,0,.7966-.46713Z"/><path class="at" d="M181.6948,98.96737a3.23846,3.23846,0,0,1,2.948,3.52911,3.2917,3.2917,0,0,1-3.64589,2.85308,3.23781,3.23781,0,0,1-2.948-3.5291A3.2917,3.2917,0,0,1,181.6948,98.96737Z"/><path class="au" d="M181.56663,100.19121a2.00234,2.00234,0,0,1,1.82293,2.18277,2.03576,2.03576,0,0,1-2.254,1.765,2.00234,2.00234,0,0,1-1.82293-2.18278A2.03574,2.03574,0,0,1,181.56663,100.19121Z"/><path class="br" d="M199.28236,44.63145S198.4478,30.93,194.144,27.65153a13.55942,13.55942,0,0,0-12.83178-1.98245c-9.9521,3.67911-16.54221,18.83324-12.54125,28.37709,2.19418,5.23431,9.21724,6.93,14.12113,4.48138C188.51278,55.721,198.59686,50.63385,199.28236,44.63145Z"/><path class="bi" d="M188.9296,68.40561l7.38574-.56872.91052,11.0905c.49182,2.73156-6.87779,3.72848-7.38574.56776Z"/><path class="bs" d="M188.9296,68.40561l7.38574-.56872.55923,6.81133c.49182,2.73252-6.8778,3.72944-7.38576.56778Z"/><path class="bi" d="M178.62714,60.8442c.188,9.63691,7.54715,14.64238,14.76011,14.24457,12.60772-.69595,13.7518-9.183,13.674-11.36014A171.2608,171.2608,0,0,0,204.867,44.65614c-.20033-1.20676-3.99433-4.10827-6.7914-4.91056-3.12653-.89722-19.08009,4.019-19.19593,5.46122-.16045,1.98055-.264,4.35323-.31236,6.84267-1.427-1.15262-3.14173-1.86851-4.49374-.58865-4.01047,3.79589.92761,9.88279,2.92334,9.88279A2.88574,2.88574,0,0,0,178.62714,60.8442Z"/><path class="bt" d="M191.1646,67.09726c.08734.40448,8.23265.226,8.113-.41015a4.07253,4.07253,0,0,1-8.113.41015Z"/><path class="bu" d="M198.52,69.08066a4.15916,4.15916,0,0,1-3.09615,1.58178,3.94477,3.94477,0,0,1-4.25921-3.56518,10.474,10.474,0,0,0,3.39711.206A13.66175,13.66175,0,0,1,198.52,69.08066Z"/><path class="bv" d="M196.05994,59.628c.75671,1.652.85166,1.85807,1.44127,3.14457.21457.469-.28959.98078-.81463,1.05389a.95951.95951,0,0,1-1.089-.78805A8.54516,8.54516,0,0,1,196.05994,59.628Z"/><path class="w" d="M188.48146,55.99728a1.37127,1.37127,0,1,0,1.41656,1.371A1.39443,1.39443,0,0,0,188.48146,55.99728Z"/><path class="bw" d="M188.25264,51.39816a2.49445,2.49445,0,0,0-2.51414,2.2293c-.01235.19939.038.394.245.413.32946.03038.28009-.56207.42346-.94849.4975-1.33777,3.06385-1.67008,3.6753-.09969a2.35643,2.35643,0,0,1,.10729.62853c.03988.32282.63138.47188.53644-.31237a2.40351,2.40351,0,0,0-2.41634-1.91028Z"/><path class="w" d="M200.06092,55.32033a1.37127,1.37127,0,1,0,1.41658,1.371A1.39443,1.39443,0,0,0,200.06092,55.32033Z"/><path class="bw" d="M200.39892,50.72119a2.36731,2.36731,0,0,0-2.42774,2.03847c-.01234.19084.02089.39593.22881.4282.21933.03324.27819-.13482.33991-.54213.17375-1.15833,1.84289-1.74129,2.97367-1.126a1.82465,1.82465,0,0,1,.90862,1.58178.34367.34367,0,0,0,.17469.245.27448.27448,0,0,0,.37883-.25352,2.21815,2.21815,0,0,0-.03038-.38452,2.48184,2.48184,0,0,0-2.4885-1.9872Z"/><path class="bx" d="M182.47715,37.183c.00949.02469,1.31783-1.78876,1.63115-2.24924.79279-1.16782,3.12938-3.775,4.69882-2.76859.34274.22027-1.334,1.96155-1.48874,2.27012a28.09866,28.09866,0,0,1,12.99035-.87823c7.22244,1.4555,11.15411,12.30389,9.05488,13.43943-2.79613,1.51152-7.72471.57916-12.41308-.94945.25825.22123,2.292,2.09733,2.45906,2.30146.64088.78329.72633,1.75553-.55637,1.6283a9.1651,9.1651,0,0,1-3.38-1.20674c-2.90437-1.60552-8.88969-6.96325-9.09667-7.062-.019-.03228-.03893-.06551-.05886-.09969l-.01234.00476-.01424.00473c.04082.04368.0693.07406.08544.0902,2.19987,10.02237-3.23666,11.3592-4.91813,3.963-.05031-.12248-.01709,7.24809,0,8.06651.05221,2.536-3.29268,1.06623-3.81109-1.88084-.76525-4.35513-.46238-9.24669,1.014-11.80164a7.67147,7.67147,0,0,1,2.423-2.048c-1.48968-.24116-3.32306-.64182-2.76765-1.071C179.42372,36.08167,182.47715,37.183,182.47715,37.183Z"/></svg>